<svg xmlns="http://www.w3.org/2000/svg" viewBox="0 0 1407 856.5"><defs><style>.cls-1{fill:#141515;}.cls-2{fill:#0a1423;}.cls-3{fill:#384256;opacity:0.09;}.cls-4{fill:#dbdce0;opacity:0.08;}.cls-11,.cls-18,.cls-5{fill:none;}.cls-10,.cls-5,.cls-8{stroke:#384256;}.cls-10,.cls-11,.cls-18,.cls-5,.cls-8{stroke-linecap:round;stroke-linejoin:round;}.cls-5,.cls-8{stroke-width:3px;}.cls-6{fill:#133329;}.cls-7{fill:#73e53e;opacity:0.35;}.cls-10,.cls-8,.cls-9{fill:#0e1726;}.cls-10{stroke-width:2.844px;}.cls-11{stroke:#fafcff;}.cls-12{fill:#17274f;}.cls-13{font-size:16px;font-family:Arial-BoldMT, Arial;font-weight:700;}.cls-13,.cls-14,.cls-16{fill:#fff;}.cls-14{font-size:14px;font-family:ArialMT, Arial;}.cls-15{fill:#3d86f2;}.cls-17{fill:#8293a8;}.cls-18{stroke:#586272;stroke-width:8px;}</style></defs><g id="bkd"><polygon class="cls-1" points="1376.738 856.5 35.112 856.5 3.5 839.572 3.5 41.5 1402.5 41.5 1402.5 825.031 1404.5 839.5 1376.738 856.5"/><rect class="cls-2" x="3" y="4" width="1399" height="832"/><path class="cls-3" d="M573,292H886.352A29.648,29.648,0,0,1,916,321.648v190.7A29.648,29.648,0,0,1,886.352,542H573a0,0,0,0,1,0,0V292A0,0,0,0,1,573,292Z"/><rect id="area-lobby" class="cls-3" x="685" y="349" width="84" height="139"/></g><g id="Layer_10" data-name="Layer 10"><rect class="cls-4" x="616.5" y="349.5" width="68" height="139"/><rect class="cls-4" x="769.5" y="348.5" width="68" height="139"/></g><g id="highlights"><path class="cls-5" d="M573,292H886.352A29.648,29.648,0,0,1,916,321.648v190.7A29.648,29.648,0,0,1,886.352,542H573a0,0,0,0,1,0,0V292A0,0,0,0,1,573,292Z"/></g><g id="bookings"><g id="car"><rect id="park-406" class="cls-6" x="519.5" y="710.5" width="62" height="126"/><rect id="park-306" class="cls-6" x="4.5" y="517.5" width="126" height="63"/><rect id="park-103" class="cls-6" x="272" y="5.5" width="60" height="123"/><rect id="park-106" class="cls-6" x="456" y="5.5" width="61.5" height="123"/><rect id="park-107" class="cls-6" x="518" y="5.5" width="61.5" height="123"/><rect id="park-108" class="cls-6" x="581" y="5.5" width="61.5" height="123"/><rect id="park-109" class="cls-6" x="642" y="6.5" width="61.5" height="123"/><rect id="park-102" class="cls-6" x="210.5" y="5.5" width="61.5" height="123"/><rect id="park-104" class="cls-6" x="332" y="5.5" width="64" height="123"/><rect id="park-105" class="cls-6" x="396" y="5.5" width="60" height="123"/><rect id="park-100" class="cls-6" x="150.5" y="5.5" width="60" height="123"/><rect id="park-001" class="cls-6" x="373" y="291.5" width="63" height="125.5"/><rect id="park-002" class="cls-6" x="433" y="291.5" width="63" height="125.5"/><rect id="park-003" class="cls-6" x="509" y="291.5" width="63" height="125.5"/><rect id="park-004" class="cls-6" x="509" y="417.5" width="63" height="125.5"/><rect id="park-007" class="cls-6" x="312.5" y="417.5" width="59.5" height="125.5"/><rect id="park-006" class="cls-6" x="374.5" y="417.5" width="59.5" height="125.5"/><rect id="park-005" class="cls-6" x="434.5" y="417.5" width="59.5" height="125.5"/><rect id="park-000" class="cls-6" x="312.5" y="291.5" width="60.5" height="125.5"/><polygon class="cls-7" points="373 417 373 417.5 434.5 417.5 436 417.5 436 417 373 417"/><rect class="cls-7" x="312.5" y="417" width="60.5" height="0.5"/><rect id="park-403" class="cls-6" x="333.5" y="709.5" width="62.5" height="126"/><rect id="park-402" class="cls-6" x="271.5" y="709.5" width="62.5" height="126"/><rect id="park-401" class="cls-6" x="210.5" y="709.5" width="62.5" height="126"/><rect id="park-400" class="cls-6" x="149.5" y="709.5" width="62.5" height="126"/><rect id="park-404" class="cls-6" x="396" y="709.5" width="59.5" height="126"/><rect id="park-416" class="cls-6" x="1137" y="710.5" width="59" height="126"/><rect id="park-417" class="cls-6" x="1196" y="710.5" width="58.5" height="126"/><rect id="park-414" class="cls-6" x="1009.5" y="710.5" width="60.5" height="126"/><rect id="park-415" class="cls-6" x="1070" y="710.5" width="67" height="126"/><rect id="park-502" class="cls-6" x="1278.5" y="521.5" width="122" height="58.5"/><rect id="park-504" class="cls-6" x="1278.5" y="641" width="122" height="58.5"/><rect id="park-503" class="cls-6" x="1278.5" y="580" width="122" height="61"/><rect id="park-304" class="cls-6" x="4.5" y="394" width="126" height="61.5"/><rect id="park-305" class="cls-6" x="4.5" y="455" width="126" height="61.5"/><rect id="park-302" class="cls-6" x="4.5" y="272.5" width="126" height="59.5"/><rect id="park-301" class="cls-6" x="4.5" y="210.5" width="126" height="59.5"/><rect id="park-300" class="cls-6" x="4.5" y="149.5" width="126" height="59.5"/><rect id="park-303" class="cls-6" x="4.5" y="332" width="126" height="62"/><rect id="park-111" class="cls-6" x="764" y="6.5" width="61" height="123"/><rect id="park-114" class="cls-6" x="948" y="6.5" width="61" height="123"/><rect id="park-112" class="cls-6" x="825" y="6.5" width="62" height="123"/><rect id="park-110" class="cls-6" x="704.5" y="6.5" width="59.5" height="123"/><rect id="park-113" class="cls-6" x="887" y="6.5" width="61" height="123"/><rect id="park-115" class="cls-6" x="1009.5" y="6.5" width="61" height="123"/><rect id="park-118" class="cls-6" x="1194.5" y="6.5" width="61" height="123"/><rect id="park-116" class="cls-6" x="1071.5" y="6.5" width="62" height="123"/><rect id="park-117" class="cls-6" x="1133.5" y="6.5" width="61" height="123"/></g><g id="car-7" data-name="car"><rect id="park-413" class="cls-6" x="949.5" y="710.5" width="60" height="123" transform="translate(1959 1544) rotate(180)"/></g><g id="car-8" data-name="car"><rect id="park-407" class="cls-6" x="581.5" y="710.5" width="62" height="123" transform="translate(1225 1544) rotate(180)"/><rect id="park-408" class="cls-6" x="642.5" y="710.5" width="62" height="123" transform="translate(1347 1544) rotate(180)"/><rect id="park-409" class="cls-6" x="703.5" y="710.5" width="62" height="123" transform="translate(1469 1544) rotate(180)"/><rect id="park-410" class="cls-6" x="765.5" y="710.5" width="62" height="123" transform="translate(1593 1544) rotate(180)"/><rect id="park-411" class="cls-6" x="826.5" y="710.5" width="62" height="123" transform="translate(1715 1544) rotate(180)"/><rect id="park-412" class="cls-6" x="887.5" y="710.5" width="62" height="123" transform="translate(1837 1544) rotate(180)"/></g><g id="car-9" data-name="car"><rect id="park-405" class="cls-6" x="455.5" y="710.065" width="64" height="123" transform="translate(975 1543.129) rotate(180)"/></g><g id="car-11" data-name="car"><rect id="park-308" class="cls-6" x="38.827" y="608.391" width="59.782" height="122" transform="translate(-600.673 738.109) rotate(-90)"/><rect id="park-307" class="cls-6" x="38.827" y="549.391" width="59.782" height="122" transform="translate(-541.673 679.109) rotate(-90)"/></g><g id="car-14" data-name="car"><rect id="park-500" class="cls-6" x="1138.5" y="394.5" width="59" height="124"/></g><g id="car-15" data-name="car"><rect id="park-501" class="cls-6" x="1200.5" y="394.5" width="58" height="124"/></g></g><g id="floor-divider"><line class="cls-5" x1="211" y1="5.5" x2="211" y2="127.5"/><line class="cls-5" x1="272" y1="6" x2="272" y2="128"/><line class="cls-5" x1="333" y1="6" x2="333" y2="128"/><line class="cls-5" x1="395" y1="5.5" x2="395" y2="127.5"/><line class="cls-5" x1="456" y1="6" x2="456" y2="128"/><line class="cls-5" x1="517" y1="6" x2="517" y2="128"/><line class="cls-5" x1="581" y1="5.5" x2="581" y2="127.5"/><line class="cls-5" x1="642" y1="6" x2="642" y2="128"/><line class="cls-5" x1="703" y1="6" x2="703" y2="128"/><line class="cls-5" x1="764" y1="5.5" x2="764" y2="127.5"/><line class="cls-5" x1="825" y1="6" x2="825" y2="128"/><line class="cls-5" x1="886" y1="6" x2="886" y2="128"/><line class="cls-5" x1="948" y1="5.5" x2="948" y2="127.5"/><line class="cls-5" x1="1009" y1="6" x2="1009" y2="128"/><line class="cls-5" x1="1070" y1="6" x2="1070" y2="128"/><line class="cls-5" x1="1134" y1="5" x2="1134" y2="127"/><line class="cls-5" x1="1195" y1="5" x2="1195" y2="127"/><line class="cls-5" x1="212" y1="709.5" x2="212" y2="831.5"/><line class="cls-5" x1="273" y1="710" x2="273" y2="832"/><line class="cls-5" x1="334" y1="710" x2="334" y2="832"/><line class="cls-5" x1="396" y1="709.5" x2="396" y2="831.5"/><line class="cls-5" x1="373" y1="293" x2="373" y2="544"/><line class="cls-5" x1="435" y1="292.5" x2="435" y2="543.5"/><line class="cls-5" x1="457" y1="710" x2="457" y2="832"/><line class="cls-5" x1="518" y1="710" x2="518" y2="832"/><line class="cls-5" x1="582" y1="709.5" x2="582" y2="831.5"/><line class="cls-5" x1="643" y1="710" x2="643" y2="832"/><line class="cls-5" x1="130.75" y1="210.25" x2="8.75" y2="210.25"/><line class="cls-5" x1="130.25" y1="271.25" x2="8.25" y2="271.25"/><line class="cls-5" x1="130.25" y1="332.25" x2="8.25" y2="332.25"/><line class="cls-5" x1="130.75" y1="394.25" x2="8.75" y2="394.25"/><line class="cls-5" x1="130.25" y1="455.25" x2="8.25" y2="455.25"/><line class="cls-5" x1="130.25" y1="516.25" x2="8.25" y2="516.25"/><line class="cls-5" x1="130.75" y1="580.25" x2="8.75" y2="580.25"/><line class="cls-5" x1="130.25" y1="641.25" x2="8.25" y2="641.25"/><line class="cls-5" x1="1400.75" y1="580.25" x2="1278.75" y2="580.25"/><line class="cls-5" x1="1397" y1="520" x2="1279" y2="520"/><line class="cls-5" x1="1400.25" y1="641.25" x2="1278.25" y2="641.25"/><line class="cls-5" x1="704" y1="710" x2="704" y2="832"/><line class="cls-5" x1="765" y1="709.5" x2="765" y2="831.5"/><line class="cls-5" x1="826" y1="710" x2="826" y2="832"/><line class="cls-5" x1="887" y1="710" x2="887" y2="832"/><line class="cls-5" x1="949" y1="709.5" x2="949" y2="831.5"/><line class="cls-5" x1="1010" y1="710" x2="1010" y2="832"/><line class="cls-5" x1="1071" y1="710" x2="1071" y2="832"/><line class="cls-5" x1="1135" y1="709" x2="1135" y2="831"/><line class="cls-5" x1="1196" y1="709" x2="1196" y2="831"/><line class="cls-5" x1="313" y1="418" x2="493" y2="418"/><line class="cls-5" x1="512" y1="418" x2="573" y2="418"/><path class="cls-8" d="M313,542V293c-26,4-25,22-25,22V518.484S289,533,313,542Z"/><rect class="cls-8" x="493" y="292" width="19" height="250"/><polyline class="cls-5" points="707 349 616 349 616 488 705 488"/><polyline class="cls-5" points="734 349 836 349 836 488 734 488"/><line class="cls-5" x1="685.204" y1="349" x2="685.204" y2="372"/><line class="cls-5" x1="771" y1="349" x2="771" y2="372"/><line class="cls-5" x1="685" y1="464" x2="685" y2="488"/><line class="cls-5" x1="771" y1="464" x2="771" y2="488"/><path class="cls-9" d="M1070.188,292A38.188,38.188,0,0,0,1032,330.188V414.5h37.5v-100h271v48h-221v132h-85.332a38.2,38.2,0,0,0,36.02,25.5h39.832a26.959,26.959,0,0,0,26.959-26.959V393H1260l-.334,99.951A26.958,26.958,0,0,0,1286.624,520H1403V292Z"/><path id="area-stairs" class="cls-4" d="M1069.5,314.5v100H1032v67.312a38.107,38.107,0,0,0,2.168,12.688H1119.5v-132h225v-48Z"/><path class="cls-5" d="M1032,481.812A38.188,38.188,0,0,0,1070.188,520h39.832a26.959,26.959,0,0,0,26.959-26.959V393H1260l-.334,99.951A26.958,26.958,0,0,0,1286.624,520H1403V292H1070.188A38.188,38.188,0,0,0,1032,330.188V451.356"/><line class="cls-5" x1="1199" y1="520" x2="1199" y2="393"/><line class="cls-5" x1="1260" y1="520" x2="1260" y2="393"/><line class="cls-5" x1="1137" y1="517" x2="1137" y2="485.757"/><line class="cls-5" x1="1257" y1="128" x2="1257" y2="6"/><path class="cls-8" d="M8,149H137.967A12.033,12.033,0,0,0,150,136.967V6H8Z"/><path class="cls-10" d="M1400,132.5H1270.033c-6.646,0-12.033-4.841-12.033-10.813V4h142Z"/><path class="cls-8" d="M151,836V718.6A17.6,17.6,0,0,0,133.4,701H8V835.5H151"/><path class="cls-8" d="M1403,701H1272.481A16.481,16.481,0,0,0,1256,717.481V836h147Z"/><line class="cls-5" x1="1256" y1="836" x2="1401" y2="836"/><polyline class="cls-5" points="1033.669 493 1118 493 1118 360 1340 360 1340 339.432 1340 316 1071 316 1071 414 1033 414"/></g><g id="turns"><line class="cls-11" x1="1262" y1="182" x2="1227" y2="182"/><polyline class="cls-11" points="1234 174 1226 182 1234 190"/><line class="cls-11" x1="1227.5" y1="237.5" x2="1262.5" y2="237.5"/><polyline class="cls-11" points="1255.5 229.5 1263.5 237.5 1255.5 245.5"/><polyline class="cls-11" points="984.5 307.5 991.5 315.5 984.5 323.5"/><path class="cls-11" d="M973.5,331.5s-4-20,17-16"/><polyline class="cls-11" points="971.348 606.348 963.348 599.348 955.348 606.348"/><path class="cls-11" d="M947.348,617.348s20,4,16-17"/><polyline class="cls-11" points="216.965 205.943 224.965 212.943 232.965 205.943"/><path class="cls-11" d="M240.965,194.943s-20-4-16,17"/><polyline class="cls-11" points="228.117 619.791 235.117 611.791 228.117 603.791"/><path class="cls-11" d="M217.117,595.791s-4,20,17,16"/><polyline class="cls-11" points="962.196 307.5 955.196 315.5 962.196 323.5"/><path class="cls-11" d="M973.118,323.951c-1.082-5.18-4.917-10.738-16.922-8.451"/></g><g id="signage"><rect class="cls-12" x="163.5" y="396.5" width="46" height="46" rx="8.243"/><text class="cls-13" transform="translate(176.546 425.026)">P3</text><rect class="cls-12" x="695.5" y="154.5" width="46" height="46" rx="8.243"/><text class="cls-13" transform="translate(710.546 183.026)">P1</text><rect class="cls-12" x="1204.5" y="581.5" width="46" height="46" rx="8.243"/><text class="cls-13" transform="translate(1218.546 610.026)">P5</text><rect class="cls-12" x="661.5" y="637.5" width="46" height="46" rx="8.243"/><text class="cls-13" transform="translate(675.546 666.026)">P4</text><text class="cls-14" transform="translate(709.341 422.356)">Lobby</text><text class="cls-14" transform="translate(1002.52 469.356)">Stairs</text><text class="cls-14" transform="translate(1297.075 185.356)">Entry</text><text class="cls-14" transform="translate(1298.744 243.356)">Exit</text><rect id="area-entry" class="cls-4" x="1331.5" y="132.5" width="36" height="29.25" rx="4.292"/><rect class="cls-5" x="1348" y="161.75" width="2.558" height="43.75"/><rect id="area-exit" class="cls-4" x="1331.5" y="260.25" width="36" height="29.25" rx="4.292"/><rect class="cls-5" x="1348" y="220.5" width="2.558" height="39.75"/><rect class="cls-15" x="420" y="556" width="46" height="46" rx="8.243"/><path class="cls-16" d="M443.184,571.371a2.516,2.516,0,1,0-2.516-2.516A2.515,2.515,0,0,0,443.184,571.371Z"/><path class="cls-16" d="M451.991,580.178v-2.517a7.06,7.06,0,0,1-5.121-2.3l-1.622-1.8a2.435,2.435,0,0,0-.768-.566c-.013,0-.013-.013-.025-.013h-.013a2.517,2.517,0,0,0-1.5-.327,2.566,2.566,0,0,0-2.277,2.605v7.435a2.524,2.524,0,0,0,2.516,2.516h6.291v6.29h2.516v-6.919a2.524,2.524,0,0,0-2.516-2.516H445.7v-4.341A10.738,10.738,0,0,0,451.991,580.178Zm-11.323,8.806a3.776,3.776,0,0,1-1.258-7.335v-2.6a6.291,6.291,0,1,0,7.423,7.423h-2.605A3.778,3.778,0,0,1,440.668,588.984Z"/><path class="cls-15" d="M556.072,577.964h-82.01v2h82.01v3l3.99-4-3.99-4Z"/><path class="cls-15" d="M330.052,579.964h82.01v-2h-82.01v-3l-3.99,4,3.99,4Z"/><rect class="cls-15" x="420" y="233" width="46" height="46" rx="8.243"/><path class="cls-16" d="M443.184,248.371a2.516,2.516,0,1,0-2.516-2.516A2.515,2.515,0,0,0,443.184,248.371Z"/><path class="cls-16" d="M451.991,257.178v-2.517a7.06,7.06,0,0,1-5.121-2.3l-1.622-1.8a2.435,2.435,0,0,0-.768-.566c-.013,0-.013-.013-.025-.013h-.013a2.517,2.517,0,0,0-1.5-.327,2.566,2.566,0,0,0-2.277,2.6v7.435a2.524,2.524,0,0,0,2.516,2.516h6.291v6.29h2.516v-6.919a2.524,2.524,0,0,0-2.516-2.516H445.7v-4.341A10.738,10.738,0,0,0,451.991,257.178Zm-11.323,8.806a3.776,3.776,0,0,1-1.258-7.335v-2.6a6.291,6.291,0,1,0,7.423,7.423h-2.605A3.778,3.778,0,0,1,440.668,265.984Z"/><path class="cls-15" d="M556.072,254.964h-82.01v2h82.01v3l3.99-4-3.99-4Z"/><path class="cls-15" d="M330.052,256.964h82.01v-2h-82.01v-3l-3.99,4,3.99,4Z"/><path class="cls-17" d="M666.846,399.486H634.168a4.682,4.682,0,0,0-4.668,4.668v32.678a4.682,4.682,0,0,0,4.668,4.668h32.678a4.682,4.682,0,0,0,4.668-4.668V404.154A4.682,4.682,0,0,0,666.846,399.486Zm-24.508,7a2.918,2.918,0,1,1-2.918,2.918A2.919,2.919,0,0,1,642.338,406.488Zm5.835,18.673h-2.334V434.5h-7v-9.337H636.5v-5.835a4.682,4.682,0,0,1,4.669-4.668h2.334a4.682,4.682,0,0,1,4.668,4.668Zm10.5,7-5.835-9.337h11.671Zm-5.835-14,5.835-9.337,5.836,9.337Z"/><path class="cls-17" d="M818.338,399.486H785.661a4.682,4.682,0,0,0-4.669,4.668v32.678a4.682,4.682,0,0,0,4.669,4.668h32.677a4.682,4.682,0,0,0,4.668-4.668V404.154A4.682,4.682,0,0,0,818.338,399.486Zm-24.508,7a2.918,2.918,0,1,1-2.918,2.918A2.919,2.919,0,0,1,793.83,406.488Zm5.835,18.673h-2.334V434.5h-7v-9.337H788v-5.835a4.681,4.681,0,0,1,4.668-4.668H795a4.681,4.681,0,0,1,4.668,4.668Zm10.5,7-5.836-9.337H816Zm-5.836-14,5.836-9.337L816,418.159Z"/><path class="cls-17" d="M1091.847,430.5h-32.57a4.667,4.667,0,0,0-4.653,4.653v32.57a4.667,4.667,0,0,0,4.653,4.653h32.57a4.667,4.667,0,0,0,4.653-4.653v-32.57A4.667,4.667,0,0,0,1091.847,430.5Zm-2.326,11.632h-5.63v7.747h-6v7.747h-6V465.4H1061.6v-4.653h5.63V453h6v-7.771h6v-7.747h10.283Z"/></g><g id="outline"><polyline class="cls-18" points="1403 288.493 1403 836 4 836 4 4 1403 4 1403 127"/></g></svg>