<?xml version="1.0" encoding="utf-8"?>
<!-- Generator: Adobe Illustrator 20.0.0, SVG Export Plug-In . SVG Version: 6.00 Build 0)  -->
<svg version="1.1" id="Layer_1" xmlns="http://www.w3.org/2000/svg" xmlns:xlink="http://www.w3.org/1999/xlink" x="0px" y="0px"
	 viewBox="0 0 768 683.9" style="enable-background:new 0 0 768 683.9;" xml:space="preserve">
<style type="text/css">
	.st0{fill:none;stroke:#5D5E5E;stroke-width:20;stroke-miterlimit:10;}
	.st1{fill:none;stroke:#5E6060;stroke-width:29;stroke-miterlimit:10;}
</style>
<g>
	<g>
		<path class="st1" d="M214.6,499.8c0,4.6,4.5,9.2,9.1,9.2l375.5,1.4c4.6,0,9.2-4.5,9.2-9.1l-35.5-302.3c0-4.6-4.5-9.2-9.1-9.2
			l-283.8-14.8c-4.6,0-9.2,4.5-9.2,9.1"/>
		<path class="st1" d="M214.6,499.8c0,4.6,4.5,9.2,9.1,9.2l375.5,1.4c4.6,0,9.2-4.5,9.2-9.1l-35.5-302.3c0-4.6-4.5-9.2-9.1-9.2
			l-283.8-14.8c-4.6,0-9.2,4.5-9.2,9.1l-51,275.8L214.6,499.8z"/>
	</g>
	<polyline class="st1" points="209.9,508.9 298.8,452.1 335,252.6 502.2,258.2 521.6,446 603.7,510.4 	"/>
</g>
</svg>
