<svg id="Layer_1" data-name="Layer 1" xmlns="http://www.w3.org/2000/svg" viewBox="0 0 768 683.88"><title>Mail Area</title><path d="M622.51,147.74H127.89a46.56,46.56,0,0,0-46.51,46.5V508.15a46.57,46.57,0,0,0,46.51,46.51H622.51A46.56,46.56,0,0,0,669,508.15V194.24A46.57,46.57,0,0,0,622.51,147.74Zm-251,269.95a19.44,19.44,0,0,1-1.8,1.59,11.53,11.53,0,0,1-1.4-1.2L149.88,187.38h446Zm-104.5-49L121,494.1V214.54Zm27.29,28.81,45.61,48.18c9,9,19.38,13.53,29.76,13.53s20.89-4.57,30-13.74L453,390.8,594.29,515H157.5Zm335.11,95.53L480.71,362.37,629.39,209.78Z" style="fill:#5e5f5f"/></svg>