<?xml version="1.0" encoding="utf-8"?>
<!-- Generator: Adobe Illustrator 20.0.0, SVG Export Plug-In . SVG Version: 6.00 Build 0)  -->
<svg version="1.1" id="Layer_1" xmlns="http://www.w3.org/2000/svg" xmlns:xlink="http://www.w3.org/1999/xlink" x="0px" y="0px"
	 viewBox="0 0 768 683.9" style="enable-background:new 0 0 768 683.9;" xml:space="preserve">
<style type="text/css">
	.st0{fill:#5E5F5F;stroke:#5E5F5F;stroke-width:5;stroke-miterlimit:10;}
</style>
<title>Restrooms</title>
<g id="male_restroom-rm-20-26">
	<path class="st0" d="M227.9,164.3c32.3,0,58.6-26.2,58.6-58.6c0-32.3-26.2-58.6-58.6-58.6s-58.6,26.2-58.6,58.6
		C169.5,138,195.6,164.1,227.9,164.3z M227.9,66c22.7,0,39.7,18.9,39.7,39.7c0,22.7-18.9,39.7-39.7,39.7
		c-22.7,0-39.7-18.9-39.7-39.7C186.3,83.1,205.2,66.1,227.9,66z"/>
	<path class="st0" d="M116.4,388.3L116.4,388.3c1.9,17,15.1,28.3,32.1,28.3c5.7,0,9.4-1.9,13.2-3.8v181.4
		c0.1,20.8,17,37.7,37.8,37.8c11.3,0,20.8-5.7,28.3-13.2c7.6,7.6,17,13.2,28.3,13.2c20.8-0.1,37.7-16.9,37.8-37.8V412.9
		c4.7,2.4,9.9,3.7,15.1,3.8c17,0,30.2-11.3,32.1-26.5V269.3c0-62.3-56.7-94.5-111.5-94.5c-52.9,0-111.5,28.3-111.5,94.5L116.4,388.3
		L116.4,388.3z M227.9,193.7c45.3,0,92.6,24.6,92.6,75.6v119l0,0c0,5.7-5.7,11.3-13.2,11.3S294,394,294,388.3v-119
		c0-5.7-3.8-9.5-9.5-9.5s-9.5,3.8-9.5,9.5v324.9c0,10.4-8.5,18.9-18.9,18.9c-10.4,0-18.9-8.5-18.9-18.9l0,0v-204
		c0-5.7-3.8-9.5-9.4-9.5s-9.4,3.8-9.4,9.5v204l0,0c0,10.4-8.5,18.9-18.9,18.9s-18.9-8.5-18.9-18.9V269.3c0-5.7-3.8-9.5-9.4-9.5
		s-9.4,3.8-9.4,9.5v117.1c0,5.7-5.7,11.3-13.2,11.3s-13.2-5.7-13.2-11.3v-119C133.4,218.3,182.5,193.7,227.9,193.7z"/>
</g>
<g id="feamle-rm-21-21.07">
	<path class="st0" d="M550.7,166.5c31.7,0,57.5-25.7,57.5-57.5s-25.7-57.5-57.5-57.5c-31.7,0-57.4,25.7-57.5,57.4
		C491.3,140.7,517,166.5,550.7,166.5z M550.7,69.4c21.8,0,41.6,17.8,41.6,41.6s-17.8,41.6-41.6,41.6c-21.8,0-41.6-17.8-41.6-41.6
		S526.9,69.4,550.7,69.4z"/>
	<path class="st0" d="M439.8,390.4c5.9,2,9.9,2,15.9,0c-7.9,27.7-13.9,57.5-21.8,85.2c-2,5.9-2,11.9,2,15.9c2,2,5.9,2,7.9,2h47.5
		v93.1c0,15.8,2,33.7,15.9,41.6s33.7,5.9,43.6-5.9c13.9,15.8,41.6,13.9,53.5-2c5.9-9.9,5.9-23.8,5.9-35.7v-87.2h47.5
		c4,0,7.9,0,9.9-2c4-4,2-9.9,2-13.9c-7.9-29.7-15.8-57.5-21.8-87.2c17.8,4,39.6-9.9,39.6-29.7c0-7.9-2-15.9-4-23.8
		c-11.9-35.7-21.8-71.3-33.7-105c-5.9-19.8-13.9-41.6-31.7-51.5c-11.9-5.9-23.8-5.9-37.7-5.9h-43.6c-17.8,0-35.7,0-49.5,9.9
		s-19.8,27.7-25.8,45.6c-9.9,33.7-25.8,67.4-35.7,101c-4,11.9-5.9,25.8-2,39.6C425.9,380.5,433.8,386.4,439.8,390.4z M436,358.7
		c-0.1-7.3,2-15,4.2-22.1l4.9-15.5l4.9-15.5l4.9-15.5l4.9-15.5l4.9-15.5l4.9-15.5l4.9-15.5l2.5-7.7c0.8-2.4,1.4-4.9,2.4-7.2
		c0.5-1.3,1.3-2.4,2.2-3.4c1.2-1.4,2.3-2.8,3.5-4.2c2.7-2.8,5.9-5,9.5-6.4c3.8-1.5,7.8-2.7,11.8-3.3c1.9-0.4,3.9-0.6,5.8-0.9
		c21-2.5,42.1-3,63.2-1.7c11.8,0.7,24.2,2.3,33.8,9.1c12.7,8.9,18.1,24.7,22.8,39.4l32.4,102.1c1.8,5.6,3.6,11.4,3.2,17.2
		s-3.4,12-8.8,14.2c-6.3,2.6-13.9-0.8-18.2-6.2s-5.9-12.3-7.5-19l-16.6-70.5c-0.8-3.6-1.7-7.2-4-10.1s-6.3-4.6-9.7-3.2
		c-5.3,2.4-4.8,10-3.3,15.6l50.1,197.5l-45,0.1c-2.6,0-5.3,0-7.6,1.4c-4.4,2.6-4.9,8.6-4.9,13.7l-0.1,88.2c0,8.2-0.1,16.8-4.2,23.9
		s-13.4,12-20.7,8.1c-7.6-4-8.7-14.4-8.7-23l-0.3-96.1c0-4.1-0.1-8.4-2.2-11.9s-7.1-5.6-10.4-3.2c-2.9,2.1-3.2,6.2-3.2,9.8l0.5,89.3
		c0.1,13.1-1,28.5-11.9,35.8c-2,1.5-4.5,2.2-7,2c-4.3-0.6-7-5-8.5-9.1c-4.6-12.4-4.6-25.9-4.6-39.1v-82.1c0-3.1-0.2-6.7-2.8-8.5
		c-1.7-1.2-3.9-1.2-5.9-1.2h-46.7l51.5-201.2c0.7-2.6,1.3-5.6,0-8c-2-3.8-7.9-3.9-11.3-1.2s-4.9,7-6.1,11.1
		c-6.5,20.9-11.7,42.2-15.5,63.8c-2.2,12.6-5,26.8-15.8,33.6c-3.3,2-7.3,3.2-11,2.2c-3-0.9-5.5-2.8-7.3-5.4
		C437.4,368.5,435.9,363.6,436,358.7z"/>
</g>
</svg>
