<?xml version="1.0" encoding="utf-8"?>
<!-- Generator: Adobe Illustrator 20.0.0, SVG Export Plug-In . SVG Version: 6.00 Build 0)  -->
<svg version="1.1" id="Layer_1" xmlns="http://www.w3.org/2000/svg" xmlns:xlink="http://www.w3.org/1999/xlink" x="0px" y="0px"
	 viewBox="0 0 768 683.9" style="enable-background:new 0 0 768 683.9;" xml:space="preserve">
<style type="text/css">
	.st0{fill:#FFFFFF;}
	.st1{fill:none;stroke:#5E6060;stroke-width:29;stroke-miterlimit:10;}
	.st2{fill:#FFFFFF;stroke:#5E6060;stroke-width:29;stroke-miterlimit:10;}
	.st3{fill:#FFFFFF;stroke:#5E6060;stroke-width:11;stroke-miterlimit:10;}
</style>
<g id="table_132_">
	<path class="st2" d="M371.4,491.9c-23.9,3.7-48.7,16.9-72.8,15.3c-33.5-2.5-58.9-32.1-91.3-38.6c-29.6-5.3-58.4,8-87.8,8
		c-44.1,0.7-85.6-32.2-94.2-74.6c-8.6-42.4,20-90.4,63.7-99.1c41-8.5,86.1,13.5,124.1-4.3c17-8.8,29.6-24.1,45.2-34.1
		c18.2-10.2,40.9-12.5,59.9-4c15,7.3,27.6,20.1,43.9,26.1c35.3,11.8,72.7-18,110.3-14.3c39,4.9,68.8,45,107.6,45.9
		c20.1,0.4,38.3-9.7,56.9-13.3c37.1-7,76.7,11.2,95.5,43.8c16,28.7,15,66.1-2.5,93.6c-18.7,30.2-50.3,39.7-83.8,37.2
		c-28.1-1.4-56.4-6.8-82.7,2.4c-25,9.1-44.1,28.7-69.1,37.9c-18.4,6.2-39.9,4.5-57.7-5.4c-12.3-6.1-23.5-16.3-37-21
		C391.4,489.6,382,490.1,371.4,491.9z"/>
	
		<rect x="376.5" y="113.8" transform="matrix(7.987458e-03 -1 1 7.987458e-03 -7.3973 770.1404)" class="st3" width="16" height="550"/>
</g>
</svg>
