<svg id="Layer_1" data-name="Layer 1" xmlns="http://www.w3.org/2000/svg" viewBox="0 0 768 683.88"><title>Tennis</title><path d="M339.67,329.85c47.87,47.87,55.71,116.14,18.83,153.8S252.57,511.9,204.7,464,149,347.9,185.87,310.24,291.81,282,339.67,329.85Z" style="fill:none;stroke:#5d5e5e;stroke-miterlimit:10;stroke-width:25px"/><line x1="358.5" y1="482.87" x2="392.25" y2="517.4" style="fill:none;stroke:#5d5e5e;stroke-miterlimit:10;stroke-width:25px"/><path d="M467.58,592.73h0a17.53,17.53,0,0,1-25.11,0l-50.22-51a17.53,17.53,0,0,1,0-25.11h0a17.53,17.53,0,0,1,25.11,0l50.22,51C474.64,574.68,474.64,586.45,467.58,592.73Z" style="fill:none;stroke:#5d5e5e;stroke-miterlimit:10;stroke-width:25px"/><path d="M509.17,252.17c19.62,20.4,19.62,52.57,0,72.19s-52.57,20.4-72.19,0-19.62-52.57,0-72.19S488.76,232.55,509.17,252.17Z" style="fill:none;stroke:#5d5e5e;stroke-miterlimit:10;stroke-width:25px"/></svg>