<svg xmlns="http://www.w3.org/2000/svg" width="22.106" height="15.251" viewBox="0 0 22.106 15.251">
  <path id="Desk_Name" d="M21.809,82.031l-4.434-4.292a.85.85,0,0,0-.6-.239H5.246a.878.878,0,0,0-.6.239L.22,82.031a.838.838,0,0,0-.194.924.854.854,0,0,0,.791.526H2.293V91.9A.853.853,0,0,0,4,91.9V83.485H5.224v3.444a.853.853,0,0,0,1.706,0V83.485h8.178v3.444a.853.853,0,0,0,1.706,0V83.485h1.224V91.9a.853.853,0,0,0,1.706,0V83.485h1.476a.858.858,0,0,0,.791-.526A.874.874,0,0,0,21.809,82.031ZM5.595,79.193H16.434l2.683,2.6H2.912Z" transform="translate(0.038 -77.5)" fill="#000"/>
</svg>
