<svg xmlns="http://www.w3.org/2000/svg" width="52" height="52" viewBox="0 0 52 52">
  <g id="location" transform="translate(-36 -403)">
    <path id="Path_19989" data-name="Path 19989" d="M26,0A26,26,0,1,1,0,26,26,26,0,0,1,26,0Z" transform="translate(36 403)" fill="#eee"/>
    <path id="Icon_ionic-md-pin" data-name="Icon ionic-md-pin" d="M15.224,2.25a8.415,8.415,0,0,0-8.474,8.3c0,6.228,8.474,15.422,8.474,15.422S23.7,16.782,23.7,10.554A8.415,8.415,0,0,0,15.224,2.25Zm0,11.27a2.966,2.966,0,1,1,3.026-2.966A2.968,2.968,0,0,1,15.224,13.52Z" transform="translate(47.801 415.274)" fill="#596c80"/>
  </g>
</svg>
