<svg xmlns="http://www.w3.org/2000/svg" width="35.917" height="35.917" viewBox="0 0 35.917 35.917">
  <g id="people-info" transform="translate(-21.204 -76.618)">
    <g id="locate_us-prime1" data-name="locate us-prime1" transform="translate(21.204 76.618)">
      <path id="Path_18969" data-name="Path 18969" d="M1424.482,73.6a17.958,17.958,0,1,1-17.958-17.958A17.958,17.958,0,0,1,1424.482,73.6Z" transform="translate(-1388.565 -55.642)" fill="#efefef"/>
    </g>
    <path id="Icon_ionic-md-people" data-name="Icon ionic-md-people" d="M17.347,13.806a2.966,2.966,0,1,0-3.019-2.965A3,3,0,0,0,17.347,13.806Zm-8.052,0A2.966,2.966,0,1,0,6.276,10.84,3,3,0,0,0,9.3,13.806Zm0,2.175c-2.365,0-7.045,1.137-7.045,3.46v2.669H16.484V19.44C16.484,17.117,11.66,15.981,9.3,15.981Zm8.052.544a5.371,5.371,0,0,0-.863.049,2.947,2.947,0,0,1,1.582,2.867v2.669h6.326V19.44C24.392,17.117,19.712,16.524,17.347,16.524Z" transform="translate(25.612 78.592)" fill="#596c80"/>
  </g>
</svg>
