<?xml version="1.0" encoding="UTF-8" standalone="no"?>
<!DOCTYPE svg PUBLIC "-//W3C//DTD SVG 1.1//EN" "http://www.w3.org/Graphics/SVG/1.1/DTD/svg11.dtd">
<svg width="100%" height="100%" viewBox="0 0 31 31" version="1.1" xmlns="http://www.w3.org/2000/svg" xmlns:xlink="http://www.w3.org/1999/xlink" xml:space="preserve" xmlns:serif="http://www.serif.com/" style="fill-rule:evenodd;clip-rule:evenodd;stroke-linejoin:round;stroke-miterlimit:2;">
    <g id="book-unselected" transform="matrix(1,0,0,1,-170,-981.533)">
        <g transform="matrix(1,0,0,1,167.625,979.158)">
            <path d="M17.736,2.375L17.733,2.375C9.307,2.375 2.374,9.308 2.374,17.734C2.374,26.16 9.307,33.093 17.733,33.093C26.159,33.093 33.092,26.16 33.092,17.734C33.092,17.733 33.092,17.732 33.092,17.731C33.092,9.307 26.16,2.375 17.736,2.375ZM17.733,4.375L17.736,4.375C25.063,4.375 31.092,10.404 31.092,17.731L31.092,17.734C31.092,25.063 25.062,31.093 17.733,31.093C10.404,31.093 4.374,25.063 4.374,17.734C4.374,10.405 10.404,4.375 17.733,4.375Z" style="fill:rgb(106,122,137);"/>
        </g>
        <g id="Group_5688">
            <path id="Path_20026" d="M185.359,988.527L185.359,1004.68" style="fill:none;fill-rule:nonzero;"/>
            <path d="M184.359,988.527L184.359,1004.68C184.359,1005.23 184.807,1005.68 185.359,1005.68C185.911,1005.68 186.359,1005.23 186.359,1004.68L186.359,988.527C186.359,987.975 185.911,987.527 185.359,987.527C184.807,987.527 184.359,987.975 184.359,988.527Z" style="fill:rgb(106,122,137);"/>
            <g id="Path_20027" transform="matrix(-3.82857e-16,1,-1,-3.82857e-16,1181.96,811.245)">
                <path d="M185.359,988.527L185.359,1004.68" style="fill:none;fill-rule:nonzero;"/>
            </g>
            <g transform="matrix(-3.82857e-16,1,-1,-3.82857e-16,1181.96,811.245)">
                <path d="M184.359,988.527L184.359,1004.68C184.359,1005.23 184.807,1005.68 185.359,1005.68C185.911,1005.68 186.359,1005.23 186.359,1004.68L186.359,988.527C186.359,987.975 185.911,987.527 185.359,987.527C184.807,987.527 184.359,987.975 184.359,988.527Z" style="fill:rgb(106,122,137);"/>
            </g>
        </g>
    </g>
</svg>
