<svg xmlns="http://www.w3.org/2000/svg" width="23.068" height="26.364" viewBox="0 0 23.068 26.364">
  <path id="Icon_awesome-calendar-day" data-name="Icon awesome-calendar-day" d="M0,23.892a2.472,2.472,0,0,0,2.472,2.472H20.6a2.472,2.472,0,0,0,2.472-2.472V9.886H0Zm3.3-9.886a.826.826,0,0,1,.824-.824H9.063a.826.826,0,0,1,.824.824v4.943a.826.826,0,0,1-.824.824H4.119a.826.826,0,0,1-.824-.824ZM20.6,3.3H18.125V.824A.826.826,0,0,0,17.3,0H15.654a.826.826,0,0,0-.824.824V3.3H8.239V.824A.826.826,0,0,0,7.415,0H5.767a.826.826,0,0,0-.824.824V3.3H2.472A2.472,2.472,0,0,0,0,5.767V8.239H23.068V5.767A2.472,2.472,0,0,0,20.6,3.3Z" fill="#fff"/>
</svg>
