<svg width="114" height="109" viewBox="0 0 114 109" fill="none" xmlns="http://www.w3.org/2000/svg">
<path fill-rule="evenodd" clip-rule="evenodd" d="M58.7391 7.17721C75.3293 5.74117 86.3579 22.8336 96.375 36.1424C105.905 48.8038 117.09 63.2885 112.356 78.4144C107.819 92.9149 90.0134 96.233 75.8531 101.725C63.7491 106.42 51.2114 111.685 39.1847 106.795C26.3146 101.563 15.9664 90.1682 13.6982 76.4559C11.5536 63.4905 21.308 53.0366 28.4702 42.0203C37.2935 28.4489 42.6175 8.5727 58.7391 7.17721Z" fill="#E2EAF0"/>
<path d="M108.075 50.2378H96.8159C96.1169 50.2378 95.5502 50.8044 95.5502 51.5034L95.5502 62.7629C95.5502 63.4619 96.1169 64.0285 96.8159 64.0285H108.075C108.774 64.0285 109.341 63.4619 109.341 62.7629V51.5034C109.341 50.8044 108.774 50.2378 108.075 50.2378Z" fill="#A3B5D6"/>
<path d="M17.7952 29.8718H8.9983C8.29932 29.8718 7.73268 30.4384 7.73268 31.1374L7.73267 40.1805C7.73267 40.8795 8.29931 41.4462 8.99829 41.4462H17.7952C18.4942 41.4462 19.0608 40.8795 19.0608 40.1805V31.1374C19.0608 30.4384 18.4942 29.8718 17.7952 29.8718Z" fill="#D2DEFC"/>
<path d="M22.4249 45.2632H18.5533C17.8543 45.2632 17.2877 45.8299 17.2877 46.5289L17.2877 50.4005C17.2877 51.0995 17.8543 51.6661 18.5533 51.6661H22.4249C23.1239 51.6661 23.6905 51.0995 23.6905 50.4005V46.5289C23.6905 45.8299 23.1239 45.2632 22.4249 45.2632Z" fill="#A3B5D6"/>
<path d="M109.479 40.1656H106.839C106.14 40.1656 105.573 40.7322 105.573 41.4312L105.573 44.0715C105.573 44.7705 106.14 45.3371 106.839 45.3371H109.479C110.178 45.3371 110.745 44.7705 110.745 44.0715V41.4312C110.745 40.7322 110.178 40.1656 109.479 40.1656Z" fill="#DCE2FA"/>
<path d="M98.348 9.92442H96.6928C95.9938 9.92442 95.4272 10.4911 95.4272 11.19L95.4272 12.8453C95.4272 13.5443 95.9938 14.1109 96.6928 14.1109H98.348C99.047 14.1109 99.6136 13.5443 99.6136 12.8453V11.19C99.6136 10.4911 99.047 9.92442 98.348 9.92442Z" fill="#DBE3E9"/>
<path fill-rule="evenodd" clip-rule="evenodd" d="M24.9685 81.5092C23.7002 81.5092 22.6624 80.4709 22.6624 79.2019V32.1142H101.454V79.2019C101.454 80.4709 100.417 81.5092 99.1484 81.5092H24.9685Z" fill="white"/>
<path fill-rule="evenodd" clip-rule="evenodd" d="M101.454 32.5739H22.6624V20.9169C22.6624 19.6439 23.6939 18.612 24.9662 18.612H99.1507C100.423 18.612 101.454 19.6439 101.454 20.9169V32.5739Z" fill="#8AA0C9"/>
<path fill-rule="evenodd" clip-rule="evenodd" d="M76.6621 48.9139C76.6621 51.6582 74.4384 53.8829 71.6954 53.8829C68.9524 53.8829 66.7288 51.6582 66.7288 48.9139C66.7288 46.1695 68.9524 43.9448 71.6954 43.9448C74.4384 43.9448 76.6621 46.1695 76.6621 48.9139Z" fill="white"/>
<path fill-rule="evenodd" clip-rule="evenodd" d="M35.0815 26.6077C33.8883 26.6077 32.912 25.631 32.912 24.4372V14.1219C32.912 12.9282 33.8883 11.9514 35.0815 11.9514C36.2747 11.9514 37.251 12.9282 37.251 14.1219V24.4372C37.251 25.631 36.2747 26.6077 35.0815 26.6077Z" fill="#A3B5D6"/>
<path fill-rule="evenodd" clip-rule="evenodd" d="M88.9471 26.6077C87.7539 26.6077 86.7776 25.631 86.7776 24.4372V14.1219C86.7776 12.9282 87.7539 11.9514 88.9471 11.9514C90.1403 11.9514 91.1166 12.9282 91.1166 14.1219V24.4372C91.1166 25.631 90.1403 26.6077 88.9471 26.6077Z" fill="#A3B5D6"/>
<path fill-rule="evenodd" clip-rule="evenodd" d="M72.4539 64.3393L71.7632 65.0299C71.1911 65.6021 70.2634 65.6021 69.6912 65.0299L54.4961 49.8348C53.9238 49.2627 53.9238 48.335 54.4961 47.7627L55.1867 47.072C55.7589 46.4999 56.6866 46.4999 57.2588 47.072L72.4539 62.2672C73.0262 62.8394 73.0262 63.7671 72.4539 64.3393Z" fill="#8AA0C9"/>
<path fill-rule="evenodd" clip-rule="evenodd" d="M54.4959 64.3393L55.1866 65.0299C55.7588 65.6021 56.6865 65.6021 57.2587 65.0299L72.4538 49.8348C73.026 49.2627 73.026 48.335 72.4538 47.7627L71.7632 47.072C71.1909 46.4999 70.2632 46.4999 69.6911 47.072L54.4959 62.2672C53.9237 62.8394 53.9237 63.7671 54.4959 64.3393Z" fill="#8AA0C9"/>
</svg>
