<svg xmlns="http://www.w3.org/2000/svg" width="52" height="52" viewBox="0 0 52 52">
  <g id="time" transform="translate(-35 -279)">
    <path id="Path_19988" data-name="Path 19988" d="M26,0A26,26,0,1,1,0,26,26,26,0,0,1,26,0Z" transform="translate(35 279)" fill="#eee"/>
    <path id="Icon_ionic-ios-time" data-name="Icon ionic-ios-time" d="M15.285,3.375A11.91,11.91,0,1,0,27.2,15.285,11.908,11.908,0,0,0,15.285,3.375Zm.8,12.941a.8.8,0,0,1-.8.8h-5.5a.8.8,0,0,1,0-1.6h4.7V7.956a.8.8,0,1,1,1.6,0Z" transform="translate(46.45 289.5)" fill="#596c80"/>
  </g>
</svg>
