<svg xmlns="http://www.w3.org/2000/svg" width="9.429" height="10.899" viewBox="0 0 9.429 10.899">
  <path id="delete_booking" data-name="delete booking" d="M11.2.875a.51.51,0,0,0-.509.51V1.9H7.757a.257.257,0,0,0,0,.513h.475l.324,8.438a.955.955,0,0,0,.957.921h5.4a.955.955,0,0,0,.957-.921L16.2,2.415h.475a.257.257,0,0,0,0-.513H13.743V1.385a.51.51,0,0,0-.509-.51Zm0,.513H13.23V1.9H11.2Zm-.808,3.1h0a.256.256,0,0,1,.256.252l.081,4.186a.256.256,0,0,1-.251.261h0a.257.257,0,0,1-.256-.252L10.14,4.75A.257.257,0,0,1,10.391,4.489Zm1.823,0a.257.257,0,0,1,.256.257V8.931a.256.256,0,1,1-.513,0V4.745A.257.257,0,0,1,12.215,4.489Zm1.823,0a.257.257,0,0,1,.251.262l-.081,4.186a.257.257,0,0,1-.256.252h0a.256.256,0,0,1-.251-.261l.08-4.186A.257.257,0,0,1,14.038,4.489Z" transform="translate(-7.5 -0.875)" fill="#4d4f5c"/>
</svg>
