<?xml version="1.0" encoding="UTF-8" standalone="no"?>
<svg
   xmlns:dc="http://purl.org/dc/elements/1.1/"
   xmlns:cc="http://creativecommons.org/ns#"
   xmlns:rdf="http://www.w3.org/1999/02/22-rdf-syntax-ns#"
   xmlns:svg="http://www.w3.org/2000/svg"
   xmlns="http://www.w3.org/2000/svg"
   xmlns:sodipodi="http://sodipodi.sourceforge.net/DTD/sodipodi-0.dtd"
   xmlns:inkscape="http://www.inkscape.org/namespaces/inkscape"
   inkscape:version="1.0beta2 (2b71d25, 2019-12-03)"
   sodipodi:docname="cisco-logo-inverse.svg"
   width="300"
   height="159.06393"
   viewBox="0 0 300 159.06394"
   id="svg53702"
   version="1.1">
  <sodipodi:namedview
     inkscape:current-layer="layer1"
     inkscape:window-maximized="0"
     inkscape:window-y="23"
     inkscape:window-x="0"
     inkscape:cy="79.531967"
     inkscape:cx="104.43481"
     inkscape:zoom="4.2247163"
     showgrid="false"
     id="namedview16"
     inkscape:window-height="1418"
     inkscape:window-width="2373"
     inkscape:pageshadow="2"
     inkscape:pageopacity="0"
     guidetolerance="10"
     gridtolerance="10"
     objecttolerance="10"
     borderopacity="1"
     inkscape:document-rotation="0"
     bordercolor="#666666"
     pagecolor="#ffffff" />
  <defs
     id="defs53704" />
  <metadata
     id="metadata53707">
    <rdf:RDF>
      <cc:Work
         rdf:about="">
        <dc:format>image/svg+xml</dc:format>
        <dc:type
           rdf:resource="http://purl.org/dc/dcmitype/StillImage" />
        <dc:title></dc:title>
      </cc:Work>
    </rdf:RDF>
  </metadata>
  <g
     id="layer1"
     transform="translate(-446.85715,-442.59426)">
    <path
       id="path53690"
       style="fill:#ffffff;fill-opacity:1;fill-rule:nonzero;stroke:none;stroke-width:1.37963"
       d="m 745.85714,492.3076 c 0,-3.5691 -2.90274,-6.46219 -6.46632,-6.46219 -3.57324,0 -6.47599,2.89309 -6.47599,6.46219 v 13.59349 c 0,3.58842 2.90275,6.48288 6.47599,6.48288 3.56358,0 6.46632,-2.89446 6.46632,-6.48288 z m -35.57651,-17.84137 c 0,-3.56772 -2.89446,-6.46632 -6.54772,-6.46632 -3.57324,0 -6.4677,2.8986 -6.4677,6.46632 v 31.43486 c 0,3.58842 2.89446,6.48288 6.4677,6.48288 3.65326,0 6.54772,-2.89446 6.54772,-6.48288 z M 674.631,450.05782 c 0,-3.5691 -2.89446,-6.46356 -6.46632,-6.46356 -3.57324,0 -6.4677,2.89446 -6.4677,6.46356 v 68.76074 c 0,3.5898 2.89446,6.48288 6.4677,6.48288 3.57186,0 6.46632,-2.89308 6.46632,-6.48288 z m -35.6579,24.40841 c 0,-3.56772 -2.89309,-6.46632 -6.46633,-6.46632 -3.56496,0 -6.4677,2.8986 -6.4677,6.46632 v 31.43486 c 0,3.58842 2.90274,6.48288 6.4677,6.48288 3.57324,0 6.46633,-2.89446 6.46633,-6.48288 z m -35.64963,17.84137 c 0,-3.5691 -2.89309,-6.46219 -6.44563,-6.46219 -3.57324,0 -6.48702,2.89309 -6.48702,6.46219 v 13.59349 c 0,3.58842 2.91378,6.48288 6.48702,6.48288 3.55254,0 6.44563,-2.89446 6.44563,-6.48288 z m -35.59169,-17.84137 c 0,-3.56772 -2.91515,-6.46632 -6.48702,-6.46632 -3.57324,0 -6.48839,2.8986 -6.48839,6.46632 v 31.43486 c 0,3.58842 2.91515,6.48288 6.48839,6.48288 3.57187,0 6.48702,-2.89446 6.48702,-6.48288 z m -35.63307,-24.40841 c 0,-3.5691 -2.91516,-6.46356 -6.4884,-6.46356 -3.57186,0 -6.48702,2.89446 -6.48702,6.46356 v 68.76074 c 0,3.5898 2.91516,6.48288 6.48702,6.48288 3.57324,0 6.4884,-2.89308 6.4884,-6.48288 z m -35.63445,24.40841 c 0,-3.56772 -2.91378,-6.46632 -6.48702,-6.46632 -3.57324,0 -6.48702,2.8986 -6.48702,6.46632 v 31.43486 c 0,3.58842 2.91378,6.48288 6.48702,6.48288 3.57324,0 6.48702,-2.89446 6.48702,-6.48288 z m -35.63308,17.84137 c 0,-3.5691 -2.91377,-6.46219 -6.48702,-6.46219 -3.5691,0 -6.48701,2.89309 -6.48701,6.46219 v 13.59349 c 0,3.58842 2.91791,6.48288 6.48701,6.48288 3.57325,0 6.48702,-2.89446 6.48702,-6.48288 z m 133.92893,56.36477 c -0.38906,-0.10623 -6.37527,-1.65004 -12.73674,-1.65004 -12.04417,0 -19.2955,6.50357 -19.2955,16.18857 0,8.57302 6.06623,12.84849 13.34653,15.14834 0.80709,0.26627 1.99633,0.63877 2.78823,0.9009 3.24075,1.01954 5.82756,2.53437 5.82756,5.15843 0,2.93447 -2.98966,4.83422 -9.48909,4.83422 -5.71167,0 -11.18742,-1.63348 -12.34079,-1.92458 v 11.91586 c 0.64291,0.13658 7.15062,1.41412 14.10257,1.41412 9.99956,0 21.43807,-4.36929 21.43807,-17.37643 0,-6.30905 -3.86296,-12.11729 -12.34355,-14.81309 l -3.60497,-1.14785 c -2.15084,-0.67878 -5.99035,-1.77834 -5.99035,-4.9308 0,-2.49023 2.8448,-4.24374 8.08325,-4.24374 4.51967,0 10.02025,1.51898 10.21478,1.57968 z m 110.42693,25.16858 c 0,7.53416 -5.77099,13.62936 -13.51485,13.62936 -7.75214,0 -13.50796,-6.0952 -13.50796,-13.62936 0,-7.51898 5.75582,-13.61694 13.50796,-13.61694 7.74386,0 13.51485,6.09796 13.51485,13.61694 m -13.51485,-26.80206 c -15.92645,0 -27.3484,12.01243 -27.3484,26.80206 0,14.81308 11.42195,26.81724 27.3484,26.81724 15.92506,0 27.36357,-12.00416 27.36357,-26.81724 0,-14.78963 -11.43851,-26.80206 -27.36357,-26.80206 m -177.49625,1.8556 c -1.22787,-0.36422 -5.76685,-1.8556 -11.91448,-1.8556 -15.90161,0 -27.57466,11.33779 -27.57466,26.80206 0,16.68386 12.88574,26.81724 27.57466,26.81724 5.83583,0 10.29066,-1.38239 11.91448,-1.84318 v -13.89977 c -0.56151,0.31179 -4.83284,2.74822 -10.97771,2.74822 -8.70546,0 -14.32056,-6.12694 -14.32056,-13.82251 0,-7.93011 5.85791,-13.81147 14.32056,-13.81147 6.24972,0 10.45207,2.49023 10.97771,2.76478 z m 136.39018,0 c -1.23752,-0.36422 -5.78064,-1.8556 -11.90758,-1.8556 -15.92506,0 -27.59811,11.33779 -27.59811,26.80206 0,16.68386 12.90092,26.81724 27.59811,26.81724 5.8041,0 10.26582,-1.38239 11.90758,-1.84318 v -13.89977 c -0.57392,0.31179 -4.85077,2.74822 -10.99426,2.74822 -8.69857,0 -14.30814,-6.12694 -14.30814,-13.82251 0,-7.93011 5.86066,-13.81147 14.30814,-13.81147 6.24834,0 10.46035,2.49023 10.99426,2.76478 z M 545.20519,599.7366 h -13.06785 v -51.78026 h 13.06785 z"
       inkscape:connector-curvature="0" />
  </g>
</svg>
