<svg xmlns="http://www.w3.org/2000/svg" width="35.917" height="35.917" viewBox="0 0 35.917 35.917">
  <g id="level-pin" transform="translate(-52.204 -407.618)">
    <g id="locate_us-prime1" data-name="locate us-prime1" transform="translate(52.204 407.618)">
      <path id="Path_18969" data-name="Path 18969" d="M1424.482,73.6a17.958,17.958,0,1,1-17.958-17.958A17.958,17.958,0,0,1,1424.482,73.6Z" transform="translate(-1388.565 -55.642)" fill="#efefef"/>
    </g>
    <path id="Icon_ionic-md-pin" data-name="Icon ionic-md-pin" d="M14.467,2.25A7.664,7.664,0,0,0,6.75,9.813c0,5.672,7.717,14.045,7.717,14.045s7.717-8.373,7.717-14.045A7.664,7.664,0,0,0,14.467,2.25Zm0,10.264a2.7,2.7,0,1,1,2.756-2.7A2.7,2.7,0,0,1,14.467,12.514Z" transform="translate(55.8 413.391)" fill="#596c80"/>
  </g>
</svg>
