<svg xmlns="http://www.w3.org/2000/svg" width="52" height="52" viewBox="0 0 52 52">
  <g id="today" transform="translate(-35 -161)">
    <path id="Path_19987" data-name="Path 19987" d="M26,0A26,26,0,1,1,0,26,26,26,0,0,1,26,0Z" transform="translate(35 161)" fill="#eee"/>
    <path id="Icon_awesome-calendar-alt" data-name="Icon awesome-calendar-alt" d="M0,20.347a2.105,2.105,0,0,0,2.1,2.1H17.54a2.105,2.105,0,0,0,2.1-2.1V8.419H0Zm14.032-8.595a.528.528,0,0,1,.526-.526h1.754a.528.528,0,0,1,.526.526v1.754a.528.528,0,0,1-.526.526H14.558a.528.528,0,0,1-.526-.526Zm0,5.613a.528.528,0,0,1,.526-.526h1.754a.528.528,0,0,1,.526.526v1.754a.528.528,0,0,1-.526.526H14.558a.528.528,0,0,1-.526-.526ZM8.419,11.752a.528.528,0,0,1,.526-.526H10.7a.528.528,0,0,1,.526.526v1.754a.528.528,0,0,1-.526.526H8.946a.528.528,0,0,1-.526-.526Zm0,5.613a.528.528,0,0,1,.526-.526H10.7a.528.528,0,0,1,.526.526v1.754a.528.528,0,0,1-.526.526H8.946a.528.528,0,0,1-.526-.526ZM2.806,11.752a.528.528,0,0,1,.526-.526H5.087a.528.528,0,0,1,.526.526v1.754a.528.528,0,0,1-.526.526H3.333a.528.528,0,0,1-.526-.526Zm0,5.613a.528.528,0,0,1,.526-.526H5.087a.528.528,0,0,1,.526.526v1.754a.528.528,0,0,1-.526.526H3.333a.528.528,0,0,1-.526-.526ZM17.54,2.806h-2.1V.7a.7.7,0,0,0-.7-.7h-1.4a.7.7,0,0,0-.7.7v2.1H7.016V.7a.7.7,0,0,0-.7-.7h-1.4a.7.7,0,0,0-.7.7v2.1H2.1A2.105,2.105,0,0,0,0,4.911v2.1H19.645v-2.1A2.105,2.105,0,0,0,17.54,2.806Z" transform="translate(51 175.5)" fill="#596c80"/>
  </g>
</svg>
