<svg width="384" height="321" viewBox="0 0 384 321" fill="none" xmlns="http://www.w3.org/2000/svg">
<path fill-rule="evenodd" clip-rule="evenodd" d="M172.044 123.97C200.07 114.083 231.528 98.997 256.353 115.293C281.938 132.087 283.362 167.239 284.486 197.778C285.61 228.292 286.79 263.467 262.494 282.048C238.948 300.056 206.741 286.402 177.963 279.245C152.248 272.85 124.275 267.232 110.974 244.367C97.1753 220.645 99.7621 190.635 112.18 166.154C123.785 143.275 147.813 132.518 172.044 123.97Z" fill="#ECFDF5"/>
<ellipse rx="33.9152" ry="5.51228" transform="matrix(1 0 0 -1 201.732 238.22)" fill="#E0EFE3"/>
<path opacity="0.163388" fill-rule="evenodd" clip-rule="evenodd" d="M260.363 214.073H246.543C244.811 214.073 243.394 212.658 243.394 210.928V197.125C243.394 195.396 244.811 193.98 246.543 193.98H260.363C262.095 193.98 263.512 195.396 263.512 197.125V210.928C263.512 212.658 262.095 214.073 260.363 214.073Z" fill="#3AA537"/>
<path fill-rule="evenodd" clip-rule="evenodd" d="M135.616 202.121H129.485C128.712 202.121 128.08 201.448 128.08 200.626V194.024C128.08 193.202 128.712 192.529 129.485 192.529H135.616C136.389 192.529 137.021 193.202 137.021 194.024V200.626C137.021 201.448 136.389 202.121 135.616 202.121Z" fill="#9FC69E"/>
<path fill-rule="evenodd" clip-rule="evenodd" d="M260.449 240.117C259.676 240.117 259.044 239.491 259.044 238.725V232.58C259.044 231.814 259.676 231.188 260.449 231.188H266.58C267.353 231.188 267.985 231.814 267.985 232.58V238.725C267.985 239.491 267.353 240.117 266.58 240.117H260.449Z" fill="#9FC69E"/>
<path opacity="0.49707" fill-rule="evenodd" clip-rule="evenodd" d="M124.293 173.237C122.224 173.237 120.531 171.547 120.531 169.481V152.993C120.531 150.927 122.224 149.236 124.293 149.236H140.807C142.877 149.236 144.57 150.927 144.57 152.993V169.481C144.57 171.547 142.877 173.237 140.807 173.237H124.293Z" fill="#3AA537"/>
<path fill-rule="evenodd" clip-rule="evenodd" d="M249.117 240.712C249.62 241.005 249.62 241.73 249.117 242.022L247.251 243.108C247.19 243.143 247.146 243.203 247.131 243.273L246.674 245.38C246.551 245.948 245.86 246.172 245.426 245.785L243.815 244.348C243.762 244.301 243.692 244.278 243.621 244.285L241.472 244.503C240.893 244.561 240.466 243.974 240.701 243.442L241.571 241.469C241.6 241.404 241.6 241.33 241.571 241.265L240.701 239.292C240.466 238.76 240.893 238.173 241.472 238.232L243.621 238.449C243.692 238.456 243.762 238.433 243.815 238.386L245.426 236.949C245.86 236.562 246.551 236.786 246.674 237.354L247.131 239.462C247.146 239.531 247.19 239.591 247.251 239.627L249.117 240.712ZM248.863 241.586C249.03 241.488 249.03 241.246 248.863 241.149L246.996 240.064C246.812 239.956 246.681 239.777 246.636 239.569L246.179 237.461C246.138 237.272 245.908 237.197 245.763 237.326L244.152 238.763C243.993 238.905 243.782 238.973 243.57 238.952L241.421 238.735C241.228 238.715 241.086 238.911 241.164 239.088L242.035 241.061C242.121 241.256 242.121 241.478 242.035 241.673L241.164 243.646C241.086 243.824 241.228 244.019 241.421 244L243.57 243.782C243.782 243.761 243.993 243.83 244.152 243.971L245.763 245.408C245.908 245.537 246.138 245.463 246.179 245.273L246.636 243.166C246.681 242.958 246.812 242.778 246.996 242.671L248.863 241.586Z" fill="#292F5B" fill-opacity="0.51"/>
<path opacity="0.796364" fill-rule="evenodd" clip-rule="evenodd" d="M290.241 125.364C289.682 125.529 289.154 125.031 289.286 124.465L290.368 119.835C290.384 119.766 290.37 119.693 290.33 119.635L287.638 115.713C287.309 115.234 287.62 114.578 288.2 114.529L292.944 114.126C293.015 114.12 293.08 114.084 293.124 114.028L296.027 110.26C296.382 109.799 297.103 109.892 297.329 110.428L299.179 114.808C299.207 114.873 299.261 114.924 299.328 114.948L303.814 116.54C304.363 116.735 304.497 117.448 304.057 117.828L300.456 120.939C300.402 120.985 300.37 121.052 300.368 121.123L300.238 125.875C300.222 126.456 299.584 126.804 299.086 126.504L295.01 124.046C294.949 124.009 294.876 123.999 294.808 124.02L290.241 125.364ZM289.779 124.579C289.735 124.768 289.911 124.934 290.097 124.879L294.665 123.535C294.869 123.474 295.09 123.503 295.272 123.613L299.348 126.071C299.514 126.171 299.727 126.055 299.732 125.861L299.862 121.109C299.868 120.896 299.963 120.696 300.125 120.556L303.725 117.446C303.872 117.319 303.827 117.081 303.645 117.017L299.158 115.424C298.957 115.353 298.795 115.201 298.713 115.004L296.862 110.624C296.787 110.446 296.547 110.415 296.428 110.568L293.525 114.336C293.395 114.505 293.2 114.611 292.987 114.629L288.243 115.033C288.05 115.049 287.946 115.268 288.056 115.428L290.748 119.349C290.868 119.524 290.91 119.742 290.861 119.95L289.779 124.579Z" fill="#292F5B" fill-opacity="0.51"/>
<path opacity="0.73011" fill-rule="evenodd" clip-rule="evenodd" d="M128.459 112.022C128.321 112.586 127.624 112.792 127.201 112.394L124.709 110.049C124.657 110 124.587 109.975 124.516 109.981L121.101 110.235C120.521 110.278 120.11 109.68 120.358 109.154L121.822 106.063C121.852 105.999 121.854 105.925 121.827 105.86L120.53 102.695C120.31 102.158 120.752 101.582 121.33 101.656L124.726 102.091C124.797 102.1 124.868 102.079 124.922 102.033L127.535 99.8233C127.979 99.4478 128.664 99.6902 128.772 100.261L129.408 103.621C129.421 103.69 129.463 103.751 129.523 103.789L132.436 105.587C132.931 105.893 132.911 106.618 132.401 106.897L129.397 108.539C129.335 108.573 129.29 108.632 129.273 108.701L128.459 112.022ZM127.548 112.026C127.689 112.158 127.922 112.09 127.968 111.902L128.781 108.581C128.832 108.374 128.967 108.198 129.154 108.096L132.158 106.454C132.328 106.361 132.334 106.119 132.169 106.017L129.257 104.219C129.076 104.107 128.95 103.924 128.91 103.715L128.275 100.355C128.239 100.165 128.01 100.084 127.862 100.209L125.249 102.419C125.086 102.556 124.873 102.619 124.662 102.592L121.265 102.158C121.073 102.133 120.925 102.325 120.999 102.504L122.296 105.668C122.377 105.865 122.371 106.087 122.28 106.279L120.816 109.37C120.733 109.545 120.87 109.745 121.064 109.73L124.479 109.476C124.691 109.461 124.901 109.535 125.056 109.681L127.548 112.026Z" fill="#292F5B" fill-opacity="0.51"/>
<path opacity="0.902331" d="M189.384 288.236C189.093 288.491 188.633 288.338 188.555 287.959L187.588 283.304C187.559 283.165 187.473 283.044 187.351 282.972L183.258 280.543C182.924 280.345 182.928 279.861 183.265 279.669L187.401 277.313C187.524 277.242 187.612 277.124 187.644 276.985L188.693 272.348C188.778 271.97 189.24 271.825 189.527 272.085L193.05 275.284C193.155 275.379 193.295 275.426 193.437 275.413L198.178 274.976C198.565 274.941 198.846 275.334 198.686 275.688L196.728 280.021C196.67 280.15 196.668 280.298 196.724 280.428L198.606 284.796C198.759 285.151 198.471 285.54 198.085 285.498L193.352 284.977C193.211 284.962 193.07 285.006 192.963 285.1L189.384 288.236Z" fill="#292F5B" fill-opacity="0.51"/>
<path opacity="0.370759" d="M232.381 90.853C232.751 90.9697 232.858 91.4416 232.573 91.7053L230.497 93.631C230.393 93.7276 230.335 93.8635 230.336 94.0054L230.358 96.8344C230.362 97.2218 229.945 97.4686 229.606 97.2802L227.13 95.9041C227.006 95.835 226.858 95.8213 226.723 95.8662L224.035 96.762C223.667 96.8847 223.304 96.5653 223.378 96.1851L223.924 93.4089C223.951 93.2697 223.919 93.1253 223.834 93.0112L222.151 90.7357C221.92 90.4241 222.112 89.98 222.497 89.9335L225.31 89.5938C225.451 89.5768 225.579 89.5013 225.661 89.3858L227.309 87.0838C227.534 86.7685 228.016 86.8134 228.18 87.1648L229.373 89.7311C229.433 89.8598 229.544 89.9575 229.679 90.0003L232.381 90.853Z" fill="#292F5B" fill-opacity="0.51"/>
<path opacity="0.806242" d="M179.1 120.478C178.765 120.283 178.765 119.8 179.1 119.605L183.214 117.212C183.337 117.14 183.424 117.021 183.454 116.882L184.462 112.236C184.544 111.857 185.005 111.708 185.294 111.966L188.845 115.133C188.951 115.228 189.092 115.273 189.233 115.259L193.971 114.78C194.357 114.741 194.642 115.132 194.485 115.487L192.565 119.837C192.508 119.967 192.508 120.115 192.565 120.245L194.485 124.595C194.642 124.95 194.357 125.341 193.971 125.302L189.234 124.823C189.092 124.809 188.951 124.855 188.845 124.949L185.295 128.117C185.005 128.375 184.545 128.226 184.463 127.847L183.455 123.201C183.425 123.062 183.337 122.942 183.215 122.871L179.1 120.478Z" fill="#292F5B" fill-opacity="0.51"/>
<path opacity="0.547916" d="M290.291 210.33C290.243 209.945 290.629 209.653 290.987 209.801L295.386 211.621C295.517 211.676 295.666 211.672 295.794 211.612L300.108 209.599C300.46 209.435 300.858 209.711 300.827 210.097L300.453 214.836C300.441 214.978 300.49 215.117 300.587 215.221L303.838 218.695C304.103 218.978 303.963 219.442 303.586 219.532L298.956 220.641C298.817 220.674 298.699 220.763 298.631 220.888L296.326 225.048C296.138 225.387 295.654 225.397 295.451 225.067L292.964 221.013C292.89 220.892 292.768 220.808 292.628 220.781L287.953 219.878C287.572 219.804 287.412 219.347 287.665 219.053L290.758 215.439C290.85 215.331 290.893 215.189 290.875 215.048L290.291 210.33Z" fill="#292F5B" fill-opacity="0.51"/>
<path opacity="0.392959" d="M90.3071 213.461C89.9573 213.294 89.9188 212.812 90.2375 212.591L94.1483 209.879C94.2651 209.798 94.3423 209.671 94.3613 209.531L94.9955 204.819C95.0472 204.435 95.4945 204.249 95.8036 204.484L99.5955 207.359C99.7087 207.445 99.8528 207.479 99.9927 207.454L104.677 206.6C105.059 206.531 105.374 206.898 105.246 207.264L103.679 211.753C103.632 211.887 103.644 212.034 103.711 212.159L105.972 216.343C106.156 216.684 105.904 217.097 105.516 217.089L100.755 216.988C100.613 216.985 100.476 217.042 100.378 217.144L97.0909 220.584C96.823 220.864 96.3519 220.752 96.2398 220.381L94.8649 215.829C94.8239 215.694 94.7275 215.581 94.5994 215.52L90.3071 213.461Z" fill="#292F5B" fill-opacity="0.51"/>
<path fill-rule="evenodd" clip-rule="evenodd" d="M196.48 226.939L262.444 181.918L157.445 181.174L196.48 226.939Z" fill="#58CF55"/>
<path fill-rule="evenodd" clip-rule="evenodd" d="M181.663 209.567L262.445 181.918L169.872 195.742V221.827L181.663 209.567Z" fill="#3AA537"/>
<path fill-rule="evenodd" clip-rule="evenodd" d="M169.872 221.827L188.162 217.187L181.663 209.566L169.872 221.827Z" fill="#126010"/>
</svg>
