<svg id="Layer_1" data-name="Layer 1" xmlns="http://www.w3.org/2000/svg" viewBox="0 0 1487 936.5"><defs><style>.cls-1{fill:#141515;}.cls-2{fill:#0a1423;}.cls-3{fill:#384256;opacity:0.09;}.cls-13,.cls-14,.cls-3,.cls-4,.cls-7{isolation:isolate;}.cls-4{fill:#dbdce0;opacity:0.08;}.cls-11,.cls-19,.cls-5{fill:none;}.cls-10,.cls-5,.cls-8{stroke:#384256;}.cls-10,.cls-11,.cls-19,.cls-5,.cls-8{stroke-linecap:round;stroke-linejoin:round;}.cls-5,.cls-8{stroke-width:3px;}.cls-6{fill:#133329;}.cls-7{fill:#73e53e;opacity:0.35;}.cls-10,.cls-8,.cls-9{fill:#0e1726;}.cls-10{stroke-width:2.84px;}.cls-11{stroke:#fafcff;}.cls-12{fill:#17274f;}.cls-13{font-size:16px;font-family:Arial-BoldMT, Arial;font-weight:700;}.cls-13,.cls-14,.cls-16{fill:#fff;}.cls-14{font-size:14px;font-family:ArialMT, Arial;}.cls-15{fill:#3d86f2;}.cls-17{fill:#8293a8;}.cls-18{fill:#402917;}.cls-19{stroke:#586272;stroke-width:8px;}</style></defs><g id="bkd"><polygon class="cls-1" points="1416.74 896.5 75.11 896.5 43.5 879.57 43.5 81.5 1442.5 81.5 1442.5 865.03 1444.5 879.5 1416.74 896.5"/><rect class="cls-2" x="43" y="44" width="1399" height="832"/><path class="cls-3" d="M613,332H926.35A29.64,29.64,0,0,1,956,361.65h0v190.7A29.65,29.65,0,0,1,926.36,582H613V332Z"/><rect id="area-lobby" class="cls-3" x="725" y="389" width="84" height="139"/></g><g id="Layer_10" data-name="Layer 10"><rect class="cls-4" x="656.5" y="389.5" width="68" height="139"/><rect class="cls-4" x="809.5" y="388.5" width="68" height="139"/></g><g id="highlights"><path class="cls-5" d="M613,332H926.35A29.64,29.64,0,0,1,956,361.65h0v190.7A29.65,29.65,0,0,1,926.36,582H613V332Z"/></g><g id="bookings"><g id="car"><rect id="park-406" class="cls-6" x="559.5" y="750.5" width="62" height="126"/><rect id="park-306" class="cls-6" x="44.5" y="557.5" width="126" height="63"/><rect id="park-103" class="cls-6" x="312" y="45.5" width="60" height="123"/><rect id="park-106" class="cls-6" x="496" y="45.5" width="61.5" height="123"/><rect id="park-107" class="cls-6" x="558" y="45.5" width="61.5" height="123"/><rect id="park-108" class="cls-6" x="621" y="45.5" width="61.5" height="123"/><rect id="park-109" class="cls-6" x="682" y="46.5" width="61.5" height="123"/><rect id="park-102" class="cls-6" x="250.5" y="45.5" width="61.5" height="123"/><rect id="park-104" class="cls-6" x="372" y="45.5" width="64" height="123"/><rect id="park-105" class="cls-6" x="436" y="45.5" width="60" height="123"/><rect id="park-100" class="cls-6" x="190.5" y="45.5" width="60" height="123"/><rect id="park-001" class="cls-6" x="413" y="331.5" width="63" height="125.5"/><rect id="park-002" class="cls-6" x="473" y="331.5" width="63" height="125.5"/><rect id="park-003" class="cls-6" x="549" y="331.5" width="63" height="125.5"/><rect id="park-004" class="cls-6" x="549" y="457.5" width="63" height="125.5"/><rect id="park-007" class="cls-6" x="352.5" y="457.5" width="59.5" height="125.5"/><rect id="park-006" class="cls-6" x="414.5" y="457.5" width="59.5" height="125.5"/><rect id="park-005" class="cls-6" x="474.5" y="457.5" width="59.5" height="125.5"/><rect id="park-000" class="cls-6" x="352.5" y="331.5" width="60.5" height="125.5"/><polygon class="cls-7" points="413 457 413 457.5 474.5 457.5 476 457.5 476 457 413 457"/><rect class="cls-7" x="352.5" y="457" width="60.5" height="0.5"/><rect id="park-403" class="cls-6" x="373.5" y="749.5" width="62.5" height="126"/><rect id="park-402" class="cls-6" x="311.5" y="749.5" width="62.5" height="126"/><rect id="park-401" class="cls-6" x="250.5" y="749.5" width="62.5" height="126"/><rect id="park-400" class="cls-6" x="189.5" y="749.5" width="62.5" height="126"/><rect id="park-404" class="cls-6" x="436" y="749.5" width="59.5" height="126"/><rect id="park-416" class="cls-6" x="1177" y="750.5" width="59" height="126"/><rect id="park-41" class="cls-6" x="1237" y="750.5" width="58.5" height="126"/><rect id="park-414" class="cls-6" x="1049.5" y="750.5" width="60.5" height="126"/><rect id="park-415" class="cls-6" x="1110" y="750.5" width="67" height="126"/><rect id="park-502" class="cls-6" x="1318.5" y="561.5" width="122" height="58.5"/><rect id="park-504" class="cls-6" x="1318.5" y="681" width="122" height="58.5"/><rect id="park-503" class="cls-6" x="1318.5" y="620" width="122" height="61"/><rect id="park-304" class="cls-6" x="44.5" y="434" width="126" height="61.5"/><rect id="park-305" class="cls-6" x="44.5" y="495" width="126" height="61.5"/><rect id="park-302" class="cls-6" x="44.5" y="312.5" width="126" height="59.5"/><rect id="park-301" class="cls-6" x="44.5" y="250.5" width="126" height="59.5"/><rect id="park-300" class="cls-6" x="44.5" y="189.5" width="126" height="59.5"/><rect id="park-303" class="cls-6" x="44.5" y="372" width="126" height="62"/><rect id="park-111" class="cls-6" x="804" y="46.5" width="61" height="123"/><rect id="park-114" class="cls-6" x="988" y="46.5" width="61" height="123"/><rect id="park-112" class="cls-6" x="865" y="46.5" width="62" height="123"/><rect id="park-110" class="cls-6" x="744.5" y="46.5" width="59.5" height="123"/><rect id="park-113" class="cls-6" x="927" y="46.5" width="61" height="123"/><rect id="park-115" class="cls-6" x="1049.5" y="46.5" width="61" height="123"/><rect id="park-1118" class="cls-6" x="1234.5" y="46.5" width="61" height="123"/><rect id="park-116" class="cls-6" x="1111.5" y="46.5" width="62" height="123"/><rect id="park-1117" class="cls-6" x="1173.5" y="46.5" width="61" height="123"/></g><g id="car-7"><rect id="park-413" class="cls-6" x="989.5" y="750.5" width="60" height="123"/></g><g id="car-8"><rect id="park-407" class="cls-6" x="621.5" y="750.5" width="62" height="123"/><rect id="park-408" class="cls-6" x="682.5" y="750.5" width="62" height="123"/><rect id="park-409" class="cls-6" x="743.5" y="750.5" width="62" height="123"/><rect id="park-410" class="cls-6" x="805.5" y="750.5" width="62" height="123"/><rect id="park-411" class="cls-6" x="866.5" y="750.5" width="62" height="123"/><rect id="park-412" class="cls-6" x="927.5" y="750.5" width="62" height="123"/></g><g id="car-9"><rect id="park-405" class="cls-6" x="495.5" y="750.06" width="64" height="123"/></g><g id="car-11"><rect id="park-308" class="cls-6" x="47.72" y="679.5" width="122" height="59.78"/><rect id="park-307" class="cls-6" x="47.72" y="620.5" width="122" height="59.78"/></g><g id="car-14"><rect id="park-500" class="cls-6" x="1178.5" y="434.5" width="59" height="124"/></g><g id="car-15"><rect id="park-501" class="cls-6" x="1240.5" y="434.5" width="58" height="124"/></g></g><g id="floor-divider"><line class="cls-5" x1="251" y1="45.5" x2="251" y2="167.5"/><line class="cls-5" x1="312" y1="46" x2="312" y2="168"/><line class="cls-5" x1="373" y1="46" x2="373" y2="168"/><line class="cls-5" x1="435" y1="45.5" x2="435" y2="167.5"/><line class="cls-5" x1="496" y1="46" x2="496" y2="168"/><line class="cls-5" x1="557" y1="46" x2="557" y2="168"/><line class="cls-5" x1="621" y1="45.5" x2="621" y2="167.5"/><line class="cls-5" x1="682" y1="46" x2="682" y2="168"/><line class="cls-5" x1="743" y1="46" x2="743" y2="168"/><line class="cls-5" x1="804" y1="45.5" x2="804" y2="167.5"/><line class="cls-5" x1="865" y1="46" x2="865" y2="168"/><line class="cls-5" x1="926" y1="46" x2="926" y2="168"/><line class="cls-5" x1="988" y1="45.5" x2="988" y2="167.5"/><line class="cls-5" x1="1049" y1="46" x2="1049" y2="168"/><line class="cls-5" x1="1110" y1="46" x2="1110" y2="168"/><line class="cls-5" x1="1174" y1="45" x2="1174" y2="167"/><line class="cls-5" x1="1235" y1="45" x2="1235" y2="167"/><line class="cls-5" x1="252" y1="749.5" x2="252" y2="871.5"/><line class="cls-5" x1="313" y1="750" x2="313" y2="872"/><line class="cls-5" x1="374" y1="750" x2="374" y2="872"/><line class="cls-5" x1="436" y1="749.5" x2="436" y2="871.5"/><line class="cls-5" x1="413" y1="333" x2="413" y2="584"/><line class="cls-5" x1="475" y1="332.5" x2="475" y2="583.5"/><line class="cls-5" x1="497" y1="750" x2="497" y2="872"/><line class="cls-5" x1="558" y1="750" x2="558" y2="872"/><line class="cls-5" x1="622" y1="749.5" x2="622" y2="871.5"/><line class="cls-5" x1="683" y1="750" x2="683" y2="872"/><line class="cls-5" x1="170.75" y1="250.25" x2="48.75" y2="250.25"/><line class="cls-5" x1="170.25" y1="311.25" x2="48.25" y2="311.25"/><line class="cls-5" x1="170.25" y1="372.25" x2="48.25" y2="372.25"/><line class="cls-5" x1="170.75" y1="434.25" x2="48.75" y2="434.25"/><line class="cls-5" x1="170.25" y1="495.25" x2="48.25" y2="495.25"/><line class="cls-5" x1="170.25" y1="556.25" x2="48.25" y2="556.25"/><line class="cls-5" x1="170.75" y1="620.25" x2="48.75" y2="620.25"/><line class="cls-5" x1="170.25" y1="681.25" x2="48.25" y2="681.25"/><line class="cls-5" x1="1440.75" y1="620.25" x2="1318.75" y2="620.25"/><line class="cls-5" x1="1437" y1="560" x2="1319" y2="560"/><line class="cls-5" x1="1440.25" y1="681.25" x2="1318.25" y2="681.25"/><line class="cls-5" x1="744" y1="750" x2="744" y2="872"/><line class="cls-5" x1="805" y1="749.5" x2="805" y2="871.5"/><line class="cls-5" x1="866" y1="750" x2="866" y2="872"/><line class="cls-5" x1="927" y1="750" x2="927" y2="872"/><line class="cls-5" x1="989" y1="749.5" x2="989" y2="871.5"/><line class="cls-5" x1="1050" y1="750" x2="1050" y2="872"/><line class="cls-5" x1="1111" y1="750" x2="1111" y2="872"/><line class="cls-5" x1="1175" y1="749" x2="1175" y2="871"/><line class="cls-5" x1="1236" y1="749" x2="1236" y2="871"/><line class="cls-5" x1="353" y1="458" x2="533" y2="458"/><line class="cls-5" x1="552" y1="458" x2="613" y2="458"/><path class="cls-8" d="M353,582V333c-26,4-25,22-25,22V558.48S329,573,353,582Z"/><rect class="cls-8" x="533" y="332" width="19" height="250"/><polyline class="cls-5" points="747 389 656 389 656 528 745 528"/><polyline class="cls-5" points="774 389 876 389 876 528 774 528"/><line class="cls-5" x1="725.2" y1="389" x2="725.2" y2="412"/><line class="cls-5" x1="811" y1="389" x2="811" y2="412"/><line class="cls-5" x1="725" y1="504" x2="725" y2="528"/><line class="cls-5" x1="811" y1="504" x2="811" y2="528"/><path class="cls-9" d="M1110.19,332A38.19,38.19,0,0,0,1072,370.19V454.5h37.5v-100h271v48h-221v132h-85.33a38.19,38.19,0,0,0,36,25.5H1150a27,27,0,0,0,27-27V433h123l-.33,100a27,27,0,0,0,26.86,27H1443V332Z"/><path id="area-stairs" class="cls-4" d="M1109.5,354.5v100H1072v67.31a38.12,38.12,0,0,0,2.17,12.69h85.33v-132h225v-48Z"/><path class="cls-5" d="M1072,521.81A38.19,38.19,0,0,0,1110.19,560H1150a27,27,0,0,0,27-27V433h123l-.33,100a27,27,0,0,0,26.86,27H1443V332H1110.19A38.19,38.19,0,0,0,1072,370.19V491.36"/><line class="cls-5" x1="1239" y1="560" x2="1239" y2="433"/><line class="cls-5" x1="1300" y1="560" x2="1300" y2="433"/><line class="cls-5" x1="1177" y1="557" x2="1177" y2="525.76"/><line class="cls-5" x1="1297" y1="168" x2="1297" y2="46"/><path class="cls-8" d="M48,189H178a12,12,0,0,0,12-12h0V46H48Z"/><path class="cls-10" d="M1440,172.5H1310c-6.64,0-12-4.84-12-10.81V44h142Z"/><path class="cls-8" d="M191,876V758.6A17.6,17.6,0,0,0,173.4,741H48V875.5H191"/><path class="cls-8" d="M1443,741H1312.48A16.48,16.48,0,0,0,1296,757.48V876h147Z"/><line class="cls-5" x1="1296" y1="876" x2="1441" y2="876"/><polyline class="cls-5" points="1073.67 533 1158 533 1158 400 1380 400 1380 379.43 1380 356 1111 356 1111 454 1073 454"/></g><g id="turns"><line class="cls-11" x1="1302" y1="222" x2="1267" y2="222"/><polyline class="cls-11" points="1274 214 1266 222 1274 230"/><line class="cls-11" x1="1267.5" y1="277.5" x2="1302.5" y2="277.5"/><polyline class="cls-11" points="1295.5 269.5 1303.5 277.5 1295.5 285.5"/><polyline class="cls-11" points="1024.5 347.5 1031.5 355.5 1024.5 363.5"/><path class="cls-11" d="M1013.5,371.5s-4-20,17-16"/><polyline class="cls-11" points="1011.35 646.35 1003.35 639.35 995.35 646.35"/><path class="cls-11" d="M987.35,657.35s20,4,16-17"/><polyline class="cls-11" points="256.96 245.94 264.96 252.94 272.96 245.94"/><path class="cls-11" d="M281,234.94s-20-4-16,17"/><polyline class="cls-11" points="268.12 659.79 275.12 651.79 268.12 643.79"/><path class="cls-11" d="M257.12,635.79s-4,20,17,16"/><polyline class="cls-11" points="1002.2 347.5 995.2 355.5 1002.2 363.5"/><path class="cls-11" d="M1013.12,364c-1.08-5.18-4.92-10.74-16.92-8.45"/></g><g id="signage"><rect class="cls-12" x="203.5" y="436.5" width="46" height="46" rx="8.24"/><text class="cls-13" transform="translate(216.55 465.03)">P3</text><rect class="cls-12" x="735.5" y="194.5" width="46" height="46" rx="8.24"/><text class="cls-13" transform="translate(750.55 223.03)">P1</text><rect class="cls-12" x="1202.52" y="585.64" width="46" height="46" rx="8.24"/><text class="cls-13" transform="translate(1216.56 614.17)">P5</text><rect class="cls-12" x="731.52" y="677.5" width="46" height="46" rx="8.24"/><text class="cls-13" transform="translate(745.57 706.03)">P4</text><text class="cls-14" transform="translate(749.34 462.36)">Lobby</text><text class="cls-14" transform="translate(1042.52 509.36)">Stairs</text><text class="cls-14" transform="translate(1337.07 225.36)">Entry</text><text class="cls-14" transform="translate(1338.74 283.36)">Exit</text><rect id="area-entry" class="cls-4" x="1371.5" y="172.5" width="36" height="29.25" rx="4.29"/><rect class="cls-5" x="1388" y="201.75" width="2.56" height="43.75"/><rect id="area-exit" class="cls-4" x="1371.5" y="300.25" width="36" height="29.25" rx="4.29"/><rect class="cls-5" x="1388" y="260.5" width="2.56" height="39.75"/><rect class="cls-15" x="460" y="596" width="46" height="46" rx="8.24"/><path class="cls-16" d="M483.18,611.37a2.52,2.52,0,1,0-2.51-2.52h0a2.51,2.51,0,0,0,2.51,2.52Z"/><path class="cls-16" d="M492,620.18v-2.52a7.05,7.05,0,0,1-5.12-2.3l-1.62-1.8a2.53,2.53,0,0,0-.77-.57h0a2.61,2.61,0,0,0-1.5-.33,2.58,2.58,0,0,0-2.28,2.61v7.43a2.53,2.53,0,0,0,2.52,2.52h6.29v6.29H492v-6.92a2.52,2.52,0,0,0-2.52-2.51H485.7v-4.35A10.69,10.69,0,0,0,492,620.18ZM480.67,629a3.77,3.77,0,0,1-1.26-7.33v-2.6a6.29,6.29,0,1,0,7.42,7.42h-2.6A3.77,3.77,0,0,1,480.67,629Z"/><path class="cls-15" d="M596.07,618h-82v2h82v3l4-4-4-4Z"/><path class="cls-15" d="M370.05,620h82v-2h-82v-3l-4,4,4,4Z"/><rect class="cls-15" x="460" y="273" width="46" height="46" rx="8.24"/><path class="cls-16" d="M483.18,288.37a2.52,2.52,0,1,0-2.51-2.52h0a2.51,2.51,0,0,0,2.51,2.52Z"/><path class="cls-16" d="M492,297.18v-2.52a7.05,7.05,0,0,1-5.12-2.3l-1.62-1.8a2.35,2.35,0,0,0-.77-.56s0,0,0,0h0a2.53,2.53,0,0,0-1.5-.32,2.57,2.57,0,0,0-2.28,2.6v7.43a2.54,2.54,0,0,0,2.52,2.52h6.29v6.29H492v-6.92a2.54,2.54,0,0,0-2.52-2.52H485.7v-4.34A10.76,10.76,0,0,0,492,297.18ZM480.67,306a3.77,3.77,0,0,1-1.26-7.33v-2.6a6.29,6.29,0,1,0,7.42,7.42h-2.6A3.77,3.77,0,0,1,480.67,306Z"/><path class="cls-15" d="M596.07,295h-82v2h82v3l4-4-4-4Z"/><path class="cls-15" d="M370.05,297h82v-2h-82v-3l-4,4,4,4Z"/><path class="cls-17" d="M706.85,439.49H674.17a4.67,4.67,0,0,0-4.67,4.66v32.68a4.68,4.68,0,0,0,4.67,4.67h32.68a4.67,4.67,0,0,0,4.66-4.67V444.15A4.66,4.66,0,0,0,706.85,439.49Zm-24.51,7a2.92,2.92,0,1,1-2.92,2.91,2.91,2.91,0,0,1,2.92-2.91Zm5.83,18.67h-2.33v9.34h-7v-9.34H676.5v-5.83a4.68,4.68,0,0,1,4.67-4.67h2.33a4.68,4.68,0,0,1,4.67,4.67Zm10.5,7-5.83-9.34h11.67Zm-5.83-14,5.83-9.34,5.84,9.34Z"/><path class="cls-17" d="M858.34,439.49H825.66a4.68,4.68,0,0,0-4.67,4.66v32.68a4.69,4.69,0,0,0,4.67,4.67h32.68a4.69,4.69,0,0,0,4.67-4.67V444.15A4.68,4.68,0,0,0,858.34,439.49Zm-24.51,7a2.92,2.92,0,1,1-2.92,2.91,2.91,2.91,0,0,1,2.92-2.91Zm5.84,18.67h-2.34v9.34h-7v-9.34H828v-5.83a4.68,4.68,0,0,1,4.67-4.67H835a4.68,4.68,0,0,1,4.67,4.67Zm10.5,7-5.84-9.34H856Zm-5.84-14,5.84-9.34,5.83,9.34Z"/><path class="cls-17" d="M1131.85,470.5h-32.57a4.68,4.68,0,0,0-4.66,4.65v32.57a4.68,4.68,0,0,0,4.66,4.66h32.57a4.68,4.68,0,0,0,4.65-4.66V475.15A4.67,4.67,0,0,0,1131.85,470.5Zm-2.33,11.63h-5.63v7.75h-6v7.75h-6v7.77H1101.6v-4.65h5.63V493h6v-7.77h6v-7.75h10.28Z"/><path class="cls-18" d="M1283.26,583.68v41h2v-41h3l-4-4-4,4Z"/><path class="cls-18" d="M1286.26,727.74v-41h-2v41h-3l4,4,4-4Z"/><rect id="area-ev-charge-point" class="cls-18" x="1260.28" y="633.5" width="46" height="46" rx="8.24"/><path class="cls-16" d="M1296.94,648.92V647.2a.41.41,0,0,0-.41-.41.41.41,0,0,0-.42.41v1.72h-2.89V647.2a.42.42,0,0,0-.83,0v1.72H1291v4.28a3.69,3.69,0,0,0,3.32,3.67v11.37a2.63,2.63,0,0,1-5.25,0,.15.15,0,0,0,0-.07.22.22,0,0,0,0-.08v-8.58a3.45,3.45,0,0,0-3.34-3.45V646.8a1.17,1.17,0,0,0-1.17-1.17h-10.72a1.17,1.17,0,0,0-1.17,1.17v21.69a1.17,1.17,0,0,0,1.17,1.17h10.72a1.17,1.17,0,0,0,1.17-1.17v-11.6a2.55,2.55,0,0,1,1.74.76,2.61,2.61,0,0,1,.77,1.86v8.58s0,0,0,.08a.17.17,0,0,0,0,.07,3.46,3.46,0,0,0,6.91,0V656.85a3.69,3.69,0,0,0,3.21-3.65v-4.28Zm-14.17,7.7L1279.1,664a.41.41,0,0,1-.37.23h-.1a.42.42,0,0,1-.31-.43l.23-4.79-2.61,0a.43.43,0,0,1-.35-.2.41.41,0,0,1,0-.4l3.21-6.24a.4.4,0,0,1,.45-.22.43.43,0,0,1,.33.39l.14,3.81,2.67-.12h0a.41.41,0,0,1,.37.18A.4.4,0,0,1,1282.77,656.62Z"/></g><g id="outline"><polyline class="cls-19" points="1443 328.49 1443 876 44 876 44 44 1443 44 1443 167"/></g></svg>