<svg id="Layer_1" data-name="Layer 1" xmlns="http://www.w3.org/2000/svg" viewBox="0 0 1541 664"><defs><style>.cls-1{fill:#9baeb8;}.cls-2{fill:#dae6ed;}.cls-3{fill:#c6d6de;}.cls-4{fill:#bdd1d6;}.cls-11,.cls-5{fill:#040404;}.cls-11,.cls-16,.cls-21,.cls-24,.cls-36,.cls-38,.cls-5{isolation:isolate;}.cls-5{opacity:0.05;}.cls-6{fill:#5d6f76;}.cls-7{fill:#85979e;}.cls-8{fill:#b0c0c6;}.cls-8,.cls-9{stroke:#e5e9ea;stroke-width:1.05px;}.cls-26,.cls-27,.cls-33,.cls-37,.cls-39,.cls-8,.cls-9{stroke-miterlimit:10;}.cls-10,.cls-13,.cls-27,.cls-33,.cls-37,.cls-39,.cls-41,.cls-42,.cls-9{fill:none;}.cls-10{stroke:#818181;stroke-width:1.21px;}.cls-10,.cls-27,.cls-33,.cls-41,.cls-42{stroke-linecap:round;}.cls-10,.cls-41,.cls-42{stroke-linejoin:round;}.cls-11{opacity:0.15;}.cls-12{fill:#816377;}.cls-14{fill:#baa2b3;}.cls-15{fill:#ceb2c4;}.cls-16,.cls-21{fill:#020202;}.cls-16{opacity:0.08;}.cls-17{fill:#d8c1d0;}.cls-18{fill:#a88ca0;}.cls-19{fill:#b8bfc1;}.cls-20{fill:#f3f3ee;}.cls-21{opacity:0.1;}.cls-22{fill:#6a7e82;}.cls-23{fill:#7a8f94;}.cls-24{fill:#535554;opacity:0.11;}.cls-25{fill:#fff;}.cls-26{fill:#a09093;stroke:#656765;stroke-width:0.51px;}.cls-27,.cls-33{stroke:#0d2f22;}.cls-27{stroke-width:0.27px;}.cls-28{fill:#8faa3c;}.cls-29{fill:#798034;}.cls-30{fill:#a8bd4d;}.cls-31{fill:#8aa03b;}.cls-32{fill:#b7d04f;}.cls-33{stroke-width:0.23px;}.cls-34,.cls-36{opacity:0.7;}.cls-35,.cls-36{fill:#595a5a;}.cls-37{stroke:#fff;stroke-width:5.29px;}.cls-39{stroke:#63767d;stroke-width:9px;}.cls-40{fill:#f3fbff;}.cls-41,.cls-42{stroke:#323232;}.cls-41{stroke-width:1.43px;}.cls-42{stroke-width:1.28px;}</style></defs><g id="base"><polygon class="cls-1" points="1519.5 37.5 463.5 37.5 450.5 37.5 29.5 37.5 28 242 65 243 66 399 26 412 23 627 23 627 31.5 639 455.7 639 463.53 627.59 464.5 336.5 1507.66 336.5 1519.5 324.14 1519.5 37.5"/><polygon class="cls-2" points="1515.5 23.5 463.5 23.5 450.5 23.5 29.5 23.5 28 242 65 242 66 399 28 401 29.5 623 461.5 623 461.5 322.5 1515.5 322.5 1515.5 23.5"/></g><g id="higlights"><polygon class="cls-3" points="460 320 509 315 671.5 151.5 671.5 23.5 459.06 23.5 459.06 247.5 460 320"/><polyline class="cls-3" points="459.06 23.5 304.5 23.5 304.5 242.5 457.22 242.5 457.22 23.42"/><polyline class="cls-3" points="307 29.5 25.5 29.5 25.5 242 303.63 242 303.63 29.42"/><polyline class="cls-3" points="388 399.5 25.5 399.5 25.5 618 383.66 618 383.66 399.42"/><rect class="cls-3" x="388" y="398" width="71" height="228"/><polygon class="cls-4" points="509 315 671.5 151.5 671.5 23.5 1515.5 23.5 1515.5 322.5 509 315"/><polygon class="cls-4" points="66 275 45 275 30 257 32 241 65 243 66 275"/><polygon class="cls-4" points="65 370 45 370 29 382 32 404 65 402 65 370"/></g><g id="furniture"><rect class="cls-5" x="293.89" y="90.15" width="8.11" height="88.69"/><rect class="cls-6" x="293.89" y="89.15" width="8.11" height="88.69"/><rect class="cls-7" x="293.89" y="88" width="8.11" height="88.69"/><rect class="cls-5" x="377.89" y="452.15" width="8.11" height="88.69"/><rect class="cls-6" x="377.89" y="451.15" width="8.11" height="88.69"/><rect class="cls-7" x="377.89" y="450" width="8.11" height="88.69"/><rect class="cls-5" x="92.67" y="26.37" width="160.69" height="8.11"/><rect class="cls-6" x="91.67" y="26.37" width="160.69" height="8.11"/><rect class="cls-7" x="90.52" y="26.37" width="160.69" height="8.11"/><rect class="cls-5" x="106.67" y="610.37" width="160.69" height="8.11"/><rect class="cls-6" x="105.67" y="610.37" width="160.69" height="8.11"/><rect class="cls-7" x="104.52" y="610.37" width="160.69" height="8.11"/><rect class="cls-5" x="370.89" y="260.4" width="8.11" height="57.6"/><rect class="cls-6" x="370.89" y="259.75" width="8.11" height="57.6"/><rect class="cls-7" x="370.89" y="259" width="8.11" height="57.6"/><rect class="cls-5" x="326" y="564.4" width="60" height="57.6"/><rect class="cls-6" x="322" y="563.75" width="60" height="57.6"/><rect class="cls-7" x="326" y="564" width="60" height="57.6"/><polygon class="cls-8" points="458 549.8 388 549.8 388 466.15 388 449.8 458 449.8 458 549.8"/><line class="cls-9" x1="458" y1="467.25" x2="388" y2="467.25"/><line class="cls-9" x1="458" y1="482.8" x2="388" y2="482.8"/><line class="cls-9" x1="458" y1="499.8" x2="388" y2="499.8"/><line class="cls-9" x1="458" y1="516.8" x2="388" y2="516.8"/><line class="cls-9" x1="458" y1="533.8" x2="388" y2="533.8"/><g id="INSERT-3"><g id="LINE-3"><line class="cls-10" x1="97.84" y1="131.49" x2="97.84" y2="131.53"/></g></g><path class="cls-11" d="M97.42,114.53a11.38,11.38,0,0,1,1.92-.35l4.21-.4a7.54,7.54,0,0,1,7.23,3.08c1.79,1.8,3.26,10.08,3.26,10.08,1.69,8.83-2.28,17.1-2.28,17.1-3.25,4.63-5.83,4.11-9.24,4.13s-12.24-2.48-12.24-2.48c-6.65-1.39-8.77-9.38-8.77-9.38-2.4-6.31.95-13.46.95-13.46,2.42-7,12.15-7.57,12.15-7.57Z"/><path class="cls-12" d="M97,112.27a11.47,11.47,0,0,1,1.93-.34l4.21-.4a7.5,7.5,0,0,1,7.23,3.08c1.79,1.8,3.26,10.08,3.26,10.08,1.69,8.82-2.28,17.1-2.28,17.1-3.25,4.62-5.83,4.11-9.25,4.13s-12.23-2.48-12.23-2.48c-6.65-1.39-8.78-9.38-8.78-9.38-2.39-6.31,1-13.46,1-13.46,2.42-7,12.15-7.58,12.15-7.58Z"/><path class="cls-13" d="M109.53,141.67l1-.1a1.83,1.83,0,0,0-.6-.39Z"/><path class="cls-14" d="M94.18,143.07a38.47,38.47,0,0,0,7.31,1.21c3,0,5.33.38,8.05-2.61-1.91.19-4.13.38-5.26.37,0,0-7.23-.1-9-1h-.07A4,4,0,0,1,94.18,143.07Z"/><path class="cls-14" d="M93.27,111.42c-1.69.17-9.67,1.32-11.83,7.54,0,0-3.36,7.15-1,13.46,0,0,2.12,8,8.78,9.39,0,0,2.25.63,4.92,1.26a4,4,0,0,0,1-2c-.43-.1-3-.71-5.11-1.28a16.28,16.28,0,0,1-5.2-3.07,4,4,0,0,1-1-1.47c-.79-2-2.34-7.26-1.9-9.27,0,0,.92-7.59,4.59-9.47a18,18,0,0,1,2.86-1.39,52.87,52.87,0,0,1,5.18-1.66A5.11,5.11,0,0,0,93.27,111.42Z"/><path class="cls-14" d="M108.8,111.88a7.57,7.57,0,0,0-6.28-2l-4.21.4a12.47,12.47,0,0,0-1.92.35l-2.81.75h-.32a5.16,5.16,0,0,1,1.39,2c.7-.19,1.3-.33,1.72-.41l6.56-.86A42.63,42.63,0,0,1,108.8,111.88Z"/><path class="cls-15" d="M104.92,139.19c1,.38,3.64,1.36,4.86,2,.26-.31.51-.65.78-1,0,0,4-8.28,2.28-17.1,0,0-1.47-8.28-3.27-10.08a3.9,3.9,0,0,0-.34-.46c-1.51.93-5.2,3-7.92,3.11,0,0-5.65,1.14-6.21,1.24h-.19l-.06.64s-1.46,7.32-1.17,9.25c0,0,.7,7.35,1.17,9.81.06.32.12.67.17,1C96.73,137.84,103.79,138.75,104.92,139.19Z"/><path class="cls-16" d="M96.8,138h.37c-.06-.37-.12-.74-.18-1.08-.47-2.54-1.16-10.19-1.16-10.19-.3-2,1.16-9.62,1.16-9.62,0-.23.05-.45.06-.67-.76.09-3.73.56-5.34,2.44,0,0-4,4.24-2.85,9.51C88.86,128.43,89.67,136.56,96.8,138Z"/><path class="cls-17" d="M94.83,137.53l.37.05a4.84,4.84,0,0,0-.17-1c-.47-2.45-1.17-9.8-1.17-9.8-.29-1.94,1.17-9.25,1.17-9.25a2.25,2.25,0,0,1,.06-.64c-.77.08-3.74.54-5.35,2.34,0,0-4,4.08-2.85,9.14C86.89,128.33,87.7,136.16,94.83,137.53Z"/><path class="cls-16" d="M105.36,140.66c1,0,3.06-.16,4.8-.33l.39-.46c-1.12-.57-3.55-1.47-4.45-1.82s-7.49-1.24-9-1.43l-.34-.05c-6.53-1.25-7.27-8.41-7.27-8.41-1-4.64,2.61-8.37,2.61-8.37,1.47-1.66,4.19-2.07,4.89-2.15h.17l5.69-1.14c2.49,0,5.87-2,7.25-2.85a5,5,0,0,0-.55-.58,40.29,40.29,0,0,0-5.38.24l-6,.79c-.38.07-.93.2-1.57.37-1.42.38-3.27,1-4.75,1.52a16.61,16.61,0,0,0-2.61,1.28c-3.36,1.72-4.2,8.66-4.2,8.66-.41,1.85,1,6.67,1.74,8.5a3.59,3.59,0,0,0,.91,1.33,15,15,0,0,0,4.76,2.82c1.88.52,4.28,1.07,4.67,1.17h.07C98.74,140.57,105.36,140.66,105.36,140.66Z"/><path class="cls-18" d="M104.28,142c1.13,0,3.35-.18,5.25-.37.14-.15.29-.32.43-.49-1.23-.63-3.89-1.61-4.86-2-1.13-.44-8.19-1.35-9.9-1.57l-.37,0c-7.12-1.37-7.93-9.19-7.93-9.19-1.15-5.06,2.84-9.14,2.84-9.14,1.62-1.81,4.59-2.26,5.35-2.35h.19c.56-.1,6.21-1.24,6.21-1.24,2.72-.06,6.41-2.17,7.92-3.11a7.31,7.31,0,0,0-.6-.64,42.65,42.65,0,0,0-5.87.26l-6.57.86c-.42.08-1,.22-1.72.41A52.87,52.87,0,0,0,89.47,115a18,18,0,0,0-2.86,1.39C82.93,118.31,82,125.9,82,125.9c-.44,2,1.11,7.28,1.9,9.27a4,4,0,0,0,1,1.47,16.28,16.28,0,0,0,5.2,3.07c2.06.57,4.68,1.18,5.11,1.28h.07C97.05,141.94,104.28,142,104.28,142Z"/><g id="INSERT-3-2"><g id="LINE-3-2"><line class="cls-10" x1="222.24" y1="131.53" x2="222.24" y2="131.49"/></g></g><path class="cls-11" d="M225.47,115.28s9.73.6,12.15,7.57c0,0,3.35,7.15.95,13.46,0,0-2.12,8-8.77,9.38,0,0-8.82,2.5-12.24,2.48s-6,.5-9.24-4.13c0,0-4-8.27-2.29-17.1,0,0,1.47-8.28,3.27-10.08a7.5,7.5,0,0,1,7.23-3.08l4.21.4a11.38,11.38,0,0,1,1.92.35Z"/><path class="cls-12" d="M225.85,113s9.73.61,12.15,7.58c0,0,3.35,7.15.95,13.46,0,0-2.12,8-8.77,9.38,0,0-8.82,2.5-12.24,2.48s-6,.49-9.24-4.13c0,0-4-8.28-2.28-17.1,0,0,1.47-8.28,3.26-10.08a7.5,7.5,0,0,1,7.23-3.08l4.21.4a11.36,11.36,0,0,1,1.92.34Z"/><path class="cls-13" d="M210.12,141.18a1.83,1.83,0,0,0-.6.39l1,.1Z"/><path class="cls-14" d="M224.86,141h-.07c-1.77.91-9,1-9,1-1.12,0-3.34-.18-5.25-.37,2.72,3,5.06,2.6,8,2.61a38.47,38.47,0,0,0,7.31-1.21A4.08,4.08,0,0,1,224.86,141Z"/><path class="cls-14" d="M225.43,113.41q2.63.7,5.18,1.66a18,18,0,0,1,2.86,1.39c3.67,1.88,4.59,9.47,4.59,9.47.44,2-1.12,7.28-1.9,9.27a4,4,0,0,1-1,1.47,16.28,16.28,0,0,1-5.2,3.07c-2.06.57-4.68,1.18-5.11,1.28a4,4,0,0,0,1,2c2.67-.63,4.92-1.26,4.92-1.26,6.65-1.39,8.77-9.39,8.77-9.39,2.4-6.31-1-13.46-1-13.46-2.16-6.22-10.14-7.37-11.83-7.54A5,5,0,0,0,225.43,113.41Z"/><path class="cls-14" d="M217.14,112.14l6.57.86c.42.08,1,.22,1.72.41a5,5,0,0,1,1.39-2h-.32l-2.81-.75a12.47,12.47,0,0,0-1.92-.35l-4.22-.4a7.57,7.57,0,0,0-6.28,2A42.63,42.63,0,0,1,217.14,112.14Z"/><path class="cls-15" d="M225.05,137.62c.06-.36.12-.71.18-1,.47-2.46,1.16-9.81,1.16-9.81.3-1.93-1.16-9.25-1.16-9.25a2.28,2.28,0,0,0-.06-.64H225c-.57-.1-6.22-1.24-6.22-1.24-2.71-.06-6.4-2.18-7.91-3.11-.12.15-.24.3-.35.46-1.79,1.8-3.26,10.08-3.26,10.08-1.69,8.82,2.28,17.1,2.28,17.1a10.89,10.89,0,0,0,.78,1c1.22-.63,3.88-1.61,4.86-2C216.29,138.75,223.35,137.84,225.05,137.62Z"/><path class="cls-16" d="M231.22,128.43c1.14-5.27-2.85-9.51-2.85-9.51-1.61-1.88-4.58-2.35-5.35-2.44a2.22,2.22,0,0,0,.07.67s1.45,7.61,1.16,9.62c0,0-.69,7.65-1.16,10.19-.07.34-.13.71-.18,1.08h.37C230.41,136.56,231.22,128.43,231.22,128.43Z"/><path class="cls-17" d="M233.18,128.33c1.15-5.06-2.85-9.14-2.85-9.14-1.61-1.8-4.58-2.26-5.34-2.34a2.39,2.39,0,0,0,.06.64s1.46,7.31,1.16,9.25c0,0-.69,7.35-1.16,9.8-.06.33-.12.68-.18,1l.38,0C232.37,136.16,233.18,128.33,233.18,128.33Z"/><path class="cls-16" d="M223,139.74h0c.4-.1,2.79-.65,4.68-1.17a15,15,0,0,0,4.76-2.82,3.59,3.59,0,0,0,.91-1.33c.72-1.83,2.14-6.65,1.74-8.5,0,0-.84-6.94-4.2-8.66a15.88,15.88,0,0,0-2.62-1.28c-1.47-.56-3.32-1.14-4.74-1.52-.64-.17-1.19-.3-1.57-.37l-6-.79a40.14,40.14,0,0,0-5.37-.24,5,5,0,0,0-.55.58c1.38.86,4.76,2.8,7.24,2.85l5.69,1.14h.18c.7.08,3.42.49,4.89,2.15,0,0,3.66,3.73,2.61,8.37,0,0-.74,7.16-7.27,8.41l-.34.05A89,89,0,0,0,214,138c-.89.35-3.33,1.25-4.45,1.82l.39.46c1.75.17,3.78.35,4.81.33C214.72,140.66,221.34,140.57,223,139.74Z"/><path class="cls-18" d="M224.79,141h.07c.43-.1,3-.71,5.1-1.28a16.33,16.33,0,0,0,5.21-3.07,4,4,0,0,0,1-1.47c.78-2,2.34-7.26,1.89-9.27,0,0-.91-7.59-4.58-9.47a18,18,0,0,0-2.86-1.39q-2.55-1-5.18-1.66c-.7-.19-1.3-.33-1.72-.41l-6.57-.86a42.65,42.65,0,0,0-5.87-.26,7.31,7.31,0,0,0-.6.64c1.51.94,5.2,3,7.91,3.11,0,0,5.65,1.14,6.22,1.24H225c.76.09,3.73.54,5.34,2.35,0,0,4,4.08,2.85,9.14,0,0-.81,7.82-7.93,9.19l-.38.05c-1.7.22-8.76,1.13-9.89,1.57s-3.64,1.36-4.86,2c.14.17.28.34.42.49,1.91.19,4.13.39,5.25.37C215.8,142,223,141.94,224.79,141Z"/><g id="INSERT-2"><g id="LINE-2"><line class="cls-10" x1="186.36" y1="162.34" x2="186.4" y2="162.34"/></g></g><path class="cls-11" d="M166.15,173s.61,9.73,7.58,12.14c0,0,7.15,3.36,13.46,1,0,0,8-2.12,9.38-8.77,0,0,2.5-8.83,2.48-12.24s.49-6-4.13-9.24c0,0-8.28-4-17.1-2.29,0,0-8.28,1.47-10.08,3.27a7.47,7.47,0,0,0-3.08,7.22l.4,4.22a11.36,11.36,0,0,0,.34,1.92Z"/><path class="cls-12" d="M166.05,169.48s.61,9.73,7.58,12.15c0,0,7.15,3.35,13.46,1,0,0,8-2.12,9.38-8.77,0,0,2.49-8.82,2.47-12.24s.5-6-4.12-9.24c0,0-8.28-4-17.1-2.29,0,0-8.29,1.47-10.08,3.27a7.52,7.52,0,0,0-3.09,7.23l.4,4.21a12.47,12.47,0,0,0,.35,1.92Z"/><path class="cls-13" d="M196.05,150.22a2.38,2.38,0,0,1,.39-.6,8.49,8.49,0,0,0,.11,1Z"/><path class="cls-14" d="M195.89,165v-.07c.9-1.76,1-9,1-9,0-1.12-.17-3.35-.37-5.25,3,2.71,2.6,5.06,2.62,8A39.4,39.4,0,0,1,198,166,4.07,4.07,0,0,0,195.89,165Z"/><path class="cls-14" d="M168.28,165.54a45.53,45.53,0,0,0,1.66,5.18,17.93,17.93,0,0,0,1.4,2.85c1.87,3.68,9.46,4.59,9.46,4.59,2,.44,7.28-1.11,9.28-1.9a3.89,3.89,0,0,0,1.46-1,16.28,16.28,0,0,0,3.07-5.2c.57-2.06,1.18-4.67,1.28-5.11a4.11,4.11,0,0,1,2.06,1c-.63,2.67-1.27,4.93-1.27,4.93-1.39,6.65-9.38,8.77-9.38,8.77-6.31,2.4-13.46-1-13.46-1-6.23-2.16-7.37-10.14-7.55-11.82A5,5,0,0,1,168.28,165.54Z"/><path class="cls-14" d="M167,157.25l.87,6.56c.07.42.21,1,.4,1.73a5.14,5.14,0,0,0-2,1.38v-.32l-.75-2.8a11.49,11.49,0,0,1-.35-1.93l-.4-4.21a7.57,7.57,0,0,1,2-6.28A42.63,42.63,0,0,0,167,157.25Z"/><path class="cls-15" d="M192.5,165.16l-1,.17c-2.45.47-9.81,1.17-9.81,1.17-1.93.29-9.24-1.17-9.24-1.17l-.65-.06v-.19l-1.24-6.21c-.06-2.72-2.18-6.41-3.12-7.92a5,5,0,0,1,.46-.34c1.8-1.8,10.08-3.27,10.08-3.27,8.83-1.68,17.1,2.29,17.1,2.29.37.26.71.52,1,.77-.63,1.23-1.61,3.89-2,4.86C193.62,156.39,192.71,163.45,192.5,165.16Z"/><path class="cls-16" d="M183.3,171.32c-5.26,1.15-9.51-2.85-9.51-2.85-1.87-1.61-2.34-4.58-2.43-5.34l.67.06s7.6,1.46,9.61,1.16c0,0,7.65-.69,10.2-1.16.34-.06.7-.13,1.07-.18v.37C191.44,170.51,183.3,171.32,183.3,171.32Z"/><path class="cls-17" d="M183.21,173.29c-5.06,1.15-9.14-2.85-9.14-2.85-1.81-1.61-2.26-4.58-2.35-5.35l.64.06s7.32,1.46,9.25,1.17c0,0,7.35-.7,9.81-1.17l1-.17v.37C191,172.48,183.21,173.29,183.21,173.29Z"/><path class="cls-16" d="M194.61,163.05v.07c-.09.39-.65,2.79-1.17,4.67a14.79,14.79,0,0,1-2.81,4.76,3.63,3.63,0,0,1-1.34.91c-1.83.72-6.64,2.15-8.49,1.74,0,0-7-.83-8.67-4.2a15.73,15.73,0,0,1-1.27-2.61c-.57-1.48-1.15-3.33-1.53-4.75-.17-.64-.3-1.19-.37-1.57l-.78-6a37.2,37.2,0,0,1-.24-5.38,5,5,0,0,1,.58-.55c.86,1.38,2.8,4.76,2.85,7.25,0,0,1,5.17,1.14,5.69v.17c.08.7.5,3.42,2.15,4.89,0,0,3.74,3.66,8.37,2.61,0,0,7.16-.74,8.42-7.27v-.34c.2-1.56,1-8,1.44-9s1.25-3.33,1.82-4.45l.45.38c.18,1.75.35,3.78.34,4.81C195.53,154.82,195.44,161.44,194.61,163.05Z"/><path class="cls-18" d="M195.91,164.89V165c-.1.43-.7,3-1.28,5.11a16.28,16.28,0,0,1-3.07,5.2,3.89,3.89,0,0,1-1.46,1c-2,.79-7.26,2.34-9.28,1.9,0,0-7.59-.91-9.46-4.59a18,18,0,0,1-1.4-2.86,52.87,52.87,0,0,1-1.66-5.18c-.19-.7-.33-1.3-.4-1.72l-.86-6.56a39.85,39.85,0,0,1-.26-5.88q.3-.31.63-.6c.94,1.51,3.06,5.2,3.12,7.92l1.24,6.21v.19c.08.76.53,3.74,2.34,5.35,0,0,4.08,4,9.14,2.84,0,0,7.83-.8,9.2-7.93l.05-.37c.21-1.71,1.12-8.77,1.56-9.9s1.37-3.63,2-4.86c.18.14.34.29.5.43.19,1.9.38,4.12.36,5.25C196.91,155.9,196.81,163.13,195.91,164.89Z"/><g id="INSERT-2-2"><g id="LINE-2-2"><line class="cls-10" x1="145.36" y1="162.34" x2="145.4" y2="162.34"/></g></g><path class="cls-11" d="M125.15,173s.61,9.73,7.58,12.14c0,0,7.15,3.36,13.46,1,0,0,8-2.12,9.38-8.77,0,0,2.5-8.83,2.48-12.24s.49-6-4.13-9.24c0,0-8.28-4-17.1-2.29,0,0-8.28,1.47-10.08,3.27a7.47,7.47,0,0,0-3.08,7.22l.4,4.22a11.36,11.36,0,0,0,.34,1.92Z"/><path class="cls-12" d="M125.05,169.48s.61,9.73,7.58,12.15c0,0,7.15,3.35,13.46,1,0,0,8-2.12,9.38-8.77,0,0,2.49-8.82,2.47-12.24s.5-6-4.12-9.24c0,0-8.28-4-17.1-2.29,0,0-8.29,1.47-10.08,3.27a7.52,7.52,0,0,0-3.09,7.23l.4,4.21a12.47,12.47,0,0,0,.35,1.92Z"/><path class="cls-13" d="M155.05,150.22a2.38,2.38,0,0,1,.39-.6,8.49,8.49,0,0,0,.11,1Z"/><path class="cls-14" d="M154.89,165v-.07c.9-1.76,1-9,1-9,0-1.12-.17-3.35-.37-5.25,3,2.71,2.6,5.06,2.62,8A39.4,39.4,0,0,1,157,166,4.07,4.07,0,0,0,154.89,165Z"/><path class="cls-14" d="M127.28,165.54a45.53,45.53,0,0,0,1.66,5.18,17.93,17.93,0,0,0,1.4,2.85c1.87,3.68,9.46,4.59,9.46,4.59,2,.44,7.28-1.11,9.28-1.9a3.89,3.89,0,0,0,1.46-1,16.28,16.28,0,0,0,3.07-5.2c.57-2.06,1.18-4.67,1.28-5.11a4.11,4.11,0,0,1,2.06,1c-.63,2.67-1.27,4.93-1.27,4.93-1.39,6.65-9.38,8.77-9.38,8.77-6.31,2.4-13.46-1-13.46-1-6.23-2.16-7.37-10.14-7.55-11.82A5,5,0,0,1,127.28,165.54Z"/><path class="cls-14" d="M126,157.25l.87,6.56c.07.42.21,1,.4,1.73a5.14,5.14,0,0,0-2,1.38v-.32l-.75-2.8a11.49,11.49,0,0,1-.35-1.93l-.4-4.21a7.57,7.57,0,0,1,2-6.28A42.63,42.63,0,0,0,126,157.25Z"/><path class="cls-15" d="M151.5,165.16l-1,.17c-2.45.47-9.81,1.17-9.81,1.17-1.93.29-9.24-1.17-9.24-1.17l-.65-.06v-.19l-1.24-6.21c-.06-2.72-2.18-6.41-3.12-7.92a5,5,0,0,1,.46-.34c1.8-1.8,10.08-3.27,10.08-3.27,8.83-1.68,17.1,2.29,17.1,2.29.37.26.71.52,1,.77-.63,1.23-1.61,3.89-2,4.86C152.62,156.39,151.71,163.45,151.5,165.16Z"/><path class="cls-16" d="M142.3,171.32c-5.26,1.15-9.51-2.85-9.51-2.85-1.87-1.61-2.34-4.58-2.43-5.34l.67.06s7.6,1.46,9.61,1.16c0,0,7.65-.69,10.2-1.16.34-.06.7-.13,1.07-.18v.37C150.44,170.51,142.3,171.32,142.3,171.32Z"/><path class="cls-17" d="M142.21,173.29c-5.06,1.15-9.14-2.85-9.14-2.85-1.81-1.61-2.26-4.58-2.35-5.35l.64.06s7.32,1.46,9.25,1.17c0,0,7.35-.7,9.81-1.17l1-.17v.37C150,172.48,142.21,173.29,142.21,173.29Z"/><path class="cls-16" d="M153.61,163.05v.07c-.09.39-.65,2.79-1.17,4.67a14.79,14.79,0,0,1-2.81,4.76,3.63,3.63,0,0,1-1.34.91c-1.83.72-6.64,2.15-8.49,1.74,0,0-7-.83-8.67-4.2a15.73,15.73,0,0,1-1.27-2.61c-.57-1.48-1.15-3.33-1.53-4.75-.17-.64-.3-1.19-.37-1.57l-.78-6a37.2,37.2,0,0,1-.24-5.38,5,5,0,0,1,.58-.55c.86,1.38,2.8,4.76,2.85,7.25,0,0,1,5.17,1.14,5.69v.17c.08.7.5,3.42,2.15,4.89,0,0,3.74,3.66,8.37,2.61,0,0,7.16-.74,8.42-7.27v-.34c.2-1.56,1-8,1.44-9s1.25-3.33,1.82-4.45l.45.38c.18,1.75.35,3.78.34,4.81C154.53,154.82,154.44,161.44,153.61,163.05Z"/><path class="cls-18" d="M154.91,164.89V165c-.1.43-.7,3-1.28,5.11a16.28,16.28,0,0,1-3.07,5.2,3.89,3.89,0,0,1-1.46,1c-2,.79-7.26,2.34-9.28,1.9,0,0-7.59-.91-9.46-4.59a18,18,0,0,1-1.4-2.86,52.87,52.87,0,0,1-1.66-5.18c-.19-.7-.33-1.3-.4-1.72l-.86-6.56a39.85,39.85,0,0,1-.26-5.88q.3-.31.63-.6c.94,1.51,3.06,5.2,3.12,7.92l1.24,6.21v.19c.08.76.53,3.74,2.34,5.35,0,0,4.08,4,9.14,2.84,0,0,7.83-.8,9.2-7.93l.05-.37c.21-1.71,1.12-8.77,1.56-9.9s1.37-3.63,2-4.86c.18.14.34.29.5.43.19,1.9.38,4.12.36,5.25C155.91,155.9,155.81,163.13,154.91,164.89Z"/><g id="INSERT"><g id="LINE"><line class="cls-10" x1="145.1" y1="91.8" x2="145.06" y2="91.8"/></g></g><path class="cls-11" d="M124.85,92.56s.61-9.72,7.58-12.14c0,0,7.15-3.36,13.46-1,0,0,8,2.12,9.38,8.77,0,0,2.49,8.83,2.47,12.24s.5,6-4.12,9.25c0,0-8.28,4-17.1,2.28,0,0-8.29-1.47-10.08-3.27a7.5,7.5,0,0,1-3.09-7.22l.4-4.21a12.6,12.6,0,0,1,.35-1.93Z"/><path class="cls-12" d="M124.85,90.3s.61-9.73,7.58-12.15c0,0,7.15-3.35,13.46-1,0,0,8,2.13,9.38,8.78,0,0,2.49,8.82,2.47,12.24s.5,6-4.12,9.24c0,0-8.28,4-17.1,2.28,0,0-8.29-1.47-10.08-3.26a7.52,7.52,0,0,1-3.09-7.23l.4-4.21a12.6,12.6,0,0,1,.35-1.93Z"/><path class="cls-13" d="M154.75,103.91a1.83,1.83,0,0,0,.39.6c0-.32.07-.67.1-1Z"/><path class="cls-14" d="M154.59,89.17v.07c.9,1.77,1,9,1,9,0,1.12-.18,3.34-.37,5.25,3-2.72,2.6-5.06,2.62-8a38.49,38.49,0,0,0-1.22-7.31A4.08,4.08,0,0,1,154.59,89.17Z"/><path class="cls-14" d="M127,88.6a45.53,45.53,0,0,1,1.66-5.18,17.93,17.93,0,0,1,1.4-2.85c1.87-3.68,9.46-4.59,9.46-4.59,2-.45,7.28,1.11,9.28,1.89a4.05,4.05,0,0,1,1.46,1,16.28,16.28,0,0,1,3.07,5.2c.57,2.06,1.18,4.67,1.28,5.1a4.09,4.09,0,0,0,2-1c-.62-2.68-1.26-4.93-1.26-4.93-1.35-6.68-9.35-8.8-9.35-8.8-6.31-2.4-13.46,1-13.46,1-6.23,2.16-7.37,10.14-7.55,11.83A5,5,0,0,0,127,88.6Z"/><path class="cls-14" d="M125.71,96.89l.86-6.57c.08-.42.22-1,.41-1.72a5,5,0,0,1-2-1.39v.33l-.75,2.8a11.47,11.47,0,0,0-.34,1.93l-.4,4.21a7.49,7.49,0,0,0,2,6.28A42.62,42.62,0,0,1,125.71,96.89Z"/><path class="cls-15" d="M151.19,89a5,5,0,0,1-1-.18c-2.45-.47-9.81-1.16-9.81-1.16-1.93-.3-9.25,1.16-9.25,1.16l-.64.07v.18c-.1.57-1.24,6.22-1.24,6.22-.06,2.72-2.17,6.4-3.11,7.91a4,4,0,0,0,.46.35c1.8,1.79,10.08,3.26,10.08,3.26,8.82,1.69,17.1-2.28,17.1-2.28.37-.26.71-.52,1-.77-.63-1.23-1.61-3.89-2-4.87S151.41,90.68,151.19,89Z"/><path class="cls-16" d="M142,82.81c-5.26-1.14-9.51,2.85-9.51,2.85-1.88,1.61-2.34,4.58-2.44,5.35l.67-.06s7.61-1.46,9.62-1.17c0,0,7.65.7,10.2,1.17l1.07.17a1.13,1.13,0,0,0-.05-.37C150.13,83.62,142,82.81,142,82.81Z"/><path class="cls-17" d="M141.91,80.85c-5.06-1.15-9.15,2.85-9.15,2.85-1.8,1.61-2.25,4.58-2.34,5.34l.64-.06s7.31-1.46,9.25-1.16c0,0,7.35.69,9.8,1.16l1,.18a1.13,1.13,0,0,0-.05-.37C149.73,81.66,141.91,80.85,141.91,80.85Z"/><path class="cls-16" d="M153.31,91.08V91c-.09-.4-.65-2.79-1.17-4.68a15.16,15.16,0,0,0-2.81-4.76,3.63,3.63,0,0,0-1.34-.91c-1.83-.72-6.65-2.14-8.49-1.74,0,0-7,.84-8.67,4.21a15.73,15.73,0,0,0-1.27,2.61c-.57,1.47-1.15,3.33-1.53,4.74-.17.64-.3,1.19-.37,1.58l-.79,6a40.29,40.29,0,0,0-.24,5.38,7.55,7.55,0,0,0,.59.54c.86-1.38,2.79-4.75,2.85-7.24,0,0,1-5.17,1.13-5.69v-.17c.08-.7.49-3.42,2.15-4.9,0,0,3.74-3.66,8.37-2.61,0,0,7.16.75,8.42,7.27V91c.2,1.56,1,8,1.43,9.06s1.25,3.33,1.83,4.45l.45-.39c.17-1.74.35-3.78.33-4.81C154.23,99.31,154.14,92.7,153.31,91.08Z"/><path class="cls-18" d="M154.61,89.24v-.07c-.1-.43-.71-3-1.28-5.1a16.28,16.28,0,0,0-3.07-5.2,3.89,3.89,0,0,0-1.46-1c-2-.79-7.26-2.35-9.28-1.9,0,0-7.59.91-9.46,4.59a17.93,17.93,0,0,0-1.4,2.85A40.94,40.94,0,0,0,127,88.6c-.19.7-.33,1.3-.41,1.72l-.86,6.57a42.79,42.79,0,0,0-.26,5.88,6,6,0,0,0,.64.59c.94-1.5,3.06-5.19,3.11-7.91,0,0,1.14-5.65,1.24-6.22v-.18c.09-.77.54-3.74,2.35-5.35,0,0,4.08-4,9.14-2.85,0,0,7.83.81,9.2,7.94v.37c.22,1.7,1.13,8.76,1.57,9.89s1.36,3.64,2,4.86l.5-.42c.19-1.9.38-4.13.36-5.25C155.61,98.24,155.51,91,154.61,89.24Z"/><g id="INSERT-2-3"><g id="LINE-2-3"><line class="cls-10" x1="186.1" y1="91.8" x2="186.06" y2="91.8"/></g></g><path class="cls-11" d="M165.85,92.56s.61-9.72,7.58-12.14c0,0,7.15-3.36,13.46-1,0,0,8,2.12,9.38,8.77,0,0,2.49,8.83,2.47,12.24s.5,6-4.12,9.25c0,0-8.28,4-17.1,2.28,0,0-8.29-1.47-10.08-3.27a7.5,7.5,0,0,1-3.09-7.22l.4-4.21a12.6,12.6,0,0,1,.35-1.93Z"/><path class="cls-12" d="M165.85,90.3s.61-9.73,7.58-12.15c0,0,7.15-3.35,13.46-1,0,0,8,2.13,9.38,8.78,0,0,2.49,8.82,2.47,12.24s.5,6-4.12,9.24c0,0-8.28,4-17.1,2.28,0,0-8.29-1.47-10.08-3.26a7.52,7.52,0,0,1-3.09-7.23l.4-4.21a12.6,12.6,0,0,1,.35-1.93Z"/><path class="cls-13" d="M195.75,103.91a1.83,1.83,0,0,0,.39.6c0-.32.07-.67.1-1Z"/><path class="cls-14" d="M195.59,89.17v.07c.9,1.77,1,9,1,9,0,1.12-.18,3.34-.37,5.25,3-2.72,2.6-5.06,2.62-8a38.49,38.49,0,0,0-1.22-7.31A4.08,4.08,0,0,1,195.59,89.17Z"/><path class="cls-14" d="M168,88.6a45.53,45.53,0,0,1,1.66-5.18,17.93,17.93,0,0,1,1.4-2.85c1.87-3.68,9.46-4.59,9.46-4.59,2-.45,7.28,1.11,9.28,1.89a4.05,4.05,0,0,1,1.46,1,16.28,16.28,0,0,1,3.07,5.2c.57,2.06,1.18,4.67,1.28,5.1a4.09,4.09,0,0,0,2-1c-.62-2.68-1.26-4.93-1.26-4.93-1.35-6.68-9.35-8.8-9.35-8.8-6.31-2.4-13.46,1-13.46,1-6.23,2.16-7.37,10.14-7.55,11.83A5,5,0,0,0,168,88.6Z"/><path class="cls-14" d="M166.71,96.89l.86-6.57c.08-.42.22-1,.41-1.72a5,5,0,0,1-2-1.39v.33l-.75,2.8a11.47,11.47,0,0,0-.34,1.93l-.4,4.21a7.49,7.49,0,0,0,2,6.28A42.62,42.62,0,0,1,166.71,96.89Z"/><path class="cls-15" d="M192.19,89a5,5,0,0,1-1-.18c-2.45-.47-9.81-1.16-9.81-1.16-1.93-.3-9.25,1.16-9.25,1.16l-.64.07v.18c-.1.57-1.24,6.22-1.24,6.22-.06,2.72-2.17,6.4-3.11,7.91a4,4,0,0,0,.46.35c1.8,1.79,10.08,3.26,10.08,3.26,8.82,1.69,17.1-2.28,17.1-2.28.37-.26.71-.52,1-.77-.63-1.23-1.61-3.89-2-4.87S192.41,90.68,192.19,89Z"/><path class="cls-16" d="M183,82.81c-5.26-1.14-9.51,2.85-9.51,2.85-1.88,1.61-2.34,4.58-2.44,5.35l.67-.06s7.61-1.46,9.62-1.17c0,0,7.65.7,10.2,1.17l1.07.17a1.13,1.13,0,0,0-.05-.37C191.13,83.62,183,82.81,183,82.81Z"/><path class="cls-17" d="M182.91,80.85c-5.06-1.15-9.15,2.85-9.15,2.85-1.8,1.61-2.25,4.58-2.34,5.34l.64-.06s7.31-1.46,9.25-1.16c0,0,7.35.69,9.8,1.16l1,.18a1.13,1.13,0,0,0-.05-.37C190.73,81.66,182.91,80.85,182.91,80.85Z"/><path class="cls-16" d="M194.31,91.08V91c-.09-.4-.65-2.79-1.17-4.68a15.16,15.16,0,0,0-2.81-4.76,3.63,3.63,0,0,0-1.34-.91c-1.83-.72-6.65-2.14-8.49-1.74,0,0-7,.84-8.67,4.21a15.73,15.73,0,0,0-1.27,2.61c-.57,1.47-1.15,3.33-1.53,4.74-.17.64-.3,1.19-.37,1.58l-.79,6a40.29,40.29,0,0,0-.24,5.38,7.55,7.55,0,0,0,.59.54c.86-1.38,2.79-4.75,2.85-7.24,0,0,1-5.17,1.13-5.69v-.17c.08-.7.49-3.42,2.15-4.9,0,0,3.74-3.66,8.37-2.61,0,0,7.16.75,8.42,7.27V91c.2,1.56,1,8,1.43,9.06s1.25,3.33,1.83,4.45l.45-.39c.17-1.74.35-3.78.33-4.81C195.23,99.31,195.14,92.7,194.31,91.08Z"/><path class="cls-18" d="M195.61,89.24v-.07c-.1-.43-.71-3-1.28-5.1a16.28,16.28,0,0,0-3.07-5.2,3.89,3.89,0,0,0-1.46-1c-2-.79-7.26-2.35-9.28-1.9,0,0-7.59.91-9.46,4.59a17.93,17.93,0,0,0-1.4,2.85A40.94,40.94,0,0,0,168,88.6c-.19.7-.33,1.3-.41,1.72l-.86,6.57a42.79,42.79,0,0,0-.26,5.88,6,6,0,0,0,.64.59c.94-1.5,3.06-5.19,3.11-7.91,0,0,1.14-5.65,1.24-6.22v-.18c.09-.77.54-3.74,2.35-5.35,0,0,4.08-4,9.14-2.85,0,0,7.83.81,9.2,7.94v.37c.22,1.7,1.13,8.76,1.57,9.89s1.36,3.64,2,4.86l.5-.42c.19-1.9.38-4.13.36-5.25C196.61,98.24,196.51,91,195.61,89.24Z"/><g id="tables-5"><rect class="cls-5" x="108.74" y="107.34" width="103.26" height="48.06" rx="1.76"/><rect class="cls-19" x="108.74" y="104.95" width="103.26" height="48.06" rx="1.76"/><rect id="table-02.028" class="cls-20" x="108.74" y="103" width="103.26" height="48.06" rx="1.76"/></g><g id="tables"><path class="cls-21" d="M70,436H51.66a9.79,9.79,0,0,0-1.53.15h-.54a1.8,1.8,0,0,0-1.8-1.82,1.78,1.78,0,0,0-1.48.75c-.27.39-.53.77-.78,1.16a4.86,4.86,0,0,0-3.34,2.33,20.89,20.89,0,0,0-.06,20.77,4.87,4.87,0,0,0,3.39,2.44c.49.77.84,1.21.85,1.23a1.81,1.81,0,0,0,3.22-1.14h.47a8.58,8.58,0,0,0,1.6.15H70a2.64,2.64,0,0,0,2.64-2.64h0V438.65h0A2.64,2.64,0,0,0,70,436Z"/><path class="cls-22" d="M70,433H51.66a9.79,9.79,0,0,0-1.53.15h-.54a1.8,1.8,0,0,0-1.8-1.82,1.78,1.78,0,0,0-1.48.75c-.27.39-.53.77-.78,1.16a4.86,4.86,0,0,0-3.34,2.33,20.89,20.89,0,0,0-.06,20.77,4.87,4.87,0,0,0,3.39,2.44c.49.77.84,1.21.85,1.23a1.81,1.81,0,0,0,3.22-1.14h.47a8.58,8.58,0,0,0,1.6.15H70a2.64,2.64,0,0,0,2.64-2.64h0V435.65h0A2.64,2.64,0,0,0,70,433Z"/><path class="cls-22" d="M46.43,431.16H59.57a4.91,4.91,0,0,1,4.91,4.91h0V452a4.91,4.91,0,0,1-4.91,4.91H46.43a4.87,4.87,0,0,1-4.3-2.53,20.89,20.89,0,0,1,.06-20.77A4.86,4.86,0,0,1,46.43,431.16Z"/><path class="cls-1" d="M72.64,433.65h0A2.64,2.64,0,0,0,70,431H51.66c-1.46,0-4.51.58-4.51,2l-1.55,1.81-.92,4.57L44.36,444l.58,7.7,2.84,3.45c0,1.46,2.42,1.86,3.88,1.86H70a2.64,2.64,0,0,0,2.64-2.64h0Z"/><path class="cls-23" d="M47.78,458.69a1.83,1.83,0,0,1-1.41-.67c-.1-.13-10.59-13.39-.06-27.93a1.82,1.82,0,0,1,2.94,2.13c-8.92,12.31-.15,23.41-.06,23.52a1.81,1.81,0,0,1-1.41,2.95Z"/><path class="cls-21" d="M72,478H53.66a9.79,9.79,0,0,0-1.53.15h-.54a1.8,1.8,0,0,0-1.8-1.82,1.78,1.78,0,0,0-1.48.75c-.27.39-.53.77-.78,1.16a4.86,4.86,0,0,0-3.34,2.33,20.89,20.89,0,0,0-.06,20.77,4.87,4.87,0,0,0,3.39,2.44c.49.77.84,1.21.85,1.23a1.81,1.81,0,0,0,3.22-1.14h.47a8.58,8.58,0,0,0,1.6.15H72a2.64,2.64,0,0,0,2.64-2.64h0V480.65h0A2.64,2.64,0,0,0,72,478Z"/><path class="cls-22" d="M72,475H53.66a9.79,9.79,0,0,0-1.53.15h-.54a1.8,1.8,0,0,0-1.8-1.82,1.78,1.78,0,0,0-1.48.75c-.27.39-.53.77-.78,1.16a4.86,4.86,0,0,0-3.34,2.33,20.89,20.89,0,0,0-.06,20.77,4.87,4.87,0,0,0,3.39,2.44c.49.77.84,1.21.85,1.23a1.81,1.81,0,0,0,3.22-1.14h.47a8.58,8.58,0,0,0,1.6.15H72a2.64,2.64,0,0,0,2.64-2.64h0V477.65h0A2.64,2.64,0,0,0,72,475Z"/><path class="cls-22" d="M48.43,473.16H61.57a4.91,4.91,0,0,1,4.91,4.91h0V494a4.91,4.91,0,0,1-4.91,4.91H48.43a4.87,4.87,0,0,1-4.3-2.53,20.89,20.89,0,0,1,.06-20.77A4.86,4.86,0,0,1,48.43,473.16Z"/><path class="cls-1" d="M74.64,475.65h0A2.64,2.64,0,0,0,72,473H53.66c-1.46,0-4.51.58-4.51,2l-1.55,1.81-.92,4.57L46.36,486l.58,7.7,2.84,3.45c0,1.46,2.42,1.86,3.88,1.86H72a2.64,2.64,0,0,0,2.64-2.64h0Z"/><path class="cls-23" d="M49.78,500.69a1.83,1.83,0,0,1-1.41-.67c-.1-.13-10.59-13.39-.06-27.93a1.82,1.82,0,0,1,2.94,2.13c-8.92,12.31-.15,23.41-.06,23.52a1.81,1.81,0,0,1-1.41,2.95Z"/><path class="cls-21" d="M70,520H51.66a9.79,9.79,0,0,0-1.53.15h-.54a1.8,1.8,0,0,0-1.8-1.82,1.78,1.78,0,0,0-1.48.75c-.27.39-.53.77-.78,1.16a4.86,4.86,0,0,0-3.34,2.33,20.89,20.89,0,0,0-.06,20.77,4.87,4.87,0,0,0,3.39,2.44c.49.77.84,1.21.85,1.23a1.81,1.81,0,0,0,3.22-1.14h.47a8.58,8.58,0,0,0,1.6.15H70a2.64,2.64,0,0,0,2.64-2.64h0V522.65h0A2.64,2.64,0,0,0,70,520Z"/><path class="cls-22" d="M70,517H51.66a9.79,9.79,0,0,0-1.53.15h-.54a1.8,1.8,0,0,0-1.8-1.82,1.78,1.78,0,0,0-1.48.75c-.27.39-.53.77-.78,1.16a4.86,4.86,0,0,0-3.34,2.33,20.89,20.89,0,0,0-.06,20.77,4.87,4.87,0,0,0,3.39,2.44c.49.77.84,1.21.85,1.23a1.81,1.81,0,0,0,3.22-1.14h.47a8.58,8.58,0,0,0,1.6.15H70a2.64,2.64,0,0,0,2.64-2.64h0V519.65h0A2.64,2.64,0,0,0,70,517Z"/><path class="cls-22" d="M46.43,515.16H59.57a4.91,4.91,0,0,1,4.91,4.91h0V536a4.91,4.91,0,0,1-4.91,4.91H46.43a4.87,4.87,0,0,1-4.3-2.53,20.89,20.89,0,0,1,.06-20.77A4.86,4.86,0,0,1,46.43,515.16Z"/><path class="cls-1" d="M72.64,517.65h0A2.64,2.64,0,0,0,70,515H51.66c-1.46,0-4.51.58-4.51,2l-1.55,1.81-.92,4.57L44.36,528l.58,7.7,2.84,3.45c0,1.46,2.42,1.86,3.88,1.86H70a2.64,2.64,0,0,0,2.64-2.64h0Z"/><path class="cls-23" d="M47.78,542.69a1.83,1.83,0,0,1-1.41-.67c-.1-.13-10.59-13.39-.06-27.93a1.82,1.82,0,0,1,2.94,2.13c-8.92,12.31-.15,23.41-.06,23.52a1.81,1.81,0,0,1-.17,2.55,1.83,1.83,0,0,1-1.24.45Z"/><path class="cls-21" d="M72,564H53.66a9.79,9.79,0,0,0-1.53.15h-.54a1.8,1.8,0,0,0-1.8-1.82,1.78,1.78,0,0,0-1.48.75c-.27.39-.53.77-.78,1.16a4.86,4.86,0,0,0-3.34,2.33,20.89,20.89,0,0,0-.06,20.77,4.87,4.87,0,0,0,3.39,2.44c.49.77.84,1.21.85,1.23a1.81,1.81,0,0,0,3.22-1.14h.47a8.58,8.58,0,0,0,1.6.15H72a2.64,2.64,0,0,0,2.64-2.64h0V566.65h0A2.64,2.64,0,0,0,72,564Z"/><path class="cls-22" d="M72,561H53.66a9.79,9.79,0,0,0-1.53.15h-.54a1.8,1.8,0,0,0-1.8-1.82,1.78,1.78,0,0,0-1.48.75c-.27.39-.53.77-.78,1.16a4.86,4.86,0,0,0-3.34,2.33,20.89,20.89,0,0,0-.06,20.77,4.87,4.87,0,0,0,3.39,2.44c.49.77.84,1.21.85,1.23a1.81,1.81,0,0,0,3.22-1.14h.47a8.58,8.58,0,0,0,1.6.15H72a2.64,2.64,0,0,0,2.64-2.64h0V563.65h0A2.64,2.64,0,0,0,72,561Z"/><path class="cls-22" d="M48.43,559.16H61.57a4.91,4.91,0,0,1,4.91,4.91h0V580a4.91,4.91,0,0,1-4.91,4.91H48.43a4.87,4.87,0,0,1-4.3-2.53,20.89,20.89,0,0,1,.06-20.77A4.86,4.86,0,0,1,48.43,559.16Z"/><path class="cls-1" d="M74.64,561.65h0A2.64,2.64,0,0,0,72,559H53.66c-1.46,0-4.51.58-4.51,2l-1.55,1.81-.92,4.57L46.36,572l.58,7.7,2.84,3.45c0,1.46,2.42,1.86,3.88,1.86H72a2.64,2.64,0,0,0,2.64-2.64h0Z"/><path class="cls-23" d="M49.78,586.69a1.83,1.83,0,0,1-1.41-.67c-.1-.13-10.59-13.39-.06-27.93a1.82,1.82,0,0,1,2.94,2.13c-8.92,12.31-.15,23.41-.06,23.52a1.81,1.81,0,0,1-.17,2.55,1.83,1.83,0,0,1-1.24.45Z"/></g><g id="plants"><ellipse class="cls-24" cx="67.29" cy="221.99" rx="9.02" ry="9.33"/><ellipse class="cls-25" cx="66.53" cy="219.4" rx="9.02" ry="9.33"/><ellipse class="cls-26" cx="66.08" cy="216.46" rx="3.82" ry="3.95"/><path class="cls-27" d="M64.2,216c-.22-1.17-2.29-2.76-2.29-2.76"/><path class="cls-27" d="M62.66,209.82a15.57,15.57,0,0,1,.93,6.2"/><path class="cls-27" d="M64.3,203.17s.29,11.37,1.07,12.85"/><path class="cls-27" d="M65.22,204.29s-1.12,11.11-1,12.07"/><path class="cls-27" d="M66.5,213.38a15.42,15.42,0,0,0-.56,3.09"/><path class="cls-27" d="M67.06,212.66a29,29,0,0,1-.56,3.7"/><path class="cls-28" d="M56.74,210.07a5.83,5.83,0,0,0,2.7-1l.6-.36-4.22-.3-2.71-1.49a.6.6,0,0,0-.49,0l-.54.24a32,32,0,0,0-3.16,2.27c-.87.81-2.53.89-2.84,3.51L46,214a6.72,6.72,0,0,0,.64,5.26,35.09,35.09,0,0,1,5-5.75,1.74,1.74,0,0,0,.7-1.75,1.84,1.84,0,0,0,.7.31c.31,0,1.21-1.06,1.21-1.06a2,2,0,0,1,.87-.36h.07l.14-.13A4.39,4.39,0,0,1,56.74,210.07Z"/><path class="cls-29" d="M63.13,212.24a2.92,2.92,0,0,0-.29-.48c-.1-.12-.23-.23-.34-.35a1.83,1.83,0,0,1-.28-.49,3.45,3.45,0,0,0-.28-.54,5.39,5.39,0,0,0-.72-1,2.79,2.79,0,0,0-1.12-.76h-.05l-.6.36a5.83,5.83,0,0,1-2.7,1,4.31,4.31,0,0,0-1.48.49l-.14.13a2.35,2.35,0,0,1,1.63.65,11.48,11.48,0,0,0,2.56,1.93,4.35,4.35,0,0,0,2.76.16,1,1,0,0,1,.37-.47C62.67,212.83,63.24,212.64,63.13,212.24Z"/><path class="cls-30" d="M63.35,206.1a2.34,2.34,0,0,0-1.62-1.2,17.3,17.3,0,0,1-2.7-2.43A5.82,5.82,0,0,0,55.78,201l-.88,2v-2.41A30.86,30.86,0,0,0,48.4,199l-.4,1.55-.54-1.65a7.33,7.33,0,0,1-4.43.81h-3.6a3.22,3.22,0,0,0-1.9.94A2.32,2.32,0,0,1,37,201a8.15,8.15,0,0,1-2.69,1.11,22,22,0,0,1,3.24-.24,7.72,7.72,0,0,1,2.38-.4,2.22,2.22,0,0,0,1.94-.86.17.17,0,0,1,.22-.05h0L44,202l.07-.89a.16.16,0,0,1,.18-.16h0A12.88,12.88,0,0,0,48,202a41.86,41.86,0,0,1,7.87,2l-1.18,1.06,2.61-.54s1.15,1.48,2,1.48a5.64,5.64,0,0,1,3.4,4.15C62.83,210.09,63.81,209.24,63.35,206.1Z"/><path class="cls-29" d="M59.32,206c-.85,0-2-1.48-2-1.48l-2.62.54L55.9,204a42.16,42.16,0,0,0-7.9-2A13.34,13.34,0,0,1,44.34,201a.19.19,0,0,0-.23.1h0L44,202l-1.91-1.41a.17.17,0,0,0-.23,0h0a2.23,2.23,0,0,1-1.94.85,7.72,7.72,0,0,0-2.38.4,31.2,31.2,0,0,1,4.32.24,65,65,0,0,1,11.87,3.67s7.5,2.32,8.94,4.4h0A5.61,5.61,0,0,0,59.32,206Z"/><path class="cls-29" d="M70.42,195.53s1.32-2.46,1.32-2.64a4.86,4.86,0,0,0,3.73-1.34l2.33-2.72a30.48,30.48,0,0,1-3.75,1l-.51,2.41-.43-2a15.85,15.85,0,0,0-3.11,2.9l.77-.18Z"/><path class="cls-28" d="M88.29,187.73l-.26-.11h0a10.08,10.08,0,0,0-3.63-.18h0a19,19,0,0,0-3.84.18l-.43.76a.18.18,0,0,1-.15.08h0a.16.16,0,0,1-.16-.16h0l.1-.62a4.11,4.11,0,0,0-2.13,1.18l-2.33,2.73a4.89,4.89,0,0,1-3.72,1.34c0,.18-1.33,2.64-1.33,2.64l.36-2.57-.77.18h0a.37.37,0,0,1-.12.13,8.36,8.36,0,0,0-.84.63c0,.07-2.43,6.69-2.38,7.32a87.26,87.26,0,0,1,7-7.52l.21-.16c.75-.68,5.55-4.79,10.72-4.69A24.18,24.18,0,0,1,91.9,190,20.48,20.48,0,0,0,88.29,187.73Z"/><path class="cls-31" d="M74.92,198.41l-.28.14A9.87,9.87,0,0,0,72,199c-.67.37-1.31.77-1.94,1.2s-1.64.92-2.09,1.19a2.22,2.22,0,0,0-.64.58c-1.5,2.09,1,5.43,1,5.43a3,3,0,0,1,.27-.3,2.38,2.38,0,0,0,.61-.73l.93-1.69a11.6,11.6,0,0,1,4.66-4.5A15.81,15.81,0,0,1,81.9,199,19.34,19.34,0,0,0,74.92,198.41Z"/><path class="cls-29" d="M86.5,198.14c-.35-.1-5.65-.5-6.71-.58h-.38a13.44,13.44,0,0,0-4.48.86,19.68,19.68,0,0,1,7,.6h.43A9.84,9.84,0,0,0,86.5,198.14Z"/><path class="cls-29" d="M68.13,193.84a9.56,9.56,0,0,1-1.84,3,6.31,6.31,0,0,0-1.54,1.79,2.07,2.07,0,0,0-.23,1.27,5.64,5.64,0,0,1-.08,1.74,3.22,3.22,0,0,0-.1,1.82q.47.69,1.14,1.53c.67.84,1.71-5.27,1.74-5.68l2-5.75,1.72-4.42.18-.52a45.49,45.49,0,0,0-2.75,4.73A2.23,2.23,0,0,0,68.13,193.84Z"/><path class="cls-32" d="M79.29,173.23a4.49,4.49,0,0,0-3.87.5,31.57,31.57,0,0,0-2.29,2.48s-1.22,1.12-1.1,2.15a1.41,1.41,0,0,1-.2.92,1.11,1.11,0,0,1-.3.31A15.68,15.68,0,0,0,68,184.73a3.57,3.57,0,0,1-.34.71l-2,3.19a4.52,4.52,0,0,1-.79.9,4.07,4.07,0,0,0-1.1,3.25,3,3,0,0,1-.38,1.63,3.83,3.83,0,0,0-.08,3.06,3,3,0,0,1-.33,2s-.54,1.09,1.39,4a3.23,3.23,0,0,1,.11-1.82,5.64,5.64,0,0,0,.07-1.74,2.1,2.1,0,0,1,.23-1.28,6.59,6.59,0,0,1,1.54-1.79,9.59,9.59,0,0,0,1.85-3,2.25,2.25,0,0,1,.2-.51,45.49,45.49,0,0,1,2.75-4.73c.25-.74.69-2.06.8-2.62a4.26,4.26,0,0,1,.19-.7,31.66,31.66,0,0,1,2.6-5.94A5.25,5.25,0,0,0,76,176.4,4.38,4.38,0,0,1,79.29,173.23Z"/><path class="cls-29" d="M81.29,204.1a56.07,56.07,0,0,0-8.08.55c-.32,2.68-1.06,2.3-1.06,2.3-.28,0-.36-1.68-.36-1.68a31.58,31.58,0,0,0-4.51,2.78c-.54.45-.6,3.2-.61,3.84a4.36,4.36,0,0,1,1.76-1.17,3,3,0,0,0,1.75-1.38,5.62,5.62,0,0,1,.15,1s.31-1.54,1.36-1.75c0,0,1.21-.19,1.65-.19a8.62,8.62,0,0,0,3.21-.94,12.13,12.13,0,0,1,4.19-1c.22-.14,3.55-.36,3.55-.36C84.3,204.21,81.29,204.1,81.29,204.1Z"/><path class="cls-30" d="M73.33,208.35c-.44,0-1.65.2-1.65.2-1,.2-1.35,1.75-1.35,1.75a4.26,4.26,0,0,0-.16-1,2.91,2.91,0,0,1-1.74,1.37,4.54,4.54,0,0,0-1.76,1.17V212c-.73,1.35-.18,1.57-.18,1.57,4.33-3.51,14.23-7.21,14.23-7.21a12.3,12.3,0,0,0-4.18,1A8.23,8.23,0,0,1,73.33,208.35Z"/><path class="cls-33" d="M68.9,215.85s-1.75,1.35-2,2.34"/><path class="cls-33" d="M67.47,218.2a13.25,13.25,0,0,1,.78-5.26"/><path class="cls-33" d="M66,218.2c.66-1.25.89-10.9.89-10.9"/><path class="cls-33" d="M66.94,218.49c.1-.81-.86-10.24-.86-10.24"/><path class="cls-33" d="M65.47,218.58A12,12,0,0,0,65,216"/><path class="cls-33" d="M65,218.49a23.79,23.79,0,0,1-.47-3.14"/><path class="cls-28" d="M74.52,213.57l.12.11h.06a1.67,1.67,0,0,1,.74.31s.76.91,1,.89a1.31,1.31,0,0,0,.6-.27,1.49,1.49,0,0,0,.59,1.49,30,30,0,0,1,4.24,4.9,5.7,5.7,0,0,0,.53-4.46l-.09-1c-.27-2.22-1.67-2.3-2.41-3a30,30,0,0,0-2.69-1.93l-.45-.19a.51.51,0,0,0-.42,0L74,211.7l-3.58.26.5.3a4.91,4.91,0,0,0,2.29.9A3.58,3.58,0,0,1,74.52,213.57Z"/><path class="cls-29" d="M68.43,215.6a.83.83,0,0,1,.32.4,3.68,3.68,0,0,0,2.34-.14,9.39,9.39,0,0,0,2.17-1.64,2,2,0,0,1,1.38-.54l-.12-.11a3.93,3.93,0,0,0-1.25-.42,4.87,4.87,0,0,1-2.29-.9l-.5-.3h0a2.38,2.38,0,0,0-1,.65,4.77,4.77,0,0,0-.61.81,4,4,0,0,0-.24.46,1.52,1.52,0,0,1-.24.41c-.09.11-.2.2-.29.3a3.38,3.38,0,0,0-.24.41C67.77,215.34,68.25,215.49,68.43,215.6Z"/><path class="cls-30" d="M68.21,213.24a4.83,4.83,0,0,1,2.89-3.52c.72,0,1.69-1.25,1.69-1.25l2.22.46-1-.9a36.66,36.66,0,0,1,6.68-1.74,10.87,10.87,0,0,0,3.11-.89h0a.15.15,0,0,1,.16.13h0l.06.76,1.63-1.19h0a.14.14,0,0,1,.19,0h0a1.88,1.88,0,0,0,1.65.73,6.18,6.18,0,0,1,2,.34,19.46,19.46,0,0,1,2.75.2,6.8,6.8,0,0,1-2.28-.94,1.7,1.7,0,0,1-.42-.33,2.58,2.58,0,0,0-1.62-.79h-3a6.29,6.29,0,0,1-3.76-.68L80.7,205l-.37-1.3A26.36,26.36,0,0,0,74.86,205v2.05l-.75-1.66a5,5,0,0,0-2.76,1.29,14.23,14.23,0,0,1-2.35,2.1,2,2,0,0,0-1.37,1C67.29,212.45,68.11,213.17,68.21,213.24Z"/><path class="cls-29" d="M68.21,213.23h0c1.22-1.76,7.58-3.73,7.58-3.73a56.14,56.14,0,0,1,10.07-3.11,26.47,26.47,0,0,1,3.67-.2,6.82,6.82,0,0,0-2-.34,1.88,1.88,0,0,1-1.65-.73h0a.14.14,0,0,0-.19,0h0l-1.62,1.19-.06-.76h0a.16.16,0,0,0-.2-.09h0a10.8,10.8,0,0,1-3.1.89A37,37,0,0,0,74,208l1,.9-2.22-.46s-1,1.25-1.7,1.25A4.8,4.8,0,0,0,68.21,213.23Z"/><path class="cls-29" d="M61.36,198.66l.65.15a13.58,13.58,0,0,0-2.6-2.48L59.05,198l-.44-2a23.22,23.22,0,0,1-3.18-.83l2,2.32a4.11,4.11,0,0,0,3.16,1.13c0,.15,1.12,2.24,1.12,2.24Z"/><path class="cls-28" d="M43.46,196.15a20.37,20.37,0,0,1,6.2-1c4.39-.09,8.45,3.4,9.1,4a.86.86,0,0,0,.18.14,74.51,74.51,0,0,1,5.93,6.38c0-.54-2-6.15-2-6.21a7.4,7.4,0,0,0-.72-.53.52.52,0,0,1-.1-.11h0l-.65-.15.3,2.18s-1.12-2.09-1.12-2.25a4.11,4.11,0,0,1-3.16-1.13l-2-2.31a3.4,3.4,0,0,0-1.8-1l.09.52h0a.14.14,0,0,1-.14.14h0a.13.13,0,0,1-.12-.08l-.36-.64a16.16,16.16,0,0,0-3.26-.15h0a8.62,8.62,0,0,0-3.08.15h0l-.22.09A17,17,0,0,0,43.46,196.15Z"/><path class="cls-29" d="M49.82,194a6.71,6.71,0,0,0-3.68-.42l.61.58A8.58,8.58,0,0,1,49.82,194Z"/><path class="cls-29" d="M42.73,196.39c.24-.09.48-.18.71-.25a17.93,17.93,0,0,1,3.08-1.94l-1.16-.32-4,3Z"/><path class="cls-31" d="M51.94,203.78a13.41,13.41,0,0,1,6,1,9.88,9.88,0,0,1,4,3.82l.78,1.43a2.43,2.43,0,0,0,.52.63c.12.09.22.19.22.25s2.17-2.83.9-4.61a1.94,1.94,0,0,0-.54-.49c-.38-.22-1.19-.7-1.77-1a15.28,15.28,0,0,0-1.64-1,8.46,8.46,0,0,0-2.28-.4l-.24-.11A16.3,16.3,0,0,0,51.94,203.78Z"/><path class="cls-29" d="M51.57,203.79h.35a16.6,16.6,0,0,1,5.91-.51,11.38,11.38,0,0,0-3.79-.72h-.32c-.9.08-5.4.41-5.69.49A8.45,8.45,0,0,0,51.57,203.79Z"/><path class="cls-29" d="M63.43,198.94a36.18,36.18,0,0,0-2.32-4l.15.44,1.46,3.74L64.39,204c0,.36,1.47,4.82,1.47,4.82.34-.42.67-.85,1-1.3a2.69,2.69,0,0,0-.09-1.54,4.6,4.6,0,0,1-.06-1.48,1.74,1.74,0,0,0-.2-1.07,5.26,5.26,0,0,0-1.3-1.52,8.34,8.34,0,0,1-1.57-2.52A1.85,1.85,0,0,0,63.43,198.94Z"/><path class="cls-32" d="M57,184.59a4.5,4.5,0,0,0,1.06,2.49,26.88,26.88,0,0,1,2.21,5,4.44,4.44,0,0,1,.16.6c.09.48.46,1.59.67,2.22a34.81,34.81,0,0,1,2.34,4,1.85,1.85,0,0,1,.18.44,8.42,8.42,0,0,0,1.57,2.51,5.78,5.78,0,0,1,1.3,1.53,1.74,1.74,0,0,1,.2,1.07,4.6,4.6,0,0,0,.06,1.48,2.69,2.69,0,0,1,.09,1.54C68.48,205,68,204.11,68,204.11a2.52,2.52,0,0,1-.28-1.7,3.24,3.24,0,0,0-.07-2.59,2.5,2.5,0,0,1-.32-1.39,3.48,3.48,0,0,0-.94-2.76,3.4,3.4,0,0,1-.66-.76L64,192.26a2.77,2.77,0,0,1-.29-.6,13,13,0,0,0-3-4.36.81.81,0,0,1-.25-.27,1.19,1.19,0,0,1-.18-.78c.1-.87-.93-1.82-.93-1.82-.61-.73-1.26-1.43-1.94-2.1a3.79,3.79,0,0,0-3.29-.43A3.69,3.69,0,0,1,57,184.59Z"/><path class="cls-29" d="M49.91,209.73q1.5.08,3,.3a10.34,10.34,0,0,1,3.54.87,7.29,7.29,0,0,0,2.73.8c.37,0,1.4.16,1.4.16.88.18,1.15,1.49,1.15,1.49a4.52,4.52,0,0,1,.13-.82,2.42,2.42,0,0,0,1.48,1.16,3.78,3.78,0,0,1,1.49,1c0-.54-.06-2.87-.51-3.26a29.38,29.38,0,0,0-3.83-2.36s-.07,1.41-.31,1.44c0,0-.63.32-.9-2a46.2,46.2,0,0,0-6.85-.46S49.9,208.18,49.91,209.73Z"/><path class="cls-30" d="M56.48,210.89a10.56,10.56,0,0,0-3.54-.86s8.4,3.13,12.07,6.1c0,0,.47-.17-.16-1.32v-.12a3.74,3.74,0,0,0-1.48-1,2.48,2.48,0,0,1-1.49-1.16,4.55,4.55,0,0,0-.13.81s-.26-1.31-1.15-1.48a13.15,13.15,0,0,0-1.4-.17A7,7,0,0,1,56.48,210.89Z"/><ellipse class="cls-24" cx="350.29" cy="456.99" rx="9.02" ry="9.33"/><ellipse class="cls-25" cx="349.53" cy="454.4" rx="9.02" ry="9.33"/><ellipse class="cls-26" cx="349.08" cy="451.46" rx="3.82" ry="3.95"/><path class="cls-27" d="M347.2,451c-.22-1.17-2.29-2.76-2.29-2.76"/><path class="cls-27" d="M345.66,444.82a15.57,15.57,0,0,1,.93,6.2"/><path class="cls-27" d="M347.3,438.17s.29,11.37,1.07,12.85"/><path class="cls-27" d="M348.22,439.29s-1.12,11.11-1,12.07"/><path class="cls-27" d="M349.5,448.38a15.42,15.42,0,0,0-.56,3.09"/><path class="cls-27" d="M350.06,447.66a29,29,0,0,1-.56,3.7"/><path class="cls-28" d="M339.74,445.07a5.91,5.91,0,0,0,2.7-1.05l.6-.36-4.22-.3-2.71-1.49a.6.6,0,0,0-.49,0l-.54.24a32,32,0,0,0-3.16,2.27c-.87.81-2.53.89-2.84,3.51L329,449a6.72,6.72,0,0,0,.64,5.26,35.09,35.09,0,0,1,5-5.75,1.74,1.74,0,0,0,.7-1.75,1.84,1.84,0,0,0,.7.31c.31,0,1.21-1.06,1.21-1.06a2,2,0,0,1,.87-.36h.07l.14-.13A4.39,4.39,0,0,1,339.74,445.07Z"/><path class="cls-29" d="M346.13,447.24a2.92,2.92,0,0,0-.29-.48c-.1-.12-.23-.23-.34-.35a1.83,1.83,0,0,1-.28-.49,3.45,3.45,0,0,0-.28-.54,5.39,5.39,0,0,0-.72-1,2.79,2.79,0,0,0-1.12-.76h-.05l-.6.36a5.91,5.91,0,0,1-2.7,1,4.31,4.31,0,0,0-1.48.49l-.14.13a2.35,2.35,0,0,1,1.63.65,11.48,11.48,0,0,0,2.56,1.93,4.35,4.35,0,0,0,2.76.16,1,1,0,0,1,.37-.47C345.67,447.83,346.24,447.64,346.13,447.24Z"/><path class="cls-30" d="M346.35,441.1a2.34,2.34,0,0,0-1.62-1.2,17.3,17.3,0,0,1-2.7-2.43,5.78,5.78,0,0,0-3.25-1.52l-.88,1.95v-2.41a30.94,30.94,0,0,0-6.5-1.49l-.44,1.54-.54-1.65a7.33,7.33,0,0,1-4.43.81h-3.6a3.22,3.22,0,0,0-1.9.94,2.63,2.63,0,0,1-.49.39,8.15,8.15,0,0,1-2.69,1.11,22,22,0,0,1,3.24-.24,7.72,7.72,0,0,1,2.38-.4,2.22,2.22,0,0,0,1.94-.86.17.17,0,0,1,.22-.05h0L327,437l.07-.89a.16.16,0,0,1,.18-.16h.06A12.78,12.78,0,0,0,331,437a42.16,42.16,0,0,1,7.88,2l-1.18,1.06,2.61-.54s1.15,1.48,2,1.48a5.64,5.64,0,0,1,3.4,4.15C345.83,445.09,346.81,444.24,346.35,441.1Z"/><path class="cls-29" d="M342.32,441c-.85,0-2-1.48-2-1.48l-2.62.54,1.2-1.06a42.06,42.06,0,0,0-7.89-2,13.34,13.34,0,0,1-3.66-1.05.19.19,0,0,0-.23.1h0l-.07.9-1.91-1.41a.17.17,0,0,0-.23,0h0a2.23,2.23,0,0,1-1.94.85,7.72,7.72,0,0,0-2.38.4,31.2,31.2,0,0,1,4.32.24,65,65,0,0,1,11.87,3.67s7.5,2.32,8.94,4.4h0A5.6,5.6,0,0,0,342.32,441Z"/><path class="cls-29" d="M353.42,430.53s1.32-2.46,1.32-2.64a4.86,4.86,0,0,0,3.73-1.34l2.33-2.72a30.48,30.48,0,0,1-3.75,1l-.51,2.41-.43-2a16,16,0,0,0-3.08,2.91l.77-.18Z"/><path class="cls-28" d="M371.29,422.73l-.26-.11h0a10.08,10.08,0,0,0-3.63-.18h0a19,19,0,0,0-3.84.18l-.43.76a.18.18,0,0,1-.15.08h0a.16.16,0,0,1-.16-.16h0l.1-.62a4.11,4.11,0,0,0-2.13,1.18l-2.33,2.73a4.89,4.89,0,0,1-3.72,1.34c0,.18-1.33,2.64-1.33,2.64l.36-2.57-.77.18h0a.37.37,0,0,1-.12.13,8.36,8.36,0,0,0-.84.63c0,.07-2.43,6.69-2.38,7.32a87.26,87.26,0,0,1,7-7.52l.21-.16c.75-.68,5.55-4.79,10.72-4.69A24.18,24.18,0,0,1,374.9,425,20.48,20.48,0,0,0,371.29,422.73Z"/><path class="cls-31" d="M357.92,433.41l-.28.14A9.87,9.87,0,0,0,355,434c-.67.37-1.31.77-1.94,1.2s-1.64.92-2.09,1.19a2.22,2.22,0,0,0-.64.58c-1.5,2.09,1.05,5.43,1.05,5.43a3,3,0,0,1,.27-.3,2.38,2.38,0,0,0,.61-.73l.93-1.69a11.6,11.6,0,0,1,4.66-4.5A15.83,15.83,0,0,1,365,434,19.62,19.62,0,0,0,357.92,433.41Z"/><path class="cls-29" d="M369.5,433.14c-.35-.1-5.65-.5-6.71-.58h-.38a13.44,13.44,0,0,0-4.48.86,19.68,19.68,0,0,1,7,.6h.43A9.84,9.84,0,0,0,369.5,433.14Z"/><path class="cls-29" d="M351.13,428.84a9.56,9.56,0,0,1-1.84,3,6.31,6.31,0,0,0-1.54,1.79,2.07,2.07,0,0,0-.23,1.27,5.64,5.64,0,0,1-.08,1.74,3.22,3.22,0,0,0-.1,1.82q.46.69,1.14,1.53c.68.84,1.71-5.27,1.74-5.68l2-5.75,1.72-4.42.18-.52a45.49,45.49,0,0,0-2.75,4.73A2.23,2.23,0,0,0,351.13,428.84Z"/><path class="cls-32" d="M362.29,408.23a4.49,4.49,0,0,0-3.87.5,31.57,31.57,0,0,0-2.29,2.48s-1.22,1.12-1.1,2.15a1.41,1.41,0,0,1-.2.92,1.11,1.11,0,0,1-.3.31,15.5,15.5,0,0,0-3.52,5.14,3.57,3.57,0,0,1-.34.71l-2,3.19a4.52,4.52,0,0,1-.79.9,4.07,4.07,0,0,0-1.1,3.25,3,3,0,0,1-.38,1.63,3.83,3.83,0,0,0-.08,3.06,3,3,0,0,1-.33,2s-.54,1.09,1.39,4a3.23,3.23,0,0,1,.11-1.82,5.64,5.64,0,0,0,.07-1.74,2.1,2.1,0,0,1,.23-1.28,6.59,6.59,0,0,1,1.54-1.79,9.59,9.59,0,0,0,1.85-3,2.25,2.25,0,0,1,.2-.51,45.49,45.49,0,0,1,2.75-4.73c.25-.74.69-2.06.8-2.62a4.26,4.26,0,0,1,.19-.7,31.66,31.66,0,0,1,2.6-5.94A5.25,5.25,0,0,0,359,411.4,4.38,4.38,0,0,1,362.29,408.23Z"/><path class="cls-29" d="M364.29,439.1a56.07,56.07,0,0,0-8.08.55c-.32,2.68-1.06,2.3-1.06,2.3-.28,0-.36-1.68-.36-1.68a31.58,31.58,0,0,0-4.51,2.78c-.54.45-.6,3.2-.61,3.84a4.36,4.36,0,0,1,1.76-1.17,3,3,0,0,0,1.75-1.38,5.62,5.62,0,0,1,.15,1s.31-1.54,1.36-1.75c0,0,1.21-.19,1.65-.19a8.62,8.62,0,0,0,3.21-.94,12.13,12.13,0,0,1,4.19-1c.22-.14,3.55-.36,3.55-.36C367.3,439.21,364.29,439.1,364.29,439.1Z"/><path class="cls-30" d="M356.33,443.35c-.44,0-1.65.2-1.65.2-1,.2-1.35,1.75-1.35,1.75a4.26,4.26,0,0,0-.16-1,2.91,2.91,0,0,1-1.74,1.37,4.54,4.54,0,0,0-1.76,1.17V447c-.73,1.35-.18,1.57-.18,1.57,4.33-3.51,14.23-7.21,14.23-7.21a12.3,12.3,0,0,0-4.18,1A8.23,8.23,0,0,1,356.33,443.35Z"/><path class="cls-33" d="M351.9,450.85s-1.75,1.35-1.95,2.34"/><path class="cls-33" d="M350.47,453.2a13.25,13.25,0,0,1,.78-5.26"/><path class="cls-33" d="M349,453.2c.66-1.25.89-10.9.89-10.9"/><path class="cls-33" d="M349.94,453.49c.1-.81-.86-10.24-.86-10.24"/><path class="cls-33" d="M348.47,453.58A12,12,0,0,0,348,451"/><path class="cls-33" d="M348,453.49a23.79,23.79,0,0,1-.47-3.14"/><path class="cls-28" d="M357.52,448.57l.12.11h.06a1.67,1.67,0,0,1,.74.31s.76.91,1,.89a1.31,1.31,0,0,0,.6-.27,1.49,1.49,0,0,0,.59,1.49,30.18,30.18,0,0,1,4.22,4.88,5.7,5.7,0,0,0,.53-4.46l-.09-1c-.27-2.22-1.67-2.3-2.41-3a30,30,0,0,0-2.69-1.93l-.45-.19a.51.51,0,0,0-.42,0L357,446.7l-3.58.26.5.3a4.91,4.91,0,0,0,2.29.9A3.58,3.58,0,0,1,357.52,448.57Z"/><path class="cls-29" d="M351.43,450.6a.83.83,0,0,1,.32.4,3.68,3.68,0,0,0,2.34-.14,9.39,9.39,0,0,0,2.17-1.64,2,2,0,0,1,1.38-.54l-.12-.11a3.93,3.93,0,0,0-1.25-.42,4.87,4.87,0,0,1-2.29-.9l-.5-.3h-.05a2.41,2.41,0,0,0-.95.65,4.77,4.77,0,0,0-.61.81,4,4,0,0,0-.24.46,1.52,1.52,0,0,1-.24.41c-.09.11-.2.2-.29.3a3.38,3.38,0,0,0-.24.41C350.77,450.34,351.25,450.49,351.43,450.6Z"/><path class="cls-30" d="M351.21,448.24a4.83,4.83,0,0,1,2.89-3.52c.72,0,1.69-1.25,1.69-1.25l2.22.46-1-.9a36.66,36.66,0,0,1,6.68-1.74,10.87,10.87,0,0,0,3.11-.89h0a.15.15,0,0,1,.16.13h0l.06.76,1.63-1.19h0a.14.14,0,0,1,.19,0h0a1.88,1.88,0,0,0,1.65.73,6.18,6.18,0,0,1,2,.34,19.46,19.46,0,0,1,2.75.2,6.8,6.8,0,0,1-2.28-.94,1.7,1.7,0,0,1-.42-.33,2.58,2.58,0,0,0-1.62-.79h-3a6.29,6.29,0,0,1-3.76-.68L363.7,440l-.37-1.3a26.39,26.39,0,0,0-5.48,1.25v2l-.75-1.66a5,5,0,0,0-2.76,1.29,14.42,14.42,0,0,1-2.29,2.06,2,2,0,0,0-1.37,1C350.29,447.45,351.11,448.17,351.21,448.24Z"/><path class="cls-29" d="M351.21,448.23h0c1.22-1.76,7.58-3.73,7.58-3.73a56.14,56.14,0,0,1,10.07-3.11,26.47,26.47,0,0,1,3.67-.2,6.82,6.82,0,0,0-2-.34,1.88,1.88,0,0,1-1.65-.73h0a.14.14,0,0,0-.19,0h0l-1.62,1.19-.06-.76h0a.16.16,0,0,0-.2-.09h0a10.8,10.8,0,0,1-3.1.89A37,37,0,0,0,357,443l1,.9-2.22-.46s-1,1.25-1.7,1.25A4.8,4.8,0,0,0,351.21,448.23Z"/><path class="cls-29" d="M344.36,433.66l.65.15a13.58,13.58,0,0,0-2.6-2.48l-.36,1.68-.44-2.05a23.22,23.22,0,0,1-3.18-.83l2,2.32a4.11,4.11,0,0,0,3.16,1.13c0,.15,1.12,2.24,1.12,2.24Z"/><path class="cls-28" d="M326.46,431.15a20.37,20.37,0,0,1,6.2-1c4.39-.09,8.45,3.4,9.1,4a.86.86,0,0,0,.18.14,74.51,74.51,0,0,1,5.93,6.38c.05-.54-2-6.15-2-6.21a7.4,7.4,0,0,0-.72-.53.52.52,0,0,1-.1-.11h0l-.65-.15.3,2.18s-1.12-2.09-1.12-2.25a4.11,4.11,0,0,1-3.16-1.13l-2-2.31a3.4,3.4,0,0,0-1.8-1l.09.52h0a.14.14,0,0,1-.14.14h0a.13.13,0,0,1-.12-.08l-.36-.64a16.16,16.16,0,0,0-3.26-.15h0a8.62,8.62,0,0,0-3.08.15h0l-.22.09A17,17,0,0,0,326.46,431.15Z"/><path class="cls-29" d="M332.82,429a6.71,6.71,0,0,0-3.68-.42l.61.58A8.58,8.58,0,0,1,332.82,429Z"/><path class="cls-29" d="M325.73,431.39c.24-.09.48-.18.71-.25a17.93,17.93,0,0,1,3.08-1.94l-1.16-.32-4,2.95Z"/><path class="cls-31" d="M334.94,438.78a13.41,13.41,0,0,1,6,1,9.87,9.87,0,0,1,4,3.82l.78,1.43a2.43,2.43,0,0,0,.52.63c.12.09.22.19.22.25s2.17-2.83.9-4.61a1.94,1.94,0,0,0-.54-.49c-.38-.22-1.19-.7-1.77-1a15.28,15.28,0,0,0-1.64-1,8.46,8.46,0,0,0-2.28-.4l-.24-.11A16.35,16.35,0,0,0,334.94,438.78Z"/><path class="cls-29" d="M334.57,438.79h.35a16.6,16.6,0,0,1,5.91-.51,11.38,11.38,0,0,0-3.79-.72h-.32c-.9.08-5.4.41-5.69.49A8.45,8.45,0,0,0,334.57,438.79Z"/><path class="cls-29" d="M346.43,433.94a36.18,36.18,0,0,0-2.32-4l.15.44,1.46,3.74,1.67,4.88c0,.36,1.47,4.82,1.47,4.82.34-.42.67-.85,1-1.3a2.69,2.69,0,0,0-.09-1.54,4.6,4.6,0,0,1-.06-1.48,1.74,1.74,0,0,0-.2-1.07,5.26,5.26,0,0,0-1.3-1.52,8.34,8.34,0,0,1-1.57-2.52A1.85,1.85,0,0,0,346.43,433.94Z"/><path class="cls-32" d="M340,419.59a4.5,4.5,0,0,0,1.06,2.49,26.88,26.88,0,0,1,2.21,5,4.44,4.44,0,0,1,.16.6c.09.48.46,1.59.67,2.22a34.81,34.81,0,0,1,2.34,4,1.85,1.85,0,0,1,.18.44,8.42,8.42,0,0,0,1.57,2.51,5.78,5.78,0,0,1,1.3,1.53,1.74,1.74,0,0,1,.2,1.07,4.6,4.6,0,0,0,.06,1.48,2.69,2.69,0,0,1,.09,1.54c1.64-2.44,1.18-3.36,1.18-3.36a2.52,2.52,0,0,1-.28-1.7,3.24,3.24,0,0,0-.07-2.59,2.5,2.5,0,0,1-.32-1.39,3.48,3.48,0,0,0-.94-2.76,3.4,3.4,0,0,1-.66-.76l-1.73-2.7a2.77,2.77,0,0,1-.29-.6,13,13,0,0,0-3-4.36.81.81,0,0,1-.25-.27,1.19,1.19,0,0,1-.18-.78c.1-.87-.93-1.82-.93-1.82-.61-.73-1.26-1.43-1.94-2.1a3.79,3.79,0,0,0-3.29-.43A3.69,3.69,0,0,1,340,419.59Z"/><path class="cls-29" d="M332.91,444.73a20.33,20.33,0,0,1,3,.3,10.34,10.34,0,0,1,3.54.87,7.29,7.29,0,0,0,2.73.8c.37,0,1.4.16,1.4.16.88.18,1.15,1.49,1.15,1.49a4.52,4.52,0,0,1,.13-.82,2.42,2.42,0,0,0,1.48,1.16,3.78,3.78,0,0,1,1.49,1c0-.54-.06-2.87-.51-3.26a29.38,29.38,0,0,0-3.83-2.36s-.07,1.41-.31,1.44c0,0-.63.32-.9-2a46.2,46.2,0,0,0-6.85-.46S332.9,443.18,332.91,444.73Z"/><path class="cls-30" d="M339.48,445.89a10.56,10.56,0,0,0-3.54-.86s8.4,3.13,12.07,6.1c0,0,.47-.17-.16-1.32v-.12a3.74,3.74,0,0,0-1.48-1,2.48,2.48,0,0,1-1.49-1.16,4.55,4.55,0,0,0-.13.81s-.26-1.31-1.15-1.48a13.15,13.15,0,0,0-1.4-.17A7,7,0,0,1,339.48,445.89Z"/><ellipse class="cls-24" cx="65.29" cy="82.99" rx="9.02" ry="9.33"/><ellipse class="cls-25" cx="64.53" cy="80.4" rx="9.02" ry="9.33"/><ellipse class="cls-26" cx="64.08" cy="77.46" rx="3.82" ry="3.95"/><path class="cls-27" d="M62.2,77c-.22-1.17-2.29-2.76-2.29-2.76"/><path class="cls-27" d="M60.66,70.82a15.57,15.57,0,0,1,.93,6.2"/><path class="cls-27" d="M62.3,64.17S62.59,75.54,63.37,77"/><path class="cls-27" d="M63.22,65.29s-1.12,11.11-1,12.07"/><path class="cls-27" d="M64.5,74.38a15.42,15.42,0,0,0-.56,3.09"/><path class="cls-27" d="M65.06,73.66a29,29,0,0,1-.56,3.7"/><path class="cls-28" d="M54.74,71.07a5.83,5.83,0,0,0,2.7-1l.6-.36-4.22-.3-2.71-1.49a.6.6,0,0,0-.49,0l-.54.24a32,32,0,0,0-3.16,2.27c-.87.81-2.53.89-2.84,3.51L44,75a6.72,6.72,0,0,0,.64,5.26,35.09,35.09,0,0,1,5-5.75,1.74,1.74,0,0,0,.7-1.75,1.84,1.84,0,0,0,.7.31c.31,0,1.21-1.06,1.21-1.06a2,2,0,0,1,.87-.36h.07l.14-.13A4.39,4.39,0,0,1,54.74,71.07Z"/><path class="cls-29" d="M61.13,73.24a2.92,2.92,0,0,0-.29-.48c-.1-.12-.23-.23-.34-.35a1.83,1.83,0,0,1-.28-.49,3.45,3.45,0,0,0-.28-.54,5.39,5.39,0,0,0-.72-1,2.79,2.79,0,0,0-1.12-.76h-.05l-.6.36a5.83,5.83,0,0,1-2.7,1,4.31,4.31,0,0,0-1.48.49l-.14.13a2.35,2.35,0,0,1,1.63.65,11.48,11.48,0,0,0,2.56,1.93,4.35,4.35,0,0,0,2.76.16,1,1,0,0,1,.37-.47C60.67,73.83,61.24,73.64,61.13,73.24Z"/><path class="cls-30" d="M61.35,67.1a2.34,2.34,0,0,0-1.62-1.2A17.51,17.51,0,0,1,57,63.47,5.8,5.8,0,0,0,53.78,62l-.88,1.9V61.49A30.94,30.94,0,0,0,46.4,60L46,61.55l-.54-1.65a7.33,7.33,0,0,1-4.43.81h-3.6a3.22,3.22,0,0,0-1.9.94A2.32,2.32,0,0,1,35,62a8.15,8.15,0,0,1-2.69,1.11,22,22,0,0,1,3.24-.24,7.72,7.72,0,0,1,2.38-.4,2.22,2.22,0,0,0,1.94-.86.18.18,0,0,1,.22,0h0L42,63l.07-.89a.16.16,0,0,1,.18-.16h0A12.88,12.88,0,0,0,46,63a41.86,41.86,0,0,1,7.87,2l-1.18,1.06,2.61-.54S56.45,67,57.3,67a5.64,5.64,0,0,1,3.4,4.15C60.83,71.09,61.81,70.24,61.35,67.1Z"/><path class="cls-29" d="M57.32,67c-.85,0-2-1.48-2-1.48l-2.62.54L53.9,65A42.16,42.16,0,0,0,46,63a13.71,13.71,0,0,1-3.66-1,.19.19,0,0,0-.23.1h0L42,63l-1.91-1.41a.17.17,0,0,0-.23,0h0a2.23,2.23,0,0,1-1.94.85,7.72,7.72,0,0,0-2.38.4,31.2,31.2,0,0,1,4.32.24,65,65,0,0,1,11.87,3.67s7.5,2.32,8.94,4.4h0A5.6,5.6,0,0,0,57.32,67Z"/><path class="cls-29" d="M68.42,56.53s1.32-2.46,1.32-2.64a4.86,4.86,0,0,0,3.73-1.34l2.33-2.72a30.48,30.48,0,0,1-3.75,1l-.51,2.41-.43-2A15.85,15.85,0,0,0,68,54.14l.8-.14Z"/><path class="cls-28" d="M86.29,48.73,86,48.62h0a10.08,10.08,0,0,0-3.63-.18h0a19,19,0,0,0-3.84.18l-.43.76a.18.18,0,0,1-.15.08h0a.16.16,0,0,1-.16-.16h0l.1-.62a4.11,4.11,0,0,0-2.13,1.18l-2.33,2.73a4.89,4.89,0,0,1-3.72,1.34c0,.18-1.33,2.64-1.33,2.64L68.77,54l-.77.18h0a.37.37,0,0,1-.12.13,8.36,8.36,0,0,0-.84.63c0,.07-2.43,6.69-2.38,7.32a87.26,87.26,0,0,1,7-7.52l.21-.16c.75-.68,5.55-4.79,10.72-4.69A24.18,24.18,0,0,1,89.9,51,20.48,20.48,0,0,0,86.29,48.73Z"/><path class="cls-31" d="M72.92,59.41l-.28.14A9.87,9.87,0,0,0,70,60a22.61,22.61,0,0,0-2,1.21c-.68.36-1.64.92-2.09,1.19a2.22,2.22,0,0,0-.64.58c-1.5,2.09,1,5.43,1,5.43a3,3,0,0,1,.27-.3,2.38,2.38,0,0,0,.61-.73l.93-1.69a11.6,11.6,0,0,1,4.66-4.5A15.8,15.8,0,0,1,79.9,60,19.34,19.34,0,0,0,72.92,59.41Z"/><path class="cls-29" d="M84.5,59.14c-.35-.1-5.65-.5-6.71-.58h-.38a13.44,13.44,0,0,0-4.48.86,19.68,19.68,0,0,1,7,.6h.43A9.84,9.84,0,0,0,84.5,59.14Z"/><path class="cls-29" d="M66.13,54.84a9.56,9.56,0,0,1-1.84,3,6.31,6.31,0,0,0-1.54,1.79,2.07,2.07,0,0,0-.23,1.27,5.64,5.64,0,0,1-.08,1.74,3.22,3.22,0,0,0-.1,1.82q.46.69,1.14,1.53c.68.84,1.71-5.27,1.74-5.68l2-5.75,1.72-4.42.18-.52a45.49,45.49,0,0,0-2.75,4.73A2.23,2.23,0,0,0,66.13,54.84Z"/><path class="cls-32" d="M77.29,34.23a4.49,4.49,0,0,0-3.87.5,31.57,31.57,0,0,0-2.29,2.48s-1.22,1.12-1.1,2.15a1.41,1.41,0,0,1-.2.92,1.11,1.11,0,0,1-.3.31A15.68,15.68,0,0,0,66,45.73a3.57,3.57,0,0,1-.34.71l-2,3.19a4.52,4.52,0,0,1-.79.9,4.07,4.07,0,0,0-1.1,3.25,3,3,0,0,1-.38,1.63,3.83,3.83,0,0,0-.08,3.06,3,3,0,0,1-.33,2s-.54,1.09,1.39,4a3.23,3.23,0,0,1,.11-1.82,5.64,5.64,0,0,0,.07-1.74,2.1,2.1,0,0,1,.23-1.28,6.59,6.59,0,0,1,1.54-1.79,9.59,9.59,0,0,0,1.85-3,2.25,2.25,0,0,1,.2-.51,45.49,45.49,0,0,1,2.75-4.73c.25-.74.69-2.06.8-2.62a4.26,4.26,0,0,1,.19-.7,31.66,31.66,0,0,1,2.6-5.94A5.25,5.25,0,0,0,74,37.4,4.38,4.38,0,0,1,77.29,34.23Z"/><path class="cls-29" d="M79.29,65.1a56.07,56.07,0,0,0-8.08.55c-.32,2.68-1.06,2.3-1.06,2.3-.28,0-.36-1.68-.36-1.68a31.58,31.58,0,0,0-4.51,2.78c-.54.45-.6,3.2-.61,3.84a4.36,4.36,0,0,1,1.76-1.17,3,3,0,0,0,1.75-1.38,5.62,5.62,0,0,1,.15,1s.31-1.54,1.36-1.75c0,0,1.21-.19,1.65-.19a8.62,8.62,0,0,0,3.21-.94,12.13,12.13,0,0,1,4.19-1c.22-.14,3.55-.36,3.55-.36C82.3,65.21,79.29,65.1,79.29,65.1Z"/><path class="cls-30" d="M71.33,69.35c-.44,0-1.65.2-1.65.2-1,.2-1.35,1.75-1.35,1.75a4.26,4.26,0,0,0-.16-1,2.91,2.91,0,0,1-1.74,1.37,4.54,4.54,0,0,0-1.76,1.17V73c-.73,1.35-.18,1.57-.18,1.57,4.33-3.51,14.23-7.21,14.23-7.21a12.3,12.3,0,0,0-4.18,1A8.23,8.23,0,0,1,71.33,69.35Z"/><path class="cls-33" d="M66.9,76.85s-1.75,1.35-2,2.34"/><path class="cls-33" d="M65.47,79.2a13.25,13.25,0,0,1,.78-5.26"/><path class="cls-33" d="M64,79.2c.66-1.25.89-10.9.89-10.9"/><path class="cls-33" d="M64.94,79.49c.1-.81-.86-10.24-.86-10.24"/><path class="cls-33" d="M63.47,79.58A12,12,0,0,0,63,77"/><path class="cls-33" d="M63,79.49a23.79,23.79,0,0,1-.47-3.14"/><path class="cls-28" d="M72.52,74.57l.12.11h.06a1.67,1.67,0,0,1,.74.31s.76.91,1,.89a1.31,1.31,0,0,0,.6-.27,1.49,1.49,0,0,0,.59,1.49A30,30,0,0,1,79.87,82a5.7,5.7,0,0,0,.53-4.46l-.09-1c-.27-2.22-1.67-2.3-2.41-3a30,30,0,0,0-2.69-1.93l-.45-.19a.51.51,0,0,0-.42,0L72,72.7l-3.54.3.5.3a4.91,4.91,0,0,0,2.29.9A3.79,3.79,0,0,1,72.52,74.57Z"/><path class="cls-29" d="M66.43,76.6a.83.83,0,0,1,.32.4,3.68,3.68,0,0,0,2.34-.14,9.39,9.39,0,0,0,2.17-1.64,2,2,0,0,1,1.38-.54l-.12-.11a3.93,3.93,0,0,0-1.25-.42,4.87,4.87,0,0,1-2.29-.9l-.5-.3h0a2.38,2.38,0,0,0-1,.65,4.77,4.77,0,0,0-.61.81,4,4,0,0,0-.24.46,1.52,1.52,0,0,1-.24.41c-.09.11-.2.2-.29.3a3.38,3.38,0,0,0-.24.41C65.77,76.34,66.25,76.49,66.43,76.6Z"/><path class="cls-30" d="M66.21,74.24a4.83,4.83,0,0,1,2.89-3.52c.72,0,1.69-1.25,1.69-1.25l2.22.46L72,69a36.66,36.66,0,0,1,6.68-1.74,10.87,10.87,0,0,0,3.11-.89h0a.15.15,0,0,1,.16.13h0l.06.76,1.63-1.19h0a.14.14,0,0,1,.19,0h0a1.88,1.88,0,0,0,1.65.73,6.18,6.18,0,0,1,2,.34,19.46,19.46,0,0,1,2.75.2A6.69,6.69,0,0,1,88,66.47a1.7,1.7,0,0,1-.42-.33A2.61,2.61,0,0,0,86,65.35H83a6.29,6.29,0,0,1-3.76-.68l-.46,1.39-.37-1.3A26.37,26.37,0,0,0,72.86,66v2l-.75-1.66a5,5,0,0,0-2.76,1.29A14.53,14.53,0,0,1,67,69.78a2,2,0,0,0-1.37,1C65.29,73.45,66.11,74.17,66.21,74.24Z"/><path class="cls-29" d="M66.21,74.23h0c1.22-1.76,7.58-3.73,7.58-3.73a56.14,56.14,0,0,1,10.07-3.11,26.47,26.47,0,0,1,3.67-.2,6.82,6.82,0,0,0-2-.34,1.88,1.88,0,0,1-1.65-.73h0a.14.14,0,0,0-.19,0h0l-1.62,1.19L82,66.52h0a.16.16,0,0,0-.2-.09h0a10.8,10.8,0,0,1-3.1.89A36.92,36.92,0,0,0,72,69l1,.9-2.22-.46s-1,1.25-1.7,1.25A4.8,4.8,0,0,0,66.21,74.23Z"/><path class="cls-29" d="M59.36,59.66l.65.15a13.58,13.58,0,0,0-2.6-2.48L57.05,59l-.44-2a23.22,23.22,0,0,1-3.18-.83l2,2.32a4.11,4.11,0,0,0,3.16,1.13c0,.15,1.12,2.24,1.12,2.24Z"/><path class="cls-28" d="M41.46,57.15a20.37,20.37,0,0,1,6.2-1c4.39-.09,8.45,3.4,9.1,4a.86.86,0,0,0,.18.14,74.51,74.51,0,0,1,5.93,6.38c.05-.54-2-6.15-2-6.21a7.4,7.4,0,0,0-.72-.53.52.52,0,0,1-.1-.11h0l-.65-.15.3,2.18s-1.12-2.09-1.12-2.25a4.11,4.11,0,0,1-3.16-1.13l-2-2.31a3.4,3.4,0,0,0-1.8-1l.09.52h0a.14.14,0,0,1-.14.14h0a.13.13,0,0,1-.12-.08l-.36-.64a16.07,16.07,0,0,0-3.25-.1h0a8.62,8.62,0,0,0-3.08.15h0l-.22.09A17.77,17.77,0,0,0,41.46,57.15Z"/><path class="cls-29" d="M47.82,55a6.71,6.71,0,0,0-3.68-.42l.61.58A8.58,8.58,0,0,1,47.82,55Z"/><path class="cls-29" d="M40.73,57.39c.24-.09.48-.18.71-.25a17.93,17.93,0,0,1,3.08-1.94l-1.16-.32-4,2.95Z"/><path class="cls-31" d="M49.94,64.78a13.41,13.41,0,0,1,6,1,9.88,9.88,0,0,1,4,3.82l.8,1.4a2.43,2.43,0,0,0,.52.63c.12.09.22.19.22.25s2.17-2.83.9-4.61a1.94,1.94,0,0,0-.54-.49c-.38-.22-1.19-.7-1.77-1a15.28,15.28,0,0,0-1.64-1,8.46,8.46,0,0,0-2.28-.4l-.24-.11A16.42,16.42,0,0,0,49.94,64.78Z"/><path class="cls-29" d="M49.57,64.79h.35a16.6,16.6,0,0,1,5.91-.51A11.42,11.42,0,0,0,52,63.55h-.32c-.9.08-5.4.41-5.69.49A8.49,8.49,0,0,0,49.57,64.79Z"/><path class="cls-29" d="M61.43,59.94a36.18,36.18,0,0,0-2.32-4l.15.44,1.46,3.74L62.39,65c0,.36,1.47,4.82,1.47,4.82.34-.42.67-.85,1-1.3A2.63,2.63,0,0,0,64.74,67a4.6,4.6,0,0,1-.06-1.48,1.74,1.74,0,0,0-.2-1.07,5.26,5.26,0,0,0-1.3-1.52,8.34,8.34,0,0,1-1.57-2.52A2.07,2.07,0,0,0,61.43,59.94Z"/><path class="cls-32" d="M55,45.59a4.5,4.5,0,0,0,1.06,2.49,26.88,26.88,0,0,1,2.21,5,4.44,4.44,0,0,1,.16.6c.09.48.46,1.59.67,2.22a34.81,34.81,0,0,1,2.34,4,1.85,1.85,0,0,1,.18.44,8.42,8.42,0,0,0,1.57,2.51,5.78,5.78,0,0,1,1.3,1.53,1.74,1.74,0,0,1,.2,1.07A4.48,4.48,0,0,0,64.75,67a2.69,2.69,0,0,1,.09,1.54C66.48,66.08,66,65.16,66,65.16a2.52,2.52,0,0,1-.28-1.7,3.24,3.24,0,0,0-.07-2.59,2.5,2.5,0,0,1-.32-1.39,3.48,3.48,0,0,0-.94-2.76,3.4,3.4,0,0,1-.66-.76L62,53.26a2.77,2.77,0,0,1-.29-.6,13,13,0,0,0-3-4.36.81.81,0,0,1-.25-.27,1.19,1.19,0,0,1-.18-.78c.1-.87-.93-1.82-.93-1.82-.61-.73-1.26-1.43-1.94-2.1a3.79,3.79,0,0,0-3.29-.43A3.69,3.69,0,0,1,55,45.59Z"/><path class="cls-29" d="M47.91,70.73a20.33,20.33,0,0,1,3,.3,10.34,10.34,0,0,1,3.54.87,7.29,7.29,0,0,0,2.73.8c.37,0,1.4.16,1.4.16.88.18,1.15,1.49,1.15,1.49a4.52,4.52,0,0,1,.13-.82,2.42,2.42,0,0,0,1.48,1.16,3.78,3.78,0,0,1,1.49,1c0-.54-.06-2.87-.51-3.26a29.38,29.38,0,0,0-3.83-2.36s-.07,1.41-.31,1.44c0,0-.63.32-.9-2a46.2,46.2,0,0,0-6.85-.46S47.9,69.18,47.91,70.73Z"/><path class="cls-30" d="M54.48,71.89A10.6,10.6,0,0,0,50.94,71s8.4,3.13,12.07,6.1c0,0,.47-.17-.16-1.32v-.12a3.74,3.74,0,0,0-1.48-1,2.48,2.48,0,0,1-1.49-1.16,4.55,4.55,0,0,0-.13.81S59.49,73,58.6,72.86a13.15,13.15,0,0,0-1.4-.17A7,7,0,0,1,54.48,71.89Z"/></g></g><g id="bookings"><g id="area-G.01-status" class="cls-34"><rect class="cls-35" x="28" y="23" width="276" height="219"/></g><rect id="area-G.02-status" class="cls-36" x="30" y="400" width="357" height="221"/><path class="cls-25" d="M112.39,121.13l2.94.94a6.56,6.56,0,0,1-2.25,3.65,6.36,6.36,0,0,1-4,1.2,6.47,6.47,0,0,1-4.92-2,7.8,7.8,0,0,1-1.93-5.59,8.21,8.21,0,0,1,1.94-5.83,6.6,6.6,0,0,1,5.09-2.08,6.31,6.31,0,0,1,4.49,1.63,6,6,0,0,1,1.53,2.77l-3,.72a3.08,3.08,0,0,0-3.17-2.52,3.42,3.42,0,0,0-2.71,1.2,5.81,5.81,0,0,0-1,3.88,6.32,6.32,0,0,0,1,4.06,3.35,3.35,0,0,0,2.67,1.21,3,3,0,0,0,2.08-.77A4.42,4.42,0,0,0,112.39,121.13Z"/><path class="cls-25" d="M117.92,114.29v-2.66h2.88v2.66Zm0,12.37V115.77h2.88v10.89Z"/><path class="cls-25" d="M122.74,123.55l2.89-.44a2.11,2.11,0,0,0,.75,1.28,2.46,2.46,0,0,0,1.58.43,2.83,2.83,0,0,0,1.68-.41.92.92,0,0,0,.38-.76.76.76,0,0,0-.21-.55,2.39,2.39,0,0,0-1-.38,15.71,15.71,0,0,1-4.42-1.4,2.8,2.8,0,0,1-1.29-2.45,3,3,0,0,1,1.12-2.38,5.22,5.22,0,0,1,3.46-1,6.09,6.09,0,0,1,3.32.73,3.69,3.69,0,0,1,1.5,2.16l-2.72.5a1.67,1.67,0,0,0-.66-1,2.41,2.41,0,0,0-1.39-.33,3.17,3.17,0,0,0-1.63.31.69.69,0,0,0-.33.59.65.65,0,0,0,.29.52,11,11,0,0,0,2.69.81,8.2,8.2,0,0,1,3.22,1.28,2.69,2.69,0,0,1,.9,2.15,3.33,3.33,0,0,1-1.25,2.57,5.51,5.51,0,0,1-3.7,1.08,6,6,0,0,1-3.52-.91A4.09,4.09,0,0,1,122.74,123.55Z"/><path class="cls-25" d="M144.93,119l-2.84.51a2.11,2.11,0,0,0-.65-1.28,2,2,0,0,0-1.32-.43,2.16,2.16,0,0,0-1.72.74,3.85,3.85,0,0,0-.64,2.49,4.41,4.41,0,0,0,.65,2.74,2.16,2.16,0,0,0,1.75.8,1.93,1.93,0,0,0,1.34-.47,2.7,2.7,0,0,0,.74-1.6l2.83.48a5,5,0,0,1-1.69,2.94,5.22,5.22,0,0,1-3.35,1,5,5,0,0,1-3.81-1.51,6.89,6.89,0,0,1,0-8.37,5.07,5.07,0,0,1,3.86-1.51,5.2,5.2,0,0,1,3.16.86A4.76,4.76,0,0,1,144.93,119Z"/><path class="cls-25" d="M146.45,121.06a5.88,5.88,0,0,1,.7-2.78,4.82,4.82,0,0,1,2-2,6,6,0,0,1,2.89-.71,5.4,5.4,0,0,1,4,1.61,5.54,5.54,0,0,1,1.58,4.06,5.62,5.62,0,0,1-1.59,4.09,5.38,5.38,0,0,1-4,1.63,6.26,6.26,0,0,1-2.85-.68,4.6,4.6,0,0,1-2.07-2A6.75,6.75,0,0,1,146.45,121.06Zm3,.16a3.59,3.59,0,0,0,.77,2.48,2.52,2.52,0,0,0,3.79,0,3.68,3.68,0,0,0,.76-2.5,3.6,3.6,0,0,0-.76-2.47,2.52,2.52,0,0,0-3.79,0,3.59,3.59,0,0,0-.82,2.49Z"/><path class="cls-25" d="M165.8,126.66v-15h6.39a10.9,10.9,0,0,1,3.5.4,3.45,3.45,0,0,1,1.75,1.44,4.31,4.31,0,0,1,.66,2.37,4,4,0,0,1-1,2.8,4.75,4.75,0,0,1-3,1.39,7.11,7.11,0,0,1,1.63,1.26,17.3,17.3,0,0,1,1.72,2.44l1.84,2.93h-3.63l-2.19-3.27a21.8,21.8,0,0,0-1.6-2.21,2.52,2.52,0,0,0-.92-.63,5.21,5.21,0,0,0-1.52-.16h-.62v6.27Zm3-8.67h2.25a11.83,11.83,0,0,0,2.72-.19,1.54,1.54,0,0,0,.85-.63A2,2,0,0,0,175,116a1.82,1.82,0,0,0-.4-1.23,1.89,1.89,0,0,0-1.15-.59h-4.58Z"/><path class="cls-25" d="M180.27,121.06a6,6,0,0,1,.71-2.78,4.82,4.82,0,0,1,2-2,6,6,0,0,1,2.9-.71,5.43,5.43,0,0,1,4.05,1.61,6,6,0,0,1,0,8.15,5.46,5.46,0,0,1-4,1.63,6.26,6.26,0,0,1-2.85-.68,4.6,4.6,0,0,1-2.07-2A6.66,6.66,0,0,1,180.27,121.06Zm3,.16a3.59,3.59,0,0,0,.77,2.48,2.51,2.51,0,0,0,3.54.24,2.72,2.72,0,0,0,.24-.24,4.39,4.39,0,0,0,0-5,2.51,2.51,0,0,0-3.54-.24,2.72,2.72,0,0,0-.24.24,3.63,3.63,0,0,0-.81,2.49Z"/><path class="cls-25" d="M193.1,121.06a6,6,0,0,1,.71-2.78,4.82,4.82,0,0,1,2-2,6,6,0,0,1,2.9-.71,5.4,5.4,0,0,1,4,1.61,6,6,0,0,1,0,8.15,5.38,5.38,0,0,1-4,1.63,6.34,6.34,0,0,1-2.86-.68,4.63,4.63,0,0,1-2.06-2A6.66,6.66,0,0,1,193.1,121.06Zm3,.16a3.64,3.64,0,0,0,.77,2.48,2.48,2.48,0,0,0,1.9.86,2.44,2.44,0,0,0,1.89-.86,4.39,4.39,0,0,0,0-5,2.44,2.44,0,0,0-1.89-.86,2.48,2.48,0,0,0-1.9.86,3.69,3.69,0,0,0-.82,2.49Z"/><path class="cls-25" d="M206.38,115.77H209v1.49a4.25,4.25,0,0,1,3.39-1.74,3.57,3.57,0,0,1,1.81.44,3.18,3.18,0,0,1,1.27,1.3A4.82,4.82,0,0,1,217,116a3.81,3.81,0,0,1,1.78-.44,4,4,0,0,1,2,.49,3,3,0,0,1,1.24,1.43,6.18,6.18,0,0,1,.3,2.26v7h-2.89v-6.22a4.71,4.71,0,0,0-.29-2.1,1.37,1.37,0,0,0-1.23-.61,1.94,1.94,0,0,0-1.14.37,2,2,0,0,0-.77,1.08,7.73,7.73,0,0,0-.24,2.25v5.23H213v-6a8.39,8.39,0,0,0-.15-2,1.32,1.32,0,0,0-.48-.68,1.56,1.56,0,0,0-.87-.23,2,2,0,0,0-1.2.36,2,2,0,0,0-.77,1,8.08,8.08,0,0,0-.23,2.25v5.29h-2.88Z"/><path class="cls-25" d="M151.18,146.33V143.8h6.54v6a8.44,8.44,0,0,1-2.76,1.62,10.24,10.24,0,0,1-3.67.71,8.2,8.2,0,0,1-4.11-1,6.34,6.34,0,0,1-2.64-2.83,9.22,9.22,0,0,1-.88-4,8.64,8.64,0,0,1,1-4.17,6.55,6.55,0,0,1,2.88-2.8,7.72,7.72,0,0,1,3.6-.75,7.12,7.12,0,0,1,4.37,1.18,5.26,5.26,0,0,1,2,3.24l-3,.57a3.13,3.13,0,0,0-1.19-1.75,3.63,3.63,0,0,0-2.19-.64,4.11,4.11,0,0,0-3.17,1.26,5.32,5.32,0,0,0-1.17,3.74,5.94,5.94,0,0,0,1.19,4,4,4,0,0,0,3.12,1.33,5.23,5.23,0,0,0,1.91-.37,6.42,6.42,0,0,0,1.64-.91v-1.91Z"/><path class="cls-25" d="M160.5,151.86V149h2.88v2.88Z"/><path class="cls-25" d="M170.59,136.77a4.11,4.11,0,0,1,3.41,1.56q1.47,1.84,1.47,6.12c0,2.84-.49,4.89-1.48,6.13a4.11,4.11,0,0,1-3.4,1.54,4.3,4.3,0,0,1-3.54-1.69c-.9-1.12-1.34-3.13-1.34-6s.49-4.87,1.47-6.11A4.1,4.1,0,0,1,170.59,136.77Zm0,2.39a1.48,1.48,0,0,0-.94.33,2.2,2.2,0,0,0-.63,1.19,24.18,24.18,0,0,0,0,7.4,2.57,2.57,0,0,0,.67,1.32,1.48,1.48,0,0,0,1.86,0,2.35,2.35,0,0,0,.64-1.2,16.85,16.85,0,0,0,.29-3.75,16.45,16.45,0,0,0-.26-3.64,2.57,2.57,0,0,0-.67-1.32A1.43,1.43,0,0,0,170.59,139.16Z"/><path class="cls-25" d="M184.77,151.86h-2.88V141a10.09,10.09,0,0,1-3.72,2.19v-2.62a8.29,8.29,0,0,0,2.45-1.4,5.32,5.32,0,0,0,1.81-2.4h2.34Z"/><polygon class="cls-37" points="28.5 256.5 44.26 275.12 45 276 28.5 256.5"/><polyline class="cls-37" points="45 276 65.22 276 65.22 242"/><polyline class="cls-37" points="27.5 384.5 46.5 366.5 65.79 366.5 65.79 399"/><path class="cls-25" d="M171.67,507.66V495.17h-4.46v-2.54h11.94v2.54H174.7v12.49Z"/><path class="cls-25" d="M184,492.63v5.52a4.31,4.31,0,0,1,5.13-1.26,3.11,3.11,0,0,1,1.21.95,3.61,3.61,0,0,1,.55,1.27,11.16,11.16,0,0,1,.15,2.16v6.39h-2.88v-5.75a8.88,8.88,0,0,0-.17-2.18,1.44,1.44,0,0,0-.58-.73,1.88,1.88,0,0,0-1-.27,2.37,2.37,0,0,0-1.28.35,2,2,0,0,0-.83,1.05,6.36,6.36,0,0,0-.26,2.08v5.45h-2.88v-15Z"/><path class="cls-25" d="M200.23,504.19l2.87.49a4.74,4.74,0,0,1-1.75,2.4,5.14,5.14,0,0,1-3,.83,4.87,4.87,0,0,1-4.2-1.86,6.12,6.12,0,0,1-1.08-3.75,6,6,0,0,1,1.41-4.24,4.68,4.68,0,0,1,3.58-1.54,4.85,4.85,0,0,1,3.84,1.61,7.2,7.2,0,0,1,1.34,4.92H196a2.89,2.89,0,0,0,.7,2,2.14,2.14,0,0,0,1.66.71,1.81,1.81,0,0,0,1.14-.37A2.26,2.26,0,0,0,200.23,504.19Zm.16-2.91a2.85,2.85,0,0,0-.65-1.9,2.07,2.07,0,0,0-3.05,0,2.63,2.63,0,0,0-.61,1.86Z"/><path class="cls-25" d="M197.19,527.33V524.8h6.54v6a8.44,8.44,0,0,1-2.76,1.62,10.24,10.24,0,0,1-3.67.71,8.2,8.2,0,0,1-4.11-1,6.34,6.34,0,0,1-2.64-2.83,9.22,9.22,0,0,1-.88-4,8.64,8.64,0,0,1,1-4.17,6.55,6.55,0,0,1,2.88-2.8,7.72,7.72,0,0,1,3.6-.75,7.12,7.12,0,0,1,4.37,1.18,5.26,5.26,0,0,1,2,3.24l-3,.57a3.13,3.13,0,0,0-1.19-1.75,3.63,3.63,0,0,0-2.19-.64,4.11,4.11,0,0,0-3.17,1.26,5.32,5.32,0,0,0-1.17,3.74,5.87,5.87,0,0,0,1.19,4,3.94,3.94,0,0,0,3.12,1.34,5.23,5.23,0,0,0,1.91-.37,6.42,6.42,0,0,0,1.64-.91v-1.91Z"/><path class="cls-25" d="M206.51,532.86V530h2.88v2.88Z"/><path class="cls-25" d="M216.6,517.77a4.11,4.11,0,0,1,3.41,1.56q1.47,1.84,1.47,6.12c0,2.85-.49,4.9-1.47,6.13a4.11,4.11,0,0,1-3.4,1.54,4.3,4.3,0,0,1-3.54-1.69c-.9-1.12-1.34-3.13-1.34-6s.49-4.87,1.47-6.12A4.11,4.11,0,0,1,216.6,517.77Zm0,2.39a1.48,1.48,0,0,0-.94.33,2.2,2.2,0,0,0-.63,1.19,24.18,24.18,0,0,0,0,7.4,2.57,2.57,0,0,0,.67,1.32,1.46,1.46,0,0,0,1.86,0,2.28,2.28,0,0,0,.64-1.19,16.85,16.85,0,0,0,.29-3.75,16.45,16.45,0,0,0-.26-3.64,2.57,2.57,0,0,0-.67-1.32,1.43,1.43,0,0,0-.93-.33Z"/><path class="cls-25" d="M233.14,530.18v2.68H223a7,7,0,0,1,1-2.88,19.81,19.81,0,0,1,3.24-3.6,19.84,19.84,0,0,0,2.39-2.46,3.18,3.18,0,0,0,.6-1.76,2,2,0,0,0-.52-1.49,2.22,2.22,0,0,0-2.87,0,2.8,2.8,0,0,0-.61,1.8l-2.87-.28A4.68,4.68,0,0,1,225,518.8a5.43,5.43,0,0,1,3.38-1,4.93,4.93,0,0,1,3.5,1.2,4,4,0,0,1,1.27,3,4.91,4.91,0,0,1-.37,1.93,7.53,7.53,0,0,1-1.15,1.93,18.93,18.93,0,0,1-1.89,1.91c-.91.84-1.48,1.39-1.72,1.66a5.16,5.16,0,0,0-.59.8Z"/><g class="cls-38"><path class="cls-25" d="M211.55,507.66v-17H215v14.14h8.63v2.9Z"/><path class="cls-25" d="M228.56,499l-3-.54a4.63,4.63,0,0,1,1.73-2.67,6.34,6.34,0,0,1,3.66-.87,8,8,0,0,1,3.28.52,3.25,3.25,0,0,1,1.52,1.33,6.83,6.83,0,0,1,.44,3l0,3.84a13.87,13.87,0,0,0,.16,2.42,7.15,7.15,0,0,0,.59,1.67h-3.26c-.08-.22-.19-.54-.31-1l-.12-.39a5.78,5.78,0,0,1-1.8,1.23,5.25,5.25,0,0,1-2,.41,4.24,4.24,0,0,1-3-1,3.48,3.48,0,0,1-1.11-2.64,3.59,3.59,0,0,1,.5-1.88,3.4,3.4,0,0,1,1.41-1.27,11.38,11.38,0,0,1,2.62-.76,17.89,17.89,0,0,0,3.2-.81v-.33a1.68,1.68,0,0,0-.47-1.35,2.79,2.79,0,0,0-1.77-.41,2.37,2.37,0,0,0-1.37.35A2.41,2.41,0,0,0,228.56,499Zm4.4,2.67c-.42.14-1.09.31-2,.51a5.84,5.84,0,0,0-1.79.57,1.38,1.38,0,0,0-.65,1.16,1.61,1.61,0,0,0,.52,1.2,1.81,1.81,0,0,0,1.31.5,2.87,2.87,0,0,0,1.7-.59,2,2,0,0,0,.78-1.09,6.22,6.22,0,0,0,.13-1.6Z"/><path class="cls-25" d="M239.3,507.66V490.48h3.3v6.19a4.63,4.63,0,0,1,3.61-1.74,4.86,4.86,0,0,1,3.76,1.65,6.83,6.83,0,0,1,1.49,4.73,7.21,7.21,0,0,1-1.52,4.91,4.73,4.73,0,0,1-3.69,1.72,4.6,4.6,0,0,1-2.1-.53,5.06,5.06,0,0,1-1.79-1.58v1.83Zm3.27-6.49a5.36,5.36,0,0,0,.61,2.86,2.62,2.62,0,0,0,2.28,1.31,2.32,2.32,0,0,0,1.85-.93,4.6,4.6,0,0,0,.77-2.94,4.86,4.86,0,0,0-.77-3.07,2.46,2.46,0,0,0-2-.95,2.49,2.49,0,0,0-2,.92A4.21,4.21,0,0,0,242.57,501.17Z"/></g></g><g id="skeleton"><g id="walls"><polyline class="cls-37" points="381.76 331.67 381.76 242.5 304.5 242.5 304.5 26.5"/><line class="cls-37" x1="459.06" y1="23.5" x2="459.06" y2="247.5"/><polyline class="cls-37" points="671.5 23.5 671.5 151.5 504.55 319.55"/><line class="cls-37" x1="27.5" y1="400.47" x2="260.15" y2="400.47"/><polyline class="cls-37" points="317.04 400.47 387.5 400.47 387.5 623"/><polyline class="cls-37" points="27.5 241.83 127.5 241.83 127.5 274.5"/><line class="cls-37" x1="459.5" y1="319.5" x2="459.5" y2="303.17"/><line class="cls-37" x1="446.89" y1="242.5" x2="457.22" y2="242.5"/><line class="cls-37" x1="127.5" y1="241.83" x2="255" y2="241.83"/><line class="cls-37" x1="65.22" y1="276" x2="96.91" y2="309.1"/><line class="cls-37" x1="65.79" y1="366.5" x2="96.91" y2="334.8"/></g><g id="outline"><polyline class="cls-39" points="62 243 62 275 45 275 27.5 258.17 27.5 23.5 450.5 23.5 463.5 23.5 1515.5 23.5 1515.5 319.5 459.5 319.5 459.5 623 27.5 623 27.5 382.82 45 366.56 64.5 366.56 64.5 402"/></g></g><g id="signage"><g id="signage-2"><g id="Group_242" data-name="Group 242"><circle id="Ellipse_7_2" data-name="Ellipse 7 2" class="cls-40" cx="422.47" cy="539.78" r="27.84" transform="translate(-135.92 937.33) rotate(-87.4)"/></g><g id="Outline_Icons" data-name="Outline Icons"><line class="cls-41" x1="412.2" y1="549.17" x2="433.76" y2="549.17"/><polyline class="cls-41" points="433.76 534.18 427.2 534.18 427.2 537.93 423.45 537.93 423.45 541.67 419.7 541.67 419.7 545.42 415.95 545.42 415.95 549.17"/><line class="cls-41" x1="412.2" y1="537.93" x2="422.51" y2="527.62"/><polyline class="cls-41" points="417.83 527.62 422.51 527.62 422.51 532.3"/></g></g><g id="signage-3"><g id="Group_242-2" data-name="Group 242-2"><circle id="Ellipse_7_2-2" data-name="Ellipse 7 2-2" class="cls-40" cx="381.56" cy="108.85" r="27.84"/><circle class="cls-42" cx="382.6" cy="100.59" r="3.37"/><path class="cls-42" d="M382.6,105.4c-2.93,0-5.3,4.34-5.3,9.16h3.37v4.81h3.86v-4.81h3.37C387.9,109.74,385.53,105.4,382.6,105.4Z"/></g></g><g id="signage-4"><circle id="Ellipse_7_2-3" data-name="Ellipse 7 2-3" class="cls-40" cx="556.01" cy="105.4" r="27.84" transform="translate(425.49 656.06) rotate(-87.4)"/><g id="Outline_Icons-2" data-name="Outline Icons-2"><circle class="cls-42" cx="556.73" cy="97.17" r="3.37"/><path class="cls-42" d="M562,102.47H551.4c0,3.92,1.58,6.21,3.38,7.23V116h3.85v-6.3C560.45,108.68,562,106.39,562,102.47Z"/></g></g><path class="cls-23" d="M159.91,324.65v-11.5h8.31v1.35h-6.79V318h6.36v1.35h-6.36v3.91h7.06v1.36Z"/><path class="cls-23" d="M170.41,324.65v-8.33h1.27v1.18a3,3,0,0,1,2.65-1.37,3.48,3.48,0,0,1,1.39.27,2.2,2.2,0,0,1,.94.71,2.81,2.81,0,0,1,.44,1,8.92,8.92,0,0,1,.08,1.37v5.13h-1.41v-5.07a3.76,3.76,0,0,0-.17-1.29,1.29,1.29,0,0,0-.58-.68,1.85,1.85,0,0,0-1-.26,2.27,2.27,0,0,0-1.55.57,2.87,2.87,0,0,0-.66,2.18v4.55Z"/><path class="cls-23" d="M182.43,323.38l.2,1.25a5.49,5.49,0,0,1-1.07.13,2.45,2.45,0,0,1-1.19-.25,1.36,1.36,0,0,1-.59-.64,4.66,4.66,0,0,1-.18-1.66v-4.79h-1v-1.1h1v-2.07l1.41-.84v2.91h1.42v1.1H181v4.87a2.49,2.49,0,0,0,.07.77.57.57,0,0,0,.25.28,1,1,0,0,0,.48.1A3.36,3.36,0,0,0,182.43,323.38Z"/><path class="cls-23" d="M183.79,324.65v-8.33h1.27v1.26a3.56,3.56,0,0,1,.9-1.17,1.55,1.55,0,0,1,.91-.28,2.75,2.75,0,0,1,1.45.45l-.49,1.31a2,2,0,0,0-1-.3,1.35,1.35,0,0,0-.84.28,1.48,1.48,0,0,0-.52.77,5.11,5.11,0,0,0-.24,1.65v4.36Z"/><path class="cls-23" d="M189.09,327.85l-.15-1.32a3.6,3.6,0,0,0,.8.12,1.67,1.67,0,0,0,.76-.15,1.3,1.3,0,0,0,.46-.44,6.81,6.81,0,0,0,.43-1.05,1.42,1.42,0,0,1,.13-.35l-3.16-8.34h1.52l1.73,4.82c.23.61.43,1.26.61,1.93a18.09,18.09,0,0,1,.58-1.9l1.78-4.85H196l-3.17,8.47a17.5,17.5,0,0,1-.79,1.89,2.79,2.79,0,0,1-.87,1A2,2,0,0,1,190,328,2.8,2.8,0,0,1,189.09,327.85Z"/><path class="cls-23" d="M401.16,581.16l1.44-.12a3.37,3.37,0,0,0,.47,1.41,2.64,2.64,0,0,0,1.16.9,4.46,4.46,0,0,0,1.77.34,4.21,4.21,0,0,0,1.53-.26,2.05,2.05,0,0,0,1-.71,1.64,1.64,0,0,0,.33-1,1.46,1.46,0,0,0-.31-.94,2.29,2.29,0,0,0-1-.68,20.69,20.69,0,0,0-2.05-.56,10.11,10.11,0,0,1-2.22-.72,3.14,3.14,0,0,1-1.22-1.07,2.59,2.59,0,0,1-.41-1.43,3,3,0,0,1,.5-1.63,3.13,3.13,0,0,1,1.44-1.15,5.45,5.45,0,0,1,2.11-.39,6,6,0,0,1,2.26.41,3.32,3.32,0,0,1,1.5,1.22,3.44,3.44,0,0,1,.56,1.81l-1.46.11a2.32,2.32,0,0,0-.79-1.65,3.1,3.1,0,0,0-2-.56,3.15,3.15,0,0,0-2,.51,1.52,1.52,0,0,0-.63,1.22,1.32,1.32,0,0,0,.45,1,6.23,6.23,0,0,0,2.29.82,15.14,15.14,0,0,1,2.55.73,3.53,3.53,0,0,1,1.48,1.17,2.91,2.91,0,0,1,.48,1.64,3.12,3.12,0,0,1-.53,1.73,3.37,3.37,0,0,1-1.51,1.26,5.27,5.27,0,0,1-2.21.45,6.7,6.7,0,0,1-2.62-.45,3.68,3.68,0,0,1-1.65-1.37A4,4,0,0,1,401.16,581.16Z"/><path class="cls-23" d="M415.3,583.59l.2,1.25a5.39,5.39,0,0,1-1.06.13,2.49,2.49,0,0,1-1.2-.25,1.36,1.36,0,0,1-.59-.64,4.66,4.66,0,0,1-.18-1.66v-4.8h-1v-1.09h1v-2.07l1.41-.84v2.91h1.42v1.09h-1.42v4.88a2.49,2.49,0,0,0,.07.77.57.57,0,0,0,.25.28,1,1,0,0,0,.48.1A3.18,3.18,0,0,0,415.3,583.59Z"/><path class="cls-23" d="M422.11,583.83a5.17,5.17,0,0,1-1.51.94,4.56,4.56,0,0,1-1.55.27,3,3,0,0,1-2.11-.67,2.34,2.34,0,0,1,.27-3.64,3.37,3.37,0,0,1,1-.46,9,9,0,0,1,1.26-.21,12.76,12.76,0,0,0,2.52-.49v-.37a1.54,1.54,0,0,0-.4-1.21,2.37,2.37,0,0,0-1.6-.48,2.45,2.45,0,0,0-1.47.35,2.15,2.15,0,0,0-.71,1.23l-1.38-.19a3.53,3.53,0,0,1,.62-1.43,2.75,2.75,0,0,1,1.25-.84,5.79,5.79,0,0,1,1.89-.29,4.84,4.84,0,0,1,1.73.25,2.34,2.34,0,0,1,1,.63,2.15,2.15,0,0,1,.44,1,8.1,8.1,0,0,1,.07,1.3v1.89a20.73,20.73,0,0,0,.09,2.49,3,3,0,0,0,.36,1H422.4A3.1,3.1,0,0,1,422.11,583.83Zm-.11-3.15a10.75,10.75,0,0,1-2.31.53,5.22,5.22,0,0,0-1.23.28,1.33,1.33,0,0,0-.56.46,1.27,1.27,0,0,0,.23,1.61,1.88,1.88,0,0,0,1.25.38,2.88,2.88,0,0,0,1.46-.36,2.25,2.25,0,0,0,.93-1,3.45,3.45,0,0,0,.23-1.42Z"/><path class="cls-23" d="M425.62,575v-1.62H427V575Zm0,9.88v-8.33H427v8.33Z"/><path class="cls-23" d="M429.17,584.86v-8.33h1.27v1.26a3.41,3.41,0,0,1,.89-1.17,1.65,1.65,0,0,1,.91-.28,2.75,2.75,0,0,1,1.45.45l-.49,1.31a2,2,0,0,0-1-.3,1.26,1.26,0,0,0-.83.28,1.49,1.49,0,0,0-.53.77,5.77,5.77,0,0,0-.23,1.65v4.36Z"/><path class="cls-23" d="M434,582.37l1.39-.22a2,2,0,0,0,.66,1.29,2.29,2.29,0,0,0,1.5.44,2.23,2.23,0,0,0,1.44-.39,1.17,1.17,0,0,0,.47-.93.85.85,0,0,0-.41-.75,6.17,6.17,0,0,0-1.45-.48,12.77,12.77,0,0,1-2.15-.68,2.11,2.11,0,0,1-.91-.79,2,2,0,0,1-.31-1.12,2.07,2.07,0,0,1,.26-1,2.38,2.38,0,0,1,.69-.79,2.72,2.72,0,0,1,.9-.41,3.91,3.91,0,0,1,1.22-.17,4.78,4.78,0,0,1,1.72.28,2.28,2.28,0,0,1,1.09.77,3,3,0,0,1,.49,1.29l-1.38.18a1.53,1.53,0,0,0-.55-1,2,2,0,0,0-1.27-.36,2.33,2.33,0,0,0-1.39.32.94.94,0,0,0-.41.75.82.82,0,0,0,.17.5,1.19,1.19,0,0,0,.54.37c.14.06.56.18,1.25.37a16.85,16.85,0,0,1,2.09.65,2.24,2.24,0,0,1,.93.74,2.14,2.14,0,0,1,.33,1.21,2.35,2.35,0,0,1-.41,1.33,2.58,2.58,0,0,1-1.19,1,4.2,4.2,0,0,1-1.75.34,3.9,3.9,0,0,1-2.48-.67A3.1,3.1,0,0,1,434,582.37Z"/><path class="cls-23" d="M357.56,156.08v-11.5h7.75v1.36h-6.23v3.56h5.4v1.36h-5.4v5.22Z"/><path class="cls-23" d="M372.81,153.4l1.46.18a3.61,3.61,0,0,1-1.28,2,4.31,4.31,0,0,1-5.28-.42,4.38,4.38,0,0,1-1.07-3.15,4.63,4.63,0,0,1,1.08-3.27,3.69,3.69,0,0,1,2.81-1.16,3.57,3.57,0,0,1,2.73,1.14,4.55,4.55,0,0,1,1.06,3.2v.38H368.1a3.18,3.18,0,0,0,.78,2.1,2.33,2.33,0,0,0,1.74.73,2.15,2.15,0,0,0,1.32-.41A2.63,2.63,0,0,0,372.81,153.4Zm-4.63-2.28h4.65a2.74,2.74,0,0,0-.54-1.58,2.17,2.17,0,0,0-1.74-.82,2.29,2.29,0,0,0-1.64.65A2.56,2.56,0,0,0,368.18,151.12Z"/><path class="cls-23" d="M376,156.08v-8.33h1.27v1.17a3,3,0,0,1,1-1,2.84,2.84,0,0,1,1.48-.38,2.72,2.72,0,0,1,1.52.39,2.07,2.07,0,0,1,.84,1.07,3,3,0,0,1,2.57-1.46,2.49,2.49,0,0,1,1.9.69,3,3,0,0,1,.67,2.11v5.72h-1.4v-5.25a3.88,3.88,0,0,0-.14-1.22,1.23,1.23,0,0,0-.5-.6,1.59,1.59,0,0,0-.85-.22,1.93,1.93,0,0,0-1.45.58,2.54,2.54,0,0,0-.59,1.87v4.84H381v-5.41a2.33,2.33,0,0,0-.34-1.41,1.29,1.29,0,0,0-1.13-.47,2,2,0,0,0-1.1.31,1.82,1.82,0,0,0-.74.92,5.11,5.11,0,0,0-.22,1.74v4.32Z"/><path class="cls-23" d="M394.86,155.05a5,5,0,0,1-1.51.94,4.18,4.18,0,0,1-1.56.28,3,3,0,0,1-2.11-.67A2.36,2.36,0,0,1,390,152a3.39,3.39,0,0,1,1-.47c.41-.09.83-.16,1.25-.21a12.76,12.76,0,0,0,2.52-.49v-.36a1.55,1.55,0,0,0-.4-1.22,2.38,2.38,0,0,0-1.61-.48,2.53,2.53,0,0,0-1.47.35,2.1,2.1,0,0,0-.7,1.24l-1.38-.19a3.28,3.28,0,0,1,.62-1.43,2.6,2.6,0,0,1,1.25-.84,5.54,5.54,0,0,1,1.89-.3,5.07,5.07,0,0,1,1.73.25,2.4,2.4,0,0,1,1,.63,2.2,2.2,0,0,1,.44,1,8.1,8.1,0,0,1,.07,1.3v1.88a20.73,20.73,0,0,0,.09,2.49,3,3,0,0,0,.36,1h-1.48A3,3,0,0,1,394.86,155.05Zm-.12-3.15a10.11,10.11,0,0,1-2.3.53,5.24,5.24,0,0,0-1.23.29,1.13,1.13,0,0,0-.56.45,1.26,1.26,0,0,0-.2.68,1.18,1.18,0,0,0,.43.94,1.87,1.87,0,0,0,1.25.37,2.93,2.93,0,0,0,1.45-.35,2.27,2.27,0,0,0,.94-1,3.39,3.39,0,0,0,.22-1.41Z"/><path class="cls-23" d="M398.33,156.08v-11.5h1.41v11.5Z"/><path class="cls-23" d="M407.63,153.4l1.46.18a3.61,3.61,0,0,1-1.28,2,4.31,4.31,0,0,1-5.28-.42,4.38,4.38,0,0,1-1.07-3.15,4.63,4.63,0,0,1,1.08-3.27,3.69,3.69,0,0,1,2.81-1.16,3.57,3.57,0,0,1,2.73,1.14,4.55,4.55,0,0,1,1.06,3.2v.38h-6.21a3.24,3.24,0,0,0,.77,2.1,2.33,2.33,0,0,0,1.74.73,2.18,2.18,0,0,0,1.33-.41A2.77,2.77,0,0,0,407.63,153.4ZM403,151.12h4.66a2.89,2.89,0,0,0-.54-1.58,2.19,2.19,0,0,0-1.75-.82,2.25,2.25,0,0,0-1.63.65A2.6,2.6,0,0,0,403,151.12Z"/><path class="cls-23" d="M364.42,175.36V165.22h-3.79v-1.36h9.12v1.36h-3.81v10.14Z"/><path class="cls-23" d="M368.82,171.19a4.3,4.3,0,0,1,1.29-3.43,3.86,3.86,0,0,1,2.62-.92,3.72,3.72,0,0,1,2.8,1.12,4.28,4.28,0,0,1,1.09,3.11,5.5,5.5,0,0,1-.48,2.53,3.41,3.41,0,0,1-1.4,1.44,4.1,4.1,0,0,1-2,.51,3.75,3.75,0,0,1-2.83-1.13A4.44,4.44,0,0,1,368.82,171.19Zm1.45,0a3.51,3.51,0,0,0,.7,2.4,2.33,2.33,0,0,0,3.29.22l.22-.22a3.63,3.63,0,0,0,.69-2.43,3.48,3.48,0,0,0-.7-2.35,2.33,2.33,0,0,0-3.29-.21,2.08,2.08,0,0,0-.21.21,3.56,3.56,0,0,0-.7,2.38Z"/><path class="cls-23" d="M378.29,165.48v-1.62h1.41v1.62Zm0,9.88V167h1.41v8.33Z"/><path class="cls-23" d="M381.82,175.36v-11.5h1.41v11.5Z"/><path class="cls-23" d="M391.12,172.67l1.46.18a3.61,3.61,0,0,1-1.28,2,4.31,4.31,0,0,1-5.28-.42,4.36,4.36,0,0,1-1.07-3.16A4.58,4.58,0,0,1,386,168a3.69,3.69,0,0,1,2.81-1.16,3.57,3.57,0,0,1,2.73,1.14,4.5,4.5,0,0,1,1,3.2v.37h-6.21a3.17,3.17,0,0,0,.77,2.1,2.29,2.29,0,0,0,1.74.73,2.17,2.17,0,0,0,1.33-.4A2.84,2.84,0,0,0,391.12,172.67Zm-4.64-2.28h4.65a2.79,2.79,0,0,0-.53-1.57,2.16,2.16,0,0,0-1.75-.82,2.25,2.25,0,0,0-1.63.65,2.58,2.58,0,0,0-.74,1.74Z"/><path class="cls-23" d="M397.43,174.09l.21,1.25a5.49,5.49,0,0,1-1.07.13,2.35,2.35,0,0,1-1.19-.25,1.38,1.38,0,0,1-.6-.64,5.16,5.16,0,0,1-.17-1.66v-4.79h-1V167h1v-2l1.4-.84V167h1.42v1.1H396V173a2.22,2.22,0,0,0,.08.77.6.6,0,0,0,.24.28.89.89,0,0,0,.48.1A3.36,3.36,0,0,0,397.43,174.09Z"/><path class="cls-23" d="M398.25,172.87l1.39-.22a2,2,0,0,0,.66,1.29,2.81,2.81,0,0,0,2.94.05,1.18,1.18,0,0,0,.48-.93.84.84,0,0,0-.42-.75,6.1,6.1,0,0,0-1.44-.48,12.59,12.59,0,0,1-2.16-.68,2.11,2.11,0,0,1-.91-.79,2.22,2.22,0,0,1-.31-1.12,2.07,2.07,0,0,1,.26-1,2.38,2.38,0,0,1,.69-.79,2.72,2.72,0,0,1,.9-.41,4.6,4.6,0,0,1,1.22-.17,4.78,4.78,0,0,1,1.72.28,2.31,2.31,0,0,1,1.1.77,3,3,0,0,1,.48,1.29l-1.38.18a1.51,1.51,0,0,0-.54-1,2,2,0,0,0-1.28-.36,2.33,2.33,0,0,0-1.39.32,1,1,0,0,0-.41.75.82.82,0,0,0,.17.5,1.19,1.19,0,0,0,.54.37c.14.06.56.18,1.25.37a16.85,16.85,0,0,1,2.09.65,2.24,2.24,0,0,1,.93.74,2.15,2.15,0,0,1,.34,1.21,2.33,2.33,0,0,1-.42,1.33,2.67,2.67,0,0,1-1.18,1,4.29,4.29,0,0,1-1.76.35,3.91,3.91,0,0,1-2.48-.68A3.21,3.21,0,0,1,398.25,172.87Z"/><g id="signage-5"><g id="Group_242-3" data-name="Group 242-3"><circle id="Ellipse_7_2-4" data-name="Ellipse 7 2-4" class="cls-40" cx="335.08" cy="280.69" r="27.84"/></g></g><path class="cls-23" d="M318.08,327.91V316.42h1.52v5.7l5.71-5.7h2.07l-4.83,4.65,5,6.84h-2l-4.09-5.82-1.89,1.84v4Z"/><path class="cls-23" d="M328.69,318v-1.62h1.41V318Zm0,9.87v-8.33h1.41v8.33Z"/><path class="cls-23" d="M331.72,323.75a4.3,4.3,0,0,1,1.29-3.43,3.86,3.86,0,0,1,2.62-.92,3.75,3.75,0,0,1,2.81,1.12,4.33,4.33,0,0,1,1.09,3.11,5.38,5.38,0,0,1-.49,2.53,3.33,3.33,0,0,1-1.4,1.43,4,4,0,0,1-2,.51,3.76,3.76,0,0,1-2.84-1.1A4.45,4.45,0,0,1,331.72,323.75Zm1.45,0a3.6,3.6,0,0,0,.7,2.39,2.33,2.33,0,0,0,3.29.22,2.28,2.28,0,0,0,.22-.22,3.61,3.61,0,0,0,.7-2.44,3.41,3.41,0,0,0-.71-2.34,2.21,2.21,0,0,0-1.74-.8,2.25,2.25,0,0,0-1.76.8A3.53,3.53,0,0,0,333.17,323.75Z"/><path class="cls-23" d="M340.62,325.43l1.39-.22a1.91,1.91,0,0,0,.66,1.28,2.3,2.3,0,0,0,1.5.45,2.18,2.18,0,0,0,1.44-.4,1.17,1.17,0,0,0,.47-.92.86.86,0,0,0-.41-.76,7.16,7.16,0,0,0-1.44-.48,13.5,13.5,0,0,1-2.16-.67,2.14,2.14,0,0,1-1.07-2.82l.07-.13a2.25,2.25,0,0,1,.69-.78,3,3,0,0,1,.9-.42,4.59,4.59,0,0,1,1.22-.16,4.78,4.78,0,0,1,1.72.28,2.41,2.41,0,0,1,1.1.76,3,3,0,0,1,.48,1.29l-1.38.19a1.47,1.47,0,0,0-.54-1,2,2,0,0,0-1.28-.36,2.33,2.33,0,0,0-1.39.32.94.94,0,0,0-.41.75.79.79,0,0,0,.17.49,1.3,1.3,0,0,0,.54.38l1.25.36a18.78,18.78,0,0,1,2.09.66,2.11,2.11,0,0,1,.93.74,2.15,2.15,0,0,1,.34,1.21,2.32,2.32,0,0,1-.42,1.32,2.73,2.73,0,0,1-1.18,1,4.28,4.28,0,0,1-1.76.34,4,4,0,0,1-2.48-.67A3.14,3.14,0,0,1,340.62,325.43Z"/><path class="cls-23" d="M349.22,327.91V316.42h1.41V323l3.35-3.39h1.82l-3.18,3.09,3.5,5.24h-1.74l-2.75-4.26-1,1V328Z"/><path class="cls-23" d="M537.28,154.22v-11.5h2.29l2.72,8.15c.25.75.44,1.32.55,1.7.13-.42.34-1,.61-1.85l2.76-8h2v11.5h-1.46V144.6l-3.34,9.62H542l-3.32-9.79v9.79Z"/><path class="cls-23" d="M556,153.19a5.28,5.28,0,0,1-1.51.95,4.56,4.56,0,0,1-1.55.27,3,3,0,0,1-2.11-.67,2.37,2.37,0,0,1-.46-2.83,2.11,2.11,0,0,1,.73-.81,3.39,3.39,0,0,1,1-.47q.63-.13,1.26-.21a13.51,13.51,0,0,0,2.52-.48v-.37a1.55,1.55,0,0,0-.4-1.22,2.37,2.37,0,0,0-1.6-.48,2.45,2.45,0,0,0-1.47.35,2.17,2.17,0,0,0-.71,1.24l-1.38-.19a3.4,3.4,0,0,1,.62-1.43,2.68,2.68,0,0,1,1.25-.84,5.54,5.54,0,0,1,1.89-.3,4.85,4.85,0,0,1,1.73.26,2,2,0,0,1,1.42,1.59,8.1,8.1,0,0,1,.07,1.3v1.88a20.73,20.73,0,0,0,.09,2.49,3,3,0,0,0,.36,1h-1.47A3,3,0,0,1,556,153.19Zm-.11-3.15a10.21,10.21,0,0,1-2.31.54,4.77,4.77,0,0,0-1.23.28,1.15,1.15,0,0,0-.56.46,1.27,1.27,0,0,0,.23,1.61,1.87,1.87,0,0,0,1.25.37,3,3,0,0,0,1.46-.35,2.25,2.25,0,0,0,.93-1,3.57,3.57,0,0,0,.23-1.41Z"/><path class="cls-23" d="M559.43,154.22v-11.5h1.41v11.5Z"/><path class="cls-23" d="M568.73,151.54l1.46.18a3.51,3.51,0,0,1-1.28,2,4.31,4.31,0,0,1-5.28-.42,4.38,4.38,0,0,1-1.07-3.15,4.61,4.61,0,0,1,1.08-3.26,3.65,3.65,0,0,1,2.81-1.17,3.57,3.57,0,0,1,2.73,1.14,4.55,4.55,0,0,1,1.06,3.2v.38H564a3.18,3.18,0,0,0,.78,2.1,2.29,2.29,0,0,0,1.74.73,2.15,2.15,0,0,0,1.32-.41A2.6,2.6,0,0,0,568.73,151.54Zm-4.63-2.28h4.65a2.74,2.74,0,0,0-.54-1.58,2.13,2.13,0,0,0-1.74-.81,2.23,2.23,0,0,0-1.64.65A2.52,2.52,0,0,0,564.1,149.26Z"/><path class="cls-23" d="M534.9,173.5V163.36h-3.79V162h9.11v1.36h-3.8V173.5Z"/><path class="cls-23" d="M539.3,169.33a4.32,4.32,0,0,1,1.28-3.42,3.87,3.87,0,0,1,2.62-.93,3.72,3.72,0,0,1,2.81,1.13,4.24,4.24,0,0,1,1.09,3.11,5.5,5.5,0,0,1-.48,2.53,3.41,3.41,0,0,1-1.41,1.43,4,4,0,0,1-2,.51,3.73,3.73,0,0,1-2.82-1.13A4.44,4.44,0,0,1,539.3,169.33Zm1.45,0a3.51,3.51,0,0,0,.7,2.4,2.31,2.31,0,0,0,3.26.24,1.81,1.81,0,0,0,.24-.24,3.61,3.61,0,0,0,.7-2.44A3.46,3.46,0,0,0,545,167a2.31,2.31,0,0,0-3.27-.23,2.5,2.5,0,0,0-.23.23A3.51,3.51,0,0,0,540.75,169.33Z"/><path class="cls-23" d="M548.76,163.62V162h1.42v1.62Zm0,9.88v-8.33h1.42v8.33Z"/><path class="cls-23" d="M552.29,173.5V162h1.42v11.5Z"/><path class="cls-23" d="M561.6,170.82l1.45.18a3.54,3.54,0,0,1-1.27,2,3.93,3.93,0,0,1-2.39.71,3.83,3.83,0,0,1-2.9-1.13,4.4,4.4,0,0,1-1.07-3.16,4.61,4.61,0,0,1,1.08-3.26,3.69,3.69,0,0,1,2.81-1.16,3.53,3.53,0,0,1,2.73,1.14,4.55,4.55,0,0,1,1.06,3.2v.37h-6.21a3.22,3.22,0,0,0,.78,2.11,2.33,2.33,0,0,0,1.74.73,2.18,2.18,0,0,0,1.33-.41A2.77,2.77,0,0,0,561.6,170.82Zm-4.6-2.29h4.65a2.79,2.79,0,0,0-.53-1.57,2.16,2.16,0,0,0-1.75-.82,2.29,2.29,0,0,0-1.64.65A2.63,2.63,0,0,0,557,168.53Z"/><path class="cls-23" d="M567.91,172.24l.2,1.24a4.73,4.73,0,0,1-1.06.13,2.49,2.49,0,0,1-1.2-.24,1.36,1.36,0,0,1-.59-.64,5,5,0,0,1-.17-1.67v-4.79h-1v-1.1h1v-2.06l1.4-.85v2.91h1.42v1.1h-1.42v4.87a2.49,2.49,0,0,0,.07.77.57.57,0,0,0,.25.28.89.89,0,0,0,.48.1C567.5,172.28,567.7,172.27,567.91,172.24Z"/><path class="cls-23" d="M568.73,171l1.39-.22a2,2,0,0,0,.66,1.29,2.76,2.76,0,0,0,2.94.05,1.14,1.14,0,0,0,.47-.93.85.85,0,0,0-.41-.75,6.17,6.17,0,0,0-1.45-.48,12.77,12.77,0,0,1-2.15-.68,2,2,0,0,1-1.22-1.91,2.07,2.07,0,0,1,.26-1,2.38,2.38,0,0,1,.69-.79,2.72,2.72,0,0,1,.9-.41A4.39,4.39,0,0,1,572,165a4.78,4.78,0,0,1,1.72.28,2.35,2.35,0,0,1,1.09.77,3,3,0,0,1,.49,1.29l-1.38.19a1.53,1.53,0,0,0-.55-1,2,2,0,0,0-1.27-.36,2.33,2.33,0,0,0-1.39.32,1,1,0,0,0-.41.76.79.79,0,0,0,.17.49,1.21,1.21,0,0,0,.54.38l1.25.36a16.85,16.85,0,0,1,2.09.65,2.24,2.24,0,0,1,.93.74,2.14,2.14,0,0,1,.33,1.21,2.35,2.35,0,0,1-.41,1.33,2.64,2.64,0,0,1-1.19,1,4.37,4.37,0,0,1-1.75.34,3.91,3.91,0,0,1-2.48-.68A3.09,3.09,0,0,1,568.73,171Z"/><path class="cls-23" d="M1013.92,166l1.44-.12a3.11,3.11,0,0,0,.47,1.41,2.64,2.64,0,0,0,1.16.9,4.45,4.45,0,0,0,1.76.34,4.26,4.26,0,0,0,1.54-.26,2.05,2.05,0,0,0,1-.71,1.64,1.64,0,0,0,.33-1,1.53,1.53,0,0,0-.32-.94,2.24,2.24,0,0,0-1-.68,19.76,19.76,0,0,0-2-.56,10.11,10.11,0,0,1-2.22-.72,3,3,0,0,1-1.22-1.07,2.67,2.67,0,0,1-.41-1.43,3,3,0,0,1,.5-1.63,3.08,3.08,0,0,1,1.44-1.15,5.45,5.45,0,0,1,2.11-.39,6,6,0,0,1,2.25.41,3.26,3.26,0,0,1,1.51,1.21,3.45,3.45,0,0,1,.56,1.82l-1.46.11a2.38,2.38,0,0,0-.79-1.65,3.1,3.1,0,0,0-2-.56,3.15,3.15,0,0,0-2,.51,1.52,1.52,0,0,0-.63,1.22,1.32,1.32,0,0,0,.45,1,6.23,6.23,0,0,0,2.29.82,15.14,15.14,0,0,1,2.55.73,3.53,3.53,0,0,1,1.48,1.17,2.91,2.91,0,0,1,.48,1.64,3.12,3.12,0,0,1-.53,1.73,3.37,3.37,0,0,1-1.51,1.26,5.31,5.31,0,0,1-2.22.45,6.65,6.65,0,0,1-2.61-.45,3.7,3.7,0,0,1-1.66-1.37A3.87,3.87,0,0,1,1013.92,166Z"/><path class="cls-23" d="M1030.43,169.65v-1.23a3,3,0,0,1-2.64,1.41,3.48,3.48,0,0,1-1.38-.28,2.3,2.3,0,0,1-1-.71,2.63,2.63,0,0,1-.43-1.05,7.15,7.15,0,0,1-.09-1.31v-5.16h1.42v4.62a8.23,8.23,0,0,0,.08,1.49,1.48,1.48,0,0,0,.57.87,1.74,1.74,0,0,0,1.06.32,2.27,2.27,0,0,0,1.19-.33,1.7,1.7,0,0,0,.79-.88,4.3,4.3,0,0,0,.23-1.63v-4.46h1.42v8.33Z"/><path class="cls-23" d="M1035.21,169.65h-1.31v-11.5h1.41v4.1a2.8,2.8,0,0,1,2.28-1.12,3.51,3.51,0,0,1,1.46.31,2.92,2.92,0,0,1,1.13.87,4,4,0,0,1,.69,1.35,5.43,5.43,0,0,1,.25,1.7,4.73,4.73,0,0,1-1.06,3.31,3.31,3.31,0,0,1-2.54,1.16,2.64,2.64,0,0,1-2.31-1.23Zm0-4.23a4.35,4.35,0,0,0,.41,2.16,2,2,0,0,0,2.68.91,2.09,2.09,0,0,0,.73-.62,4.71,4.71,0,0,0,0-4.81,2,2,0,0,0-3.16,0,3.55,3.55,0,0,0-.7,2.33Z"/><path class="cls-23" d="M1047.56,169.65v-11.5h7.76v1.35h-6.24v3.56h5.4v1.36h-5.4v5.23Z"/><path class="cls-23" d="M1057.08,169.65v-11.5h1.42v11.5Z"/><path class="cls-23" d="M1060.16,165.48a4.3,4.3,0,0,1,1.29-3.43,3.86,3.86,0,0,1,2.62-.92,3.72,3.72,0,0,1,2.8,1.12,4.24,4.24,0,0,1,1.09,3.11,5.5,5.5,0,0,1-.48,2.53,3.33,3.33,0,0,1-1.4,1.43,4.1,4.1,0,0,1-2,.51,3.75,3.75,0,0,1-2.83-1.12A4.44,4.44,0,0,1,1060.16,165.48Zm1.45,0a3.51,3.51,0,0,0,.7,2.4,2.21,2.21,0,0,0,1.76.79,2.18,2.18,0,0,0,1.74-.8,3.61,3.61,0,0,0,.7-2.44,3.45,3.45,0,0,0-.7-2.34,2.33,2.33,0,0,0-3.29-.21l-.21.21A3.47,3.47,0,0,0,1061.61,165.48Z"/><path class="cls-23" d="M1069.09,165.48a4.3,4.3,0,0,1,1.29-3.43,3.91,3.91,0,0,1,2.62-.92,3.75,3.75,0,0,1,2.81,1.12,4.33,4.33,0,0,1,1.09,3.11,5.5,5.5,0,0,1-.48,2.53,3.47,3.47,0,0,1-1.41,1.43,4,4,0,0,1-2,.51,3.75,3.75,0,0,1-2.83-1.12A4.44,4.44,0,0,1,1069.09,165.48Zm1.45,0a3.61,3.61,0,0,0,.7,2.4,2.33,2.33,0,0,0,3.51,0,3.61,3.61,0,0,0,.7-2.44,3.41,3.41,0,0,0-.71-2.34,2.33,2.33,0,0,0-3.5,0,3.59,3.59,0,0,0-.7,2.39Z"/><path class="cls-23" d="M1078.54,169.65v-8.33h1.27v1.26a3.43,3.43,0,0,1,.9-1.17,1.52,1.52,0,0,1,.9-.28,2.75,2.75,0,0,1,1.45.45l-.48,1.31a2.08,2.08,0,0,0-1-.3,1.32,1.32,0,0,0-.83.28,1.49,1.49,0,0,0-.53.77,5.7,5.7,0,0,0-.23,1.64v4.37Z"/><path class="cls-23" d="M1088,166l1.43-.12a3.25,3.25,0,0,0,.48,1.41,2.61,2.61,0,0,0,1.15.9,4.46,4.46,0,0,0,1.77.34,4.26,4.26,0,0,0,1.54-.26,2.1,2.1,0,0,0,1-.71,1.63,1.63,0,0,0,.32-1,1.46,1.46,0,0,0-.31-.94,2.29,2.29,0,0,0-1-.68,19.76,19.76,0,0,0-2-.56,9.6,9.6,0,0,1-2.22-.72,3.1,3.1,0,0,1-1.23-1.07,2.58,2.58,0,0,1-.4-1.43,2.94,2.94,0,0,1,.49-1.63,3.08,3.08,0,0,1,1.44-1.15,5.45,5.45,0,0,1,2.11-.39,6,6,0,0,1,2.26.41,3.36,3.36,0,0,1,1.5,1.21,3.55,3.55,0,0,1,.57,1.82l-1.46.11a2.33,2.33,0,0,0-.8-1.65,3.1,3.1,0,0,0-2-.56,3.28,3.28,0,0,0-2,.51,1.52,1.52,0,0,0-.63,1.22,1.32,1.32,0,0,0,.45,1,6.23,6.23,0,0,0,2.29.82,15.14,15.14,0,0,1,2.55.73,3.53,3.53,0,0,1,1.48,1.17,2.91,2.91,0,0,1,.48,1.64,3.11,3.11,0,0,1-.52,1.73,3.52,3.52,0,0,1-1.52,1.26,5.27,5.27,0,0,1-2.21.45,6.7,6.7,0,0,1-2.62-.45,3.68,3.68,0,0,1-1.65-1.37A3.87,3.87,0,0,1,1088,166Z"/><path class="cls-23" d="M1102.16,168.38l.21,1.25a6.37,6.37,0,0,1-1.07.12,2.45,2.45,0,0,1-1.19-.24,1.29,1.29,0,0,1-.6-.64,4.89,4.89,0,0,1-.17-1.66v-4.8h-1v-1.09h1v-2.07l1.4-.84v2.91h1.42v1.09h-1.42v4.87a2.28,2.28,0,0,0,.08.78.6.6,0,0,0,.24.28,1,1,0,0,0,.48.1A3.18,3.18,0,0,0,1102.16,168.38Z"/><path class="cls-23" d="M1103,165.48a4.34,4.34,0,0,1,1.28-3.43,3.91,3.91,0,0,1,2.62-.92,3.75,3.75,0,0,1,2.81,1.12,4.28,4.28,0,0,1,1.09,3.11,5.5,5.5,0,0,1-.48,2.53,3.3,3.3,0,0,1-1.41,1.43,4,4,0,0,1-2,.51,3.75,3.75,0,0,1-2.83-1.12A4.47,4.47,0,0,1,1103,165.48Zm1.45,0a3.51,3.51,0,0,0,.7,2.4,2.31,2.31,0,0,0,3.27.23l.23-.23a3.61,3.61,0,0,0,.7-2.44,3.45,3.45,0,0,0-.7-2.34,2.33,2.33,0,0,0-3.29-.21l-.21.21a3.49,3.49,0,0,0-.68,2.38Z"/><path class="cls-23" d="M1112.46,169.65v-8.33h1.27v1.26a3.43,3.43,0,0,1,.9-1.17,1.6,1.6,0,0,1,.9-.28,2.82,2.82,0,0,1,1.46.45l-.49,1.31a2.08,2.08,0,0,0-1-.3,1.38,1.38,0,0,0-.83.28,1.48,1.48,0,0,0-.52.77,5.34,5.34,0,0,0-.24,1.64v4.37Z"/><path class="cls-23" d="M1123.26,168.62a5.39,5.39,0,0,1-1.51.94,4.61,4.61,0,0,1-1.56.27,3,3,0,0,1-2.11-.67,2.21,2.21,0,0,1-.73-1.71,2.43,2.43,0,0,1,.27-1.12,2.26,2.26,0,0,1,.73-.81,3.37,3.37,0,0,1,1-.46,8.82,8.82,0,0,1,1.25-.21,12.76,12.76,0,0,0,2.52-.49V164a1.55,1.55,0,0,0-.4-1.22,2.43,2.43,0,0,0-1.61-.47,2.45,2.45,0,0,0-1.47.35,2.13,2.13,0,0,0-.7,1.23l-1.38-.19a3.28,3.28,0,0,1,.62-1.43,2.75,2.75,0,0,1,1.25-.84,5.79,5.79,0,0,1,1.89-.29,5.07,5.07,0,0,1,1.73.25,2.34,2.34,0,0,1,1,.63,2.15,2.15,0,0,1,.44,1,8.1,8.1,0,0,1,.07,1.3v1.89a20.73,20.73,0,0,0,.09,2.49,3,3,0,0,0,.36,1h-1.48A3.3,3.3,0,0,1,1123.26,168.62Zm-.12-3.16a10.13,10.13,0,0,1-2.3.54,5.22,5.22,0,0,0-1.23.28,1.2,1.2,0,0,0-.56.46,1.22,1.22,0,0,0-.2.67,1.18,1.18,0,0,0,.43.94,1.82,1.82,0,0,0,1.25.38,2.81,2.81,0,0,0,1.45-.36,2.17,2.17,0,0,0,.94-1,3.39,3.39,0,0,0,.22-1.41Z"/><path class="cls-23" d="M1126.5,170.34l1.37.2a1.33,1.33,0,0,0,.48.92,2.3,2.3,0,0,0,1.44.4,2.53,2.53,0,0,0,1.51-.4,1.89,1.89,0,0,0,.72-1.09,9.12,9.12,0,0,0,.1-1.81,2.9,2.9,0,0,1-2.3,1.09,3.17,3.17,0,0,1-2.66-1.24,4.82,4.82,0,0,1-.94-3,5.53,5.53,0,0,1,.43-2.2,3.39,3.39,0,0,1,1.25-1.55,3.36,3.36,0,0,1,1.92-.55,3,3,0,0,1,2.44,1.19v-1h1.3v7.2a6.79,6.79,0,0,1-.4,2.75,2.94,2.94,0,0,1-1.25,1.29,4.47,4.47,0,0,1-2.12.47,4,4,0,0,1-2.4-.67A2.25,2.25,0,0,1,1126.5,170.34Zm1.17-5a3.62,3.62,0,0,0,.65,2.39,2,2,0,0,0,1.63.76,2.08,2.08,0,0,0,1.63-.75,3.47,3.47,0,0,0,.66-2.35,3.41,3.41,0,0,0-.68-2.31,2.1,2.1,0,0,0-1.63-.77,2,2,0,0,0-1.6.76,3.39,3.39,0,0,0-.66,2.26Z"/><path class="cls-23" d="M1141.39,167l1.46.18a3.48,3.48,0,0,1-1.28,2,4.35,4.35,0,0,1-5.28-.42,4.4,4.4,0,0,1-1.07-3.16,4.61,4.61,0,0,1,1.08-3.26,3.92,3.92,0,0,1,5.54,0,4.55,4.55,0,0,1,1.06,3.2v.38h-6.21a3.13,3.13,0,0,0,.78,2.1,2.29,2.29,0,0,0,1.74.73,2.09,2.09,0,0,0,1.32-.41A2.69,2.69,0,0,0,1141.39,167Zm-4.63-2.28h4.65a2.8,2.8,0,0,0-.53-1.58,2.17,2.17,0,0,0-1.75-.81,2.29,2.29,0,0,0-1.64.65,2.54,2.54,0,0,0-.73,1.7Z"/><path class="cls-42" d="M334.88,283.43h0a3.75,3.75,0,0,1-3.75-3.75h0a3.75,3.75,0,0,1,3.75-3.75h0a3.75,3.75,0,0,1,3.75,3.75h0A3.75,3.75,0,0,1,334.88,283.43Z"/><path class="cls-42" d="M334.88,293.43s-8.75-7.19-8.75-13.75a8.75,8.75,0,1,1,17.5,0h0C343.63,286.24,334.88,293.43,334.88,293.43Z"/></g></svg>