<?xml version="1.0" encoding="utf-8"?>
<!-- Generator: Adobe Illustrator 20.0.0, SVG Export Plug-In . SVG Version: 6.00 Build 0)  -->
<svg version="1.1" id="Layer_1" xmlns="http://www.w3.org/2000/svg" xmlns:xlink="http://www.w3.org/1999/xlink" x="0px" y="0px"
	 viewBox="0 0 768 683.9" style="enable-background:new 0 0 768 683.9;" xml:space="preserve">
<style type="text/css">
	.st0{fill:none;stroke:#5E5F5F;stroke-width:29;stroke-miterlimit:10;}
	.st1{fill:#5E5F5F;stroke:#5E6060;stroke-width:5;stroke-miterlimit:10;}
	.st2{fill:none;stroke:#5E5F5F;stroke-width:10;stroke-miterlimit:10;}
	.st3{fill:#5E5F5F;}
</style>
<title>Aid Kits</title>
<g id="aid-kit">
	<path class="st0" d="M174.6,252.7L174.6,252.7c0-21.8,16.4-39.6,36.4-39.6h43.3c20,0,36.4,17.8,36.4,39.6l0,0"/>
	<path class="st0" d="M109.5,266H356c0,0,0.1,0,0.1,0.1v190.1c0,0,0,0.1-0.1,0.1H109.5c0,0-0.1,0-0.1-0.1L109.5,266
		C109.4,266,109.4,266,109.5,266z"/>
	<rect x="218.8" y="314.8" class="st1" width="27.9" height="92.7"/>
	<rect x="186.4" y="347.1" class="st1" width="92.7" height="27.9"/>
</g>
<g id="aed">
	<path class="st0" d="M485.8,254L485.8,254c0-21.4,16.6-38.8,36.8-38.8h43.8c20.3,0,36.8,17.5,36.8,38.8l0,0"/>
	<path class="st0" d="M419.9,267.1h249.3c0,0,0.1,0,0.1,0.1v186.5c0,0,0,0.1-0.1,0.1H419.9c0,0-0.1,0-0.1-0.1L419.9,267.1
		C419.8,267.1,419.9,267.1,419.9,267.1z"/>
	<path class="st2" d="M480.1,365.3c0.3,1.9,0.4,4.3,1,6.6c1.6,7,5.3,13.1,9.6,18.8c6.9,9.2,15.3,17.1,24.2,24.5
		c5.9,4.9,12.2,9.4,18.9,13.3c2.4,1.4,4.5,1.7,6.7,0c0.4-0.3,0.8-0.5,1.3-0.7c7.4-4.1,13.9-9.3,20.2-14.7
		c9.8-8.2,18.4-17.7,25.6-28.2c5.2-7.6,7.3-15.9,6-24.9c-1.3-9.6-6.2-18.4-13.7-24.6c-4-3.4-8.9-5.5-14.1-6
		c-10.5-0.8-19.2,3.1-26.6,10.1c-2.3,2.2-1.8,2-3.8,0.1c-3.6-3.6-7.9-6.4-12.6-8.2c-10.2-3.8-19.9-3-28.3,4
		C485.1,342.8,480.7,353,480.1,365.3z M605.4,292.9c0,0.4,0,0.8,0,1.2c0,3.2,0,6.4,0,9.5c0,1.5-0.2,1.7-1.8,1.7h-10.1h-1.2v10.4h13
		v11.9H617v-12h12.9v-10.5H617v-12.3L605.4,292.9z"/>
	<path class="st3" d="M480.1,365.3c0.7-12.3,5-22.5,14.3-30.2c8.4-7,18.1-7.8,28.3-4c4.7,1.9,9,4.7,12.6,8.2
		c2.1,1.9,1.5,2.1,3.8-0.1c7.4-6.9,16.1-10.9,26.6-10.1c5.2,0.5,10.2,2.6,14.1,6c7.5,6.1,12.5,14.9,13.7,24.6c1.3,9-0.8,17.2-6,24.9
		c-7.2,10.6-15.8,20.1-25.5,28.3c-6.4,5.4-12.9,10.6-20.2,14.7c-0.4,0.2-0.9,0.4-1.3,0.7c-2.2,1.7-4.4,1.4-6.7,0
		c-6.7-3.9-13-8.3-18.9-13.3c-8.9-7.4-17.2-15.3-24.2-24.5c-4.3-5.7-8-11.8-9.6-18.8C480.5,369.6,480.3,367.2,480.1,365.3z
		 M528.6,409.3l0.3,0.1l30.9-37.4l-0.2-0.5h-17.1l11.8-28.1l-0.4-0.2l-30.5,35.6l0.2,0.6h18.2L528.6,409.3z"/>
</g>
<rect x="605.4" y="292.9" class="st3" width="11.7" height="34.8"/>
<rect x="592.3" y="305.3" class="st3" width="37.6" height="7.7"/>
</svg>
