<svg id="Layer_1" data-name="Layer 1" xmlns="http://www.w3.org/2000/svg" viewBox="0 0 53.918 53.918"><defs><style>.cls-1{fill:#e86487}.cls-2{fill:#e96285}.cls-3{fill:#fbbf56}.cls-4{fill:#fff}.cls-5{fill:#f5cbd6}</style></defs><title>Book a meeting room</title><g id="Artboard_1" data-name="Artboard 1"><g id="committee_composition-prime1" data-name="committee composition-prime1"><path id="Path_18854" data-name="Path 18854" class="cls-1" d="M53.918 26.959A26.959 26.959 0 1 1 26.959 0a26.959 26.959 0 0 1 26.959 26.959z"/><path id="Path_18855" data-name="Path 18855" class="cls-2" d="M13.645 21.314h4.3v2.612h-4.3z"/><path id="Path_18856" data-name="Path 18856" class="cls-3" d="M10.865 35.046V27.38a5.139 5.139 0 0 1 10.278-.018v7.684zm33.783 0V27.38a5.139 5.139 0 0 0-10.278 0v7.666zm-11.879-2.275v-7.666a5.139 5.139 0 0 0-10.278-.018v7.684z"/><path id="Path_18857" data-name="Path 18857" class="cls-4" d="M18.871 19.124a3.119 3.119 0 1 1-1.559-2.7 3.118 3.118 0 0 1 1.559 2.7zm11.794-2.275a3.118 3.118 0 1 1-3.118-3.118 3.118 3.118 0 0 1 3.118 3.118zm12.047 2.275a3.118 3.118 0 1 1-3.118-3.118 3.119 3.119 0 0 1 3.118 3.118z"/><path id="Path_18858" data-name="Path 18858" class="cls-3" d="M44.735 33.446c-2.443-1.685-9.267-2.946-17.186-2.946-8 0-14.743 1.264-17.186 2.949h-1.1v1.432c0 2.443 8.172 4.381 18.2 4.381s18.2-1.938 18.2-4.381v-1.435z"/><path id="Path_18859" data-name="Path 18859" class="cls-4" d="M45.748 33.446c0 2.42-8.147 4.381-18.2 4.381s-18.2-1.961-18.2-4.381 8.147-4.381 18.2-4.381 18.2 1.961 18.2 4.381z"/><path id="Path_18860" data-name="Path 18860" class="cls-5" d="M28.475 15s-1.011 1.264-3.96 1.264a3.064 3.064 0 0 1 3.033-2.527s2.275-.253 3.117 2.527A2.544 2.544 0 0 1 28.475 15zm8.34 2.7l3.117.758-.59-.758 2.106.758-.421-.758 1.6 1.1a3.058 3.058 0 0 0-3.033-2.78 3.364 3.364 0 0 0-2.778 1.675zm-21.061-1.946a3.11 3.11 0 0 0-3.12 3.1v5.151h1.179v-5.471H17.6v5.392h1.179v-5.139a2.968 2.968 0 0 0-2.9-3.033z"/><path id="Path_18861" data-name="Path 18861" class="cls-1" d="M28.307 22.409h-1.261l-.168-1.1h1.6zm0 .421h-1.261l-.337 4.3 1.011.758.927-.758zm-11.879 2.275a.59.59 0 1 1-.613-.567h.023a.591.591 0 0 1 .591.567zm0 2.7a.59.59 0 1 1-.613-.567h.023a.591.591 0 0 1 .591.563zm22.831-4.3h.927v5.642h-.927z"/></g></g></svg>