<svg id="Layer_1" data-name="Layer 1" xmlns="http://www.w3.org/2000/svg" viewBox="0 0 768 683.88"><title>Phone Booth</title><g id="phone"><path d="M215.55,302.32c0-93.06,67.65-134.7,134.7-134.7a7.92,7.92,0,1,0,0-15.85c-74.94,0-150.55,46.54-150.55,150.55a7.92,7.92,0,0,0,15.85,0Z" style="fill:#5e5e5e;stroke:#5e5e5e;stroke-miterlimit:10;stroke-width:4px"/><path d="M294.79,302.32c0-45.85,30.16-55.47,55.47-55.47a7.92,7.92,0,1,0,0-15.85c-45.32,0-71.31,26-71.31,71.31a7.92,7.92,0,0,0,15.85,0Z" style="fill:#5e5e5e;stroke:#5e5e5e;stroke-miterlimit:10;stroke-width:4px"/><path d="M453.27,179.5c0,24.15-7.77,56.23-14.37,76.26-3.38,9.78-.78,21,5.78,27.38l31,43.6C449.1,377,417.26,409,367.52,435.3l-39-37.59a27.94,27.94,0,0,0-28.3-6.88c-29.16,9.62-53.64,14.5-72.79,14.5a27.76,27.76,0,0,0-27.73,27.73v71.31a27.76,27.76,0,0,0,27.73,27.73C418.58,532.11,580,370.64,580,179.5a27.76,27.76,0,0,0-27.73-27.73H481A27.76,27.76,0,0,0,453.27,179.5Zm99-11.89A11.9,11.9,0,0,1,564.2,179.5c0,182.55-154.21,336.76-336.76,336.76a11.9,11.9,0,0,1-11.89-11.89v-71.3a11.9,11.9,0,0,1,11.89-11.89c20.82,0,47-5.15,77.65-15.28A12,12,0,0,1,317.42,409l43.18,41.65a7.92,7.92,0,0,0,9.1,1.35C427,422.87,462.44,387.44,492,329.71a7.9,7.9,0,0,0-.6-8.21L456.74,273a11.86,11.86,0,0,1-2.84-12.12c7.35-22.25,15.21-55.31,15.21-81.33A11.9,11.9,0,0,1,481,167.62Z" style="fill:#5e5e5e;stroke:#5e5e5e;stroke-miterlimit:10;stroke-width:15px"/></g></svg>