<svg id="Layer_1" data-name="Layer 1" xmlns="http://www.w3.org/2000/svg" viewBox="0 0 768 683.88"><title>chair</title><g id="chair"><path d="M235.65,398.54v-22a78.77,78.77,0,0,1,79.1-79.1h145a78.77,78.77,0,0,1,79.1,79.1v22a78.77,78.77,0,0,1-79.1,79.1h-145A78.77,78.77,0,0,1,235.65,398.54Z" style="fill:#fff;stroke:#5e6060;stroke-miterlimit:10;stroke-width:29px"/><path d="M275.2,222.77h0c0-30.76,26.36-61.52,61.52-61.52H451c30.76,0,61.52,26.37,61.52,61.52h0c0,30.76-26.36,61.52-61.52,61.52H336.72C301.56,284.29,275.2,253.53,275.2,222.77Z" style="fill:#fff;stroke:#5e6060;stroke-miterlimit:10;stroke-width:29px"/><line x1="288.38" y1="477.63" x2="288.38" y2="534.76" style="fill:#fff;stroke:#5e6060;stroke-miterlimit:10;stroke-width:29px"/><line x1="486.12" y1="477.63" x2="486.12" y2="534.76" style="fill:#fff;stroke:#5e6060;stroke-miterlimit:10;stroke-width:29px"/></g></svg>