<?xml version="1.0" encoding="utf-8"?>
<!-- Generator: Adobe Illustrator 20.0.0, SVG Export Plug-In . SVG Version: 6.00 Build 0)  -->
<svg version="1.1" id="Layer_1" xmlns="http://www.w3.org/2000/svg" xmlns:xlink="http://www.w3.org/1999/xlink" x="0px" y="0px"
	 viewBox="0 0 768 683.9" style="enable-background:new 0 0 768 683.9;" xml:space="preserve">
<style type="text/css">
	.st0{fill:none;stroke:#5D5E5E;stroke-width:20;stroke-miterlimit:10;}
	.st1{fill:#FFFFFF;stroke:#5E6060;stroke-width:29;stroke-miterlimit:10;}
	.st2{fill:none;stroke:#5E6060;stroke-width:29;stroke-miterlimit:10;}
</style>
<g id="A10.01-5">
	<path class="st1" d="M314.4,183.8l203.1,0.6c15.3,0,27.7,12.5,27.7,27.8l-0.2,72.9c0,15.3-12.5,27.7-27.8,27.7L314,312.2
		c-15.3,0-27.7-12.5-27.7-27.8l0.2-72.9C286.6,196.1,299.1,183.7,314.4,183.8z"/>
	<path class="st1" d="M339.7,288.5l149.5,0.4c36.6,0.1,66.2,29.9,66.1,66.5L555,469.2c-0.1,36.6-29.9,66.2-66.5,66.1L339,534.9
		c-36.6-0.1-66.2-29.9-66.1-66.5l0.3-113.8C273.3,318,303.1,288.4,339.7,288.5z"/>
	<path class="st1" d="M274.7,487.9c-6.7,1.5-13.6,1.3-20.2-0.5c-5.9-1.4-15-23.9-21.1-49.1L215.6,360c-5.3-19.3,6-39.2,25.2-44.6
		c3.7-1,7.6-1.5,11.4-1.3l26.1,0c19.4-2.1,36.7,12,38.8,31.3c0.5,4.9,0,9.8-1.5,14.4l-19.3,80C293.8,457.7,286.3,474.3,274.7,487.9z
		"/>
	<path class="st2" d="M274.7,487.9c-6.7,1.5-13.6,1.3-20.2-0.5c-5.9-1.4-15-23.9-21.1-49.1L215.6,360c-5.3-19.3,6-39.2,25.2-44.6
		c3.7-1,7.6-1.5,11.4-1.3l26.1,0c19.4-2.1,36.7,12,38.8,31.3c0.5,4.9,0,9.8-1.5,14.4l-19.3,80C293.8,457.7,286.3,474.3,274.7,487.9z
		"/>
	<path class="st1" d="M564.3,498.7c-6.7,1.5-13.6,1.3-20.2-0.5c-5.9-1.4-15-23.9-21.1-49.1l-17.9-78.3c-5.3-19.3,6-39.2,25.2-44.6
		c3.7-1,7.6-1.5,11.4-1.3l26.1,0c19.4-2.1,36.7,12,38.8,31.3c0.5,4.9,0,9.8-1.5,14.4l-19.4,80.5
		C583.2,468.7,575.7,485.2,564.3,498.7z"/>
	<path class="st2" d="M564.3,498.7c-6.7,1.5-13.6,1.3-20.2-0.5c-5.9-1.4-15-23.9-21.1-49.1l-17.9-78.3c-5.3-19.3,6-39.2,25.2-44.6
		c3.7-1,7.6-1.5,11.4-1.3l26.1,0c19.4-2.1,36.7,12,38.8,31.3c0.5,4.9,0,9.8-1.5,14.4l-19.4,80.5
		C583.2,468.7,575.7,485.2,564.3,498.7z"/>
</g>
</svg>
