<svg xmlns="http://www.w3.org/2000/svg" width="142" height="142" viewBox="0 0 142 142">
  <g id="Group_5658" data-name="Group 5658" transform="translate(-328 -289)">
    <path id="Path_19998" data-name="Path 19998" d="M71,0A71,71,0,1,1,0,71,71,71,0,0,1,71,0Z" transform="translate(328 289)" fill="#21a453"/>
    <g id="sent_icon" data-name="sent icon" transform="translate(368.576 335.978)">
      <path id="Path_19997" data-name="Path 19997" d="M25.474,41.816l-7.351,4.9A1.431,1.431,0,0,1,16,45.573V34.792L46.057,12.248,10.118,31.361.807,24.99A1.948,1.948,0,0,1,1.3,21.56L61.74-.33c.817-.327,1.47.653.98,1.47L35.439,46.227a2.012,2.012,0,0,1-2.777.49Z" fill="#fff" fill-rule="evenodd"/>
    </g>
  </g>
</svg>
