<svg id="Layer_1" data-name="Layer 1" xmlns="http://www.w3.org/2000/svg" viewBox="0 0 768 683.88"><title>fireExt</title><path id="fire-extinguisher-rm-21" d="M467.83,273.57V546.93c0,7.19,7.19,7.19,7.19,7.19,7.19,0,7.19-7.19,7.19-7.19V273.57c0-7.19-13.45-6.58-14.38,0ZM158.5,201.63h0l194.23-21.58c7.19,0,7.19-7.19,7.19-7.19h0a7.19,7.19,0,0,1,7.19-7.19h14.39a7.19,7.19,0,0,1,7.19,7.19v2.07a7.25,7.25,0,0,1-4.57,6.77c-40.61,15.83-67.37,57.7-67.37,106.26V575.71c0,21.58,57.55,36,107.91,36s107.91-14.39,107.91-36V288c0-48.86-27.09-84.17-68.12-105.94a7.18,7.18,0,0,1-3.82-6.34V151.74a7.19,7.19,0,0,1,8-7.15c22.5,2.57,74.12,16.8,99.35,84.34a7.21,7.21,0,0,0,1.65,2.58l4,4a7.19,7.19,0,0,0,5.09,2.11h4.21c6.74,0,7.16-6.31,7.19-13a7.3,7.3,0,0,0-.47-2.63c-18.28-47.84-46.58-70.48-72.15-80.65a7.19,7.19,0,0,1-1.87-12.2c9.52-8.08,17-19.87,17-35.38,0-21.58-21.58-43.16-43.16-43.16s-43.16,21.58-43.16,43.16h0a7.19,7.19,0,0,1-7.19,7.19h-36c-7.19,0-7.19,7.19-7.19,7.19v7.2a7.19,7.19,0,0,1-7.19,7.19H374.31a7.19,7.19,0,0,1-7.19-7.19h0c0-7.06,0-7.19-6.81-7.19a7.35,7.35,0,0,1-.76,0L158.5,92.23ZM460.63,86.54c0-14.39,14.39-28.78,28.78-28.78s28.78,14.39,28.78,28.78-14.39,28.78-28.78,28.78C467.83,115.31,460.63,100.92,460.63,86.54Zm-36,100.71c50.36,0,93.52,43.16,93.52,93.52V568.51c0,7.19-36,21.58-93.52,21.58-50.36,0-86.33-14.39-93.52-21.58V280.76C331.15,230.41,374.31,187.25,424.67,187.25Zm-54.75-43.16h26c7.19,0,7.19-7.19,7.19-7.19V122.5h36v57.55H410.27V165.66c0-7.19-7.34-8.64-7.34-8.64l-30-12.94Zm-197-36L345.54,122.5v43.16L172.89,187.25Zm-66.41-47.5" style="fill:#5e5e5e;stroke:#5e5e5e;stroke-miterlimit:10;stroke-width:15px"/></svg>