<svg id="Layer_1" data-name="Layer 1" xmlns="http://www.w3.org/2000/svg" viewBox="0 0 768 683.88"><title>Game</title><path d="M366.25,225.26l29-18.52a37.15,37.15,0,0,0-68.49,26.41c3.52,17.28,19.68,30.2,37.24,29.59,13.71-.47,27-9.32,32.45-21Zm2.25-13.93a5.19,5.19,0,0,1-5.58-5.09,5.44,5.44,0,1,1,10.86-.38A5.24,5.24,0,0,1,368.5,211.33Zm29,5.77a7.16,7.16,0,0,0-6.64,7.31,7,7,0,0,0,7.13,6.65,7.16,7.16,0,0,0,6.84-7.13A7.33,7.33,0,0,0,397.53,217.1Z" style="fill:none;stroke:#5e6060;stroke-miterlimit:10;stroke-width:7px"/><path d="M448,180.79A28.66,28.66,0,0,0,418.92,156l-113.69,2.25a29,29,0,0,0-28.06,25.42l-8.59,73.7a29.39,29.39,0,0,0,7.32,22.6,28.17,28.17,0,0,0,21.88,9.62l132.72-2.62c7.93-.16,15.79-4,21.49-9.95a28.81,28.81,0,0,0,6.44-22.34Zm-3.51,90a19.21,19.21,0,0,1-14.68,6.64L297.59,280a19.68,19.68,0,0,1-14.94-6.58,20.56,20.56,0,0,1-5.06-15.24l8.59-73.7a19.91,19.91,0,0,1,19.23-17.31L419.62,165a19.91,19.91,0,0,1,19.9,16.53l9.92,73.86A20.27,20.27,0,0,1,444.46,270.79Z" style="fill:#5e6060;stroke:#5e6060;stroke-miterlimit:10;stroke-width:3px"/><path d="M498.94,136.94a49.43,49.43,0,0,0-50.15-48.2l-177.14,3.5c-27.51,0-48.75,22.65-48.2,50.15l3.27,165.51c0,1.59-.46,3.71.1,5.29-.38,7.41,1.35,14.78,3.61,22.15a46.59,46.59,0,0,0-2.83,17.51L230.9,519.4a49.43,49.43,0,0,0,50.15,48.2l177.14-3.5A49.43,49.43,0,0,0,506.39,514L503.1,347.39A46.59,46.59,0,0,0,499.59,330a50.38,50.38,0,0,0,2.74-21.74l-.08-4.23h0ZM271.83,101.23,449,97.72a40.18,40.18,0,0,1,41,39.39L492,242.34l-15-91.22c-2.4-14.24-15.31-25.09-29.58-24.81l-172.91,3.42a29.59,29.59,0,0,0-28.58,26l-11.44,90.15-2-103.64A40.18,40.18,0,0,1,271.83,101.23Zm-36.1,207.54h0L255,157.1a20.44,20.44,0,0,1,19.75-17.85l172.38-3.41c10-.2,19.18,7,20.44,17.05l25.2,150.79.08,4.23c.05,2.64-1,5.31-2,8-9.2-10.4-23.09-17.53-37.9-17.24l-34.37.68a4.76,4.76,0,0,0,.19,9.52l34.37-.68a40.6,40.6,0,0,1,32,15.24,21.19,21.19,0,0,1-12.08,4.47l-216.8,4.28a25.15,25.15,0,0,1-12.23-3.46,40.6,40.6,0,0,1,31.41-16.49l96.77-1.91a4.76,4.76,0,0,0-.19-9.52l-96.24,1.9a48.73,48.73,0,0,0-37.72,18.73,14.92,14.92,0,0,1-2.27-7.89Zm20.73,31.86,216.8-4.28A28,28,0,0,0,489,331.27,54.12,54.12,0,0,1,481.86,343a49.58,49.58,0,0,1-37.2,18.19L286,364.38a49.58,49.58,0,0,1-37.89-16.71,54.12,54.12,0,0,1-7.63-11.49A28,28,0,0,0,256.46,340.63Zm237.65,6.94,3.29,166.56a40.18,40.18,0,0,1-39.39,41l-177.14,3.5a40.18,40.18,0,0,1-41-39.39L236.6,352.66a14.64,14.64,0,0,1,.43-4.77l4.88,6.25a58.08,58.08,0,0,0,44.82,19.74l158.1-3.12a58.08,58.08,0,0,0,44-21.5,77.37,77.37,0,0,0,4.62-7C493.51,343.88,494.07,345.45,494.11,347.57Z" style="fill:#5e6060;stroke:#5e6060;stroke-miterlimit:10;stroke-width:8px"/><ellipse cx="321.57" cy="321.9" rx="8.46" ry="4.23" transform="translate(-6.3 6.42) rotate(-1.13)" style="fill:#5e6060"/><ellipse cx="344.26" cy="320.93" rx="8.46" ry="4.23" transform="translate(-6.27 6.86) rotate(-1.13)" style="fill:#5e6060"/><ellipse cx="364.27" cy="320.93" rx="8.46" ry="4.23" transform="translate(-6.27 7.26) rotate(-1.13)" style="fill:#5e6060"/><path d="M398.77,314.54l-.07-3.7a9.68,9.68,0,0,0,6.7-9.12,9.52,9.52,0,1,0-19,.38,9.07,9.07,0,0,0,7.05,8.85l.07,3.7c-4.75.62-7.88,2.8-7.83,5.44.06,3.17,4.86,5.19,11.21,5.07s11.05-2.86,11-5.51C406.76,317,403.54,315,398.77,314.54Z" style="fill:#5e6060"/><path d="M456,398l-40.72.8a4.76,4.76,0,1,0,.19,9.52l40.72-.8a4.74,4.74,0,0,0,4.66-4.85C460.24,400.08,458.61,398,456,398Z" style="fill:#5e6060;stroke:#5e6060;stroke-miterlimit:10;stroke-width:3px"/></svg>