<svg xmlns="http://www.w3.org/2000/svg" width="16.18" height="10.296" viewBox="0 0 16.18 10.296">
  <path id="guests" d="M12.532,11.913a2.206,2.206,0,1,0-2.206-2.206A2.2,2.2,0,0,0,12.532,11.913Zm-5.884,0A2.206,2.206,0,1,0,4.442,9.706,2.2,2.2,0,0,0,6.648,11.913Zm0,1.471c-1.714,0-5.148.86-5.148,2.574V17.8H11.8V15.958C11.8,14.244,8.362,13.384,6.648,13.384Zm5.884,0c-.213,0-.456.015-.713.037a3.1,3.1,0,0,1,1.449,2.537V17.8H17.68V15.958C17.68,14.244,14.245,13.384,12.532,13.384Z" transform="translate(-1.5 -7.5)" fill="#e0e0e0"/>
</svg>
