<svg width="209" height="176" viewBox="0 0 209 176" fill="none" xmlns="http://www.w3.org/2000/svg">
<path opacity="0.5" d="M29.6973 30.8543C46.4444 9.04654 78.6105 0.846551 106.202 14.631C121.29 22.1595 131.655 36.1913 147.037 43.4017C164.374 51.4603 183.999 58.2818 196.245 73.3034C209.267 89.2792 211.997 111.9 203.918 130.527C194.032 153.183 168.026 156.682 145.156 164.493C51.5349 196.445 -40.7952 161.453 18.963 56.656C23.9059 47.9258 24.201 38.1 29.6973 30.8543Z" fill="#CCE7F9"/>
<path fill-rule="evenodd" clip-rule="evenodd" d="M61.8343 108.818C62.6195 110.785 64.7757 112.005 67.0959 111.797L114.276 108.86C119.491 108.392 124.21 103.958 122.281 98.0675C121.456 93.4032 116.386 90.4512 111.295 91.6712L65.4651 102.648C62.4917 103.36 60.802 106.232 61.8343 108.818Z" fill="#FFC999"/>
<path fill-rule="evenodd" clip-rule="evenodd" d="M103.947 97.241C103.947 97.241 102.615 83.1652 103.365 70.159C104.049 58.2993 106.605 47.9908 114.887 48.0813C125.288 48.1942 123.464 64.7507 123.252 73.1729C123.1 79.2339 121.484 91.8491 120.086 98.3807C117.855 108.799 103.294 106.419 103.947 97.241Z" fill="#FFC999"/>
<path fill-rule="evenodd" clip-rule="evenodd" d="M123.166 76.5697C123.379 68.1476 125.679 48.2786 112.769 48.0141C103.662 47.8277 102.953 61.0257 102.835 76.8512L123.166 76.5697Z" fill="#5A629E"/>
<path fill-rule="evenodd" clip-rule="evenodd" d="M85.5705 153.169C113.916 154.388 136.688 150.638 136.688 150.638C136.688 150.638 158.26 140.236 142.591 129.719C135.004 124.626 117.15 127.541 85.8517 132.377C85.8517 132.377 71.2026 133.893 72.3691 144.963C73.3461 154.227 85.5705 153.169 85.5705 153.169Z" fill="#FFC999"/>
<path fill-rule="evenodd" clip-rule="evenodd" d="M101.23 153.105C100.997 142.743 96.094 130.065 96.094 130.065C105.23 128.865 119.637 126.333 151.998 125.152C164.127 139.625 143.998 152.293 143.998 152.293L101.23 153.105Z" fill="#597EF7"/>
<path d="M95.9897 130.021C96.1251 129.966 96.2814 130.027 96.3387 130.157C97.0681 131.808 97.719 133.591 98.2958 135.486C99.4469 139.27 100.256 143.32 100.782 147.371C100.948 148.646 101.075 149.84 101.167 150.927L101.197 151.286C101.219 151.562 101.238 151.817 101.253 152.051L101.283 152.528L143.995 152.039C144.127 152.037 144.238 152.128 144.26 152.249L144.264 152.291C144.266 152.417 144.171 152.524 144.044 152.545L144.001 152.549L101.033 153.041C100.889 153.043 100.77 152.934 100.764 152.796L100.743 152.414L100.71 151.906C100.697 151.724 100.682 151.53 100.666 151.325C100.572 150.151 100.437 148.843 100.254 147.434C99.7306 143.408 98.9269 139.383 97.7845 135.629C97.2133 133.752 96.5692 131.987 95.8483 130.355C95.791 130.226 95.8543 130.076 95.9897 130.021Z" fill="#253368"/>
<path d="M77.3686 136.009C66.557 141.43 77.9373 155.357 77.9373 155.357L88.8987 175.787L99.6742 174.839L110.615 173.259L103.67 159.105C100.706 152.781 91.7819 128.783 77.3686 136.009Z" fill="#F4B784"/>
<path fill-rule="evenodd" clip-rule="evenodd" d="M123.536 45.8565C123.536 45.8565 126.502 54.6853 136.952 53.8591C149.08 52.8989 149.993 43.4479 149.993 43.4479L147.009 42.7855C146.39 42.6482 145.922 42.1715 145.822 41.571C145.467 39.4289 144.598 33.9656 143.729 26.7369C133.028 24.2834 126.11 27.8461 126.11 27.8461C126.11 27.8461 127.036 36.4355 127.602 42.776C127.657 43.3914 127.313 43.9749 126.734 44.2449C125.735 44.7114 124.22 45.4363 123.536 45.8565Z" fill="#FFC999"/>
<path fill-rule="evenodd" clip-rule="evenodd" d="M145.806 19.3755C145.806 19.3755 145.126 5.35809 134.093 5.91367C120.766 6.58486 120.802 13.8353 120.293 17.2681C119.752 20.9157 120.248 36.0034 128.553 38.4475C132.058 39.2526 134.221 39.6844 139.708 35.9286C147.691 30.464 145.806 19.3755 145.806 19.3755Z" fill="#FFC999"/>
<path fill-rule="evenodd" clip-rule="evenodd" d="M143.648 30.0181L142.998 22.1903C142.998 22.1903 148.942 17.8633 150.087 21.7714C151.255 25.7557 148.636 28.8457 146.065 30.0657C144.411 30.8497 143.648 30.0181 143.648 30.0181Z" fill="#FFC999"/>
<path fill-rule="evenodd" clip-rule="evenodd" d="M139.404 3.00965C139.404 3.00965 132.094 -0.752923 128.976 0.135871C125.857 1.02466 128.63 3.12186 128.63 3.12186C128.63 3.12186 119.663 2.60504 119.076 4.58867C118.487 6.57231 121.765 7.14353 121.765 7.14353C121.765 7.14353 113.405 10.3519 113.276 12.8673C113.149 15.3827 117.129 14.4082 117.129 14.4082C117.129 14.4082 114.466 18.2674 115.689 20.2626C116.91 22.2585 118.871 21.8062 118.871 21.8062L120.574 24.459L120.389 18.5102C120.389 18.5102 123.335 16.9005 128.745 13.6657C125.671 17.4371 127.813 17.2215 130.646 16.3633C133.967 15.3576 137.808 13.8187 137.597 13.7452C137.597 13.7452 138.12 17.5738 140.988 19.0535C144.504 20.8671 142.657 25.5287 143.539 25.6334C145.238 25.849 144.537 21.5553 147.635 20.4761C150.099 20.0382 150.18 17.078 149.377 16.1634C152.609 15.3916 152.124 12.1676 147.579 9.79768C151.205 8.95513 148.567 5.94534 142.954 5.15787C144.012 -0.818879 139.404 3.00965 139.404 3.00965Z" fill="#253368"/>
<path d="M132.657 18.8378C134.414 18.4986 136.268 18.4578 137.966 18.5904L138.235 18.6133L138.606 18.6521C138.629 18.6549 138.647 18.6573 138.661 18.6591C138.953 18.698 139.156 18.9557 139.115 19.2347C139.077 19.4951 138.84 19.682 138.572 19.6741L138.353 19.6506C138.216 19.6359 138.058 19.621 137.88 19.6071C136.272 19.4816 134.512 19.5203 132.868 19.8377C132.505 19.9077 132.155 19.9905 131.821 20.0867C131.539 20.1676 131.242 20.0144 131.158 19.7446C131.073 19.4748 131.233 19.1905 131.515 19.1096C131.882 19.0042 132.263 18.9139 132.657 18.8378Z" fill="#253368"/>
<path d="M121.75 20.2431C123.488 19.333 125.277 19.1999 126.875 19.5174L127.074 19.5599C127.259 19.6021 127.4 19.6427 127.491 19.6743C127.768 19.7698 127.911 20.0621 127.812 20.3271C127.712 20.5921 127.407 20.7294 127.13 20.6339L127.057 20.6108C126.968 20.5849 126.833 20.5509 126.658 20.5162C125.288 20.2439 123.75 20.3584 122.261 21.1381C122.003 21.2732 121.68 21.1824 121.539 20.9353C121.397 20.6881 121.492 20.3782 121.75 20.2431Z" fill="#253368"/>
<path d="M127.525 20.4105C127.645 20.3615 127.783 20.405 127.85 20.5076L127.87 20.544L128.58 22.1421L128.6 22.231L128.834 27.9854L131.064 28.2355C131.194 28.2501 131.29 28.353 131.296 28.4744L131.295 28.5154C131.279 28.64 131.172 28.7327 131.045 28.7382L131.002 28.7367L128.549 28.462C128.434 28.4491 128.343 28.367 128.321 28.2617L128.316 28.2212L128.076 22.2968L127.386 20.7414C127.334 20.626 127.38 20.4945 127.487 20.4296L127.525 20.4105Z" fill="#DD936F"/>
<path d="M133.636 23.2838C134.875 22.2709 136.159 22.1889 137.295 22.6658C137.54 22.7687 137.72 22.8736 137.825 22.9496C137.982 23.0628 138.013 23.2761 137.895 23.4259C137.776 23.5757 137.554 23.6053 137.397 23.4921C137.334 23.4462 137.201 23.3685 137.01 23.2887C136.106 22.9091 135.11 22.9727 134.097 23.8012C133.947 23.923 133.723 23.906 133.596 23.7632C133.469 23.6203 133.487 23.4057 133.636 23.2838Z" fill="#253368"/>
<path d="M124.44 23.395C125.009 23.2887 125.602 23.3709 126.176 23.5695C126.414 23.6517 126.596 23.7349 126.705 23.7939C126.875 23.8866 126.935 24.0941 126.838 24.2574C126.741 24.4207 126.525 24.4779 126.354 24.3852L126.272 24.3442C126.191 24.3057 126.076 24.2577 125.935 24.2092C125.471 24.0486 125 23.9833 124.576 24.0624C124.206 24.1316 123.887 24.3091 123.624 24.6206C123.5 24.7665 123.277 24.7888 123.124 24.6705C122.972 24.5522 122.949 24.338 123.072 24.1922C123.443 23.7542 123.91 23.4941 124.44 23.395Z" fill="#253368"/>
<path fill-rule="evenodd" clip-rule="evenodd" d="M134.901 29.3979C134.901 29.3979 131.242 30.5961 127.607 30.4458C127.607 30.4458 128.799 32.4233 131.318 32.1499C134.5 31.8058 134.901 29.3979 134.901 29.3979Z" fill="white"/>
<path d="M134.804 29.1257L134.664 29.1693C134.547 29.2049 134.411 29.2446 134.258 29.2874C133.817 29.4101 133.324 29.533 132.789 29.6476C131.173 29.9944 129.546 30.1926 128.018 30.1695L127.62 30.1584C127.384 30.1486 127.229 30.393 127.347 30.5896C127.494 30.8325 127.778 31.1823 128.21 31.5307C129.052 32.2112 130.102 32.5714 131.352 32.4357C132.729 32.2869 133.734 31.7614 134.412 30.9778C134.904 30.4091 135.132 29.8389 135.198 29.4432C135.233 29.229 135.018 29.0555 134.804 29.1257ZM134.195 29.9028L134.442 29.8346L134.487 29.7314C134.367 30.0308 134.192 30.3308 133.949 30.6107C133.37 31.2804 132.506 31.732 131.285 31.8641C130.21 31.9807 129.32 31.6753 128.597 31.091L128.47 30.9842C128.416 30.9361 128.364 30.8873 128.314 30.8381L128.224 30.7458L128.347 30.7465C129.827 30.739 131.379 30.5397 132.92 30.209C133.376 30.1112 133.804 30.0075 134.195 29.9028Z" fill="#FF7A46"/>
<path d="M137.727 37.5607C137.854 37.4922 138.015 37.5349 138.086 37.6562C138.158 37.7775 138.113 37.9314 137.987 38C134.33 39.9801 131.092 40.0543 128.451 38.9839C128.088 38.837 127.77 38.6792 127.499 38.5209L127.37 38.4433C127.273 38.3831 127.202 38.3346 127.157 38.3015C127.043 38.2157 127.022 38.0571 127.112 37.9473C127.202 37.8375 127.367 37.8181 127.482 37.9039L127.534 37.9409C127.588 37.9777 127.668 38.0286 127.773 38.09C128.023 38.2358 128.318 38.3822 128.656 38.5192C131.152 39.5308 134.219 39.4606 137.727 37.5607Z" fill="#DD936F"/>
<path d="M132.718 33.48C132.862 33.4614 132.995 33.5583 133.014 33.6964C133.032 33.8207 132.952 33.936 132.83 33.9713L132.788 33.9801L131 34.2106C130.856 34.2292 130.723 34.1323 130.704 33.9942C130.686 33.8699 130.767 33.7546 130.888 33.7193L130.93 33.7105L132.718 33.48Z" fill="#DD936F"/>
<path d="M146.715 22.7031C147.283 22.03 147.926 21.899 148.494 22.1029C148.583 22.1351 148.65 22.1688 148.693 22.1952C148.814 22.2714 148.849 22.4277 148.769 22.5443C148.698 22.648 148.562 22.6855 148.447 22.639L148.371 22.6007C148.355 22.5933 148.334 22.5846 148.309 22.5754C147.943 22.4441 147.542 22.5258 147.124 23.0203C146.978 23.1942 146.836 23.4145 146.703 23.6846L146.606 23.8833C146.502 24.0988 146.431 24.2586 146.387 24.3724L146.359 24.4479L146.381 24.4497C146.569 24.4646 146.696 24.495 146.838 24.578L146.899 24.6169C147.043 24.713 147.167 24.8513 147.27 25.0361C147.902 26.1588 146.797 27.166 145.364 27.3094C145.219 27.3239 145.09 27.2232 145.075 27.0847C145.06 26.9461 145.165 26.822 145.309 26.8075C146.429 26.6955 147.206 25.9865 146.807 25.2754C146.74 25.1573 146.67 25.0792 146.597 25.0303C146.523 24.9805 146.461 24.9625 146.335 24.9524L146.267 24.9479C145.958 24.931 145.777 24.8327 145.806 24.5173C145.823 24.3335 145.939 24.0503 146.227 23.4688C146.377 23.1639 146.54 22.9096 146.715 22.7031Z" fill="#DD936F"/>
<path d="M143.723 29.7763C143.862 29.8161 143.942 29.9565 143.9 30.0901L143.843 30.2681L143.726 30.6082C143.712 30.6486 143.697 30.6898 143.682 30.7317C143.51 31.2113 143.319 31.691 143.114 32.1399C142.706 33.0349 142.296 33.695 141.878 34.0394C141.767 34.1302 141.601 34.1181 141.506 34.0125C141.411 33.9068 141.424 33.7475 141.534 33.6567C141.875 33.3764 142.253 32.7669 142.632 31.9379C142.83 31.5027 143.016 31.0352 143.184 30.5675L143.267 30.3312L143.395 29.9462C143.437 29.8126 143.584 29.7366 143.723 29.7763Z" fill="#DD936F"/>
<path fill-rule="evenodd" clip-rule="evenodd" d="M120.586 105.452C117.562 109.475 120.753 113.205 120.753 113.205C132.445 114.21 161.723 113.98 161.723 113.98C166.548 112.488 163.892 103.157 163.892 103.157C163.892 103.157 166.695 82.2738 168.845 65.8484C169.769 58.7755 170.759 52.8878 168.769 49.7448C165.569 44.6894 157.32 44.4072 148.597 42.8235C148.342 43.3403 146.841 47.1348 138.06 48.3024C129.174 49.485 126.026 45.5245 125.716 44.8424C121.343 45.8944 116.682 46.0352 111.565 47.7258C110.01 48.2399 110.977 50.2113 111.264 51.7631L113.071 58.107C113.071 58.107 114.158 71.2302 120.586 105.452Z" fill="#5A629E"/>
<path d="M113.655 60.1596C113.802 60.1502 113.929 60.2564 113.939 60.3969L113.979 60.9061L114.052 61.7561C114.096 62.2479 114.148 62.7983 114.209 63.4065L114.311 64.401C114.535 66.5485 114.822 68.9994 115.179 71.7441L115.236 72.1799C116.496 81.7815 118.331 92.9008 120.847 105.403C120.857 105.455 120.851 105.508 120.829 105.555C119.1 109.262 119.423 111.361 120.947 112.336C121.224 112.513 121.522 112.637 121.82 112.716L121.944 112.747C122.059 112.773 122.144 112.786 122.182 112.789L127.45 112.822L131.386 112.855C134.921 112.887 138.436 112.928 141.825 112.976L145.667 113.036C152.516 113.152 158.068 113.297 161.882 113.476C162.029 113.483 162.142 113.603 162.135 113.743C162.128 113.884 162.003 113.992 161.856 113.986L160.411 113.923C156.867 113.779 152.134 113.659 146.472 113.56L144.83 113.532C140.536 113.462 135.976 113.407 131.38 113.365L126.15 113.323L122.159 113.298C122.057 113.29 121.89 113.264 121.678 113.208C121.328 113.115 120.978 112.97 120.651 112.76C118.91 111.646 118.53 109.334 120.257 105.533L120.308 105.421L120.177 104.765L119.881 103.276C117.685 92.1533 116.038 82.1598 114.86 73.3933L114.707 72.2435C114.323 69.3174 114.017 66.7164 113.781 64.4515L113.679 63.455C113.601 62.6709 113.537 61.9823 113.485 61.3909L113.408 60.4312C113.398 60.2907 113.509 60.1691 113.655 60.1596Z" fill="#253368"/>
<path fill-rule="evenodd" clip-rule="evenodd" d="M166.318 144.138C166.318 144.138 163.933 154.445 135.033 152.896C127.62 152.498 120.213 147.931 114.946 143.018C114.891 126.932 120.566 117.872 120.566 117.872L164.074 118.014C164.074 118.014 169.516 132.841 166.318 144.138Z" fill="#CFD9EA"/>
<path fill-rule="evenodd" clip-rule="evenodd" d="M120.44 118.002L120.834 112.608L163.618 112.832L164.441 118.032C164.441 118.032 124.835 118.15 120.44 118.002Z" fill="#CFD9EA"/>
<path d="M152.37 117.86C157.1 117.867 161.08 117.886 164.148 117.919C164.295 117.921 164.413 118.036 164.411 118.177C164.409 118.318 164.289 118.431 164.142 118.429L161.964 118.409C158.02 118.378 152.938 118.365 146.961 118.367L143.521 118.37C141.391 118.372 139.207 118.377 136.993 118.382L120.242 118.449C120.095 118.449 119.975 118.336 119.974 118.195C119.973 118.054 120.092 117.939 120.239 117.939L129.144 117.898L136.992 117.872C139.206 117.867 141.39 117.862 143.521 117.86L152.37 117.86Z" fill="#A3B5D6"/>
<path d="M121.24 112.386L128.983 112.402L137.073 112.426C139.744 112.435 142.375 112.445 144.928 112.456L152.123 112.492C156.505 112.517 160.25 112.545 163.222 112.577C163.369 112.579 163.487 112.694 163.486 112.835C163.484 112.976 163.363 113.089 163.216 113.087L157.493 113.037C154.763 113.016 151.674 112.998 148.274 112.981L141.603 112.952C138.991 112.942 136.316 112.933 133.619 112.925L121.239 112.896C121.092 112.896 120.973 112.782 120.973 112.641C120.973 112.5 121.093 112.386 121.24 112.386Z" fill="#253368"/>
<path fill-rule="evenodd" clip-rule="evenodd" d="M139.5 115.247C139.482 115.74 138.93 116.122 138.269 116.1C137.606 116.077 137.084 115.66 137.102 115.166C137.12 114.673 137.672 114.291 138.333 114.313C138.996 114.336 139.518 114.753 139.5 115.247Z" fill="#A3B5D6"/>
<path d="M133.216 112.833L133.259 112.834C133.391 112.846 133.491 112.948 133.499 113.07L133.499 113.112L132.966 118.473C132.961 118.52 132.943 118.565 132.914 118.602L132.755 118.813L132.595 119.035C132.511 119.152 132.423 119.279 132.331 119.415C131.89 120.062 131.45 120.779 131.039 121.543C130.091 123.306 129.446 125.047 129.24 126.666C129.065 128.043 129.218 129.277 129.743 130.338C129.806 130.466 129.749 130.618 129.616 130.678C129.483 130.738 129.324 130.684 129.261 130.557C128.69 129.401 128.525 128.071 128.711 126.604C128.926 124.917 129.591 123.121 130.566 121.309C130.985 120.529 131.435 119.798 131.884 119.137L132.068 118.871C132.127 118.786 132.184 118.706 132.239 118.63L132.392 118.422L132.443 118.355L132.969 113.064C132.98 112.951 133.065 112.863 133.174 112.839L133.216 112.833Z" fill="#A3B5D6"/>
<path fill-rule="evenodd" clip-rule="evenodd" d="M172.623 103.279C172.623 103.279 175.404 88.2527 175.84 74.1952C176.238 61.3767 174.471 50.0631 165.538 49.4328C154.323 48.6412 154.704 66.6122 154.126 75.6913C153.712 82.2249 154.245 95.9383 155.127 103.087C156.535 114.491 172.449 113.21 172.623 103.279Z" fill="#FFC999"/>
<path fill-rule="evenodd" clip-rule="evenodd" d="M154.071 76.5813C154.629 67.777 150.621 45.7251 164.554 46.5725C174.385 47.1709 177.07 59.6289 175.716 76.1481L154.071 76.5813Z" fill="#5A629E"/>
<path fill-rule="evenodd" clip-rule="evenodd" d="M85.469 152.311C115.806 155.123 141.068 151.338 141.068 151.338C141.068 151.338 149.878 140.351 143.663 132.009C138.015 124.427 118.342 127.526 85.5911 129.197C85.5911 129.197 70.5693 129.416 71.5086 142.276C72.1873 151.57 85.469 152.311 85.469 152.311Z" fill="#FFC999"/>
<path fill-rule="evenodd" clip-rule="evenodd" d="M105.762 154.445C106.368 149.387 105.51 144.668 105.162 140.787C104.457 132.94 103.361 128.133 103.361 128.133C112.553 127.422 136.232 126.091 160.221 127.43C175.927 145.829 155.137 153.487 155.137 153.487L105.762 154.445Z" fill="#CFD9EA"/>
<path d="M138.616 126.09C138.763 126.083 138.889 126.19 138.897 126.331C138.904 126.457 138.814 126.567 138.689 126.594L138.646 126.6L103.439 128.497L103.497 128.696C103.878 130.049 104.216 131.467 104.514 132.942L104.624 133.498C105.916 140.185 106.296 147.155 106.168 153.033L106.149 153.791L106.127 154.361C106.12 154.502 105.996 154.61 105.849 154.604C105.702 154.597 105.588 154.478 105.595 154.337L105.612 153.9C105.616 153.78 105.62 153.649 105.624 153.508C105.783 147.562 105.42 140.423 104.1 133.591C103.743 131.743 103.324 129.985 102.839 128.329C102.797 128.185 102.892 128.041 103.039 128.011L103.08 128.005L138.616 126.09Z" fill="#A3B5D6"/>
<path d="M83.858 131.834C73.9353 128.868 70.6644 139.876 70.6644 139.876C68.0617 150.288 64.8231 162.974 61.7942 174.628C68.2265 175.418 79.189 176.313 80.8163 175.892L84.4352 169.486C87.366 162.35 101.036 136.97 83.858 131.834Z" fill="#FFC999"/>
<path d="M108.351 128.533C108.494 128.5 108.638 128.585 108.672 128.722L108.762 129.103L108.874 129.605C108.9 129.725 108.927 129.851 108.955 129.982L108.997 130.182C109.24 131.35 109.483 132.667 109.71 134.108C110.659 140.13 111.038 146.302 110.517 152.068C110.488 152.382 110.457 152.694 110.423 153.003C110.408 153.143 110.277 153.245 110.131 153.231C109.985 153.216 109.879 153.09 109.894 152.95C109.927 152.644 109.958 152.335 109.986 152.024C110.503 146.304 110.127 140.17 109.184 134.184L109.059 133.415C108.891 132.407 108.716 131.465 108.541 130.602L108.475 130.282C108.419 130.012 108.365 129.763 108.315 129.536L108.154 128.84C108.12 128.703 108.208 128.565 108.351 128.533Z" fill="#A3B5D6"/>
<path d="M153.53 60.7316C153.674 60.7282 153.796 60.8258 153.822 60.9569L153.827 61.0017L154.22 76.0491L174.728 76.0491C174.871 76.0491 174.991 76.1496 175.013 76.2813L175.017 76.3263C175.017 76.464 174.912 76.5783 174.774 76.5997L174.728 76.6034H153.938C153.797 76.6034 153.679 76.5063 153.653 76.3773L153.649 76.3332L153.248 61.0156C153.244 60.8626 153.37 60.7355 153.53 60.7316Z" fill="#253368"/>
<path fill-rule="evenodd" clip-rule="evenodd" d="M111.511 112.855C112.295 114.822 114.452 116.043 116.773 115.834L163.951 112.898C169.167 112.429 173.887 107.995 171.957 102.105C171.132 97.4405 166.063 94.4885 160.972 95.7078L115.141 106.685C112.168 107.397 110.478 110.269 111.511 112.855Z" fill="#FFC999"/>
<path fill-rule="evenodd" clip-rule="evenodd" d="M92.8149 137.253L134.594 134.114L94.6757 119.171L59.9932 125.037L92.8149 137.253Z" fill="#CCD7EE"/>
<path fill-rule="evenodd" clip-rule="evenodd" d="M91.486 134.381L121.83 132.1L93.5492 121.247L67.6484 125.508L91.486 134.381Z" fill="#4E5C93"/>
<path fill-rule="evenodd" clip-rule="evenodd" d="M134.402 136.151L134.602 134.128L91.989 137.008L92.5243 139.225L134.402 136.151Z" fill="#253368"/>
<path d="M87.68 122.62C87.7158 122.545 87.8009 122.507 87.8813 122.525L87.9154 122.536L110.819 132.599C110.908 132.638 110.947 132.739 110.906 132.825C110.87 132.899 110.785 132.937 110.705 132.919L110.671 132.908L87.7674 122.845C87.6783 122.806 87.6392 122.705 87.68 122.62Z" fill="#CCD7EE"/>
<path d="M90.9063 121.655C90.9408 121.58 91.0253 121.541 91.106 121.557L91.1402 121.568L116.79 132.343C116.879 132.381 116.92 132.481 116.881 132.567C116.846 132.642 116.762 132.682 116.681 132.665L116.647 132.654L90.9976 121.879C90.9078 121.842 90.867 121.741 90.9063 121.655Z" fill="#CCD7EE"/>
<path d="M87.1542 124.646C87.1911 124.572 87.2767 124.535 87.3569 124.554L87.3907 124.566L106.6 133.317C106.688 133.357 106.726 133.459 106.684 133.544C106.647 133.618 106.561 133.655 106.481 133.636L106.447 133.624L87.2383 124.873C87.1497 124.833 87.1121 124.731 87.1542 124.646Z" fill="#CCD7EE"/>
<path d="M81.6852 124.755C81.7221 124.681 81.8077 124.644 81.8879 124.663L81.9217 124.675L101.131 133.426C101.22 133.466 101.257 133.568 101.215 133.653C101.178 133.727 101.093 133.764 101.012 133.745L100.979 133.733L81.7693 124.982C81.6807 124.941 81.6431 124.84 81.6852 124.755Z" fill="#CCD7EE"/>
<path d="M76.6061 125.194C76.643 125.12 76.7286 125.083 76.8088 125.102L76.8426 125.113L96.0519 133.865C96.1404 133.905 96.178 134.006 96.1359 134.091C96.0991 134.165 96.0134 134.202 95.9332 134.183L95.8994 134.172L76.6902 125.42C76.6016 125.38 76.564 125.279 76.6061 125.194Z" fill="#CCD7EE"/>
<path d="M117.031 130.486C117.129 130.482 117.212 130.555 117.216 130.648C117.22 130.731 117.162 130.802 117.082 130.821L117.046 130.826L91.1506 131.919C91.0526 131.923 90.9697 131.851 90.9652 131.757C90.9616 131.675 91.0193 131.604 91.0994 131.585L91.1349 131.58L117.031 130.486Z" fill="#CCD7EE"/>
<path d="M111.5 128.135C111.598 128.131 111.681 128.204 111.686 128.298C111.689 128.38 111.632 128.451 111.551 128.47L111.516 128.475L85.62 129.568C85.5221 129.573 85.4392 129.5 85.4347 129.406C85.4311 129.324 85.4888 129.253 85.5688 129.234L85.6044 129.229L111.5 128.135Z" fill="#CCD7EE"/>
<path d="M104.554 126.321C104.652 126.317 104.735 126.389 104.739 126.483C104.743 126.565 104.685 126.636 104.605 126.656L104.57 126.661L78.673 127.754C78.5751 127.758 78.4922 127.686 78.4877 127.592C78.4841 127.51 78.5417 127.439 78.6218 127.419L78.6574 127.414L104.554 126.321Z" fill="#CCD7EE"/>
<path d="M100.064 122.561C100.162 122.557 100.245 122.63 100.249 122.724C100.253 122.806 100.195 122.877 100.115 122.896L100.08 122.901L74.1833 123.994C74.0853 123.998 74.0025 123.926 73.998 123.832C73.9944 123.75 74.052 123.679 74.1321 123.66L74.1676 123.655L100.064 122.561Z" fill="#CCD7EE"/>
<path fill-rule="evenodd" clip-rule="evenodd" d="M92.4903 139.224L90.6231 139.238L59.5948 127.262L50.9771 74.7746L84.7068 83.9148L92.4903 139.224Z" fill="#253368"/>
<path fill-rule="evenodd" clip-rule="evenodd" d="M90.557 139.236L57.8354 126.621C57.5358 126.506 57.3221 126.248 57.2717 125.943L48.9323 75.4978C48.8279 74.8634 49.4449 74.3397 50.0895 74.5152L82.0798 83.2297C82.4306 83.3249 82.689 83.6105 82.7373 83.9567L90.557 139.236Z" fill="#4E5C93"/>
<path fill-rule="evenodd" clip-rule="evenodd" d="M115.283 116.346C111.91 118.615 101.469 117.128 101.469 117.128L94.5072 120.427C93.4316 120.839 93.1739 120.152 92.6414 120.152C91.2065 120.152 91.2065 118.709 91.2065 118.709C90.7116 118.484 89.9151 118.846 89.6992 117.54C89.6992 117.54 88.6946 117.471 88.6227 116.303C88.5853 115.685 95.1263 106.773 95.1263 106.773L104.888 107.028C104.888 107.028 119.148 107.284 120.747 110.347C122.346 113.411 115.283 116.346 115.283 116.346Z" fill="#FFC999"/>
<path d="M100.732 111.456C100.872 111.408 101.025 111.478 101.074 111.611C101.119 111.731 101.065 111.862 100.952 111.922L100.912 111.939L96.9557 113.292L92.1101 118.342C92.0788 118.371 92.0304 118.424 91.9785 118.493L91.9391 118.547C91.804 118.744 91.746 118.933 91.7902 119.087C91.8648 119.346 92.2348 119.581 93.0295 119.733C93.1745 119.761 93.2685 119.896 93.2395 120.035C93.2105 120.173 93.0695 120.263 92.9245 120.236C91.9526 120.049 91.4134 119.708 91.2741 119.222C91.1808 118.898 91.2805 118.573 91.4921 118.265C91.567 118.156 91.642 118.069 91.6963 118.014L91.7263 117.985L96.606 112.898C96.6256 112.878 96.6485 112.861 96.6737 112.847L96.7131 112.83L100.732 111.456Z" fill="#DD936F"/>
<path d="M98.3393 109.267C98.4727 109.206 98.6325 109.26 98.6962 109.388C98.7535 109.503 98.7135 109.638 98.6076 109.708L98.57 109.729L95.4675 111.147L90.8272 116.685L90.792 116.722L90.7377 116.784C90.6672 116.867 90.5966 116.959 90.531 117.057C90.3832 117.276 90.2846 117.49 90.256 117.677C90.1961 118.069 90.4456 118.331 91.249 118.455C91.395 118.478 91.4942 118.609 91.4707 118.749C91.4472 118.889 91.3098 118.984 91.1639 118.961C90.0932 118.796 89.6199 118.298 89.7263 117.603C89.7679 117.332 89.8954 117.055 90.0809 116.779C90.158 116.665 90.2403 116.558 90.3226 116.461L90.3976 116.375L90.4233 116.349L95.0886 110.781C95.1054 110.761 95.1252 110.744 95.1473 110.729L95.1821 110.71L98.3393 109.267Z" fill="#DD936F"/>
<path d="M103.215 113.782C103.36 113.757 103.499 113.849 103.526 113.989C103.55 114.114 103.474 114.235 103.352 114.276L103.31 114.287L98.6533 115.097L93.6053 119.799L93.6043 119.807C93.6026 119.837 93.6052 119.866 93.6132 119.895L93.6294 119.936C93.7049 120.081 93.9559 120.184 94.5 120.17C94.9511 120.159 95.8415 119.774 96.9993 119.115C97.237 118.98 97.4832 118.835 97.7364 118.681C98.147 118.432 98.5615 118.169 98.9677 117.903L99.5076 117.544L100.065 117.162C100.103 117.135 100.147 117.118 100.194 117.113L100.46 117.088L100.88 117.055C100.981 117.048 101.086 117.041 101.197 117.034C102.451 116.955 103.846 116.929 105.299 116.984L106.302 117.028C110.543 117.223 113.02 116.992 115.906 115.693L116.099 115.605L116.197 115.58L140.186 114.048C140.333 114.039 140.461 114.145 140.47 114.287C140.479 114.414 140.39 114.526 140.264 114.553L140.221 114.56L116.284 116.088L116.132 116.158C113.214 117.471 110.712 117.728 106.562 117.553L105.389 117.501L105.277 117.496C103.845 117.442 102.469 117.468 101.232 117.546L100.92 117.566L100.438 117.605L100.324 117.615L99.9477 117.874C99.8619 117.932 99.7717 117.993 99.6774 118.056C99.1387 118.417 98.5779 118.777 98.023 119.114C97.7656 119.27 97.515 119.418 97.2727 119.556L96.9686 119.726C95.877 120.327 95.0442 120.67 94.5141 120.683C93.7826 120.702 93.3332 120.517 93.1499 120.164C93.0626 119.995 93.0522 119.822 93.0851 119.664L93.0989 119.609C93.1011 119.601 93.1034 119.595 93.1055 119.588C93.1146 119.563 93.1278 119.539 93.1446 119.518L93.1723 119.487L98.3388 114.676C98.3674 114.649 98.4017 114.629 98.4392 114.617L98.4775 114.607L103.215 113.782Z" fill="#DD936F"/>
<path d="M158.127 95.6757C158.27 95.6395 158.416 95.7212 158.454 95.8581C158.488 95.9813 158.423 96.1072 158.305 96.1576L158.264 96.1714L113.353 107.531L113.276 107.54L95.2681 107.033L88.8584 116.424L88.8363 116.468C88.8276 116.486 88.8179 116.509 88.8078 116.534L88.7924 116.574C88.7473 116.696 88.7222 116.817 88.7256 116.921C88.735 117.206 88.9591 117.351 89.6729 117.285C89.8201 117.271 89.9508 117.375 89.965 117.516C89.9792 117.657 89.8714 117.782 89.7243 117.795C88.729 117.887 88.2108 117.551 88.1899 116.937C88.1847 116.761 88.2223 116.581 88.2875 116.404C88.3144 116.331 88.3415 116.269 88.3697 116.215L88.3982 116.163L94.9024 106.633C94.9448 106.571 95.0129 106.53 95.0883 106.52L95.1343 106.517L113.252 107.026L158.127 95.6757Z" fill="#DD936F"/>
<path d="M148.992 46.9561C149.103 46.8462 149.286 46.8435 149.401 46.9499C149.516 47.0564 149.519 47.2319 149.408 47.3418C147.089 49.6344 144.339 51.1231 141.252 51.9024C137.089 52.9531 132.648 52.6702 128.383 51.5641C127.553 51.3486 126.798 51.1177 126.133 50.8866L125.867 50.7921C125.782 50.7616 125.702 50.7321 125.627 50.7038L125.299 50.5752C125.153 50.5138 125.086 50.3504 125.15 50.2102C125.214 50.07 125.384 50.0061 125.531 50.0674L125.734 50.148L125.952 50.2302C126.068 50.273 126.194 50.3183 126.331 50.3656C126.981 50.5916 127.72 50.8179 128.535 51.0291C132.71 52.112 137.054 52.3888 141.104 51.3665C144.092 50.6122 146.749 49.1741 148.992 46.9561Z" fill="#253368"/>
</svg>
