<?xml version="1.0" encoding="utf-8"?>
<!-- Generator: Adobe Illustrator 20.0.0, SVG Export Plug-In . SVG Version: 6.00 Build 0)  -->
<svg version="1.1" id="Layer_1" xmlns="http://www.w3.org/2000/svg" xmlns:xlink="http://www.w3.org/1999/xlink" x="0px" y="0px"
	 viewBox="0 0 768 683.9" style="enable-background:new 0 0 768 683.9;" xml:space="preserve">
<style type="text/css">
	.st0{fill:#5E5E5E;stroke:#5E5E5E;stroke-width:10;stroke-miterlimit:10;}
	.st1{fill:#5E5E5E;}
</style>
<title>Untitled-1</title>
<path class="st0" d="M609.2,118.5H479c-4.4-48.6-46.4-86.1-95-86.1s-90.5,37.5-95,86.1H158.8c-6.6,0-11,4.4-11,11V611
	c0,6.6,4.4,11,11,11h450.5c6.6,0,11-4.4,11-11V129.6C620.3,122.9,615.9,118.5,609.2,118.5z M384,54.5c37.5,0,68.5,28.7,72.9,64
	H311.1C315.5,81,346.5,54.5,384,54.5z M167.6,138.4H373v461.5H167.6V138.4z M598.2,599.9H392.8V138.4h205.4V599.9z"/>
<path class="st1" d="M278,293c-2.2-2.2-4.4-2.2-6.6-2.2s-6.6,2.2-6.6,2.2l-48.6,48.6c-4,4.5-3.6,11.4,0.9,15.4
	c4.1,3.7,10.4,3.7,14.5,0l30.9-30.9v112.6c0,6.6,4.4,11,11,11s11-4.4,11-11V326.1l31,30.9c2.2,2.2,4.4,2.2,6.6,2.2s4.4,0,6.6-2.2
	c4.3-4.1,4.4-10.8,0.4-15.1c-0.1-0.1-0.2-0.3-0.4-0.4L278,293z"/>
<path class="st1" d="M454.7,381.3c-4.3-4.3-11.2-4.3-15.5,0s-4.3,11.2,0,15.5l48.6,48.6c0,0,2.2,2.2,4.4,2.2h8.8
	c2.2,0,2.2-2.2,4.4-2.2l48.6-48.6c4.3-4.3,4.3-11.2,0-15.5c-4.3-4.3-11.2-4.3-15.5,0l0,0l-30.9,30.9V299.6c0-6.6-4.4-11-11-11
	s-11,4.4-11,11v112.6L454.7,381.3z"/>
</svg>
