<svg id="Layer_1" data-name="Layer 1" xmlns="http://www.w3.org/2000/svg" viewBox="0 0 7.16 11.448"><defs><style>.cls-1,.cls-2{fill:#00adef}.cls-1{opacity:.485;isolation:isolate}</style></defs><title>Location pin icon</title><g id="My_day_icons" data-name="My day icons"><g id="ubication-2nd"><path id="Path_18942" data-name="Path 18942" class="cls-1" d="M5.725 9.3a2.146 2.146 0 1 1-2.146-2.144A2.252 2.252 0 0 1 5.725 9.3z"/><path id="Path_18943" data-name="Path 18943" class="cls-2" d="M3.58 0A3.41 3.41 0 0 0 0 3.238v.342c0 2.174 3.58 6.437 3.58 6.437S7.156 5.726 7.156 3.58A3.424 3.424 0 0 0 3.891 0H3.58zm0 5.006A1.43 1.43 0 1 1 5.01 3.58a1.514 1.514 0 0 1-1.43 1.43z"/></g></g></svg>