<svg id="Layer_1" data-name="Layer 1" xmlns="http://www.w3.org/2000/svg" viewBox="0 0 768 683.88"><title>pinball</title><path d="M277.63,254.69a7.17,7.17,0,1,0,3.63,4.12A7.09,7.09,0,0,0,277.63,254.69Zm-1,7.49a2.42,2.42,0,0,1-3.2,1.1,2.39,2.39,0,0,1,1.05-4.55,2.4,2.4,0,0,1,2.26,1.62A2.38,2.38,0,0,1,276.62,262.18Z" style="fill:#5d5e5e;stroke:#5d5e5e;stroke-miterlimit:10;stroke-width:5px"/><path d="M346.57,288.48,284.32,242l-.38-.23A21.52,21.52,0,0,0,265,280.46c2.2,1.08,57.89,16.19,75.27,20.9a7.06,7.06,0,0,0,2.93.63h0a7.17,7.17,0,0,0,3.37-13.51Zm-1.22,7.39a2.43,2.43,0,0,1-3.2,1.09l-.43-.16C313,289,269.49,277.13,267.11,276.17A16.74,16.74,0,0,1,281.65,246l62.23,46.43.38.23a2.39,2.39,0,0,1,1.1,3.2Z" style="fill:#5d5e5e;stroke:#5d5e5e;stroke-miterlimit:10;stroke-width:5px"/><path d="M462,251.66a21.51,21.51,0,0,0-28.8-9.85l-62.62,46.68a7.17,7.17,0,0,0,6.3,12.88c17.38-4.71,73.07-19.82,75.27-20.9A21.55,21.55,0,0,0,462,251.66Zm-11.88,24.47c-2.45,1-46,12.9-74.69,20.67L375,297a2.39,2.39,0,1,1-2.1-4.3L435.52,246a16.73,16.73,0,0,1,22.21,7.76A16.75,16.75,0,0,1,450.14,276.13Z" style="fill:#5d5e5e;stroke:#5d5e5e;stroke-miterlimit:10;stroke-width:5px"/><path d="M442.69,254a7.1,7.1,0,0,0-3.15.74,7.18,7.18,0,0,0,3.16,13.62,7.18,7.18,0,0,0,0-14.35Zm2.27,7.95a2.38,2.38,0,0,1-1.21,1.38,2.43,2.43,0,0,1-3.2-1.1,2.4,2.4,0,0,1,1.1-3.2,2.4,2.4,0,0,1,3.32,2.92Z" style="fill:#5d5e5e;stroke:#5d5e5e;stroke-miterlimit:10;stroke-width:5px"/><path d="M381.28,210.46a22.7,22.7,0,1,0-22.7,22.7A22.73,22.73,0,0,0,381.28,210.46Zm-22.7,17.92a17.92,17.92,0,1,1,17.92-17.92A17.94,17.94,0,0,1,358.58,228.38Z" style="fill:#5d5e5e;stroke:#5d5e5e;stroke-miterlimit:10;stroke-width:5px"/><rect x="217.87" y="158.52" width="281.42" height="420.83" style="fill:none;stroke:#5d5e5e;stroke-miterlimit:10;stroke-width:25px"/><rect x="217.87" y="520.17" width="281.42" height="54.59" style="fill:none;stroke:#5d5e5e;stroke-miterlimit:10;stroke-width:21px"/><polyline points="267.3 325.21 267.3 391.14 335.88 391.14" style="fill:none;stroke:#5d5e5e;stroke-miterlimit:10;stroke-width:21px"/><line x1="491.78" y1="435.28" x2="440.3" y2="435.28" style="fill:none;stroke:#5d5e5e;stroke-miterlimit:10;stroke-width:21px"/><polyline points="226.83 466.46 326.04 466.46 326.04 511" style="fill:none;stroke:#5d5e5e;stroke-miterlimit:10;stroke-width:21px"/><polyline points="491.78 339.94 439.18 339.94 439.18 381.53 397.03 381.53 397.03 418.6" style="fill:none;stroke:#5d5e5e;stroke-miterlimit:10;stroke-width:21px"/><line x1="491.78" y1="477.7" x2="381.28" y2="477.7" style="fill:none;stroke:#5d5e5e;stroke-miterlimit:10;stroke-width:21px"/></svg>