<?xml version="1.0" encoding="utf-8"?>
<!-- Generator: Adobe Illustrator 20.0.0, SVG Export Plug-In . SVG Version: 6.00 Build 0)  -->
<svg version="1.1" id="Layer_1" xmlns="http://www.w3.org/2000/svg" xmlns:xlink="http://www.w3.org/1999/xlink" x="0px" y="0px"
	 viewBox="0 0 768 683.9" style="enable-background:new 0 0 768 683.9;" xml:space="preserve">
<style type="text/css">
	.st0{fill:none;stroke:#737374;stroke-width:10;stroke-miterlimit:10;}
	.st1{fill:none;stroke:#5D5E5E;stroke-width:14;stroke-miterlimit:10;stroke-opacity:3.000000e-02;}
	.st2{fill:none;stroke:#5D5E5E;stroke-width:20;stroke-miterlimit:10;}
	.st3{fill:none;stroke:#5D5E5E;stroke-width:16;stroke-miterlimit:10;}
	.st4{fill:none;stroke:#5D5E5E;stroke-width:14;stroke-miterlimit:10;}
</style>
<title>Projector</title>
<line class="st0" x1="378.9" y1="346.2" x2="417.4" y2="321.3"/>
<line class="st0" x1="436.3" y1="304.8" x2="474.8" y2="279.8"/>
<line class="st0" x1="510.5" y1="260.8" x2="549" y2="235.9"/>
<line class="st0" x1="380" y1="369.3" x2="418.5" y2="394.2"/>
<line class="st0" x1="437.5" y1="410.7" x2="476" y2="435.7"/>
<line class="st0" x1="511.7" y1="454.7" x2="550.2" y2="479.6"/>
<line class="st1" x1="376.9" y1="331.9" x2="376.9" y2="387.8"/>
<rect x="136.6" y="275.9" class="st2" width="216.3" height="160.2"/>
<polygon class="st3" points="376.9,319.9 376.9,399.1 354.6,363.3 "/>
<circle class="st4" cx="293.6" cy="356" r="12.4"/>
<g id="LCD-65_">
	<path class="st2" d="M613.1,596.8c0,2.5-1.3,5-2.6,5H583c-1.3,0-2.6-2.5-2.6-5V117.6c0-2.5,1.3-5,2.6-5h27.5c1.3,0,2.6,2.5,2.6,5
		L613.1,596.8z"/>
</g>
</svg>
