<svg id="Layer_1" data-name="Layer 1" xmlns="http://www.w3.org/2000/svg" viewBox="0 0 768 683.88"><title>shoers</title><path d="M643.23,103.65H612.59a46,46,0,0,0-43.33,30.64H520.68a76.05,76.05,0,0,0-54.15,22.43l-35.44,35.45a61.14,61.14,0,0,0-74.41,9.42L335,223.25a15.32,15.32,0,0,0,0,21.67L443.33,353.23a15.32,15.32,0,0,0,21.67,0l21.66-21.67a61.12,61.12,0,0,0,9.42-74.41l30.95-31h42.24a46,46,0,0,0,43.33,30.64h30.64a15.32,15.32,0,0,0,15.32-15.32V119A15.32,15.32,0,0,0,643.23,103.65ZM465,309.9l-10.83,10.83-86.65-86.65,10.83-10.83a30.64,30.64,0,0,1,43.33,0L465,266.57a30.63,30.63,0,0,1,0,43.33ZM566.64,195.56h-46A15.34,15.34,0,0,0,509.85,200l-34,34-21.67-21.67,34-34a45.68,45.68,0,0,1,32.59-13.46h45.86Zm61.27,30.64H612.59a15.34,15.34,0,0,1-15.32-15.32V149.6a15.34,15.34,0,0,1,15.32-15.32h15.32Z" style="fill:#5e5e5e"/><path d="M339.63,289.36a18.38,18.38,0,1,0,26,.86A18.39,18.39,0,0,0,339.63,289.36Z" style="fill:#5e5e5e"/><path d="M316.34,354.62a18.38,18.38,0,1,0-13.42-5.82A18.33,18.33,0,0,0,316.34,354.62Z" style="fill:#5e5e5e"/><path d="M267.94,356.21a18.39,18.39,0,0,0-.86,26,18.31,18.31,0,0,0,26,.92,18.4,18.4,0,1,0-25.12-26.9Z" style="fill:#5e5e5e"/><path d="M196.31,423.12a18.38,18.38,0,1,0,26,.92A18.39,18.39,0,0,0,196.31,423.12Z" style="fill:#5e5e5e"/><path d="M186.45,457.43a18.38,18.38,0,1,0-.86,26A18.39,18.39,0,0,0,186.45,457.43Z" style="fill:#5e5e5e"/><path d="M232.16,389.67a18.39,18.39,0,0,0-.92,26,18.45,18.45,0,0,0,26,.91,18.38,18.38,0,1,0-25.06-26.89Z" style="fill:#5e5e5e"/><path d="M124.63,490a18.38,18.38,0,1,0,26,.86A18.39,18.39,0,0,0,124.63,490Z" style="fill:#5e5e5e"/><path d="M130.87,394.75a18.38,18.38,0,1,0-15.5,28.31,18.39,18.39,0,0,0,15.5-28.31Z" style="fill:#5e5e5e"/><path d="M280.32,317.06a18.41,18.41,0,1,0-15.44-8.46A18.37,18.37,0,0,0,280.32,317.06Z" style="fill:#5e5e5e"/><path d="M321.55,290.53a17.86,17.86,0,0,0,9.93-2.94,18.29,18.29,0,1,0-9.93,2.94Z" style="fill:#5e5e5e"/><path d="M197.84,370.06a18.41,18.41,0,1,0-15.44-8.46A18.37,18.37,0,0,0,197.84,370.06Z" style="fill:#5e5e5e"/><path d="M239.08,343.53a18.38,18.38,0,1,0-15.44-8.46A18.3,18.3,0,0,0,239.08,343.53Z" style="fill:#5e5e5e"/><path d="M156.67,396.53a18.33,18.33,0,0,0,15.44-28.31,18.4,18.4,0,1,0-15.44,28.31Z" style="fill:#5e5e5e"/><path d="M353.41,391a18.38,18.38,0,1,0-11-3.68A18.45,18.45,0,0,0,353.41,391Z" style="fill:#5e5e5e"/><path d="M382.82,351.8a18.38,18.38,0,1,0-11-3.68A18.52,18.52,0,0,0,382.82,351.8Z" style="fill:#5e5e5e"/><path d="M313,426.55a18.53,18.53,0,0,0,11,3.68,18.38,18.38,0,1,0-11-3.68Z" style="fill:#5e5e5e"/><path d="M276.21,475.57a18.38,18.38,0,1,0,3.68,25.73A18.37,18.37,0,0,0,276.21,475.57Z" style="fill:#5e5e5e"/><path d="M217.39,554a18.38,18.38,0,1,0,3.68,25.74A18.32,18.32,0,0,0,217.39,554Z" style="fill:#5e5e5e"/><path d="M309.3,462.09a18.37,18.37,0,1,0-14.71,7.36A18.37,18.37,0,0,0,309.3,462.09Z" style="fill:#5e5e5e"/><path d="M246.8,514.78a18.38,18.38,0,1,0,3.68,25.74A18.32,18.32,0,0,0,246.8,514.78Z" style="fill:#5e5e5e"/><path d="M400.47,391.81a18.38,18.38,0,1,0,8.89,24.44A18.34,18.34,0,0,0,400.47,391.81Z" style="fill:#5e5e5e"/><path d="M421.24,347.39a18.38,18.38,0,1,0,8.89,24.45A18.4,18.4,0,0,0,421.24,347.39Z" style="fill:#5e5e5e"/><path d="M379.76,436.23a18.38,18.38,0,1,0,8.88,24.44A18.43,18.43,0,0,0,379.76,436.23Z" style="fill:#5e5e5e"/><path d="M317.57,569.5a18.35,18.35,0,1,0-15.5,33.26,17.54,17.54,0,0,0,7.72,1.78,18.38,18.38,0,0,0,7.78-35Z" style="fill:#5e5e5e"/><path d="M359.05,480.66a18.38,18.38,0,1,0,8.88,24.44A18.41,18.41,0,0,0,359.05,480.66Z" style="fill:#5e5e5e"/><path d="M338.34,525.08a18.36,18.36,0,1,0-15.56,33.26,17.6,17.6,0,0,0,7.78,1.78,18.38,18.38,0,0,0,7.78-35Z" style="fill:#5e5e5e"/></svg>