<svg xmlns="http://www.w3.org/2000/svg" width="29.387" height="29.387" viewBox="0 0 29.387 29.387">
  <path id="Icon_awesome-smile" data-name="Icon awesome-smile" d="M14.694.563A14.694,14.694,0,1,0,29.387,15.256,14.691,14.691,0,0,0,14.694.563Zm4.74,9.954a1.9,1.9,0,1,1-1.9,1.9A1.894,1.894,0,0,1,19.433,10.516Zm-9.48,0a1.9,1.9,0,1,1-1.9,1.9A1.894,1.894,0,0,1,9.954,10.516ZM21.5,20.6a8.851,8.851,0,0,1-13.6,0,.949.949,0,0,1,1.458-1.215,6.962,6.962,0,0,0,10.688,0A.949.949,0,0,1,21.5,20.6Z" transform="translate(0 -0.563)" fill="#fff"/>
</svg>
