<?xml version="1.0" encoding="utf-8"?>
<!-- Generator: Adobe Illustrator 20.0.0, SVG Export Plug-In . SVG Version: 6.00 Build 0)  -->
<svg version="1.1" id="Layer_1" xmlns="http://www.w3.org/2000/svg" xmlns:xlink="http://www.w3.org/1999/xlink" x="0px" y="0px"
	 viewBox="0 0 768 683.9" style="enable-background:new 0 0 768 683.9;" xml:space="preserve">
<style type="text/css">
	.st0{fill:#5E5E5E;stroke:#5E5E5E;stroke-width:15;stroke-miterlimit:10;}
</style>
<title>stairs</title>
<path id="fire-extinguisher-rm-21" class="st0" d="M467.8,273.6v273.4c0,7.2,7.2,7.2,7.2,7.2c7.2,0,7.2-7.2,7.2-7.2V273.6
	C482.2,266.4,468.8,267,467.8,273.6L467.8,273.6z M158.5,201.6L158.5,201.6l194.2-21.6c7.2,0,7.2-7.2,7.2-7.2l0,0
	c0-4,3.2-7.2,7.2-7.2h14.4c4,0,7.2,3.2,7.2,7.2v2.1c0,3-1.8,5.7-4.6,6.8c-40.6,15.8-67.4,57.7-67.4,106.3v287.7
	c0,21.6,57.5,36,107.9,36s107.9-14.4,107.9-36V288c0-48.9-27.1-84.2-68.1-105.9c-2.3-1.2-3.8-3.7-3.8-6.3v-23.9c0-4.3,3.7-7.6,8-7.1
	c22.5,2.6,74.1,16.8,99.3,84.3c0.4,1,0.9,1.8,1.6,2.6l4,4c1.3,1.3,3.2,2.1,5.1,2.1h4.2c6.7,0,7.2-6.3,7.2-13c0-0.9-0.2-1.8-0.5-2.6
	c-18.3-47.8-46.6-70.5-72.2-80.7c-5.1-2-6-8.7-1.9-12.2c9.5-8.1,17-19.9,17-35.4c0-21.6-21.6-43.2-43.2-43.2
	c-21.6,0-43.2,21.6-43.2,43.2v0c0,4-3.2,7.2-7.2,7.2h-36c-7.2,0-7.2,7.2-7.2,7.2v7.2c0,4-3.2,7.2-7.2,7.2h-14.4
	c-4,0-7.2-3.2-7.2-7.2v0c0-7.1,0-7.2-6.8-7.2c-0.3,0-0.5,0-0.8,0L158.5,92.2V201.6z M460.6,86.5c0-14.4,14.4-28.8,28.8-28.8
	s28.8,14.4,28.8,28.8s-14.4,28.8-28.8,28.8C467.8,115.3,460.6,100.9,460.6,86.5z M424.7,187.2c50.4,0,93.5,43.2,93.5,93.5v287.7
	c0,7.2-36,21.6-93.5,21.6c-50.4,0-86.3-14.4-93.5-21.6V280.8C331.1,230.4,374.3,187.2,424.7,187.2z M369.9,144.1h26
	c7.2,0,7.2-7.2,7.2-7.2v-14.4h36v57.5h-28.8v-14.4c0-7.2-7.3-8.6-7.3-8.6l-30-12.9H369.9z M172.9,108.1l172.7,14.4v43.2l-172.7,21.6
	V108.1z M106.5,60.6"/>
</svg>
