<svg id="Layer_1" data-name="Layer 1" xmlns="http://www.w3.org/2000/svg" viewBox="0 0 768 683.88"><title>Table5</title><path id="table" d="M560.07,236.32c0-11.12-1.85-20.38-13-25.94-7.41-3.71-18.53-3.71-27.8-3.71-72.27,1.85-144.54,7.41-213.11,29.65-48.18,14.82-94.51,40.77-122.3,83.39-13,16.68-20.38,38.92-14.82,59.3,1.85,13,11.12,25.94,20.38,35.21,24.09,24.09,53.74,38.91,83.39,51.89,57.45,22.24,116.74,35.21,176,44.47,22.24,3.71,42.62,5.56,64.86,7.41,13,0,27.8,0,37.06-11.12,7.41-7.41,7.41-18.53,7.41-29.65Z" style="fill:#fff;stroke:#5e6060;stroke-miterlimit:10;stroke-width:29px"/></svg>