<svg id="Layer_1" data-name="Layer 1" xmlns="http://www.w3.org/2000/svg" viewBox="0 0 768 683.88"><title>Table6</title><g id="tables-rm-21-21.39"><g id="tables-rm-20-42"><path id="table" d="M233,220.61c8.73,15.71,21,29.68,34.92,41.9,36.67,31.43,85.55,47.14,132.69,45.4,41.9-1.75,82.06-17.46,110-48.89,19.21-21,29.68-48.89,36.67-76.82,3.49-15.71,5.24-31.43,3.49-48.89-3.49-15.71-12.22-31.43-26.19-40.16-19.21-10.48-45.4-5.24-64.6,7-15.71,10.48-29.68,26.19-45.4,34.92-17.46,10.48-38.41,14-59.36,10.48-19.21-3.49-36.67-14-55.87-19.21-21-5.24-43.65-5.24-59.36,12.22-15.71,15.71-17.46,41.9-12.22,62.85A141.71,141.71,0,0,0,233,220.61Z" style="fill:#fff;stroke:#5e6060;stroke-miterlimit:10;stroke-width:29px"/><path id="table-2" data-name="table" d="M360.41,517.43c7-17.46,8.73-34.92,7-54.13-1.75-48.89-22.7-94.28-57.62-129.2-29.68-29.68-69.84-48.89-110-47.14-27.94,0-55.87,10.48-82.06,26.19-14,8.73-27.94,17.46-36.67,31.43s-14,29.68-10.48,45.4c5.24,22.7,26.19,36.67,48.89,41.9,19.21,5.24,38.41,3.49,57.62,8.73s36.67,19.21,47.14,34.92c10.48,17.46,15.71,36.67,24.44,54.13,10.48,19.21,26.19,34.92,48.89,34.92s43.65-15.71,54.13-33.17C355.17,527.91,356.92,522.67,360.41,517.43Z" style="fill:#fff;stroke:#5e6060;stroke-miterlimit:10;stroke-width:29px"/><path id="table-3" data-name="table" d="M625.8,300.93a143.08,143.08,0,0,0-54.13-5.24c-48.89,3.49-94.28,26.19-127.46,61.11-27.94,29.68-45.4,71.58-43.65,111.74,1.75,27.94,12.22,55.87,27.94,80.31a158.79,158.79,0,0,0,31.43,36.67c14,8.73,29.68,14,45.4,8.73,21-5.24,36.67-27.94,40.16-50.63,3.49-19.21,1.75-38.41,7-57.62s17.46-36.67,33.17-48.89,36.67-17.46,52.38-26.19c19.21-10.48,34.92-27.94,34.92-50.63S655.48,316.64,638,306.17C636.27,304.42,631,302.67,625.8,300.93Z" style="fill:#fff;stroke:#5e6060;stroke-miterlimit:10;stroke-width:29px"/></g></g></svg>