<svg id="Layer_1" data-name="Layer 1" xmlns="http://www.w3.org/2000/svg" viewBox="0 0 768 683.88"><title>Table</title><path d="M610.86,456V229.9a2,2,0,0,0-2-2H159.14a2,2,0,0,0-2,2V451.55a4.26,4.26,0,0,0,1.65,3.13l.24.17a7.6,7.6,0,0,0,3.65,1.13H608.86a2,2,0,0,0,2-2V229.9a2,2,0,0,0-2-2H157.14" style="fill:#fff"/><path d="M610.86,456V229.9a2,2,0,0,0-2-2H159.14a2,2,0,0,0-2,2V451.55a4.26,4.26,0,0,0,1.65,3.13l.24.17a7.6,7.6,0,0,0,3.65,1.13H608.86a2,2,0,0,0,2-2V229.9a2,2,0,0,0-2-2H157.14" style="fill:none;stroke:#5e6060;stroke-miterlimit:10;stroke-width:29px"/></svg>