<svg width="129" height="117" viewBox="0 0 129 117" fill="none" xmlns="http://www.w3.org/2000/svg">
<g clip-path="url(#clip0)">
<path d="M32.9412 90.8456H10.1493L6.37317 54.8238C6.34026 54.4031 6.22188 53.9934 6.02528 53.62C5.82868 53.2465 5.558 52.9171 5.22978 52.6519C4.90156 52.3867 4.5227 52.1913 4.11639 52.0776C3.71008 51.9639 3.28486 51.9343 2.86672 51.9907C2.4461 52.0236 2.03661 52.142 1.66331 52.3387C1.29 52.5353 0.960731 52.8061 0.695631 53.1345C0.43053 53.4628 0.235174 53.8418 0.121514 54.2483C0.00785298 54.6547 -0.0217234 55.0801 0.0345939 55.4984L4.21535 94.3534C4.31102 95.1416 4.69432 95.8668 5.29168 96.3896C5.88904 96.9125 6.65838 97.1963 7.45207 97.1865H17.432V109.059L10.0145 111.892C9.68304 112.004 9.37714 112.181 9.11452 112.412C8.8519 112.644 8.63776 112.925 8.48452 113.239C8.33127 113.554 8.24197 113.896 8.22178 114.246C8.20159 114.595 8.25092 114.945 8.3669 115.275C8.48289 115.605 8.66323 115.909 8.89747 116.169C9.13171 116.429 9.4152 116.64 9.73151 116.79C10.0478 116.94 10.3907 117.025 10.7402 117.041C11.0897 117.057 11.439 117.004 11.7677 116.884L19.8595 113.916L27.9513 116.884H28.8953C29.4316 116.879 29.9531 116.707 30.3879 116.393C30.8227 116.079 31.1493 115.638 31.3229 115.13C31.5523 114.468 31.511 113.742 31.2079 113.11C30.9048 112.478 30.3644 111.992 29.7045 111.757L22.4219 109.194V97.3214H32.9412C33.7961 97.3099 34.6127 96.9651 35.2172 96.3603C35.8217 95.7556 36.1664 94.9387 36.1779 94.0835C36.1836 93.6568 36.1037 93.2332 35.943 92.8378C35.7823 92.4424 35.5441 92.0833 35.2425 91.7815C34.9408 91.4797 34.5817 91.2414 34.1865 91.0806C33.7913 90.9199 33.3678 90.84 32.9412 90.8456Z" fill="currentColor"/>
<path d="M125.188 51.9907C124.348 51.9019 123.507 52.1503 122.849 52.6816C122.192 53.2128 121.772 53.9833 121.682 54.8239L117.906 90.7107H94.9789C94.1205 90.7107 93.2972 91.0519 92.6902 91.6591C92.0832 92.2663 91.7422 93.0899 91.7422 93.9487C91.7422 94.8074 92.0832 95.631 92.6902 96.2382C93.2972 96.8454 94.1205 97.1866 94.9789 97.1866H105.498V109.059L98.2156 111.622C97.5744 111.882 97.0531 112.371 96.7538 112.995C96.4544 113.619 96.3986 114.332 96.5973 114.995C96.7708 115.503 97.0975 115.944 97.5323 116.258C97.967 116.572 98.4885 116.744 99.0248 116.749C99.3015 116.77 99.5792 116.724 99.834 116.614L107.926 113.646L116.018 116.614C116.346 116.734 116.696 116.787 117.045 116.771C117.395 116.755 117.737 116.67 118.054 116.52C118.37 116.37 118.654 116.16 118.888 115.9C119.122 115.64 119.302 115.336 119.418 115.005C119.534 114.675 119.584 114.325 119.564 113.976C119.543 113.626 119.454 113.284 119.301 112.97C119.148 112.655 118.933 112.374 118.671 112.143C118.408 111.911 118.102 111.734 117.771 111.622L110.488 109.059V97.1866H120.603C121.397 97.1963 122.166 96.9126 122.763 96.3897C123.361 95.8668 123.744 95.1416 123.84 94.3534L128.02 55.4984C128.109 54.6577 127.861 53.8161 127.33 53.1584C126.799 52.5007 126.029 52.0807 125.188 51.9907Z" fill="currentColor"/>
<path d="M95.5186 74.1164V69.7992C95.5241 69.7091 95.5104 69.619 95.4785 69.5346C95.4465 69.4503 95.3971 69.3737 95.3333 69.3099C95.2696 69.2462 95.193 69.1967 95.1087 69.1647C95.0244 69.1328 94.9342 69.1191 94.8443 69.1246H33.0769C32.9869 69.1191 32.8968 69.1328 32.8124 69.1647C32.7281 69.1967 32.6516 69.2462 32.5878 69.3099C32.5241 69.3737 32.4746 69.4503 32.4426 69.5346C32.4107 69.619 32.397 69.7091 32.4026 69.7992V74.1164C32.397 74.2064 32.4107 74.2966 32.4426 74.3809C32.4746 74.4653 32.5241 74.5419 32.5878 74.6056C32.6516 74.6694 32.7281 74.7189 32.8124 74.7509C32.8968 74.7828 32.9869 74.7965 33.0769 74.791H55.1945V115.67C55.1889 115.76 55.2026 115.85 55.2345 115.934C55.2665 116.018 55.3159 116.095 55.3797 116.159C55.4435 116.223 55.52 116.272 55.6043 116.304C55.6886 116.336 55.7788 116.35 55.8688 116.344H72.0524C72.1423 116.35 72.2325 116.336 72.3168 116.304C72.4011 116.272 72.4777 116.223 72.5414 116.159C72.6052 116.095 72.6547 116.018 72.6866 115.934C72.7185 115.85 72.7322 115.76 72.7267 115.67V74.9259H94.8443C95.0399 74.9054 95.2198 74.8093 95.3458 74.6581C95.4717 74.507 95.5337 74.3126 95.5186 74.1164Z" fill="currentColor"/>
<path d="M41.042 58.875H85.9587L63.5003 20.0834L41.042 58.875ZM65.542 52.75H61.4587V48.6667H65.542V52.75ZM65.542 44.5834H61.4587V36.4167H65.542V44.5834Z" fill="currentColor"/>
</g>
<defs>
<clipPath id="clip0">
<rect width="128.03" height="116.141" fill="currentColor" transform="translate(0 0.858643)"/>
</clipPath>
</defs>
</svg>
