<svg width="227" height="232" viewBox="0 0 227 232" fill="none" xmlns="http://www.w3.org/2000/svg">
<path fill-rule="evenodd" clip-rule="evenodd" d="M88.8698 37.4859C116.53 27.7251 147.578 12.8322 172.079 28.9196C197.33 45.4995 198.735 80.2027 199.845 110.352C200.954 140.477 202.119 175.202 178.139 193.547C154.901 211.324 123.114 197.845 94.7112 190.779C69.3316 184.466 41.7232 178.92 28.596 156.346C14.9774 132.927 17.5304 103.3 29.7861 79.1318C41.2401 56.5445 64.9547 45.925 88.8698 37.4859Z" fill="#ECFDF5"/>
<ellipse rx="33.4729" ry="5.44188" transform="matrix(1 0 0 -1 118.17 150.276)" fill="#E0EFE3"/>
<path fill-rule="evenodd" clip-rule="evenodd" d="M117.783 56.4648C91.4836 56.4648 70.1641 77.7562 70.1641 104.021C70.1641 130.285 91.4836 151.576 117.783 151.576C144.082 151.576 165.401 130.285 165.401 104.021C165.401 77.7562 144.082 56.4648 117.783 56.4648Z" fill="#3AA537"/>
<g filter="url(#filter0_d_181_3226)">
<path fill-rule="evenodd" clip-rule="evenodd" d="M111.94 120.921C111.277 120.929 110.611 120.68 110.105 120.175L98.1339 108.22C97.1377 107.225 97.1377 105.612 98.1339 104.617L99.3364 103.416C100.333 102.421 101.948 102.421 102.944 103.416L111.903 112.362L136.236 87.9723C137.232 86.9773 138.847 86.9773 139.844 87.9723L141.046 89.1732C142.042 90.1681 142.042 91.7812 141.046 92.7762L116.716 117.169L116.719 117.173L114.932 118.958L113.718 120.175C113.226 120.666 112.584 120.914 111.94 120.921Z" fill="white"/>
</g>
<path opacity="0.163388" fill-rule="evenodd" clip-rule="evenodd" d="M176.037 126.437H162.397C160.688 126.437 159.289 125.04 159.289 123.332V109.706C159.289 107.998 160.688 106.601 162.397 106.601H176.037C177.746 106.601 179.145 107.998 179.145 109.706V123.332C179.145 125.04 177.746 126.437 176.037 126.437Z" fill="#3AA537"/>
<path fill-rule="evenodd" clip-rule="evenodd" d="M52.9162 114.637H46.8654C46.1026 114.637 45.4785 113.973 45.4785 113.161V106.644C45.4785 105.832 46.1026 105.168 46.8654 105.168H52.9162C53.679 105.168 54.3032 105.832 54.3032 106.644V113.161C54.3032 113.973 53.679 114.637 52.9162 114.637Z" fill="#9FC69E"/>
<path fill-rule="evenodd" clip-rule="evenodd" d="M176.121 152.15C175.358 152.15 174.734 151.532 174.734 150.776V144.709C174.734 143.953 175.358 143.334 176.121 143.334H182.172C182.935 143.334 183.559 143.953 183.559 144.709V150.776C183.559 151.532 182.935 152.15 182.172 152.15H176.121Z" fill="#9FC69E"/>
<path opacity="0.49707" fill-rule="evenodd" clip-rule="evenodd" d="M41.7409 86.1232C39.6985 86.1232 38.0273 84.4543 38.0273 82.4145V66.1374C38.0273 64.0976 39.6985 62.4287 41.7409 62.4287H58.0395C60.082 62.4287 61.7531 64.0976 61.7531 66.1374V82.4145C61.7531 84.4543 60.082 86.1232 58.0395 86.1232H41.7409Z" fill="#3AA537"/>
<path fill-rule="evenodd" clip-rule="evenodd" d="M164.936 152.736C165.433 153.025 165.433 153.741 164.936 154.03L163.094 155.101C163.034 155.137 162.991 155.196 162.976 155.264L162.525 157.345C162.403 157.906 161.721 158.127 161.293 157.745L159.703 156.326C159.651 156.28 159.581 156.257 159.511 156.264L157.391 156.478C156.819 156.536 156.398 155.957 156.629 155.432L157.489 153.484C157.517 153.42 157.517 153.347 157.489 153.282L156.629 151.334C156.398 150.809 156.819 150.23 157.391 150.288L159.511 150.502C159.581 150.509 159.651 150.487 159.703 150.44L161.293 149.022C161.721 148.639 162.403 148.861 162.525 149.421L162.976 151.502C162.991 151.57 163.034 151.63 163.094 151.665L164.936 152.736ZM164.685 153.599C164.85 153.502 164.85 153.264 164.685 153.167L162.843 152.096C162.661 151.99 162.532 151.813 162.487 151.608L162.036 149.527C161.996 149.34 161.768 149.266 161.626 149.394L160.036 150.812C159.879 150.952 159.67 151.02 159.461 150.999L157.34 150.784C157.15 150.765 157.009 150.958 157.086 151.133L157.946 153.081C158.031 153.274 158.031 153.493 157.946 153.685L157.086 155.633C157.009 155.808 157.15 156.001 157.34 155.982L159.461 155.767C159.67 155.746 159.879 155.814 160.036 155.954L161.626 157.372C161.768 157.5 161.996 157.426 162.036 157.239L162.487 155.159C162.532 154.953 162.661 154.776 162.843 154.67L164.685 153.599Z" fill="#292F5B" fill-opacity="0.51"/>
<path opacity="0.796364" fill-rule="evenodd" clip-rule="evenodd" d="M205.524 38.8609C204.973 39.0232 204.451 38.5315 204.582 37.9728L205.65 33.4022C205.666 33.334 205.652 33.2622 205.612 33.2044L202.955 29.3333C202.631 28.8601 202.938 28.2129 203.51 28.1642L208.193 27.7659C208.262 27.76 208.327 27.725 208.369 27.6694L211.235 23.9494C211.585 23.4947 212.296 23.5863 212.52 24.115L214.346 28.4394C214.373 28.504 214.426 28.5541 214.492 28.5776L218.92 30.1496C219.462 30.3418 219.594 31.0456 219.16 31.4211L215.606 34.492C215.553 34.5378 215.522 34.6038 215.52 34.6738L215.391 39.3654C215.375 39.9389 214.746 40.2823 214.254 39.9857L210.231 37.5591C210.171 37.5229 210.099 37.5136 210.032 37.5334L205.524 38.8609ZM205.069 38.0862C205.025 38.2724 205.199 38.4363 205.383 38.3822L209.89 37.0547C210.092 36.9953 210.31 37.0233 210.49 37.132L214.512 39.5585C214.676 39.6574 214.886 39.5429 214.891 39.3517L215.02 34.6602C215.026 34.4501 215.12 34.2521 215.279 34.1146L218.833 31.0436C218.978 30.9185 218.934 30.6839 218.753 30.6198L214.325 29.0478C214.127 28.9774 213.967 28.827 213.885 28.6334L212.059 24.3089C211.985 24.1327 211.748 24.1021 211.631 24.2537L208.766 27.9737C208.637 28.1403 208.445 28.2454 208.235 28.2632L203.552 28.6614C203.362 28.6777 203.259 28.8934 203.368 29.0512L206.025 32.9223C206.144 33.0956 206.184 33.3109 206.136 33.5156L205.069 38.0862Z" fill="#292F5B" fill-opacity="0.51"/>
<path opacity="0.73011" fill-rule="evenodd" clip-rule="evenodd" d="M45.8527 25.6894C45.7162 26.2467 45.0285 26.4499 44.6104 26.0564L42.1509 23.7414C42.0998 23.6934 42.0309 23.669 41.9609 23.6742L38.5906 23.9249C38.0177 23.9676 37.6117 23.3772 37.8572 22.8585L39.3017 19.807C39.3317 19.7437 39.3336 19.6707 39.307 19.6058L38.0267 16.4821C37.8091 15.9512 38.2459 15.3831 38.8157 15.456L42.168 15.8851C42.2376 15.894 42.3077 15.8732 42.3613 15.828L44.9404 13.6467C45.3788 13.2759 46.0547 13.5152 46.1614 14.079L46.7887 17.3956C46.8017 17.4644 46.8431 17.5246 46.9028 17.5615L49.7771 19.3371C50.2656 19.6389 50.2466 20.3548 49.7427 20.6303L46.7781 22.2511C46.7166 22.2847 46.672 22.3427 46.6554 22.4107L45.8527 25.6894ZM44.9532 25.6932C45.0925 25.8243 45.3218 25.7566 45.3672 25.5708L46.17 22.2922C46.2199 22.088 46.3536 21.9142 46.5381 21.8133L49.5027 20.1926C49.6707 20.1007 49.677 19.8621 49.5142 19.7615L46.6399 17.9859C46.4609 17.8753 46.3368 17.6947 46.2977 17.4882L45.6703 14.1716C45.6348 13.9837 45.4095 13.9039 45.2633 14.0275L42.6842 16.2088C42.5236 16.3446 42.3133 16.4068 42.1045 16.3801L38.7522 15.951C38.5623 15.9267 38.4167 16.1161 38.4892 16.2931L39.7695 19.4168C39.8492 19.6113 39.8434 19.8303 39.7535 20.0203L38.309 23.0718C38.2271 23.2447 38.3625 23.4415 38.5534 23.4273L41.9238 23.1765C42.1337 23.1609 42.3404 23.2341 42.4936 23.3783L44.9532 25.6932Z" fill="#292F5B" fill-opacity="0.51"/>
<path opacity="0.902331" d="M105.983 199.655C105.695 199.907 105.241 199.755 105.164 199.381L104.21 194.785C104.181 194.648 104.096 194.529 103.976 194.458L99.9358 192.06C99.6065 191.864 99.6107 191.387 99.9434 191.197L104.025 188.871C104.147 188.802 104.234 188.684 104.265 188.548L105.3 183.969C105.384 183.596 105.84 183.453 106.124 183.71L109.6 186.868C109.704 186.962 109.843 187.009 109.982 186.996L114.662 186.564C115.043 186.529 115.321 186.918 115.163 187.266L113.23 191.544C113.173 191.672 113.171 191.818 113.227 191.947L115.084 196.258C115.235 196.61 114.951 196.993 114.57 196.952L109.899 196.438C109.759 196.422 109.62 196.466 109.515 196.559L105.983 199.655Z" fill="#292F5B" fill-opacity="0.51"/>
<path opacity="0.370759" d="M148.418 4.791C148.784 4.90628 148.889 5.37212 148.608 5.63247L146.559 7.53358C146.456 7.62895 146.398 7.76307 146.4 7.90318L146.422 10.6961C146.425 11.0786 146.014 11.3222 145.679 11.1362L143.236 9.77762C143.113 9.70947 142.967 9.69592 142.834 9.74028L140.181 10.6246C139.818 10.7457 139.459 10.4304 139.533 10.0551L140.072 7.31436C140.099 7.17687 140.066 7.03437 139.983 6.92168L138.321 4.67529C138.094 4.36766 138.283 3.92919 138.663 3.88327L141.44 3.54794C141.579 3.53112 141.705 3.4566 141.786 3.34259L143.412 1.06992C143.635 0.758695 144.111 0.802991 144.272 1.14994L145.449 3.68342C145.508 3.81052 145.618 3.90696 145.752 3.94919L148.418 4.791Z" fill="#292F5B" fill-opacity="0.51"/>
<path opacity="0.806242" d="M95.832 34.0384C95.501 33.8459 95.501 33.3684 95.8319 33.1759L99.8928 30.8136C100.014 30.7431 100.1 30.6249 100.13 30.488L101.124 25.901C101.205 25.5271 101.66 25.3796 101.945 25.6344L105.45 28.7614C105.555 28.8548 105.694 28.8999 105.833 28.8858L110.509 28.4129C110.89 28.3743 111.171 28.7606 111.017 29.1106L109.122 33.4055C109.065 33.5337 109.065 33.6798 109.122 33.808L111.017 38.1028C111.171 38.4528 110.89 38.8391 110.509 38.8005L105.834 38.3279C105.694 38.3138 105.555 38.3589 105.45 38.4523L101.946 41.5795C101.66 41.8344 101.206 41.6868 101.125 41.313L100.13 36.726C100.1 36.5891 100.014 36.4709 99.8929 36.4004L95.832 34.0384Z" fill="#292F5B" fill-opacity="0.51"/>
<path opacity="0.547916" d="M205.574 122.742C205.527 122.362 205.907 122.073 206.261 122.22L210.602 124.017C210.732 124.07 210.878 124.067 211.005 124.008L215.263 122.021C215.61 121.859 216.003 122.131 215.972 122.512L215.603 127.191C215.592 127.33 215.64 127.468 215.736 127.571L218.944 131C219.205 131.28 219.068 131.737 218.695 131.826L214.125 132.921C213.989 132.954 213.872 133.042 213.804 133.165L211.53 137.272C211.344 137.606 210.866 137.617 210.666 137.291L208.212 133.288C208.138 133.169 208.018 133.086 207.88 133.059L203.266 132.168C202.89 132.095 202.733 131.644 202.981 131.353L206.034 127.785C206.126 127.679 206.168 127.539 206.15 127.4L205.574 122.742Z" fill="#292F5B" fill-opacity="0.51"/>
<path opacity="0.392959" d="M8.19886 125.833C7.85362 125.667 7.81557 125.191 8.13013 124.973L11.9899 122.296C12.1052 122.216 12.1814 122.091 12.2001 121.952L12.8261 117.301C12.8771 116.922 13.3186 116.739 13.6236 116.97L17.3661 119.809C17.4778 119.893 17.62 119.927 17.7581 119.902L22.3812 119.059C22.7579 118.991 23.0689 119.353 22.9428 119.715L21.396 124.146C21.3498 124.279 21.3614 124.424 21.428 124.548L23.6593 128.678C23.8412 129.015 23.5918 129.422 23.2089 129.414L18.5104 129.314C18.3702 129.311 18.2351 129.367 18.1383 129.469L14.8942 132.865C14.6298 133.141 14.1648 133.03 14.0542 132.664L12.6972 128.171C12.6567 128.037 12.5616 127.926 12.4351 127.865L8.19886 125.833Z" fill="#292F5B" fill-opacity="0.51"/>
<defs>
<filter id="filter0_d_181_3226" x="89.3867" y="83.2261" width="60.4062" height="49.6953" filterUnits="userSpaceOnUse" color-interpolation-filters="sRGB">
<feFlood flood-opacity="0" result="BackgroundImageFix"/>
<feColorMatrix in="SourceAlpha" type="matrix" values="0 0 0 0 0 0 0 0 0 0 0 0 0 0 0 0 0 0 127 0" result="hardAlpha"/>
<feOffset dy="4"/>
<feGaussianBlur stdDeviation="4"/>
<feColorMatrix type="matrix" values="0 0 0 0 0 0 0 0 0 0 0 0 0 0 0 0 0 0 0.1 0"/>
<feBlend mode="normal" in2="BackgroundImageFix" result="effect1_dropShadow_181_3226"/>
<feBlend mode="normal" in="SourceGraphic" in2="effect1_dropShadow_181_3226" result="shape"/>
</filter>
</defs>
</svg>
