<svg width="1268" height="1196" viewBox="0 0 1268 1196" fill="none" xmlns="http://www.w3.org/2000/svg">
<path fill-rule="evenodd" clip-rule="evenodd" d="M532.792 0.997928C727.734 -15.8972 857.325 185.195 975.03 341.773C1087.01 490.734 1218.43 661.147 1162.82 839.102C1109.5 1009.7 900.278 1048.74 733.888 1113.35C591.661 1168.59 444.338 1230.53 303.019 1173.01C151.791 1111.45 30.1944 977.385 3.54261 816.06C-21.6575 663.522 92.9611 540.533 177.119 410.926C280.797 251.259 343.356 17.4158 532.792 0.997928Z" fill="#F6F6FA"/>
<path fill-rule="evenodd" clip-rule="evenodd" d="M1004.74 304.601H138.16V235.07C138.16 219.988 150.423 207.759 165.548 207.759H977.35C992.477 207.759 1004.74 219.988 1004.74 235.07V304.601Z" fill="#8AA0C9"/>
<path fill-rule="evenodd" clip-rule="evenodd" d="M974.239 972.727H168.661C151.818 972.727 138.161 960.516 138.161 945.452V296.034H1004.74V945.452C1004.74 960.516 991.084 972.727 974.239 972.727Z" fill="#E4EBF7"/>
<path fill-rule="evenodd" clip-rule="evenodd" d="M201.006 252.827C201.006 262.293 193.358 269.967 183.923 269.967C174.49 269.967 166.843 262.293 166.843 252.827C166.843 243.361 174.49 235.687 183.923 235.687C193.358 235.687 201.006 243.361 201.006 252.827Z" fill="#A3B5D6"/>
<path fill-rule="evenodd" clip-rule="evenodd" d="M264.797 252.827C264.797 262.293 257.15 269.967 247.715 269.967C238.282 269.967 230.635 262.293 230.635 252.827C230.635 243.361 238.282 235.687 247.715 235.687C257.15 235.687 264.797 243.361 264.797 252.827Z" fill="#E4EBF7"/>
<path fill-rule="evenodd" clip-rule="evenodd" d="M328.588 252.827C328.588 262.293 320.941 269.967 311.507 269.967C302.074 269.967 294.427 262.293 294.427 252.827C294.427 243.361 302.074 235.687 311.507 235.687C320.941 235.687 328.588 243.361 328.588 252.827Z" fill="#E4EBF7"/>
<path d="M943.998 426.09H198.903V917.86H943.998V426.09Z" fill="white"/>
<path d="M943.998 356.998H198.903V385.448H943.998V356.998Z" fill="white"/>
<path d="M840.727 507.373H302.173C294.34 507.373 287.99 513.723 287.99 521.556V521.639C287.99 529.472 294.34 535.823 302.173 535.823H840.727C848.56 535.823 854.91 529.472 854.91 521.639V521.556C854.91 513.723 848.56 507.373 840.727 507.373Z" fill="#CCD7EE"/>
<path d="M638.255 580.529H302.173C294.34 580.529 287.99 586.879 287.99 594.713V594.795C287.99 602.629 294.34 608.979 302.173 608.979H638.255C646.089 608.979 652.439 602.629 652.439 594.795V594.713C652.439 586.879 646.089 580.529 638.255 580.529Z" fill="#CCD7EE"/>
<path d="M678.75 649.621H302.173C294.34 649.621 287.99 655.971 287.99 663.805V663.887C287.99 671.721 294.34 678.071 302.173 678.071H678.75C686.583 678.071 692.933 671.721 692.933 663.887V663.805C692.933 655.971 686.583 649.621 678.75 649.621Z" fill="#CCD7EE"/>
<path d="M506.641 749.195H312.304C298.876 749.195 287.99 760.081 287.99 773.51V840.711C287.99 854.14 298.876 865.026 312.304 865.026H506.641C520.07 865.026 530.956 854.14 530.956 840.711V773.51C530.956 760.081 520.07 749.195 506.641 749.195Z" fill="#A3B5D6"/>
<path d="M830.596 749.195H636.259C622.83 749.195 611.945 760.081 611.945 773.51V840.711C611.945 854.14 622.83 865.026 636.259 865.026H830.596C844.024 865.026 854.91 854.14 854.91 840.711V773.51C854.91 760.081 844.024 749.195 830.596 749.195Z" fill="#CCD7EE"/>
<path fill-rule="evenodd" clip-rule="evenodd" d="M1234.24 391.567C1241.25 413.03 1238.37 435.251 1225.45 457.642C1214.89 475.927 1201.21 488.426 1185.36 495.196C1179.63 497.361 1163.58 501.032 1136.83 505.99C1126.67 508.083 1117.78 511.411 1110.54 516.188C1102.13 521.282 1095.52 528.414 1090.14 537.744L1085.02 546.599C1082.89 550.298 1078.16 551.566 1074.46 549.431L1047.93 534.112C1044.23 531.976 1042.96 527.245 1045.09 523.546L1050.21 514.69C1058.18 500.883 1067.31 490.234 1077.77 483.333C1089.02 475.901 1112.04 468.788 1147.02 461.621L1157.46 458.194C1169.13 453.488 1177.66 446.472 1183.26 436.769C1190.8 423.709 1192.89 411.478 1190.11 399.921C1186.95 388.149 1178.66 378.385 1165.23 370.628C1148.43 360.934 1133.1 359.048 1119.61 365.188C1109.28 369.601 1099.69 378.579 1091.14 391.63C1088.9 395.044 1084.36 396.089 1080.83 394.048L1054.66 378.938C1050.84 376.732 1049.61 371.761 1052.01 368.06C1067.07 344.877 1085.82 330.421 1108.72 324.573C1133.66 317.576 1159.83 322.235 1187.07 337.963C1211.33 351.967 1227.07 369.514 1234.24 391.567Z" fill="#4E5C93"/>
<path fill-rule="evenodd" clip-rule="evenodd" d="M1029.38 604.414L1019.49 598.709C1011.31 593.983 1008.51 583.517 1013.23 575.332L1018.94 565.452C1023.66 557.266 1034.13 554.462 1042.31 559.188L1052.19 564.892C1060.38 569.618 1063.18 580.084 1058.46 588.269L1052.75 598.15C1048.03 606.335 1037.56 609.14 1029.38 604.414Z" fill="#4E5C93"/>
<circle cx="851.5" cy="795.5" r="161.5" fill="white"/>
<path fill-rule="evenodd" clip-rule="evenodd" d="M744 788C744 730.01 791.01 683 849 683C906.99 683 954 730.01 954 788C954 845.99 906.99 893 849 893C791.01 893 744 845.99 744 788Z" fill="#E4EBF7"/>
<path fill-rule="evenodd" clip-rule="evenodd" d="M1123.79 1047.81L1106.72 1064.89L970.084 928.254L987.161 911.177L1123.79 1047.81Z" fill="#A3B5D6"/>
<path fill-rule="evenodd" clip-rule="evenodd" d="M1000.12 787.26C1000.12 872.289 931.194 941.216 846.166 941.216C761.139 941.216 692.21 872.289 692.21 787.26C692.21 702.233 761.139 633.304 846.166 633.304C931.194 633.304 1000.12 702.233 1000.12 787.26ZM640.891 787.26C640.891 900.631 732.796 992.535 846.166 992.535C959.536 992.535 1051.44 900.631 1051.44 787.26C1051.44 673.89 959.536 581.985 846.166 581.985C732.796 581.985 640.891 673.89 640.891 787.26Z" fill="#8AA0C9"/>
<path fill-rule="evenodd" clip-rule="evenodd" d="M906.541 787.26C906.541 820.605 879.511 847.635 846.166 847.635C812.822 847.635 785.791 820.605 785.791 787.26C785.791 753.915 812.822 726.885 846.166 726.885C879.511 726.885 906.541 753.915 906.541 787.26Z" fill="white"/>
<path fill-rule="evenodd" clip-rule="evenodd" d="M1189.97 1113.99L1172.9 1131.07C1168.18 1135.78 1160.54 1135.78 1155.82 1131.07L1035.85 1011.1C1031.13 1006.38 1031.13 998.735 1035.85 994.019C1035.85 994.019 1035.85 994.019 1035.85 994.019L1052.93 976.943C1057.64 972.227 1065.29 972.227 1070 976.943L1189.97 1096.91C1194.69 1101.63 1194.69 1109.28 1189.97 1113.99C1189.97 1113.99 1189.97 1113.99 1189.97 1113.99Z" fill="#8AA0C9"/>
<path fill-rule="evenodd" clip-rule="evenodd" d="M850 704C804.16 704 767 741.16 767 787C767 832.84 804.16 870 850 870C895.84 870 933 832.84 933 787C933 741.16 895.84 704 850 704Z" fill="#4E5C93"/>
<path fill-rule="evenodd" clip-rule="evenodd" d="M877.677 812.548L875.548 814.677C873.784 816.441 870.925 816.441 869.161 814.677L822.323 767.839C820.559 766.075 820.559 763.216 822.323 761.452L824.452 759.323C826.216 757.559 829.075 757.559 830.839 759.323L877.677 806.161C879.441 807.925 879.441 810.784 877.677 812.548Z" fill="white"/>
<path fill-rule="evenodd" clip-rule="evenodd" d="M822.689 812.841L824.818 814.97C826.582 816.734 829.441 816.734 831.205 814.97L878.043 768.132C879.807 766.368 879.807 763.509 878.043 761.745L875.915 759.616C874.151 757.852 871.291 757.852 869.527 759.616L822.689 806.454C820.925 808.218 820.925 811.077 822.689 812.841Z" fill="white"/>
</svg>