<svg width="129" height="117" viewBox="0 0 129 117" fill="none" xmlns="http://www.w3.org/2000/svg">
<g clip-path="url(#clip0)">
<path d="M29.7316 77.5781C29.1922 71.6419 28.6527 64.7613 28.2481 60.8489C28.6527 61.2536 29.1922 61.6583 29.5968 62.0631C32.9684 65.0312 38.9023 65.5708 42.9482 65.5708C44.8363 65.5708 46.3198 65.4359 46.9941 65.4359C48.0088 65.3405 48.9445 64.8473 49.597 64.0641C50.2494 63.2809 50.5656 62.2713 50.4766 61.2557C50.3875 60.2401 49.9004 59.301 49.1216 58.6434C48.3428 57.9858 47.3356 57.6631 46.3198 57.7459C42.6785 58.1506 36.6097 57.7459 34.8564 56.2618C30.5021 52.1921 24.7668 49.926 18.8077 49.9209C12.4691 49.9209 11.2554 52.7541 11.2554 56.1269C11.2554 60.7139 12.7389 80.5462 13.6829 84.8634C14.627 88.641 24.0674 87.9664 28.6527 87.8315C32.711 87.6529 36.7769 87.8789 40.7904 88.506C40.9217 96.0702 40.6516 103.636 39.9812 111.171C39.8928 112.491 40.3224 113.793 41.1786 114.801C42.0349 115.809 43.2504 116.443 44.5666 116.568H44.9712C46.2268 116.57 47.4371 116.099 48.3616 115.249C49.2862 114.399 49.8572 113.233 49.9611 111.981C51.1749 95.9263 51.1749 86.2125 49.8263 83.2444C47.8033 79.0621 42.5437 77.8479 29.7316 77.5781Z" fill="currentColor" fill-opacity="0.61"/>
<path d="M18.6731 47.8973C24.1104 47.8973 28.5182 43.4879 28.5182 38.0486C28.5182 32.6093 24.1104 28.2 18.6731 28.2C13.2359 28.2 8.82812 32.6093 8.82812 38.0486C8.82812 43.4879 13.2359 47.8973 18.6731 47.8973Z" fill="currentColor" fill-opacity="0.61"/>
<path d="M33.9124 90.5297H11.1205L7.34436 54.5079C7.31145 54.0871 7.19307 53.6775 6.99647 53.3041C6.79987 52.9306 6.52919 52.6012 6.20097 52.336C5.87275 52.0708 5.49389 51.8754 5.08758 51.7617C4.68127 51.648 4.25605 51.6184 3.83791 51.6747C3.41729 51.7077 3.0078 51.8261 2.6345 52.0228C2.2612 52.2194 1.93192 52.4902 1.66682 52.8186C1.40172 53.1469 1.20637 53.5259 1.0927 53.9323C0.979044 54.3388 0.949468 54.7642 1.00579 55.1825L5.18655 94.0374C5.28222 94.8257 5.66551 95.5508 6.26287 96.0737C6.86023 96.5966 7.62957 96.8804 8.42327 96.8706H18.4031V108.743L10.9857 111.576C10.6542 111.688 10.3483 111.865 10.0857 112.096C9.82309 112.328 9.60895 112.609 9.45571 112.924C9.30246 113.238 9.21316 113.58 9.19297 113.93C9.17278 114.279 9.22211 114.629 9.3381 114.959C9.45408 115.289 9.63442 115.593 9.86866 115.853C10.1029 116.113 10.3864 116.324 10.7027 116.474C11.019 116.624 11.3619 116.709 11.7114 116.725C12.0609 116.741 12.4102 116.688 12.7389 116.568L20.8307 113.6L28.9225 116.568H29.8665C30.4028 116.563 30.9243 116.391 31.3591 116.077C31.7938 115.763 32.1205 115.322 32.2941 114.814C32.5235 114.152 32.4822 113.426 32.1791 112.794C31.876 112.163 31.3356 111.676 30.6757 111.441L23.3931 108.878V97.0055H33.9124C34.7673 96.994 35.5839 96.6492 36.1884 96.0444C36.7929 95.4397 37.1376 94.6228 37.1491 93.7676C37.1548 93.3408 37.0749 92.9173 36.9142 92.5219C36.7535 92.1265 36.5153 91.7673 36.2136 91.4655C35.912 91.1637 35.5529 90.9254 35.1577 90.7647C34.7624 90.604 34.339 90.5241 33.9124 90.5297Z" fill="currentColor" fill-opacity="0.61"/>
<path d="M89.206 88.5061C93.2205 87.8881 97.2855 87.6622 101.344 87.8315C105.929 87.9664 115.37 88.641 116.314 84.8634C117.392 80.5462 118.741 60.714 118.741 56.1269C118.741 52.7541 117.662 49.9209 111.189 49.9209C105.213 49.8372 99.4458 52.1159 95.14 56.2618C93.3868 57.7459 87.4528 58.0157 83.6766 57.7459C83.1702 57.6982 82.6592 57.7513 82.1733 57.9019C81.6874 58.0526 81.236 58.2978 80.8452 58.6237C80.4544 58.9495 80.1319 59.3494 79.8961 59.8004C79.6604 60.2514 79.5162 60.7445 79.4717 61.2515C79.4273 61.7585 79.4835 62.2692 79.6371 62.7544C79.7907 63.2396 80.0388 63.6895 80.3669 64.0784C80.695 64.4673 81.0968 64.7875 81.5491 65.0205C82.0014 65.2534 82.4953 65.3946 83.0023 65.4359C83.6766 65.4359 85.1601 65.5709 87.0482 65.5709C91.0941 65.5709 97.0281 65.0312 100.4 62.0631C100.879 61.6925 101.33 61.2867 101.748 60.8489C101.344 64.7614 100.804 71.507 100.265 77.5781C87.4528 77.8479 82.1932 79.0622 80.3051 83.2445C78.9564 86.2126 78.8216 95.9263 80.1702 111.981C80.2956 113.224 80.8731 114.378 81.793 115.224C82.7128 116.07 83.911 116.548 85.1601 116.568H85.5647C86.8809 116.443 88.0964 115.809 88.9527 114.801C89.809 113.793 90.2385 112.491 90.1501 111.171C89.3797 103.642 89.0644 96.0733 89.206 88.5061Z" fill="currentColor" fill-opacity="0.61"/>
<path d="M111.216 47.9107C116.653 47.9107 121.061 43.5013 121.061 38.062C121.061 32.6228 116.653 28.2134 111.216 28.2134C105.779 28.2134 101.371 32.6228 101.371 38.062C101.371 43.5013 105.779 47.9107 111.216 47.9107Z" fill="currentColor" fill-opacity="0.61"/>
<path d="M126.159 51.6748C125.319 51.586 124.477 51.8344 123.82 52.3656C123.162 52.8968 122.743 53.6673 122.653 54.5079L118.876 90.3948H95.9496C95.0912 90.3948 94.2679 90.736 93.6609 91.3432C93.0539 91.9504 92.7129 92.774 92.7129 93.6327C92.7129 94.4915 93.0539 95.3151 93.6609 95.9223C94.2679 96.5295 95.0912 96.8706 95.9496 96.8706H106.469V108.743L99.1863 111.306C98.5451 111.566 98.0238 112.056 97.7245 112.679C97.4251 113.303 97.3693 114.016 97.568 114.679C97.7415 115.187 98.0682 115.628 98.503 115.942C98.9377 116.256 99.4592 116.428 99.9955 116.433C100.272 116.454 100.55 116.408 100.805 116.298L108.896 113.33L116.988 116.298C117.317 116.418 117.666 116.471 118.016 116.455C118.365 116.439 118.708 116.354 119.024 116.204C119.341 116.055 119.624 115.844 119.859 115.584C120.093 115.324 120.273 115.02 120.389 114.689C120.505 114.359 120.554 114.009 120.534 113.66C120.514 113.31 120.425 112.968 120.271 112.654C120.118 112.339 119.904 112.058 119.641 111.827C119.379 111.595 119.073 111.419 118.742 111.306L111.459 108.743V96.8706H121.574C122.367 96.8804 123.137 96.5966 123.734 96.0738C124.331 95.5509 124.715 94.8257 124.81 94.0375L128.991 55.1825C129.08 54.3418 128.832 53.5002 128.301 52.8425C127.77 52.1848 126.999 51.7648 126.159 51.6748Z" fill="currentColor" fill-opacity="0.61"/>
<path d="M96.4888 73.8005V69.4833C96.4943 69.3932 96.4806 69.3031 96.4487 69.2187C96.4168 69.1344 96.3673 69.0578 96.3035 68.994C96.2398 68.9302 96.1632 68.8807 96.0789 68.8488C95.9946 68.8168 95.9045 68.8032 95.8145 68.8087H34.0471C33.9571 68.8032 33.867 68.8168 33.7827 68.8488C33.6983 68.8807 33.6218 68.9302 33.558 68.994C33.4943 69.0578 33.4448 69.1344 33.4129 69.2187C33.3809 69.3031 33.3673 69.3932 33.3728 69.4833V73.8005C33.3673 73.8905 33.3809 73.9807 33.4129 74.065C33.4448 74.1494 33.4943 74.2259 33.558 74.2897C33.6218 74.3535 33.6983 74.403 33.7827 74.4349C33.867 74.4669 33.9571 74.4806 34.0471 74.475H56.1647V115.354C56.1592 115.444 56.1728 115.534 56.2048 115.618C56.2367 115.703 56.2862 115.779 56.3499 115.843C56.4137 115.907 56.4902 115.956 56.5745 115.988C56.6589 116.02 56.749 116.034 56.839 116.028H73.0226C73.1126 116.034 73.2027 116.02 73.287 115.988C73.3713 115.956 73.4479 115.907 73.5116 115.843C73.5754 115.779 73.6249 115.703 73.6568 115.618C73.6887 115.534 73.7024 115.444 73.6969 115.354V74.61H95.8145C96.0101 74.5895 96.19 74.4934 96.316 74.3422C96.4419 74.191 96.5039 73.9967 96.4888 73.8005Z" fill="currentColor" fill-opacity="0.61"/>
</g>
<defs>
<clipPath id="clip0">
<rect width="128.03" height="116.141" fill="currentColor" transform="translate(0.970703 0.542725)"/>
</clipPath>
</defs>
</svg>
