<svg width="129" height="117" viewBox="0 0 129 117" fill="none" xmlns="http://www.w3.org/2000/svg">
<g clip-path="url(#clip0)">
<path d="M32.9422 90.8456H10.1503L6.37414 54.8238C6.34123 54.4031 6.22286 53.9934 6.02626 53.62C5.82966 53.2465 5.55897 52.9171 5.23075 52.6519C4.90253 52.3867 4.52368 52.1913 4.11737 52.0776C3.71106 51.9639 3.28583 51.9343 2.8677 51.9907C2.44708 52.0236 2.03759 52.142 1.66428 52.3387C1.29098 52.5353 0.961708 52.8061 0.696607 53.1345C0.431506 53.4628 0.236151 53.8418 0.12249 54.2483C0.00882954 54.6547 -0.0207468 55.0801 0.0355704 55.4984L4.21633 94.3534C4.312 95.1416 4.69529 95.8668 5.29265 96.3896C5.89001 96.9125 6.65936 97.1963 7.45305 97.1865H17.4329V109.059L10.0155 111.892C9.68401 112.004 9.37812 112.181 9.1155 112.412C8.85287 112.644 8.63873 112.925 8.48549 113.239C8.33225 113.554 8.24295 113.896 8.22276 114.246C8.20257 114.595 8.2519 114.945 8.36788 115.275C8.48387 115.605 8.6642 115.909 8.89844 116.169C9.13268 116.429 9.41617 116.64 9.73249 116.79C10.0488 116.94 10.3916 117.025 10.7412 117.041C11.0907 117.057 11.4399 117.004 11.7687 116.884L19.8605 113.916L27.9523 116.884H28.8963C29.4326 116.879 29.9541 116.707 30.3889 116.393C30.8236 116.079 31.1503 115.638 31.3238 115.13C31.5533 114.468 31.512 113.742 31.2089 113.11C30.9058 112.478 30.3654 111.992 29.7055 111.757L22.4229 109.194V97.3214H32.9422C33.7971 97.3099 34.6137 96.9651 35.2182 96.3603C35.8227 95.7556 36.1674 94.9387 36.1789 94.0835C36.1845 93.6568 36.1047 93.2332 35.944 92.8378C35.7833 92.4424 35.5451 92.0833 35.2434 91.7815C34.9417 91.4797 34.5827 91.2414 34.1875 91.0806C33.7922 90.9199 33.3688 90.84 32.9422 90.8456Z" fill="currentColor"/>
<path d="M125.189 51.9907C124.348 51.9019 123.507 52.1503 122.85 52.6816C122.192 53.2128 121.772 53.9833 121.682 54.8239L117.906 90.7107H94.9794C94.121 90.7107 93.2977 91.0519 92.6907 91.6591C92.0837 92.2663 91.7427 93.0899 91.7427 93.9487C91.7427 94.8074 92.0837 95.631 92.6907 96.2382C93.2977 96.8454 94.121 97.1866 94.9794 97.1866H105.499V109.059L98.2161 111.622C97.5749 111.882 97.0536 112.371 96.7542 112.995C96.4549 113.619 96.3991 114.332 96.5978 114.995C96.7713 115.503 97.098 115.944 97.5327 116.258C97.9675 116.572 98.489 116.744 99.0253 116.749C99.302 116.77 99.5797 116.724 99.8345 116.614L107.926 113.646L116.018 116.614C116.347 116.734 116.696 116.787 117.046 116.771C117.395 116.755 117.738 116.67 118.054 116.52C118.371 116.37 118.654 116.16 118.888 115.9C119.123 115.64 119.303 115.336 119.419 115.005C119.535 114.675 119.584 114.325 119.564 113.976C119.544 113.626 119.455 113.284 119.301 112.97C119.148 112.655 118.934 112.374 118.671 112.143C118.409 111.911 118.103 111.734 117.771 111.622L110.489 109.059V97.1866H120.603C121.397 97.1963 122.166 96.9126 122.764 96.3897C123.361 95.8668 123.744 95.1416 123.84 94.3534L128.021 55.4984C128.11 54.6577 127.861 53.8161 127.33 53.1584C126.799 52.5007 126.029 52.0807 125.189 51.9907Z" fill="currentColor"/>
<path d="M95.5186 74.1164V69.7992C95.5241 69.7091 95.5104 69.619 95.4785 69.5346C95.4465 69.4503 95.3971 69.3737 95.3333 69.3099C95.2696 69.2462 95.193 69.1967 95.1087 69.1647C95.0244 69.1328 94.9342 69.1191 94.8443 69.1246H33.0769C32.9869 69.1191 32.8968 69.1328 32.8124 69.1647C32.7281 69.1967 32.6516 69.2462 32.5878 69.3099C32.5241 69.3737 32.4746 69.4503 32.4426 69.5346C32.4107 69.619 32.397 69.7091 32.4026 69.7992V74.1164C32.397 74.2064 32.4107 74.2966 32.4426 74.3809C32.4746 74.4653 32.5241 74.5419 32.5878 74.6056C32.6516 74.6694 32.7281 74.7189 32.8124 74.7509C32.8968 74.7828 32.9869 74.7965 33.0769 74.791H55.1945V115.67C55.1889 115.76 55.2026 115.85 55.2345 115.934C55.2665 116.018 55.3159 116.095 55.3797 116.159C55.4435 116.223 55.52 116.272 55.6043 116.304C55.6886 116.336 55.7788 116.35 55.8688 116.344H72.0524C72.1423 116.35 72.2325 116.336 72.3168 116.304C72.4011 116.272 72.4777 116.223 72.5414 116.159C72.6052 116.095 72.6547 116.018 72.6866 115.934C72.7185 115.85 72.7322 115.76 72.7267 115.67V74.9259H94.8443C95.0399 74.9054 95.2198 74.8093 95.3458 74.6581C95.4717 74.507 95.5337 74.3126 95.5186 74.1164Z" fill="currentColor"/>
</g>
<defs>
<clipPath id="clip0">
<rect width="128.03" height="116.141" fill="currentColor" transform="translate(0.000488281 0.858643)"/>
</clipPath>
</defs>
</svg>
