<svg xmlns="http://www.w3.org/2000/svg" viewBox="0 0 64 64" fill="none">
    <defs>
        <linearGradient id="bg" x1="10" y1="6" x2="54" y2="58" gradientUnits="userSpaceOnUse">
            <stop stop-color="#23C16B" />
            <stop offset="1" stop-color="#127E5C" />
        </linearGradient>
        <radialGradient id="sheen" cx="0" cy="0" r="1" gradientTransform="matrix(42 0 0 32 32 4)" gradientUnits="userSpaceOnUse">
            <stop stop-color="#FFF" stop-opacity=".3" />
            <stop offset="1" stop-color="#FFF" stop-opacity="0" />
        </radialGradient>
        <linearGradient id="depth" x1="32" y1="38" x2="32" y2="64" gradientUnits="userSpaceOnUse">
            <stop stop-color="#000" stop-opacity="0" />
            <stop offset="1" stop-color="#000" stop-opacity=".2" />
        </linearGradient>
        <filter id="lift" x="-20%" y="-20%" width="140%" height="140%">
            <feDropShadow dx="0" dy=".75" stdDeviation=".75" flood-color="#000" flood-opacity=".3" />
        </filter>
    </defs>
    <rect width="64" height="64" rx="15" fill="url(#bg)" />
    <rect width="64" height="64" rx="15" fill="url(#sheen)" />
    <rect width="64" height="64" rx="15" fill="url(#depth)" />
    <rect x=".5" y=".5" width="63" height="63" rx="14.5" stroke="#FFF" stroke-opacity=".2" />
    <g filter="url(#lift)" transform="matrix(1.1 0 0 1.1 -3.2 -3.2)">
        <path d="M24 28C24 23.582 27.582 20 32 20C36.418 20 40 23.582 40 28V31L43 36V38H21V36L24 31V28Z" stroke="#FFF" stroke-width="3.25" stroke-linejoin="round" />
        <path d="M29 42C29.782 43.846 30.782 45 32 45C33.218 45 34.218 43.846 35 42" stroke="#FFF" stroke-width="3.25" stroke-linecap="round" />
    </g>
</svg>
