<svg xmlns="http://www.w3.org/2000/svg" viewBox="0 0 64 64" fill="none">
    <defs>
        <linearGradient id="bg" x1="10" y1="8" x2="54" y2="56" gradientUnits="userSpaceOnUse">
            <stop stop-color="#23C16B" />
            <stop offset="1" stop-color="#127E5C" />
        </linearGradient>
    </defs>
    <rect width="64" height="64" rx="20" fill="#0A1020" />
    <rect x="1.5" y="1.5" width="61" height="61" rx="18.5" fill="url(#bg)" />
    <path d="M11 11H42" stroke="#FFF" stroke-opacity=".28" stroke-width="3" stroke-linecap="round" />
    <circle cx="49" cy="12.5" r="6.5" fill="#FFF" fill-opacity=".18" />
    <circle cx="49" cy="12.5" r="2.5" fill="#FFF" />
    <rect x="11" y="11" width="42" height="42" rx="14" fill="#FFF" fill-opacity=".12" />
    <path d="M24 28C24 23.582 27.582 20 32 20C36.418 20 40 23.582 40 28V31L43 36V38H21V36L24 31V28Z" stroke="#FFF" stroke-width="3.25" stroke-linejoin="round" />
    <path d="M29 42C29.782 43.846 30.782 45 32 45C33.218 45 34.218 43.846 35 42" stroke="#FFF" stroke-width="3.25" stroke-linecap="round" />
</svg>
