<svg width="512" height="512" viewBox="0 0 512 512" fill="none" xmlns="http://www.w3.org/2000/svg">
<path fill-rule="evenodd" clip-rule="evenodd" d="M511.998 265.272H485.365C477.328 265.272 471.49 267.191 467.355 270.175V265.272H427.961C421.662 265.272 414.267 266.829 410.77 270.175V265.272H340.423V270.175C334.825 266.148 325.378 265.272 321.018 265.272H274.617V270.175C270.188 265.898 260.338 265.272 254.335 265.272H202.404L190.52 278.094L179.39 265.272H101.817V349.047H177.93L190.175 336.022L201.71 349.047L248.627 349.089V329.381H253.24C259.465 329.477 266.807 329.228 273.284 326.436V349.045H311.982V327.211H313.849C316.231 327.211 316.466 327.308 316.466 329.682V349.043H434.023C441.487 349.043 449.288 347.139 453.608 343.682V349.043H490.897C498.656 349.043 506.234 347.959 512 345.182C512 -113.177 511.998 457.184 511.998 265.272Z" fill="#006FCF"/>
<path fill-rule="evenodd" clip-rule="evenodd" d="M24.5898 245.717L30.1339 232.385H42.5459L48.0755 245.717H96.4542V235.524L100.773 245.76H125.887L130.205 235.372V245.717H250.436L250.38 223.832H252.706C254.335 223.888 254.811 224.038 254.811 226.72V245.717H316.994V240.622C322.01 243.302 329.811 245.717 340.077 245.717H366.237L371.836 232.385H384.248L389.723 245.717H440.136V233.053L447.77 245.717H488.167V162H448.187V171.887L442.589 162H401.565V171.887L396.424 162H341.01C331.734 162 323.581 163.291 316.994 166.888V162H278.754V166.888C274.563 163.18 268.851 162 262.501 162H122.795L113.421 183.623L103.794 162H59.7902V171.887L54.9561 162H17.4277L0 201.804V245.717H24.5898Z" fill="#006FCF"/>
<path fill-rule="evenodd" clip-rule="evenodd" d="M253.877 317.028C266.456 317.028 278.937 313.585 278.937 296.907C278.937 280.279 266.106 277.127 254.685 277.127H208.702L190.397 296.807L172.691 277.127H114.812V337.166H171.814L190.23 317.291L207.95 337.166H235.921V317.028H253.877ZM235.921 304.835H254.518C260.048 304.835 263.487 302.099 263.487 296.907C263.487 291.657 259.881 289.546 254.685 289.546H235.921V304.835ZM164.529 324.655H129.147V312.709H160.741V300.459H129.147V289.544H165.226L180.967 307.04L164.529 324.655ZM221.588 331.706L199.493 307.25L221.588 283.571V331.706Z" fill="white"/>
<path fill-rule="evenodd" clip-rule="evenodd" d="M340.482 314.305C339.254 312.557 336.635 310.444 333.432 309.265C337.22 307.766 343.63 302.876 343.632 293.293C343.632 286.444 340.776 282.696 336.234 279.96C331.511 277.448 326.205 277.127 318.919 277.127H285.694V337.166H300.155V315.238H315.534C320.784 315.238 323.989 315.752 326.092 317.903C328.5 320.416 328.458 325.001 328.425 328.525C328.422 328.916 328.418 329.294 328.418 329.655V337.166H342.866V325.264C342.808 319.972 342.514 317.237 340.482 314.305ZM324.741 301.794C322.816 302.932 320.435 303.03 317.635 303.03H300.153V289.546H317.873C320.435 289.546 322.999 289.6 324.741 290.63C326.606 291.602 327.721 293.462 327.721 296.031C327.721 298.6 326.606 300.669 324.741 301.794Z" fill="white"/>
<path d="M454.596 305.501C457.398 308.392 458.9 312.042 458.9 318.222C458.9 331.138 450.806 337.166 436.293 337.166H408.264V324.292H436.18C438.91 324.292 440.846 323.932 442.059 322.806C443.048 321.877 443.758 320.528 443.758 318.89C443.758 317.141 442.99 315.752 442.002 314.919C440.902 314.003 439.384 313.587 436.878 313.587C435.996 313.557 435.101 313.532 434.196 313.508C421.285 313.158 406.566 312.759 406.566 295.004C406.566 286.295 412.054 277.129 427.141 277.129H455.991V289.907H429.592C426.975 289.907 425.274 290.005 423.826 290.992C422.25 291.964 421.665 293.407 421.665 295.312C421.665 297.577 423.004 299.117 424.814 299.784C426.332 300.31 427.963 300.464 430.415 300.464L438.162 300.672C445.974 300.863 451.336 302.21 454.596 305.501Z" fill="white"/>
<path d="M512 289.904H485.772C483.154 289.904 481.414 290.001 479.948 290.988C478.43 291.96 477.846 293.403 477.846 295.308C477.846 297.573 479.128 299.113 480.993 299.78C482.511 300.307 484.141 300.46 486.538 300.46L494.338 300.669C502.208 300.862 507.462 302.211 510.665 305.501C511.157 305.888 511.484 306.314 511.815 306.747L511.904 306.864L511.962 306.938L512 306.987V329.487C508.504 334.583 501.693 337.167 492.471 337.167H464.68V324.292H492.359C495.104 324.292 497.026 323.932 498.182 322.806C499.185 321.877 499.884 320.528 499.884 318.89C499.884 317.141 499.185 315.752 498.126 314.919C497.082 314.003 495.562 313.587 493.056 313.587C492.172 313.557 491.274 313.533 490.367 313.508C477.41 313.158 462.686 312.76 462.686 295.004C462.686 286.296 468.232 277.129 483.333 277.129H511.998L512 289.904Z" fill="white"/>
<path d="M351.612 277.127H399.642V289.543H365.943V300.459H398.819V312.709H365.943V324.654L399.642 324.709V337.166H351.612V277.127Z" fill="white"/>
<path fill-rule="evenodd" clip-rule="evenodd" d="M46.1524 207.937L36.3027 184.008L26.5093 207.937H46.1524ZM263.14 198.409C261.163 199.606 258.824 199.646 256.022 199.646H238.54V186.313H256.26C258.768 186.313 261.384 186.426 263.084 187.396C264.951 188.271 266.106 190.132 266.106 192.703C266.106 195.326 265.007 197.437 263.14 198.409ZM387.856 207.937L377.898 184.008L367.993 207.937H387.856ZM155.378 233.838H140.625L140.571 186.827L119.704 233.838H107.068L86.1468 186.785V233.838H56.8773L51.3478 220.45H21.3846L15.7987 233.838H0.168823L25.939 173.813H47.32L71.7954 230.645V173.813H95.2829L114.116 214.533L131.417 173.813H155.376V233.838H155.378ZM214.177 233.838H166.103V173.813H214.177V186.313H180.495V197.132H213.369V209.436H180.495V221.424H214.177V233.838ZM281.959 189.979C281.959 199.549 275.552 204.494 271.819 205.978C274.968 207.173 277.657 209.284 278.937 211.033C280.969 214.019 281.32 216.686 281.32 222.047V233.838H266.805L266.75 226.269C266.75 222.657 267.097 217.462 264.479 214.575C262.376 212.464 259.171 212.006 253.99 212.006H238.541V233.838H224.152V173.813H257.251C264.606 173.813 270.025 174.007 274.677 176.688C279.23 179.37 281.959 183.284 281.959 189.979ZM304.989 233.838H290.305V173.813H304.989V233.838ZM475.34 233.838H454.947L427.669 188.786V233.838H398.361L392.761 220.45H362.867L357.434 233.838H340.594C333.599 233.838 324.743 232.296 319.727 227.199C314.67 222.103 312.038 215.199 312.038 204.284C312.038 195.382 313.611 187.244 319.796 180.813C324.449 176.022 331.734 173.813 341.651 173.813H355.583V186.675H341.944C336.692 186.675 333.726 187.454 330.87 190.231C328.417 192.758 326.733 197.536 326.733 203.828C326.733 210.258 328.015 214.895 330.69 217.924C332.906 220.299 336.931 221.02 340.72 221.02H347.183L367.465 173.815H389.027L413.392 230.59V173.815H435.303L460.6 215.619V173.815H475.34V233.838Z" fill="white"/>
</svg>
