<svg width="42" height="42" viewBox="0 0 42 42" fill="none" xmlns="http://www.w3.org/2000/svg">
<g clip-path="url(#clip0_4089_51609)">
<path d="M23.5 19.705V10.5H28.75V17.5L32 17L32.25 8.75C32.25 7.7875 31.4625 7 30.5 7H23.5C23.5 6.0375 22.7125 5.25 21.75 5.25H9.5C8.5375 5.25 7.75 6.0375 7.75 7V33.25H6C5.0375 33.25 4.25 34.0375 4.25 35C4.25 35.9625 5.0375 36.75 6 36.75H20.455C19.0725 34.7725 18.25 32.3575 18.25 29.75C18.25 25.585 20.3325 21.9275 23.5 19.705ZM16.5 21C16.5 20.0375 17.2875 19.25 18.25 19.25C19.2125 19.25 20 20.0375 20 21C20 21.9625 19.2125 22.75 18.25 22.75C17.2875 22.75 16.5 21.9625 16.5 21Z" fill="#202A79"/>
<path d="M36.75 29.7325C36.75 29.3475 36.6975 28.9975 36.645 28.63L38.115 27.3525C38.43 27.0725 38.5 26.6175 38.29 26.25L37.2575 24.465C37.0475 24.0975 36.61 23.94 36.225 24.08L34.37 24.71C33.81 24.2375 33.18 23.87 32.48 23.6075L32.095 21.7C32.0075 21.2975 31.6575 21 31.2375 21H29.1725C28.7525 21 28.4025 21.2975 28.315 21.7L27.93 23.6075C27.23 23.87 26.6 24.2375 26.04 24.71L24.185 24.08C23.7825 23.94 23.3625 24.115 23.1525 24.465L22.12 26.25C21.91 26.6175 21.98 27.0725 22.295 27.3525L23.765 28.63C23.7125 28.9975 23.66 29.3475 23.66 29.7325C23.66 30.1175 23.7125 30.4675 23.765 30.835L22.295 32.1125C21.98 32.3925 21.91 32.8475 22.12 33.215L23.1525 35C23.3625 35.3675 23.8 35.525 24.185 35.385L26.04 34.755C26.6 35.2275 27.23 35.595 27.93 35.8575L28.315 37.765C28.4025 38.1675 28.7525 38.465 29.1725 38.465H31.2375C31.6575 38.465 32.0075 38.1675 32.095 37.765L32.48 35.8575C33.18 35.595 33.81 35.2275 34.37 34.755L36.225 35.385C36.6275 35.525 37.0475 35.35 37.2575 35L38.29 33.215C38.5 32.8475 38.43 32.3925 38.115 32.1125L36.645 30.835C36.6975 30.4675 36.75 30.1175 36.75 29.7325ZM30.1875 33.2325C28.2625 33.2325 26.6875 31.6575 26.6875 29.7325C26.6875 27.8075 28.2625 26.2325 30.1875 26.2325C32.1125 26.2325 33.6875 27.8075 33.6875 29.7325C33.6875 31.6575 32.1125 33.2325 30.1875 33.2325Z" fill="#5A629E"/>
<path d="M31.3444 17.4494C27.8709 17.5656 24.5067 18.9754 23.5 19.6945V7H31.5C32.3284 7 33 7.67157 33 8.5V15.8425C33 16.7299 32.2313 17.4197 31.3444 17.4494Z" fill="#7289E4"/>
<circle cx="18" cy="21" r="2" fill="#7289E4"/>
</g>
<defs>
<clipPath id="clip0_4089_51609">
<rect width="42" height="42" fill="white"/>
</clipPath>
</defs>
</svg>
