<svg width="35" height="27" viewBox="0 0 35 27" fill="none" xmlns="http://www.w3.org/2000/svg">
<g clip-path="url(#clip0_9_4189)">
<path d="M24.0532 2.46545H10.9552C7.29747 2.46545 6.82535 7.27833 6.11743 10.3305C13.6692 11.9742 21.2211 11.9742 28.891 10.3305C28.1831 7.63046 27.711 2.46545 24.0532 2.46545Z" fill="#606ABE"/>
<path d="M5.1732 14.9088C3.4029 14.7912 3.16709 17.961 5.29136 18.1955C15.793 19.487 7.29746 14.9088 5.1732 14.9088Z" fill="#7289E4"/>
<path d="M29.8348 14.9088C27.5929 14.9088 19.3327 19.487 29.7167 18.1955C31.8409 17.961 31.4865 14.7912 29.8348 14.9088Z" fill="#7289E4"/>
<path d="M33.2568 15.496C33.2568 14.5572 32.9029 13.5002 32.3131 12.6784L33.8466 12.4438C35.7346 12.2092 35.6164 6.92669 31.1326 9.62624C30.1889 5.51715 29.5986 0 24.0529 0H10.9548C5.52679 0 4.93702 5.51764 3.75699 9.62624C-0.609187 6.92669 -0.72734 12.2087 1.16061 12.4438L2.69461 12.6784C2.22249 13.5002 1.75038 14.5567 1.75038 15.496V23.2435H33.2568V15.496ZM5.29148 18.1956C3.16722 17.961 3.40353 14.7912 5.17333 14.9088C7.29759 14.9088 15.7931 19.4871 5.29148 18.1956ZM6.11806 10.3305C6.82598 7.27833 7.29809 2.46546 10.9558 2.46546H24.0534C27.7111 2.46546 28.1832 7.63047 28.8912 10.3305C21.2212 11.9742 13.6699 11.9742 6.11806 10.3305ZM29.7172 18.1956C19.3332 19.4871 27.593 14.9088 29.8354 14.9088C31.4875 14.7912 31.8415 17.961 29.7172 18.1956Z" fill="#303C9C"/>
<path d="M1.7511 25.2393C1.7511 26.2957 2.45902 27 3.5214 27H7.29731C8.24104 27 9.06711 26.2957 9.06711 25.2393V23.2435H1.7511V25.2393Z" fill="#202A79"/>
<path d="M25.941 23.2435V25.2393C25.941 26.2957 26.649 27 27.5932 27H31.3691C32.431 27 33.2571 26.2957 33.2571 25.2393V23.2435H25.941Z" fill="#202A79"/>
</g>
<defs>
<clipPath id="clip0_9_4189">
<rect width="35" height="27" fill="white"/>
</clipPath>
</defs>
</svg>
