<svg width="42" height="42" viewBox="0 0 42 42" fill="none" xmlns="http://www.w3.org/2000/svg">
<path d="M39.5111 28.1114H3.21479C2.38807 28.1114 1.72656 28.7533 1.72656 29.5557C1.72656 30.358 2.38807 31 3.21479 31H39.5111C40.3378 31 40.9993 30.358 40.9993 29.5557C40.9993 28.7936 40.3378 28.1114 39.5111 28.1114Z" fill="#202A79"/>
<path d="M17.7261 14.3822C12.3935 16.1074 8.54883 21.0019 8.54883 26.7792H11.732C11.732 21.7642 14.0469 17.3511 17.7261 14.3822Z" fill="#7289E4"/>
<path d="M23.4297 10.8113C23.7192 10.41 23.8844 9.92868 23.8844 9.44731C23.8844 8.08331 22.7682 7 21.3627 7H21.3616C22.7425 7.00057 23.8618 8.08711 23.8618 9.4274C23.8618 10.7677 22.7419 11.8548 21.3606 11.8548C19.9792 11.8548 18.8594 10.768 18.8594 9.4274C18.8594 8.12185 19.9215 7.05746 21.2528 7.00265C19.8995 7.05746 18.841 8.11913 18.841 9.44731C18.841 9.96894 19.0062 10.4103 19.2957 10.8113C11.1105 11.7741 4.74414 18.5545 4.74414 26.779H8.5474C8.5474 21.0018 12.3921 16.1073 17.7247 14.3821C14.0455 17.351 11.7305 21.7641 11.7305 26.779H37.9399C37.9399 18.5545 31.615 11.8143 23.4297 10.8113Z" fill="#303C9C"/>
<path d="M21.3617 8.09088C21.3255 8.09088 21.2897 8.09203 21.2539 8.09353C21.29 8.0921 21.3263 8.09095 21.3627 8.09088C21.3623 8.09088 21.362 8.09088 21.3617 8.09088Z" fill="#9B8181"/>
<path d="M18.8594 9.4274C18.8594 10.768 19.9792 11.8548 21.3606 11.8548C22.742 11.8548 23.8618 10.768 23.8618 9.4274C23.8618 8.08675 22.7426 7.00057 21.3617 7C21.3251 7 21.289 7.00115 21.2529 7.00265C19.9215 7.05746 18.8594 8.12185 18.8594 9.4274H18.8594Z" fill="#606ABE"/>
</svg>
