<svg width="1654" height="1430" viewBox="0 0 1654 1430" fill="none" xmlns="http://www.w3.org/2000/svg">
<path d="M1629.91 470.578C1748.41 860.886 1410.46 1271.32 1037.99 1389.59C663.06 1508.64 158.898 1361.58 30.0185 988.93C-104.896 598.821 235.539 146.801 639.917 31.992C1011.45 -73.4921 1512.61 84.207 1629.91 470.578Z" fill="#F6F6FA"/>
<path d="M1539.39 1296.73H381.309C335.835 1296.73 298.698 1257.07 298.698 1208.51V393.908C298.698 345.347 335.835 305.689 381.309 305.689H1539.39C1584.86 305.689 1622 345.347 1622 393.908V1208.11C1622 1257.07 1584.86 1296.73 1539.39 1296.73Z" fill="#E4EBF7"/>
<rect x="397.17" y="472.192" width="1146.89" height="729.923" fill="white"/>
<path d="M1330.98 857.628H592.757C581.404 857.628 572.201 866.831 572.201 878.184C572.201 889.537 581.404 898.74 592.757 898.74H1330.98C1342.33 898.74 1351.54 889.537 1351.54 878.184C1351.54 866.831 1342.33 857.628 1330.98 857.628Z" fill="#CCD7EE"/>
<path d="M1225.16 1048.38H601.917C592.332 1048.38 584.562 1057.92 584.562 1069.68C584.562 1081.45 592.332 1090.98 601.917 1090.98H1225.16C1234.74 1090.98 1242.51 1081.45 1242.51 1069.68C1242.51 1057.92 1234.74 1048.38 1225.16 1048.38Z" fill="#CCD7EE"/>
<path d="M1224.07 953.704H603.001C592.818 953.704 584.562 963.241 584.562 975.005C584.562 986.769 592.818 996.305 603.001 996.305H1224.07C1234.26 996.305 1242.51 986.769 1242.51 975.005C1242.51 963.241 1234.26 953.704 1224.07 953.704Z" fill="#CCD7EE"/>
<path d="M294.992 357.365C294.992 326.145 320.295 300.836 351.541 300.836H1564.36C1595.59 300.836 1620.91 326.138 1620.91 357.365V413.894H294.992V357.365Z" fill="#8AA0C9"/>
<path d="M372.139 383.058C385.86 383.058 396.983 372.129 396.983 358.648C396.983 345.166 385.86 334.237 372.139 334.237C358.417 334.237 347.294 345.166 347.294 358.648C347.294 372.129 358.417 383.058 372.139 383.058Z" fill="#A3B5D6"/>
<path d="M453.214 383.058C466.935 383.058 478.058 372.129 478.058 358.648C478.058 345.166 466.935 334.237 453.214 334.237C439.492 334.237 428.369 345.166 428.369 358.648C428.369 372.129 439.492 383.058 453.214 383.058Z" fill="#E4EBF7"/>
<path d="M536.898 383.058C550.619 383.058 561.742 372.129 561.742 358.648C561.742 345.166 550.619 334.237 536.898 334.237C523.177 334.237 512.053 345.166 512.053 358.648C512.053 372.129 523.177 383.058 536.898 383.058Z" fill="#E4EBF7"/>
<path d="M1071.96 655.484C1040.88 647.405 1030.88 639.053 1030.88 626.046C1030.88 611.122 1044.71 600.716 1067.85 600.716C1087.29 600.716 1097.01 608.11 1100.57 619.885C1102.22 625.362 1106.74 629.469 1112.49 629.469H1116.59C1125.63 629.469 1132.07 620.57 1128.92 612.081C1123.17 595.924 1109.75 582.506 1088.39 577.303V567.856C1088.39 556.492 1079.22 547.318 1067.85 547.318C1056.49 547.318 1047.31 556.492 1047.31 567.856V576.893C1020.75 582.643 999.392 599.895 999.392 626.32C999.392 657.948 1025.54 673.694 1063.74 682.867C1097.97 691.082 1104.82 703.131 1104.82 715.865C1104.82 725.312 1098.11 740.373 1067.85 740.373C1045.26 740.373 1033.62 732.295 1029.1 720.794C1027.05 715.454 1022.39 711.62 1016.78 711.62H1012.95C1003.77 711.62 997.338 720.93 1000.76 729.419C1008.57 748.451 1026.78 759.678 1047.31 764.06V773.233C1047.31 784.597 1056.49 793.771 1067.85 793.771C1079.22 793.771 1088.39 784.597 1088.39 773.233V764.334C1115.09 759.268 1136.31 743.796 1136.31 715.728C1136.31 676.843 1103.04 663.562 1071.96 655.484Z" fill="#CCD7EE"/>
<path fill-rule="evenodd" clip-rule="evenodd" d="M848.148 561.63C789.023 561.63 741.038 609.395 741.038 668.25C741.038 727.104 789.023 774.869 848.148 774.869C907.273 774.869 955.259 727.104 955.259 668.25C955.259 609.395 907.273 561.63 848.148 561.63ZM837.437 721.559V657.588H858.859V721.559H837.437ZM837.437 614.94V636.264H858.859V614.94H837.437Z" fill="#CCD7EE"/>
</svg>
