<svg width="37" height="33" viewBox="0 0 37 33" fill="none" xmlns="http://www.w3.org/2000/svg">
<g clip-path="url(#clip0_9_4244)">
<path d="M2.43396 32.3182C2.43396 32.5909 2.65193 32.8247 2.90622 32.8247H4.74078C4.99508 32.8247 5.21305 32.5909 5.21305 32.3182V14.0844H2.43396V32.3182Z" fill="#728AE4"/>
<path d="M31.8051 32.3182C31.8051 32.5909 32.023 32.8247 32.2773 32.8247H34.1119C34.3662 32.8247 34.5841 32.5909 34.5841 32.3182V14.0844H31.8051V32.3182Z" fill="#728AE4"/>
<path d="M25.6476 14.0844H11.1709V17.2987H25.6476V14.0844Z" fill="#303C9C"/>
<path d="M25.6476 2.51299C25.6476 1.12987 24.5941 0 23.3044 0H13.514C12.2244 0 11.1709 1.12987 11.1709 2.51299V10.8896H25.6476V2.51299Z" fill="#303C9C"/>
<path d="M36.5096 10.8896H0.490427C0.217968 10.8896 0 11.1234 0 11.4156V13.5584C0 13.8506 0.217968 14.0844 0.490427 14.0844H36.5096C36.782 14.0844 37 13.8506 37 13.5584V11.4156C37 11.1234 36.782 10.8896 36.5096 10.8896Z" fill="#728AE4"/>
<path d="M10.8438 17.2987C10.3897 17.2987 10.0083 17.6883 10.0083 18.1948V20.1818C10.0083 20.6688 10.3716 21.0779 10.8438 21.0779H26.2469C26.701 21.0779 27.0824 20.6883 27.0824 20.1818V18.1948C27.0824 17.7078 26.7191 17.2987 26.2469 17.2987H10.8438Z" fill="#202A79"/>
<path d="M11.6068 32.5325C11.6068 32.7857 11.8066 33 12.0427 33H12.624C12.8601 33 13.0599 32.7857 13.0599 32.5325V21.0779H11.625V32.5325H11.6068Z" fill="#202A79"/>
<path d="M24.1581 32.5325C24.1581 32.7857 24.3579 33 24.594 33H25.1753C25.4114 33 25.6112 32.7857 25.6112 32.5325V21.0779H24.1762V32.5325H24.1581Z" fill="#202A79"/>
</g>
<defs>
<clipPath id="clip0_9_4244">
<rect width="37" height="33" fill="white"/>
</clipPath>
</defs>
</svg>
