<svg width="35" height="35" viewBox="0 0 35 35" fill="none" xmlns="http://www.w3.org/2000/svg">
<path d="M7.74904 16.9994L0.915703 10.1661C0.756288 10.008 0.630737 9.81907 0.546703 9.61087C0.460435 9.40412 0.416016 9.18232 0.416016 8.95829C0.416016 8.73426 0.460435 8.51246 0.546703 8.30571C0.630737 8.09751 0.756288 7.9086 0.915703 7.7505L7.74904 0.917164C7.90662 0.754001 8.09513 0.623856 8.30355 0.534324C8.51198 0.444792 8.73614 0.397665 8.96298 0.395694C9.18981 0.393723 9.41476 0.436947 9.62471 0.522844C9.83466 0.60874 10.0254 0.735589 10.1858 0.895989C10.3462 1.05639 10.473 1.24713 10.5589 1.45708C10.6448 1.66702 10.6881 1.89198 10.6861 2.11881C10.6841 2.34564 10.637 2.56981 10.5475 2.77823C10.4579 2.98665 10.3278 3.17516 10.1646 3.33275L6.24741 7.24996H14.0835C14.5366 7.24996 14.9711 7.42994 15.2915 7.75032C15.6119 8.07069 15.7919 8.50521 15.7919 8.95829C15.7919 9.41137 15.6119 9.84589 15.2915 10.1663C14.9711 10.4866 14.5366 10.6666 14.0835 10.6666H6.24741L10.1646 14.5838C10.3278 14.7414 10.4579 14.9299 10.5475 15.1383C10.637 15.3468 10.6841 15.5709 10.6861 15.7978C10.6881 16.0246 10.6448 16.2496 10.5589 16.4595C10.473 16.6695 10.3462 16.8602 10.1858 17.0206C10.0254 17.181 9.83466 17.3078 9.62471 17.3937C9.41476 17.4796 9.18981 17.5229 8.96298 17.5209C8.73614 17.5189 8.51198 17.4718 8.30355 17.3823C8.09513 17.2927 7.90662 17.1626 7.74904 16.9994V16.9994ZM31.0866 13.1915C30.0508 12.6355 28.8897 12.3544 27.7143 12.375H19.2632V4.02291C19.259 3.52298 19.1556 3.02885 18.9591 2.56912C18.9386 2.51787 18.9164 2.47004 18.8942 2.4205C18.8323 2.28808 18.7621 2.1597 18.6841 2.03612C18.6448 1.97121 18.6055 1.90971 18.5628 1.84991C18.4688 1.71848 18.366 1.59349 18.2553 1.47579C18.2297 1.44846 18.2057 1.42112 18.1801 1.3955C17.7045 0.905413 17.0852 0.579345 16.412 0.464456C16.2195 0.432586 16.0246 0.416588 15.8295 0.416622H15.7919C15.703 0.416622 15.621 0.435414 15.5339 0.443956C14.6769 0.50604 13.875 0.88989 13.2892 1.51851C12.7033 2.14712 12.3768 2.97401 12.3752 3.83329V5.54162H14.0835C14.9897 5.54162 15.8587 5.90159 16.4995 6.54234C17.1402 7.18309 17.5002 8.05213 17.5002 8.95829C17.5002 9.86445 17.1402 10.7335 16.4995 11.3742C15.8587 12.015 14.9897 12.375 14.0835 12.375H12.3752C12.3752 12.375 12.4077 25.4915 12.4077 25.3156L9.8127 22.7377C9.23421 22.1359 8.46298 21.756 7.63328 21.6643C6.80359 21.5725 5.96798 21.7746 5.27195 22.2355C4.8662 22.523 4.5281 22.8956 4.28125 23.3273C4.03441 23.759 3.88478 24.2393 3.84281 24.7349C3.80084 25.2304 3.86754 25.7291 4.03826 26.1961C4.20897 26.6632 4.47959 27.0874 4.8312 27.439L10.0023 32.5914C11.2844 33.8684 13.0206 34.5847 14.8301 34.5833H25.198C27.0057 34.5834 28.7398 33.8671 30.0206 32.5914C32.0607 30.5575 33.385 27.916 33.7943 25.0645L34.5152 20.0402C34.7061 18.6856 34.4804 17.305 33.868 16.0817C33.2556 14.8584 32.2855 13.8504 31.0866 13.1915V13.1915Z" fill="#909090"/>
</svg>
