<svg width="256" height="237" viewBox="0 0 256 237" fill="none" xmlns="http://www.w3.org/2000/svg">
<path d="M189.343 53.3169C165.136 73.3171 113.441 58.066 90.6191 47.9404C12.9846 15.4131 8.09421 57.0805 8.09421 67.0268C8.09421 83.4601 28.1968 99.1376 22.7653 115.146C14.9966 138.042 -13.8764 170.437 8.09421 180.2C56.981 201.925 114.765 200.9 189.343 194.986C263.921 189.072 251.39 161.921 240.998 149.824C233.936 141.603 199.735 136.383 244.054 95.2529C280.638 61.3018 219.602 28.3165 189.343 53.3169Z" fill="#E5F3FC"/>
<ellipse cx="127.696" cy="167.635" rx="57.8049" ry="8.40798" fill="#D4E8F5"/>
<path fill-rule="evenodd" clip-rule="evenodd" d="M175.358 102.818C175.735 103.037 175.735 103.581 175.358 103.8L173.96 104.613C173.914 104.64 173.881 104.685 173.87 104.737L173.527 106.316C173.435 106.741 172.917 106.909 172.592 106.619L171.385 105.543C171.345 105.507 171.292 105.49 171.239 105.495L169.629 105.658C169.195 105.702 168.875 105.262 169.051 104.864L169.704 103.385C169.725 103.337 169.725 103.281 169.704 103.232L169.051 101.754C168.875 101.355 169.195 100.916 169.629 100.959L171.239 101.122C171.292 101.128 171.345 101.11 171.385 101.075L172.592 99.9985C172.917 99.7083 173.435 99.8763 173.527 100.302L173.87 101.881C173.881 101.933 173.914 101.978 173.96 102.005L175.358 102.818ZM175.167 103.472C175.293 103.399 175.293 103.218 175.167 103.145L173.769 102.332C173.631 102.252 173.533 102.117 173.499 101.961L173.156 100.382C173.126 100.24 172.953 100.184 172.845 100.281L171.638 101.357C171.519 101.464 171.36 101.515 171.201 101.499L169.591 101.336C169.446 101.322 169.34 101.468 169.398 101.601L170.051 103.08C170.115 103.226 170.115 103.392 170.051 103.538L169.398 105.017C169.34 105.149 169.446 105.296 169.591 105.281L171.201 105.119C171.36 105.102 171.519 105.154 171.638 105.26L172.845 106.337C172.953 106.433 173.126 106.377 173.156 106.236L173.499 104.656C173.533 104.501 173.631 104.366 173.769 104.286L175.167 103.472Z" fill="#292F5B" fill-opacity="0.51"/>
<path opacity="0.796364" fill-rule="evenodd" clip-rule="evenodd" d="M197.284 45.26C196.865 45.3832 196.469 45.01 196.569 44.586L197.379 41.1169C197.391 41.0652 197.381 41.0107 197.351 40.9668L195.334 38.0287C195.087 37.6695 195.32 37.1783 195.755 37.1413L199.31 36.839C199.363 36.8345 199.411 36.808 199.444 36.7658L201.619 33.9424C201.885 33.5972 202.425 33.6668 202.595 34.068L203.981 37.3502C204.002 37.3992 204.042 37.4373 204.093 37.4551L207.454 38.6482C207.865 38.7941 207.966 39.3283 207.636 39.6133L204.938 41.944C204.898 41.9788 204.874 42.0289 204.872 42.0821L204.775 45.6429C204.763 46.0782 204.285 46.3388 203.912 46.1137L200.858 44.272C200.812 44.2445 200.757 44.2374 200.706 44.2524L197.284 45.26ZM196.938 44.672C196.905 44.8134 197.037 44.9378 197.176 44.8967L200.599 43.8891C200.752 43.844 200.917 43.8653 201.054 43.9478L204.108 45.7895C204.232 45.8645 204.391 45.7776 204.395 45.6325L204.493 42.0717C204.498 41.9122 204.569 41.762 204.69 41.6576L207.388 39.3268C207.498 39.2318 207.464 39.0538 207.327 39.0051L203.965 37.812C203.815 37.7586 203.694 37.6444 203.632 37.4974L202.245 34.2152C202.189 34.0815 202.009 34.0583 201.92 34.1733L199.745 36.9968C199.647 37.1232 199.501 37.2029 199.342 37.2165L195.787 37.5187C195.642 37.531 195.564 37.6948 195.646 37.8145L197.664 40.7527C197.754 40.8842 197.785 41.0477 197.749 41.203L196.938 44.672Z" fill="#292F5B" fill-opacity="0.51"/>
<path opacity="0.73011" fill-rule="evenodd" clip-rule="evenodd" d="M76.0594 35.2625C75.9558 35.6855 75.4337 35.8397 75.1163 35.541L73.249 33.784C73.2102 33.7476 73.1579 33.729 73.1048 33.733L70.546 33.9233C70.111 33.9557 69.8028 33.5075 69.9892 33.1139L71.0859 30.7978C71.1086 30.7498 71.1101 30.6944 71.0899 30.6452L70.1179 28.2743C69.9527 27.8713 70.2843 27.4401 70.7169 27.4955L73.262 27.8211C73.3148 27.8279 73.3681 27.8122 73.4087 27.7778L75.3668 26.1222C75.6996 25.8408 76.2128 26.0224 76.2938 26.4503L76.77 28.9676C76.7799 29.0198 76.8114 29.0655 76.8567 29.0935L79.0388 30.4412C79.4097 30.6702 79.3953 31.2136 79.0127 31.4227L76.762 32.6529C76.7153 32.6784 76.6815 32.7224 76.6688 32.774L76.0594 35.2625ZM75.3765 35.2654C75.4823 35.3649 75.6563 35.3135 75.6908 35.1725L76.3003 32.6841C76.3382 32.5291 76.4397 32.3972 76.5798 32.3206L78.8305 31.0905C78.9581 31.0208 78.9629 30.8397 78.8392 30.7633L76.6571 29.4156C76.5212 29.3317 76.4269 29.1946 76.3972 29.0379L75.921 26.5206C75.894 26.378 75.7229 26.3175 75.612 26.4113L73.6539 28.0669C73.532 28.1699 73.3723 28.2171 73.2138 28.1968L70.6687 27.8712C70.5245 27.8528 70.414 27.9965 70.469 28.1308L71.441 30.5017C71.5016 30.6493 71.4971 30.8155 71.4289 30.9597L70.3322 33.2758C70.2701 33.407 70.3728 33.5564 70.5178 33.5456L73.0766 33.3553C73.2359 33.3434 73.3929 33.399 73.5092 33.5084L75.3765 35.2654Z" fill="#292F5B" fill-opacity="0.51"/>
<path opacity="0.370759" d="M153.929 19.4C154.206 19.4875 154.286 19.8411 154.073 20.0387L152.517 21.4816C152.439 21.554 152.395 21.6558 152.396 21.7621L152.413 23.8819C152.415 24.1722 152.103 24.3571 151.849 24.2159L149.994 23.1848C149.901 23.1331 149.79 23.1228 149.689 23.1564L147.675 23.8276C147.399 23.9195 147.127 23.6803 147.183 23.3954L147.592 21.3152C147.612 21.2108 147.588 21.1027 147.525 21.0172L146.263 19.3122C146.09 19.0787 146.234 18.7459 146.523 18.711L148.63 18.4565C148.736 18.4438 148.832 18.3872 148.894 18.3007L150.128 16.5757C150.297 16.3395 150.658 16.3731 150.781 16.6365L151.675 18.5594C151.719 18.6558 151.803 18.729 151.904 18.7611L153.929 19.4Z" fill="#292F5B" fill-opacity="0.51"/>
<path opacity="0.370759" d="M50.1593 158.132C50.4366 158.22 50.5162 158.573 50.3032 158.771L48.7477 160.214C48.6697 160.286 48.6257 160.388 48.6266 160.495L48.6435 162.614C48.6459 162.905 48.3337 163.09 48.0796 162.948L46.2245 161.917C46.1314 161.865 46.0208 161.855 45.9198 161.889L43.9058 162.56C43.63 162.652 43.3574 162.413 43.4134 162.128L43.8223 160.048C43.8428 159.943 43.8184 159.835 43.7552 159.75L42.4934 158.045C42.3206 157.811 42.4643 157.478 42.753 157.443L44.8609 157.189C44.9667 157.176 45.0622 157.12 45.1241 157.033L46.3583 155.308C46.5273 155.072 46.8888 155.106 47.0112 155.369L47.905 157.292C47.9498 157.388 48.0332 157.461 48.1348 157.493L50.1593 158.132Z" fill="#292F5B" fill-opacity="0.51"/>
<path opacity="0.806242" d="M114.005 41.5976C113.753 41.4515 113.753 41.0891 114.005 40.9429L117.088 39.15C117.18 39.0965 117.245 39.0068 117.267 38.9028L118.023 35.4213C118.084 35.1376 118.429 35.0256 118.646 35.219L121.307 37.5924C121.386 37.6632 121.492 37.6975 121.598 37.6868L125.147 37.3278C125.437 37.2986 125.65 37.5918 125.533 37.8574L124.094 41.1172C124.051 41.2145 124.051 41.3254 124.094 41.4227L125.533 44.6824C125.65 44.948 125.437 45.2412 125.148 45.212L121.598 44.8532C121.492 44.8425 121.386 44.8768 121.307 44.9477L118.646 47.3212C118.43 47.5146 118.084 47.4026 118.023 47.1189L117.268 43.6374C117.245 43.5335 117.18 43.4438 117.088 43.3903L114.005 41.5976Z" fill="#292F5B" fill-opacity="0.51"/>
<path opacity="0.547916" d="M197.32 108.922C197.284 108.634 197.573 108.414 197.842 108.526L201.138 109.89C201.236 109.93 201.347 109.928 201.444 109.883L204.676 108.375C204.939 108.252 205.238 108.458 205.215 108.747L204.934 112.299C204.926 112.405 204.962 112.509 205.035 112.587L207.47 115.19C207.669 115.402 207.564 115.749 207.282 115.817L203.812 116.648C203.709 116.673 203.62 116.74 203.569 116.833L201.842 119.95C201.701 120.204 201.338 120.212 201.186 119.964L199.323 116.927C199.267 116.836 199.176 116.773 199.071 116.753L195.568 116.076C195.283 116.021 195.163 115.679 195.352 115.458L197.67 112.75C197.739 112.669 197.771 112.563 197.758 112.457L197.32 108.922Z" fill="#292F5B" fill-opacity="0.51"/>
<path opacity="0.392959" d="M47.472 111.269C47.2099 111.143 47.181 110.782 47.4198 110.616L50.3502 108.584C50.4377 108.524 50.4956 108.429 50.5098 108.324L50.985 104.793C51.0237 104.506 51.3589 104.366 51.5905 104.542L54.4317 106.697C54.5166 106.761 54.6246 106.787 54.7293 106.768L58.2392 106.128C58.5253 106.076 58.7613 106.351 58.6656 106.625L57.4912 109.989C57.4562 110.089 57.465 110.2 57.5156 110.293L59.2096 113.428C59.3476 113.684 59.1583 113.993 58.8676 113.987L55.3005 113.911C55.1941 113.909 55.0915 113.952 55.018 114.029L52.5551 116.606C52.3543 116.816 52.0013 116.732 51.9173 116.454L50.8871 113.043C50.8564 112.941 50.7842 112.857 50.6881 112.811L47.472 111.269Z" fill="#292F5B" fill-opacity="0.51"/>
<path fill-rule="evenodd" clip-rule="evenodd" d="M37.1593 77.6008L43.1153 59.1066C42.7228 58.9306 42.4098 58.5859 42.2898 58.1379C42.078 57.3476 42.547 56.5353 43.3374 56.3235C44.1277 56.1117 44.94 56.5807 45.1518 57.3711C45.2942 57.9026 45.1287 58.4442 44.7646 58.8062L57.1139 74.2726C57.2599 74.1638 57.4286 74.0804 57.6152 74.0304C58.4055 73.8186 59.2179 74.2876 59.4296 75.0779C59.6414 75.8682 59.1724 76.6806 58.3821 76.8924C57.6205 77.0964 56.8385 76.6683 56.5931 75.9297L38.3345 78.9444C38.3855 79.6396 37.9381 80.2952 37.24 80.4823C36.4497 80.6941 35.6373 80.2251 35.4256 79.4347C35.2138 78.6444 35.6828 77.8321 36.4731 77.6203C36.7052 77.5581 36.9392 77.5546 37.1593 77.6008ZM44.1042 59.1855C44.1609 59.1703 44.2159 59.1521 44.2691 59.1309L49.3181 69.0257C48.8033 69.3682 48.5391 70.0126 48.708 70.6429C48.7448 70.7802 48.7997 70.9078 48.8694 71.0237L38.0045 78.1142C37.8517 77.9273 37.6559 77.7815 37.4364 77.6879L43.3907 59.199C43.6187 59.2514 43.8625 59.2503 44.1042 59.1855ZM49.0433 71.2571L38.1652 78.3562C38.2151 78.4503 38.2555 78.5512 38.2849 78.6581L56.5285 75.646C56.4936 75.3711 56.5376 75.1 56.6452 74.8587L51.24 71.251C51.0549 71.457 50.8099 71.6135 50.5224 71.6905C49.9689 71.8388 49.4046 71.6532 49.0433 71.2571ZM51.4123 71.0167L56.7893 74.6056C56.823 74.5579 56.8595 74.5121 56.8987 74.4686L44.5394 58.9898C44.5354 58.9924 44.5313 58.9951 44.5272 58.9977L49.5747 68.8895C49.6329 68.8656 49.6932 68.8452 49.7556 68.8285C50.5459 68.6167 51.3582 69.0857 51.57 69.8761C51.6777 70.2779 51.6094 70.6854 51.4123 71.0167Z" fill="#B0BFC9"/>
<path fill-rule="evenodd" clip-rule="evenodd" d="M108.656 78.4498C108.656 66.7828 118.114 57.3247 129.781 57.3247C141.448 57.3247 150.906 66.7828 150.906 78.4498V89.0353H161.469V78.4562C161.469 60.9647 147.289 46.7852 129.798 46.7852H129.798C112.306 46.7852 98.127 60.9647 98.127 78.4562V89.0353H108.656V78.4498Z" fill="#81AB81"/>
<path fill-rule="evenodd" clip-rule="evenodd" d="M175.35 153.045H84.2481C82.0694 153.045 80.2871 151.263 80.2871 149.084V90.9902C80.2871 88.8117 82.0694 87.0293 84.2481 87.0293H175.35C177.528 87.0293 179.311 88.8117 179.311 90.9902V149.084C179.311 151.263 177.528 153.045 175.35 153.045Z" fill="#AFD2AF"/>
<path fill-rule="evenodd" clip-rule="evenodd" d="M159.025 143.143H100.573C98.484 143.143 96.791 141.45 96.791 139.361V100.713C96.791 98.6246 98.484 96.9316 100.573 96.9316H159.025C161.114 96.9316 162.807 98.6246 162.807 100.713V139.361C162.807 141.45 161.114 143.143 159.025 143.143Z" fill="#C9E9C9"/>
<path fill-rule="evenodd" clip-rule="evenodd" d="M124.678 125.157C124.678 122.33 126.97 120.037 129.798 120.037C132.626 120.037 134.919 122.33 134.919 125.157C134.919 127.985 132.626 130.278 129.798 130.278C126.97 130.278 124.678 127.985 124.678 125.157Z" fill="#81AB81"/>
<path fill-rule="evenodd" clip-rule="evenodd" d="M129.799 109.795C131.212 109.795 132.359 110.941 132.359 112.355V125.034H127.238V112.355C127.238 110.941 128.385 109.795 129.799 109.795Z" fill="#81AB81"/>
<path fill-rule="evenodd" clip-rule="evenodd" d="M145.564 90.6482C145.564 102.983 155.564 112.982 167.898 112.982C180.233 112.982 190.232 102.983 190.232 90.6482C190.232 78.3136 180.233 68.3145 167.898 68.3145C155.564 68.3145 145.564 78.3136 145.564 90.6482Z" fill="#89C688"/>
<path d="M168.034 102.474C174.602 102.474 179.926 97.1292 179.926 90.5359C179.926 83.9426 174.602 78.5977 168.034 78.5977C161.467 78.5977 156.143 83.9426 156.143 90.5359C156.143 97.1292 161.467 102.474 168.034 102.474Z" fill="#3AA537"/>
<path fill-rule="evenodd" clip-rule="evenodd" d="M166.476 95.832C166.187 95.9398 165.848 95.8782 165.616 95.647L161.802 91.8592C161.485 91.544 161.485 91.0329 161.802 90.7176L162.185 90.3372C162.503 90.0219 163.017 90.0219 163.335 90.3372L166.188 93.1716L173.94 85.4435C174.257 85.1282 174.771 85.1282 175.089 85.4435L175.472 85.8239C175.789 86.1392 175.789 86.6502 175.472 86.9655L167.721 94.6945L167.722 94.6958L167.074 95.3399L166.767 95.6463C166.682 95.7309 166.582 95.7928 166.476 95.832Z" fill="white"/>
</svg>
