<svg width="133" height="114" viewBox="0 0 133 114" fill="none" xmlns="http://www.w3.org/2000/svg">
<path fill-rule="evenodd" clip-rule="evenodd" d="M105.429 56.4902C106.786 73.9464 110.576 94.1491 97.544 105.786C84.113 117.779 63.9241 113.221 46.4015 109.197C28.8931 105.177 8.72829 100.477 1.86377 83.8154C-4.78862 67.6686 7.86459 51.428 16.3052 36.1466C23.8474 22.4917 31.291 7.43312 46.3046 3.35691C61.8802 -0.871888 78.538 5.18258 90.5599 15.9864C101.795 26.0834 104.255 41.3976 105.429 56.4902Z" fill="#E2EAF0"/>
<mask id="mask0_1416_21428" style="mask-type:alpha" maskUnits="userSpaceOnUse" x="0" y="2" width="107" height="112">
<path fill-rule="evenodd" clip-rule="evenodd" d="M105.429 56.4902C106.786 73.9464 110.576 94.1491 97.544 105.786C84.113 117.779 63.9241 113.221 46.4015 109.197C28.8931 105.177 8.72829 100.477 1.86377 83.8154C-4.78862 67.6686 7.86459 51.428 16.3052 36.1466C23.8474 22.4917 31.291 7.43312 46.3046 3.35691C61.8802 -0.871888 78.538 5.18258 90.5599 15.9864C101.795 26.0834 104.255 41.3976 105.429 56.4902Z" fill="#E4EBF7"/>
</mask>
<g mask="url(#mask0_1416_21428)">
<path d="M72.234 97.0342V79.3093H42.6434V97.0342C11.3849 108.304 7.88403 116.339 7.88403 116.339H107C107 116.339 103.499 108.304 72.234 97.0342Z" fill="#8AA0C9"/>
<path d="M84 61.0209C84 57.4864 82.1811 54.4469 79.5719 53.0954C79.698 48.6306 79.5996 45.5021 79.5996 45.5021C79.5996 37.2095 74.933 29.9584 67.9706 26.0095V20C48.2838 20 41.9536 27.1358 41.9536 27.1358C36.0004 31.2529 32.1296 37.9437 32.1296 45.498C32.1296 45.498 32.0381 48.4763 32.1504 52.7686C29.1586 53.9046 27 57.1694 27 61.0209C27 65.5092 29.9322 69.2023 33.6935 69.6569C34.5364 74.301 35.8147 78.5141 37.7445 81.0836C43.5133 88.7658 50.509 92 55.8646 92C61.2202 92 68.2174 88.7658 73.9847 81.0836C75.9395 78.4877 77.2164 74.2176 78.0593 69.5179C81.4518 68.6975 84 65.2075 84 61.0209Z" fill="#A3B5D6"/>
</g>
<path d="M17.7952 32.8718H8.9983C8.29932 32.8718 7.73268 33.4384 7.73268 34.1374L7.73267 43.1805C7.73267 43.8795 8.29931 44.4462 8.99829 44.4462H17.7952C18.4942 44.4462 19.0608 43.8795 19.0608 43.1805V34.1374C19.0608 33.4384 18.4942 32.8718 17.7952 32.8718Z" fill="#D2DEFC"/>
<path d="M22.4251 48.2633H18.5535C17.8545 48.2633 17.2878 48.8299 17.2878 49.5289L17.2878 53.4005C17.2878 54.0995 17.8545 54.6661 18.5535 54.6661H22.4251C23.1241 54.6661 23.6907 54.0995 23.6907 53.4005V49.5289C23.6907 48.8299 23.1241 48.2633 22.4251 48.2633Z" fill="#A3B5D6"/>
<path d="M80.6641 89.0467L89.4609 89.0467C90.1599 89.0467 90.7266 88.4801 90.7266 87.7811L90.7266 78.7379C90.7266 78.0389 90.1599 77.4723 89.4609 77.4723L80.6641 77.4723C79.9651 77.4723 79.3984 78.0389 79.3984 78.7379L79.3984 87.7811C79.3984 88.4801 79.9651 89.0467 80.6641 89.0467Z" fill="#D2DEFC"/>
<path d="M92.1865 72.3237L96.0581 72.3237C96.7571 72.3237 97.3237 71.7571 97.3237 71.0581L97.3237 67.1865C97.3237 66.4875 96.7571 65.9209 96.0581 65.9209L92.1865 65.9209C91.4875 65.9209 90.9209 66.4875 90.9209 67.1865L90.9209 71.0581C90.9209 71.7571 91.4875 72.3237 92.1865 72.3237Z" fill="#A3B5D6"/>
<path d="M94.1865 8.32371L98.0581 8.32372C98.7571 8.32372 99.3237 7.75708 99.3237 7.05809L99.3237 3.18649C99.3237 2.4875 98.7571 1.92086 98.0581 1.92086L94.1865 1.92086C93.4875 1.92086 92.9209 2.4875 92.9209 3.18649L92.9209 7.05809C92.9209 7.75707 93.4875 8.32371 94.1865 8.32371Z" fill="#A3B5D6"/>
<circle cx="91.7669" cy="45.0838" r="17.0528" fill="white"/>
<path fill-rule="evenodd" clip-rule="evenodd" d="M80.416 44.2919C80.416 38.1688 85.3798 33.205 91.503 33.205C97.6261 33.205 102.59 38.1688 102.59 44.2919C102.59 50.4151 97.6261 55.3789 91.503 55.3789C85.3798 55.3789 80.416 50.4151 80.416 44.2919Z" fill="#E4EBF7"/>
<path fill-rule="evenodd" clip-rule="evenodd" d="M120.519 71.7254L118.716 73.5285L104.288 59.1014L106.091 57.2983L120.519 71.7254Z" fill="#A3B5D6"/>
<path fill-rule="evenodd" clip-rule="evenodd" d="M107.46 44.2137C107.46 53.1919 100.182 60.47 91.2038 60.47C82.2257 60.47 74.9476 53.1919 74.9476 44.2137C74.9476 35.2357 82.2257 27.9575 91.2038 27.9575C100.182 27.9575 107.46 35.2357 107.46 44.2137ZM69.5288 44.2137C69.5288 56.1845 79.233 65.8887 91.2038 65.8887C103.175 65.8887 112.879 56.1845 112.879 44.2137C112.879 32.243 103.175 22.5387 91.2038 22.5387C79.233 22.5387 69.5288 32.243 69.5288 44.2137Z" fill="#8AA0C9"/>
<path fill-rule="evenodd" clip-rule="evenodd" d="M97.5789 44.2137C97.5789 47.7346 94.7247 50.5887 91.2039 50.5887C87.683 50.5887 84.8289 47.7346 84.8289 44.2137C84.8289 40.6929 87.683 37.8387 91.2039 37.8387C94.7247 37.8387 97.5789 40.6929 97.5789 44.2137Z" fill="white"/>
<path fill-rule="evenodd" clip-rule="evenodd" d="M127.507 78.7133L125.704 80.5164C125.206 81.0143 124.398 81.0143 123.9 80.5164L111.233 67.8486C110.735 67.3507 110.735 66.5434 111.233 66.0455C111.233 66.0455 111.233 66.0455 111.233 66.0455L113.036 64.2424C113.534 63.7445 114.341 63.7445 114.839 64.2424L127.507 76.9102C128.005 77.4081 128.005 78.2154 127.507 78.7133C127.507 78.7133 127.507 78.7133 127.507 78.7133Z" fill="#8AA0C9"/>
<path fill-rule="evenodd" clip-rule="evenodd" d="M97.806 37.9893C94.3834 34.5667 88.8344 34.5667 85.4118 37.9893C81.9893 41.4118 81.9893 46.9609 85.4118 50.3834C88.8344 53.806 94.3834 53.8059 97.806 50.3834C101.229 46.9609 101.229 41.4118 97.806 37.9893Z" fill="#4E5C93"/>
<path fill-rule="evenodd" clip-rule="evenodd" d="M91.7678 48.1603L91.4499 48.1603C91.1866 48.1603 90.973 47.9468 90.973 47.6834L90.9731 40.6892C90.973 40.4258 91.1865 40.2123 91.4499 40.2123L91.7678 40.2123C92.0312 40.2123 92.2447 40.4258 92.2447 40.6892L92.2447 47.6834C92.2447 47.9468 92.0312 48.1603 91.7678 48.1603Z" fill="white"/>
<path fill-rule="evenodd" clip-rule="evenodd" d="M87.6403 44.0765L87.6403 44.3945C87.6403 44.6578 87.8538 44.8713 88.1172 44.8713L95.1114 44.8713C95.3747 44.8713 95.5882 44.6578 95.5882 44.3944L95.5883 44.0765C95.5882 43.8132 95.3747 43.5997 95.1114 43.5997L88.1171 43.5997C87.8538 43.5997 87.6403 43.8132 87.6403 44.0765Z" fill="white"/>
</svg>
