<svg width="113" height="114" viewBox="0 0 113 114" fill="none" xmlns="http://www.w3.org/2000/svg">
<path fill-rule="evenodd" clip-rule="evenodd" d="M105.429 56.4902C106.786 73.9464 110.576 94.1491 97.544 105.786C84.113 117.779 63.9241 113.221 46.4015 109.197C28.8931 105.177 8.72829 100.477 1.86377 83.8154C-4.78862 67.6686 7.86459 51.428 16.3052 36.1466C23.8474 22.4917 31.291 7.43312 46.3046 3.35691C61.8802 -0.871888 78.538 5.18258 90.5599 15.9864C101.795 26.0834 104.255 41.3976 105.429 56.4902Z" fill="#E2EAF0"/>
<mask id="mask0_2735_38184" style="mask-type:alpha" maskUnits="userSpaceOnUse" x="0" y="2" width="107" height="112">
<path fill-rule="evenodd" clip-rule="evenodd" d="M105.429 56.4902C106.786 73.9464 110.576 94.1491 97.544 105.786C84.113 117.779 63.9241 113.221 46.4015 109.197C28.8931 105.177 8.72829 100.477 1.86377 83.8154C-4.78862 67.6686 7.86459 51.428 16.3052 36.1466C23.8474 22.4917 31.291 7.43312 46.3046 3.35691C61.8802 -0.871888 78.538 5.18258 90.5599 15.9864C101.795 26.0834 104.255 41.3976 105.429 56.4902Z" fill="#E4EBF7"/>
</mask>
<g mask="url(#mask0_2735_38184)">
</g>
<path d="M17.7949 32.8718H8.99806C8.29907 32.8718 7.73243 33.4384 7.73243 34.1374L7.73242 43.1805C7.73242 43.8795 8.29906 44.4462 8.99805 44.4462H17.7949C18.4939 44.4462 19.0606 43.8795 19.0606 43.1805V34.1374C19.0606 33.4384 18.4939 32.8718 17.7949 32.8718Z" fill="#D2DEFC"/>
<path d="M22.4253 48.2633H18.5537C17.8547 48.2633 17.2881 48.8299 17.2881 49.5289L17.2881 53.4005C17.2881 54.0995 17.8547 54.6662 18.5537 54.6662H22.4253C23.1243 54.6662 23.6909 54.0995 23.6909 53.4005V49.5289C23.6909 48.8299 23.1243 48.2633 22.4253 48.2633Z" fill="#A3B5D6"/>
<path d="M80.6641 89.0467L89.4609 89.0467C90.1599 89.0467 90.7266 88.4801 90.7266 87.7811L90.7266 78.7379C90.7266 78.0389 90.1599 77.4723 89.4609 77.4723L80.6641 77.4723C79.9651 77.4723 79.3984 78.0389 79.3984 78.7379L79.3984 87.7811C79.3984 88.4801 79.9651 89.0467 80.6641 89.0467Z" fill="#D2DEFC"/>
<path d="M92.186 72.3237L96.0576 72.3237C96.7566 72.3237 97.3232 71.757 97.3232 71.0581L97.3232 67.1865C97.3232 66.4875 96.7566 65.9208 96.0576 65.9208L92.186 65.9208C91.487 65.9208 90.9204 66.4875 90.9204 67.1865L90.9204 71.0581C90.9204 71.757 91.487 72.3237 92.186 72.3237Z" fill="#A3B5D6"/>
<path d="M94.186 8.32368L98.0576 8.32368C98.7566 8.32368 99.3232 7.75705 99.3232 7.05806L99.3232 3.18646C99.3232 2.48747 98.7566 1.92083 98.0576 1.92083L94.186 1.92083C93.487 1.92083 92.9204 2.48747 92.9204 3.18646L92.9204 7.05806C92.9204 7.75704 93.487 8.32368 94.186 8.32368Z" fill="#A3B5D6"/>
<path d="M57.5 88L53.6575 84.4752C40.01 72.0049 31 63.7804 31 53.6866C31 45.4621 37.413 39 45.575 39C50.186 39 54.6115 41.1629 57.5 44.5809C60.3885 41.1629 64.814 39 69.425 39C77.587 39 84 45.4621 84 53.6866C84 63.7804 74.99 72.0049 61.3425 84.5019L57.5 88Z" fill="#8AA0C9"/>
</svg>
