<svg width="112" height="107" viewBox="0 0 112 107" fill="none" xmlns="http://www.w3.org/2000/svg">
<path fill-rule="evenodd" clip-rule="evenodd" d="M54.2432 1.57118C71.6204 0.213538 91.7315 -3.57613 103.316 9.45602C115.254 22.887 110.717 43.0759 106.711 60.5985C102.709 78.1069 98.0309 98.2717 81.4447 105.136C65.371 111.789 49.204 99.1354 33.9919 90.6948C20.3988 83.1526 5.40845 75.709 1.35072 60.6954C-2.85892 45.1198 3.16811 28.462 13.9229 16.4401C23.9742 5.20454 39.219 2.74499 54.2432 1.57118Z" fill="#E2EAF0"/>
<path d="M106.797 64.9375H96.2031C95.5042 64.9375 94.9375 65.5041 94.9375 66.2031L94.9375 76.7969C94.9375 77.4959 95.5041 78.0625 96.2031 78.0625H106.797C107.496 78.0625 108.063 77.4959 108.063 76.7969V66.2031C108.063 65.5041 107.496 64.9375 106.797 64.9375Z" fill="#D2DEFC"/>
<path d="M28.3122 16.4917H91.8901V69.4917L21.8901 67.2295L28.3122 16.4917Z" fill="white"/>
<path d="M34.1445 10.4917H89.3222V17.5534H32.0506L25.3099 63.4547H47.779C57.0877 73.0843 64.1494 68.5905 67.6803 63.4547H89.5074V28.8374H96.8901V80.4917C96.8901 84.91 93.3084 88.4917 88.8901 88.4917H26.8901C22.4719 88.4917 18.8901 84.91 18.8901 80.4917V62.1707L24.2208 19.2589C24.8429 14.2513 29.0984 10.4917 34.1445 10.4917Z" fill="#BBCBE7"/>
<path d="M99.4572 47.5515H96.8169C96.1179 47.5515 95.5513 48.1182 95.5513 48.8171L95.5513 51.4574C95.5513 52.1564 96.1179 52.7231 96.8169 52.7231H99.4572C100.156 52.7231 100.723 52.1564 100.723 51.4574V48.8171C100.723 48.1182 100.156 47.5515 99.4572 47.5515Z" fill="#889CBF"/>
<path d="M23.4609 32.4723H14.6641C13.9651 32.4723 13.3984 33.0389 13.3984 33.7379L13.3984 42.7811C13.3984 43.48 13.9651 44.0467 14.6641 44.0467H23.4609C24.1599 44.0467 24.7266 43.48 24.7266 42.7811V33.7379C24.7266 33.0389 24.1599 32.4723 23.4609 32.4723Z" fill="#D2DEFC"/>
<path d="M18.9815 50.3556H15.1099C14.4109 50.3556 13.8442 50.9222 13.8442 51.6212L13.8442 55.4928C13.8442 56.1918 14.4109 56.7584 15.1099 56.7584H18.9815C19.6805 56.7584 20.2471 56.1918 20.2471 55.4928V51.6212C20.2471 50.9222 19.6805 50.3556 18.9815 50.3556Z" fill="#889CBF"/>
<path fill-rule="evenodd" clip-rule="evenodd" d="M90 8C81.1634 8 74 15.1634 74 24C74 32.8365 81.1634 40 90 40C98.8366 40 106 32.8365 106 24C106 15.1634 98.8366 8 90 8Z" fill="#8DA4CD"/>
<path d="M91 30C89.9565 30 89.0608 29.7439 88.3131 29.2317C87.5695 28.7154 86.997 27.9716 86.5957 27.0005C86.1986 26.0252 86 24.8512 86 23.4785C86.0042 22.1058 86.2049 20.9379 86.602 19.9749C87.0034 19.0079 87.5758 18.2703 88.3194 17.7622C89.0672 17.2541 89.9607 17 91 17C92.0393 17 92.9328 17.2541 93.6806 17.7622C94.4284 18.2703 95.0008 19.0079 95.398 19.9749C95.7993 20.942 96 22.1099 96 23.4785C96 24.8553 95.7993 26.0314 95.398 27.0066C95.0008 27.9778 94.4284 28.7195 93.6806 29.2317C92.9371 29.7439 92.0435 30 91 30ZM91 28.0761C91.8112 28.0761 92.4512 27.6889 92.9202 26.9144C93.3933 26.1359 93.6299 24.9905 93.6299 23.4785C93.6299 22.4786 93.5222 21.6386 93.3067 20.9584C93.0913 20.2782 92.7871 19.766 92.3942 19.4217C92.0013 19.0734 91.5365 18.8993 91 18.8993C90.1931 18.8993 89.5551 19.2886 89.0862 20.0671C88.6172 20.8416 88.3807 21.9787 88.3764 23.4785C88.3722 24.4824 88.4757 25.3266 88.6869 26.0109C88.9024 26.6952 89.2066 27.2115 89.5995 27.5598C89.9924 27.904 90.4592 28.0761 91 28.0761Z" fill="white"/>
</svg>
