<svg width="1551" height="1478" viewBox="0 0 1551 1478" fill="none" xmlns="http://www.w3.org/2000/svg">
<path fill-rule="evenodd" clip-rule="evenodd" d="M751.039 58.1595C985.552 39.8758 1256.96 -11.1607 1413.29 164.347C1574.41 345.226 1513.18 617.116 1459.12 853.098C1405.11 1088.89 1341.98 1360.45 1118.14 1452.9C901.214 1542.49 683.032 1372.09 477.737 1258.41C294.293 1156.84 91.9898 1056.59 37.2286 854.403C-19.5825 644.641 61.7552 420.306 206.897 258.403C342.544 107.091 548.28 73.9675 751.039 58.1595Z" fill="#E4E7EF"/>
<path fill-rule="evenodd" clip-rule="evenodd" d="M687.5 954C522.638 954 389 820.358 389 655.5C389 490.642 522.638 357 687.5 357C852.358 357 986 490.642 986 655.5C986 820.358 852.358 954 687.5 954Z" fill="white"/>
<path d="M1319.18 327.713H986.582C977.558 327.713 970.243 335.028 970.243 344.052V808.872H1267.37C1267.37 858.773 1310.04 893.643 1360.02 893.385C1409.15 893.139 1449.33 851.496 1449.33 802.378V457.224H1362.61C1348.78 457.224 1319.18 426.943 1319.18 413.116V327.713Z" fill="white"/>
<path d="M1268.02 807.408H927.245C927.245 851.985 959.67 884.213 1002.21 891.355L1017.19 892.607L1358.65 891.927C1308.98 891.927 1266.76 853.783 1268.02 807.408Z" fill="#8AA0C9"/>
<path d="M1116.75 371.309H1042.36C1038.84 371.309 1035.99 374.161 1035.99 377.681V452.076C1035.99 455.595 1038.84 458.448 1042.36 458.448H1116.75C1120.27 458.448 1123.12 455.595 1123.12 452.076V377.681C1123.12 374.161 1120.27 371.309 1116.75 371.309Z" fill="#A3B5D6"/>
<path d="M1356.24 501.338H1042.21C1038.69 501.338 1035.84 504.191 1035.84 507.71V516.751C1035.84 520.27 1038.69 523.123 1042.21 523.123H1356.24C1359.76 523.123 1362.61 520.27 1362.61 516.751V507.71C1362.61 504.191 1359.76 501.338 1356.24 501.338Z" fill="#CCD7EE"/>
<path d="M1356.24 566.93H1042.21C1038.69 566.93 1035.84 569.783 1035.84 573.302V582.342C1035.84 585.862 1038.69 588.715 1042.21 588.715H1356.24C1359.76 588.715 1362.61 585.862 1362.61 582.342V573.302C1362.61 569.783 1359.76 566.93 1356.24 566.93Z" fill="#CCD7EE"/>
<path d="M1356.24 632.523H1042.21C1038.69 632.523 1035.84 635.376 1035.84 638.896V647.936C1035.84 651.455 1038.69 654.308 1042.21 654.308H1356.24C1359.76 654.308 1362.61 651.455 1362.61 647.936V638.896C1362.61 635.376 1359.76 632.523 1356.24 632.523Z" fill="#CCD7EE"/>
<path opacity="0.6" d="M1319.14 436.385V453.404C1319.14 457.061 1320.66 460.554 1323.34 463.042C1326.02 465.53 1329.62 466.789 1333.27 466.516L1449.78 457.85L1319.14 436.385Z" fill="#CCD7EE"/>
<path d="M1386.67 392.563L1319 327.297L1319.18 452.383C1319.18 455.391 1321.61 457.829 1324.62 457.829H1449.78L1386.67 392.563Z" fill="#CCD7EE"/>
<path fill-rule="evenodd" clip-rule="evenodd" d="M240.15 1144.02L209.815 1113.68L452.53 870.969L482.864 901.304L240.15 1144.02Z" fill="#A3B5D6"/>
<path fill-rule="evenodd" clip-rule="evenodd" d="M702.992 924.329C551.948 924.329 429.505 801.884 429.505 650.841C429.505 499.799 551.948 377.354 702.992 377.354C854.034 377.354 976.48 499.799 976.48 650.841C976.48 801.884 854.034 924.329 702.992 924.329ZM702.992 286.191C501.601 286.191 338.343 449.45 338.343 650.841C338.343 852.231 501.601 1015.49 702.992 1015.49C904.382 1015.49 1067.64 852.231 1067.64 650.841C1067.64 449.45 904.382 286.191 702.992 286.191Z" fill="#E12E40"/>
<path fill-rule="evenodd" clip-rule="evenodd" d="M509.658 650.841C509.658 544.067 596.217 457.508 702.993 457.508C809.767 457.508 896.325 544.067 896.325 650.841C896.325 757.616 809.767 844.175 702.993 844.175C596.217 844.175 509.658 757.616 509.658 650.841Z" fill="#FFE2E4"/>
<path fill-rule="evenodd" clip-rule="evenodd" d="M702.992 758.092C643.758 758.092 595.742 710.075 595.742 650.842C595.742 591.609 643.758 543.592 702.992 543.592C762.225 543.592 810.242 591.609 810.242 650.842C810.242 710.075 762.225 758.092 702.992 758.092Z" fill="white"/>
<path fill-rule="evenodd" clip-rule="evenodd" d="M122.588 1261.58L92.254 1231.24C83.8777 1222.87 83.8777 1209.29 92.2542 1200.91L305.37 987.792C313.747 979.416 327.328 979.416 335.705 987.792C335.705 987.792 335.705 987.792 335.705 987.792L366.04 1018.13C374.417 1026.5 374.417 1040.09 366.04 1048.46L152.923 1261.58C144.546 1269.96 130.965 1269.96 122.588 1261.58C122.588 1261.58 122.588 1261.58 122.588 1261.58Z" fill="#E12E40"/>
<path d="M935.922 1038.81H789.078C788.379 1038.81 787.812 1039.38 787.812 1040.08L787.812 1186.92C787.812 1187.62 788.379 1188.19 789.078 1188.19H935.922C936.621 1188.19 937.187 1187.62 937.187 1186.92V1040.08C937.187 1039.38 936.621 1038.81 935.922 1038.81Z" fill="white" fill-opacity="0.58"/>
<path d="M313.734 576H246.266C245.567 576 245 576.567 245 577.266L245 644.734C245 645.433 245.567 646 246.266 646H313.734C314.433 646 315 645.433 315 644.734V577.266C315 576.567 314.433 576 313.734 576Z" fill="white" fill-opacity="0.58"/>
<path d="M883.672 203.062H829.328C828.629 203.062 828.062 203.629 828.062 204.328L828.062 258.672C828.062 259.371 828.629 259.938 829.328 259.938H883.672C884.371 259.938 884.937 259.371 884.937 258.672V204.328C884.937 203.629 884.371 203.062 883.672 203.062Z" fill="white" fill-opacity="0.58"/>
<path fill-rule="evenodd" clip-rule="evenodd" d="M737.907 693.87L740.87 690.908C743.324 688.453 743.324 684.474 740.87 682.02L714.665 655.814L741.38 629.1C743.834 626.645 743.834 622.666 741.38 620.212L738.417 617.249C735.963 614.795 731.983 614.795 729.529 617.249L702.814 643.964L675.691 616.841C673.237 614.386 669.258 614.386 666.803 616.841L663.841 619.803C661.386 622.258 661.386 626.237 663.841 628.691L690.964 655.814L664.35 682.428C661.896 684.882 661.896 688.861 664.35 691.316L667.313 694.278C669.767 696.733 673.747 696.733 676.201 694.278L702.814 667.665L729.019 693.87C731.474 696.324 735.453 696.324 737.907 693.87Z" fill="#E12E40"/>
</svg>