<svg width="414" height="451" viewBox="0 0 414 451" fill="none" xmlns="http://www.w3.org/2000/svg">
<path d="M324.311 101.459C278.246 139.518 179.873 110.496 136.444 91.2276C-11.2909 29.3295 -20.5971 108.621 -20.5971 127.548C-20.5971 158.82 17.6573 188.653 7.32129 219.116C-7.46218 262.687 -62.4062 324.333 -20.5971 342.912C72.4322 384.252 182.393 382.302 324.311 371.048C466.23 359.793 442.383 308.127 422.607 285.107C409.169 269.463 344.087 259.529 428.424 181.261C498.041 116.654 381.893 53.8841 324.311 101.459Z" fill="#E5F3FC"/>
<ellipse cx="207" cy="319" rx="110" ry="16" fill="#DAEBF7"/>
<path d="M306.175 151.5H115.074C111.113 151.5 107.902 154.724 107.902 158.7V287.05C107.902 291.026 111.113 294.25 115.074 294.25H306.175C310.136 294.25 313.347 291.026 313.347 287.05V158.7C313.347 154.724 310.136 151.5 306.175 151.5Z" fill="#C9E9C9"/>
<path d="M107.902 191L147.497 222.737L107.902 270.25V191Z" fill="#AFD2AF"/>
<path d="M107.902 159.686L184.048 222.25L246.857 151.25H113.825C110.554 151.25 107.902 153.916 107.902 157.205V159.686Z" fill="#AFD2AF"/>
<path d="M248.963 266.914C242.125 277.083 238.244 287.253 236.149 294.25H307.176C310.446 294.25 313.098 291.585 313.098 288.297V231C298.787 231.992 286.033 235.695 275.085 242.065C264.816 248.033 256.027 256.397 248.963 266.914Z" fill="#AFD2AF"/>
<path d="M267.397 228.198C255.033 235.378 244.498 245.353 236.079 257.853C226.587 271.951 222.007 285.998 219.963 294H236.354C238.45 287.018 242.333 276.875 249.174 266.714C256.242 256.217 265.036 247.869 275.312 241.902C286.266 235.549 299.027 231.848 313.347 230.865V215C296.173 216.018 280.758 220.447 267.397 228.198Z" fill="white"/>
<path d="M155.217 262.5C137.833 262.5 123.707 276.569 123.591 294H186.843C186.726 276.569 172.601 262.5 155.217 262.5Z" fill="#AFD2AF"/>
<path d="M277.487 155.318C277.487 118.174 247.554 88.0572 210.606 88.0001C174.105 87.9432 144.09 117.567 143.522 154.254C143.213 172.523 150.33 190.129 163.228 203.005H163.149L206.455 249.85C207.579 251.066 209.158 251.755 210.81 251.75C212.462 251.745 214.037 251.046 215.154 249.823L257.855 203.005H257.777C270.413 190.388 277.509 173.219 277.487 155.318Z" fill="#8AC688"/>
<path d="M210.625 196.75C232.973 196.75 251.091 178.562 251.091 156.125C251.091 133.688 232.973 115.5 210.625 115.5C188.276 115.5 170.158 133.688 170.158 156.125C170.158 178.562 188.276 196.75 210.625 196.75Z" fill="#3AA537"/>
<path fill-rule="evenodd" clip-rule="evenodd" d="M204.387 174.319C203.666 174.329 202.942 174.061 202.392 173.514L189.416 160.625C188.336 159.552 188.336 157.813 189.416 156.74L190.719 155.445C191.799 154.373 193.55 154.373 194.63 155.445L204.34 165.091L230.716 138.795C231.796 137.722 233.547 137.722 234.627 138.795L235.93 140.09C237.01 141.162 237.01 142.901 235.93 143.974L209.557 170.274L209.561 170.277L207.619 172.206L206.308 173.514C205.777 174.042 205.083 174.31 204.387 174.319Z" fill="white"/>
<path opacity="0.796364" fill-rule="evenodd" clip-rule="evenodd" d="M141.944 302.398C141.149 302.633 140.396 301.921 140.584 301.112L142.126 294.489C142.149 294.39 142.129 294.286 142.072 294.203L138.236 288.594C137.767 287.908 138.211 286.971 139.037 286.9L145.797 286.323C145.898 286.314 145.99 286.264 146.052 286.183L150.189 280.793C150.694 280.135 151.721 280.267 152.043 281.033L154.68 287.299C154.719 287.392 154.796 287.465 154.891 287.499L161.284 289.777C162.065 290.055 162.257 291.075 161.629 291.619L156.499 296.068C156.422 296.135 156.377 296.23 156.374 296.332L156.189 303.129C156.166 303.96 155.257 304.458 154.547 304.028L148.74 300.512C148.653 300.46 148.549 300.446 148.452 300.475L141.944 302.398ZM141.287 301.276C141.224 301.546 141.475 301.783 141.74 301.705L148.248 299.781C148.539 299.695 148.853 299.736 149.113 299.893L154.92 303.409C155.157 303.552 155.46 303.386 155.467 303.109L155.653 296.312C155.662 296.008 155.797 295.721 156.027 295.521L161.157 291.072C161.366 290.891 161.303 290.551 161.042 290.458L154.65 288.18C154.363 288.078 154.133 287.86 154.015 287.58L151.379 281.314C151.271 281.059 150.929 281.015 150.76 281.234L146.624 286.624C146.439 286.865 146.161 287.018 145.858 287.044L139.098 287.621C138.823 287.644 138.675 287.957 138.831 288.185L142.667 293.794C142.839 294.045 142.897 294.357 142.828 294.654L141.287 301.276Z" fill="#292F5B" fill-opacity="0.51"/>
<path opacity="0.370759" d="M289.69 251.449C290.217 251.616 290.368 252.291 289.963 252.669L287.006 255.423C286.857 255.561 286.774 255.756 286.775 255.959L286.807 260.005C286.812 260.559 286.218 260.912 285.735 260.643L282.208 258.674C282.031 258.576 281.82 258.556 281.628 258.62L277.799 259.902C277.274 260.077 276.756 259.62 276.862 259.076L277.64 255.105C277.679 254.906 277.633 254.7 277.512 254.536L275.113 251.282C274.784 250.836 275.058 250.201 275.607 250.134L279.615 249.648C279.816 249.624 279.997 249.516 280.115 249.351L282.462 246.058C282.784 245.607 283.471 245.671 283.704 246.174L285.403 249.845C285.488 250.029 285.647 250.169 285.84 250.23L289.69 251.449Z" fill="#292F5B" fill-opacity="0.51"/>
<path fill-rule="evenodd" clip-rule="evenodd" d="M317.627 303.279C317.627 303.16 317.645 303.041 317.682 302.926C317.799 302.556 318.091 302.268 318.463 302.156L338.257 296.182C339.174 295.905 339.315 295.098 339.337 294.858C339.359 294.617 339.363 293.798 338.509 293.364L284.837 266.05C284.307 265.78 283.706 265.831 283.229 266.186C282.752 266.541 282.532 267.101 282.64 267.686L293.768 327.768C293.942 328.702 294.724 328.935 294.959 328.984C295.195 329.033 296.005 329.132 296.538 328.345L308.507 310.666C308.721 310.35 309.075 310.158 309.457 310.15C309.839 310.142 310.201 310.32 310.428 310.627L329.012 335.775C329.206 336.037 329.568 336.097 329.837 335.912L337.84 330.4C338.026 330.272 338.078 330.092 338.092 329.996C338.106 329.901 338.11 329.714 337.971 329.536L317.878 304.003C317.714 303.794 317.627 303.538 317.627 303.279ZM341.695 294.716C341.695 294.832 341.69 294.949 341.679 295.066C341.538 296.648 340.462 297.967 338.938 298.427L320.79 303.904L339.821 328.088C340.322 328.724 340.54 329.547 340.417 330.348C340.296 331.148 339.843 331.871 339.176 332.33L331.173 337.843C329.853 338.752 328.072 338.455 327.119 337.167L309.524 313.356L298.487 329.658C297.588 330.986 296.052 331.608 294.479 331.281C292.906 330.953 291.748 329.771 291.456 328.195L280.327 268.112C280.056 266.652 280.63 265.194 281.823 264.306C283.015 263.418 284.58 263.286 285.906 263.96L339.578 291.274C340.89 291.943 341.695 293.268 341.695 294.716Z" fill="#9CA8B6"/>
<path fill-rule="evenodd" clip-rule="evenodd" d="M297.7 195.661C298.417 196.078 298.417 197.112 297.7 197.529L295.038 199.077C294.951 199.128 294.889 199.213 294.867 199.312L294.215 202.317C294.04 203.127 293.054 203.446 292.436 202.894L290.139 200.846C290.063 200.778 289.963 200.746 289.862 200.756L286.798 201.066C285.972 201.149 285.363 200.312 285.698 199.554L286.94 196.74C286.981 196.648 286.981 196.542 286.94 196.45L285.698 193.636C285.363 192.878 285.972 192.041 286.798 192.124L289.862 192.434C289.963 192.444 290.063 192.411 290.139 192.344L292.436 190.295C293.054 189.743 294.04 190.063 294.215 190.873L294.867 193.878C294.889 193.977 294.951 194.062 295.038 194.113L297.7 195.661ZM297.336 196.906C297.575 196.767 297.575 196.422 297.336 196.283L294.675 194.736C294.412 194.583 294.226 194.327 294.162 194.03L293.51 191.025C293.451 190.755 293.123 190.649 292.917 190.833L290.62 192.882C290.393 193.084 290.092 193.182 289.789 193.151L286.725 192.841C286.45 192.813 286.247 193.092 286.359 193.345L287.601 196.159C287.723 196.437 287.723 196.753 287.601 197.031L286.359 199.844C286.247 200.097 286.45 200.376 286.725 200.348L289.789 200.039C290.092 200.008 290.393 200.106 290.62 200.308L292.917 202.357C293.123 202.541 293.451 202.434 293.51 202.164L294.162 199.159C294.226 198.863 294.412 198.607 294.675 198.454L297.336 196.906Z" fill="#292F5B" fill-opacity="0.51"/>
<path opacity="0.796364" fill-rule="evenodd" clip-rule="evenodd" d="M339.422 86.1287C338.626 86.363 337.873 85.6529 338.061 84.8459L339.604 78.2445C339.627 78.146 339.607 78.0424 339.55 77.9589L335.711 72.3678C335.242 71.6843 335.686 70.7494 336.513 70.6791L343.278 70.1039C343.379 70.0953 343.471 70.0448 343.533 69.9646L347.673 64.5917C348.179 63.9349 349.206 64.0672 349.529 64.8308L352.167 71.0767C352.207 71.1699 352.284 71.2423 352.379 71.2762L358.776 73.5467C359.558 73.8243 359.75 74.8409 359.122 75.3831L353.988 79.8185C353.911 79.8847 353.866 79.98 353.863 80.0812L353.677 86.8573C353.655 87.6856 352.745 88.1816 352.035 87.7532L346.223 84.2485C346.136 84.1962 346.032 84.1827 345.934 84.2113L339.422 86.1287ZM338.764 85.0097C338.701 85.2787 338.953 85.5154 339.218 85.4373L345.73 83.5199C346.022 83.4341 346.336 83.4745 346.596 83.6315L352.408 87.1362C352.645 87.279 352.948 87.1137 352.956 86.8375L353.142 80.0614C353.15 79.758 353.286 79.472 353.516 79.2734L358.65 74.838C358.859 74.6573 358.795 74.3184 358.535 74.2259L352.137 71.9554C351.851 71.8537 351.62 71.6365 351.502 71.3568L348.864 65.1109C348.756 64.8564 348.414 64.8123 348.245 65.0312L344.105 70.4041C343.92 70.6447 343.642 70.7964 343.339 70.8221L336.574 71.3973C336.298 71.4208 336.15 71.7324 336.307 71.9602L340.146 77.5513C340.317 77.8017 340.376 78.1127 340.307 78.4083L338.764 85.0097Z" fill="#292F5B" fill-opacity="0.51"/>
<path opacity="0.73011" fill-rule="evenodd" clip-rule="evenodd" d="M108.741 67.1049C108.544 67.9099 107.55 68.2033 106.946 67.635L103.393 64.2915C103.319 64.2221 103.219 64.1868 103.118 64.1944L98.249 64.5565C97.4214 64.6181 96.8348 63.7653 97.1895 63.0162L99.2764 58.6089C99.3198 58.5174 99.3226 58.412 99.2842 58.3183L97.4345 53.8067C97.1201 53.0398 97.7511 52.2194 98.5744 52.3247L103.418 52.9443C103.518 52.9572 103.619 52.9273 103.697 52.8619L107.423 49.7114C108.056 49.1759 109.033 49.5215 109.187 50.3358L110.093 55.126C110.112 55.2254 110.172 55.3124 110.258 55.3656L114.411 57.9301C115.116 58.3661 115.089 59.4002 114.361 59.7981L110.078 62.1389C109.989 62.1875 109.925 62.2712 109.901 62.3695L108.741 67.1049ZM107.441 67.1104C107.643 67.2999 107.974 67.2021 108.04 66.9337L109.199 62.1983C109.271 61.9034 109.464 61.6524 109.731 61.5067L114.014 59.1658C114.257 59.0332 114.266 58.6885 114.031 58.5432L109.878 55.9786C109.62 55.8189 109.44 55.5581 109.384 55.2598L108.477 50.4696C108.426 50.1982 108.101 50.0829 107.889 50.2614L104.163 53.4119C103.931 53.6081 103.627 53.6979 103.326 53.6593L98.4826 53.0396C98.2082 53.0045 97.9978 53.278 98.1026 53.5336L99.9523 58.0453C100.067 58.3262 100.059 58.6425 99.9291 58.917L97.8422 63.3243C97.724 63.574 97.9195 63.8582 98.1954 63.8377L103.065 63.4755C103.368 63.453 103.667 63.5587 103.888 63.7669L107.441 67.1104Z" fill="#292F5B" fill-opacity="0.51"/>
<path opacity="0.370759" d="M256.921 36.9197C257.449 37.0863 257.601 37.7591 257.195 38.1351L254.235 40.8809C254.087 41.0187 254.003 41.2124 254.005 41.4147L254.037 45.4486C254.041 46.0011 253.447 46.3529 252.964 46.0842L249.434 44.122C249.257 44.0236 249.046 44.004 248.854 44.0681L245.021 45.3453C244.496 45.5203 243.978 45.0649 244.084 44.5228L244.862 40.5643C244.901 40.3657 244.855 40.1599 244.735 39.9971L242.334 36.7526C242.005 36.3083 242.278 35.675 242.828 35.6087L246.839 35.1244C247.04 35.1001 247.222 34.9924 247.34 34.8278L249.688 31.5453C250.01 31.0958 250.698 31.1598 250.931 31.6609L252.632 35.32C252.717 35.5036 252.876 35.6429 253.069 35.7039L256.921 36.9197Z" fill="#292F5B" fill-opacity="0.51"/>
<path opacity="0.370759" d="M59.4517 300.92C59.9793 301.086 60.1309 301.759 59.7255 302.135L56.7655 304.881C56.617 305.019 56.5333 305.212 56.535 305.415L56.5673 309.449C56.5717 310.001 55.9776 310.353 55.4942 310.084L51.9639 308.122C51.7868 308.024 51.5764 308.004 51.3841 308.068L47.5515 309.345C47.0267 309.52 46.5079 309.065 46.6145 308.523L47.3927 304.564C47.4317 304.366 47.3853 304.16 47.2649 303.997L44.8639 300.753C44.5351 300.308 44.8085 299.675 45.3579 299.609L49.3691 299.124C49.5703 299.1 49.7521 298.992 49.8699 298.828L52.2186 295.545C52.5402 295.096 53.228 295.16 53.4609 295.661L55.1618 299.32C55.2472 299.504 55.4058 299.643 55.5991 299.704L59.4517 300.92Z" fill="#292F5B" fill-opacity="0.51"/>
<path opacity="0.806242" d="M180.948 79.1623C180.47 78.8843 180.47 78.1946 180.948 77.9166L186.815 74.5047C186.99 74.4029 187.115 74.2322 187.157 74.0344L188.594 67.4092C188.711 66.8693 189.368 66.6562 189.781 67.0242L194.844 71.5407C194.995 71.6755 195.196 71.7407 195.398 71.7203L202.153 71.0372C202.703 70.9816 203.109 71.5395 202.886 72.045L200.148 78.2482C200.067 78.4334 200.067 78.6444 200.148 78.8295L202.886 85.0325C203.11 85.5381 202.704 86.096 202.153 86.0404L195.398 85.3577C195.196 85.3374 194.995 85.4025 194.844 85.5374L189.782 90.0541C189.369 90.4222 188.712 90.2091 188.595 89.6692L187.158 83.0441C187.115 82.8463 186.991 82.6757 186.815 82.5738L180.948 79.1623Z" fill="#292F5B" fill-opacity="0.51"/>
<path opacity="0.547916" d="M339.494 207.277C339.426 206.729 339.975 206.311 340.487 206.523L346.759 209.118C346.946 209.196 347.157 209.191 347.341 209.105L353.492 206.235C353.993 206.001 354.561 206.394 354.517 206.945L353.983 213.703C353.967 213.904 354.037 214.103 354.175 214.251L358.81 219.205C359.188 219.609 358.989 220.269 358.451 220.398L351.848 221.979C351.651 222.026 351.483 222.154 351.385 222.331L348.099 228.262C347.831 228.746 347.14 228.761 346.851 228.29L343.305 222.51C343.199 222.337 343.025 222.217 342.826 222.178L336.161 220.891C335.617 220.786 335.389 220.135 335.749 219.715L340.159 214.561C340.291 214.407 340.352 214.205 340.327 214.004L339.494 207.277Z" fill="#292F5B" fill-opacity="0.51"/>
<path opacity="0.392959" d="M54.3399 211.743C53.8411 211.504 53.7861 210.817 54.2406 210.501L59.817 206.634C59.9834 206.519 60.0936 206.339 60.1206 206.138L61.025 199.42C61.0987 198.873 61.7365 198.608 62.1771 198.942L67.584 203.042C67.7454 203.164 67.9509 203.214 68.1503 203.177L74.8295 201.96C75.3738 201.861 75.823 202.384 75.6408 202.906L73.4061 209.307C73.3394 209.498 73.3562 209.708 73.4524 209.887L76.676 215.852C76.9387 216.339 76.5785 216.927 76.0253 216.915L69.2373 216.771C69.0346 216.767 68.8395 216.848 68.6996 216.994L64.0128 221.899C63.6308 222.299 62.959 222.138 62.7992 221.609L60.8388 215.12C60.7802 214.926 60.6428 214.766 60.4601 214.678L54.3399 211.743Z" fill="#292F5B" fill-opacity="0.51"/>
<path fill-rule="evenodd" clip-rule="evenodd" d="M34.714 147.672L46.0479 112.479C45.301 112.144 44.7054 111.488 44.477 110.635C44.0741 109.131 44.9666 107.586 46.4705 107.183C47.9745 106.78 49.5203 107.672 49.9233 109.176C50.1943 110.188 49.8793 111.218 49.1864 111.907L72.6866 141.339C72.9645 141.132 73.2855 140.973 73.6405 140.878C75.1445 140.475 76.6904 141.367 77.0933 142.871C77.4963 144.375 76.6038 145.921 75.0999 146.324C73.6506 146.712 72.1624 145.898 71.6955 144.492L36.9502 150.229C37.0474 151.552 36.196 152.8 34.8675 153.156C33.3635 153.559 31.8177 152.666 31.4147 151.162C31.0117 149.658 31.9042 148.112 33.4082 147.709C33.8498 147.591 34.2951 147.584 34.714 147.672ZM47.9298 112.629C48.0376 112.6 48.1423 112.565 48.2435 112.525L57.8516 131.354C56.8719 132.006 56.3691 133.232 56.6906 134.432C56.7605 134.693 56.865 134.936 56.9977 135.156L36.3223 148.649C36.0316 148.294 35.659 148.016 35.2413 147.838L46.572 112.655C47.0059 112.754 47.4698 112.752 47.9298 112.629ZM57.3287 135.601L36.6282 149.11C36.7231 149.289 36.8 149.481 36.8559 149.684L71.5726 143.952C71.5063 143.429 71.5899 142.913 71.7947 142.454L61.5089 135.589C61.1566 135.981 60.6904 136.279 60.1434 136.425C59.09 136.707 58.0161 136.354 57.3287 135.601ZM61.8368 135.143L72.0689 141.973C72.133 141.882 72.2025 141.795 72.2772 141.712L48.7579 112.256C48.7502 112.261 48.7425 112.266 48.7348 112.272L58.34 131.095C58.4506 131.05 58.5654 131.011 58.684 130.979C60.188 130.576 61.7339 131.468 62.1368 132.972C62.3417 133.737 62.2117 134.512 61.8368 135.143Z" fill="#B0BFC9"/>
</svg>
