<svg width="414" height="451" viewBox="0 0 414 451" fill="none" xmlns="http://www.w3.org/2000/svg">
<path d="M324.026 105.992C277.997 149.208 179.701 116.254 136.307 94.3745C-11.3105 24.0903 -20.6093 114.124 -20.6093 135.616C-20.6093 171.124 17.6148 205 7.28695 239.59C-7.4848 289.064 -62.3853 359.062 -20.6093 380.158C72.3462 427.099 182.22 424.885 324.026 412.106C465.832 399.327 442.004 340.66 422.244 314.521C408.816 296.758 343.786 285.478 428.056 196.606C497.617 123.245 381.562 51.9716 324.026 105.992Z" fill="#E5F3FC"/>
<path fill-rule="evenodd" clip-rule="evenodd" d="M350.507 75.1396H184.648C178.767 75.1396 174 79.392 174 84.6357V217.505C174 222.748 178.767 227.001 184.648 227.001H350.507C356.386 227.001 361.153 222.748 361.153 217.505V84.6357C361.153 79.392 356.386 75.1396 350.507 75.1396Z" fill="#CAE9C9"/>
<path fill-rule="evenodd" clip-rule="evenodd" d="M350.507 73H184.648C178.767 73 174 77.3878 174 82.8028V96.5278H361.153V82.8028C361.153 77.3878 356.386 73 350.507 73Z" fill="#3A3768"/>
<path fill-rule="evenodd" clip-rule="evenodd" d="M314.631 90.1111C312.562 90.1111 310.889 88.4342 310.889 86.368C310.889 84.3019 312.562 82.625 314.631 82.625C316.7 82.625 318.375 84.3019 318.375 86.368C318.375 88.4342 316.7 90.1111 314.631 90.1111Z" fill="white"/>
<path fill-rule="evenodd" clip-rule="evenodd" d="M329.068 90.1111C327.297 90.1111 325.861 88.4342 325.861 86.368C325.861 84.3019 327.297 82.625 329.068 82.625C330.84 82.625 332.278 84.3019 332.278 86.368C332.278 88.4342 330.84 90.1111 329.068 90.1111Z" fill="white"/>
<path fill-rule="evenodd" clip-rule="evenodd" d="M343.506 90.1111C341.437 90.1111 339.764 88.4342 339.764 86.368C339.764 84.3019 341.437 82.625 343.506 82.625C345.575 82.625 347.25 84.3019 347.25 86.368C347.25 88.4342 345.575 90.1111 343.506 90.1111Z" fill="white"/>
<ellipse cx="139" cy="365.5" rx="94" ry="25.5" fill="#DAEBF7"/>
<path fill-rule="evenodd" clip-rule="evenodd" d="M322.627 247.279C322.627 247.16 322.645 247.041 322.682 246.926C322.799 246.556 323.091 246.268 323.463 246.156L343.257 240.182C344.174 239.905 344.315 239.098 344.337 238.858C344.359 238.617 344.362 237.798 343.509 237.364L289.837 210.05C289.307 209.78 288.706 209.831 288.229 210.186C287.752 210.541 287.532 211.101 287.639 211.686L298.768 271.768C298.941 272.702 299.724 272.935 299.959 272.984C300.195 273.033 301.005 273.132 301.538 272.345L313.507 254.666C313.721 254.35 314.075 254.158 314.457 254.15C314.839 254.142 315.201 254.32 315.428 254.627L334.012 279.775C334.206 280.037 334.568 280.097 334.837 279.912L342.84 274.4C343.025 274.272 343.078 274.092 343.092 273.996C343.106 273.901 343.11 273.714 342.971 273.536L322.878 248.003C322.713 247.794 322.627 247.538 322.627 247.279ZM346.695 238.716C346.695 238.832 346.69 238.949 346.679 239.066C346.538 240.648 345.462 241.967 343.938 242.427L325.79 247.904L344.821 272.088C345.321 272.724 345.54 273.547 345.417 274.348C345.296 275.148 344.843 275.871 344.176 276.33L336.173 281.843C334.852 282.752 333.072 282.455 332.119 281.167L314.523 257.356L303.487 273.658C302.588 274.986 301.052 275.608 299.479 275.281C297.906 274.953 296.748 273.771 296.456 272.195L285.327 212.112C285.056 210.652 285.63 209.194 286.823 208.306C288.015 207.418 289.58 207.286 290.906 207.96L344.578 235.274C345.89 235.943 346.695 237.268 346.695 238.716Z" fill="#9CA8B6"/>
<path fill-rule="evenodd" clip-rule="evenodd" d="M268.271 117.344C246.136 117.344 228.192 135.098 228.192 157C228.192 178.902 246.136 196.656 268.271 196.656C290.405 196.656 308.349 178.902 308.349 157C308.349 135.098 290.405 117.344 268.271 117.344Z" fill="#3AA537"/>
<path fill-rule="evenodd" clip-rule="evenodd" d="M263.355 171.093C262.796 171.1 262.235 170.893 261.809 170.471L251.733 160.501C250.895 159.672 250.895 158.327 251.733 157.497L252.745 156.496C253.584 155.666 254.943 155.666 255.782 156.496L263.321 163.956L283.802 143.617C284.64 142.788 286 142.788 286.838 143.617L287.85 144.619C288.689 145.448 288.689 146.794 287.85 147.623L267.372 167.964L267.375 167.967L265.869 169.458L264.849 170.471C264.436 170.879 263.897 171.087 263.355 171.093Z" fill="white"/>
<path fill-rule="evenodd" clip-rule="evenodd" d="M328.902 206.085C329.549 206.461 329.549 207.393 328.902 207.769L326.503 209.164C326.424 209.21 326.368 209.287 326.349 209.376L325.762 212.085C325.603 212.815 324.715 213.103 324.157 212.605L322.087 210.758C322.019 210.698 321.929 210.668 321.838 210.677L319.076 210.957C318.332 211.032 317.783 210.277 318.084 209.594L319.204 207.058C319.241 206.974 319.241 206.879 319.204 206.796L318.084 204.26C317.783 203.576 318.332 202.822 319.076 202.897L321.838 203.176C321.929 203.185 322.019 203.156 322.087 203.095L324.157 201.249C324.715 200.751 325.603 201.039 325.762 201.769L326.349 204.478C326.368 204.567 326.424 204.644 326.503 204.69L328.902 206.085ZM328.575 207.208C328.79 207.082 328.79 206.771 328.575 206.646L326.176 205.251C325.939 205.113 325.771 204.883 325.713 204.615L325.126 201.907C325.073 201.663 324.777 201.567 324.591 201.733L322.521 203.58C322.317 203.762 322.045 203.85 321.772 203.823L319.01 203.543C318.762 203.518 318.579 203.77 318.68 203.998L319.799 206.534C319.91 206.784 319.91 207.069 319.799 207.32L318.68 209.856C318.579 210.084 318.762 210.335 319.01 210.31L321.772 210.031C322.045 210.003 322.317 210.092 322.521 210.274L324.591 212.121C324.777 212.286 325.073 212.19 325.126 211.947L325.713 209.238C325.771 208.971 325.939 208.74 326.176 208.602L328.575 207.208Z" fill="#292F5B" fill-opacity="0.51"/>
<path opacity="0.796364" fill-rule="evenodd" clip-rule="evenodd" d="M376.747 70.5922C376.03 70.8035 375.351 70.1634 375.521 69.436L376.911 63.4857C376.932 63.3969 376.914 63.3035 376.863 63.2282L373.402 58.1885C372.979 57.5724 373.379 56.7298 374.125 56.6664L380.223 56.148C380.314 56.1402 380.397 56.0946 380.453 56.0223L384.184 51.1794C384.64 50.5873 385.567 50.7066 385.857 51.3949L388.236 57.0248C388.271 57.1088 388.34 57.1741 388.426 57.2046L394.193 59.2512C394.898 59.5014 395.07 60.4178 394.505 60.9065L389.877 64.9044C389.808 64.9641 389.767 65.05 389.764 65.1412L389.597 71.249C389.576 71.9957 388.757 72.4427 388.116 72.0565L382.878 68.8975C382.799 68.8503 382.705 68.8382 382.617 68.864L376.747 70.5922ZM376.154 69.5837C376.098 69.8261 376.324 70.0395 376.563 69.9691L382.433 68.2408C382.696 68.1634 382.98 68.1999 383.214 68.3414L388.453 71.5004C388.666 71.6291 388.939 71.4801 388.946 71.2312L389.114 65.1234C389.121 64.8499 389.244 64.5921 389.451 64.4131L394.079 60.4151C394.267 60.2522 394.21 59.9468 393.975 59.8634L388.208 57.8168C387.95 57.7252 387.743 57.5294 387.636 57.2772L385.258 51.6473C385.161 51.4179 384.852 51.3782 384.7 51.5755L380.969 56.4185C380.802 56.6354 380.551 56.7721 380.278 56.7953L374.18 57.3138C373.931 57.3349 373.798 57.6158 373.939 57.8212L377.399 62.8609C377.554 63.0866 377.607 63.3669 377.545 63.6333L376.154 69.5837Z" fill="#292F5B" fill-opacity="0.51"/>
<path opacity="0.73011" fill-rule="evenodd" clip-rule="evenodd" d="M168.817 53.4439C168.64 54.1694 167.744 54.4339 167.2 53.9216L163.997 50.9079C163.93 50.8453 163.84 50.8135 163.749 50.8203L159.36 51.1468C158.614 51.2023 158.085 50.4336 158.405 49.7583L160.286 45.7857C160.325 45.7033 160.328 45.6082 160.293 45.5238L158.626 41.4571C158.343 40.7659 158.911 40.0264 159.653 40.1213L164.019 40.6798C164.11 40.6914 164.201 40.6645 164.271 40.6055L167.629 37.7657C168.2 37.283 169.08 37.5946 169.219 38.3285L170.036 42.6463C170.053 42.736 170.107 42.8143 170.185 42.8623L173.928 45.1739C174.564 45.5668 174.539 46.4989 173.883 46.8576L170.022 48.9676C169.942 49.0114 169.884 49.0868 169.863 49.1754L168.817 53.4439ZM167.646 53.4488C167.827 53.6196 168.126 53.5314 168.185 53.2895L169.23 49.0211C169.296 48.7553 169.47 48.5291 169.71 48.3977L173.57 46.2877C173.789 46.1681 173.798 45.8574 173.585 45.7265L169.842 43.4149C169.609 43.2709 169.448 43.0358 169.397 42.7669L168.58 38.4491C168.534 38.2045 168.24 38.1006 168.05 38.2615L164.691 41.1013C164.482 41.2781 164.208 41.3591 163.936 41.3243L159.571 40.7657C159.323 40.7341 159.134 40.9806 159.228 41.211L160.895 45.2777C160.999 45.5309 160.992 45.8161 160.875 46.0634L158.994 50.036C158.887 50.2611 159.063 50.5173 159.312 50.4988L163.701 50.1724C163.974 50.1521 164.243 50.2474 164.443 50.435L167.646 53.4488Z" fill="#292F5B" fill-opacity="0.51"/>
<path opacity="0.902331" d="M247.121 279.925C246.746 280.253 246.156 280.056 246.055 279.568L244.812 273.585C244.775 273.407 244.665 273.252 244.508 273.159L239.247 270.037C238.818 269.783 238.824 269.161 239.257 268.914L244.572 265.886C244.731 265.795 244.844 265.642 244.884 265.464L246.232 259.504C246.342 259.019 246.936 258.832 247.305 259.167L251.832 263.278C251.967 263.401 252.148 263.461 252.33 263.444L258.424 262.883C258.921 262.837 259.282 263.343 259.077 263.797L256.56 269.366C256.485 269.532 256.483 269.722 256.555 269.89L258.973 275.503C259.17 275.96 258.8 276.46 258.304 276.405L252.221 275.736C252.04 275.716 251.858 275.774 251.721 275.894L247.121 279.925Z" fill="#292F5B" fill-opacity="0.51"/>
<path opacity="0.370759" d="M302.383 26.2373C302.859 26.3874 302.995 26.9938 302.63 27.3328L299.962 29.8078C299.828 29.9319 299.753 30.1066 299.754 30.289L299.783 33.925C299.787 34.423 299.252 34.7401 298.816 34.4979L295.634 32.7293C295.474 32.6405 295.285 32.6229 295.111 32.6806L291.657 33.8319C291.184 33.9896 290.716 33.5791 290.812 33.0905L291.514 29.5224C291.549 29.3434 291.507 29.1579 291.398 29.0112L289.234 26.0866C288.938 25.6861 289.184 25.1153 289.679 25.0555L293.295 24.619C293.476 24.5971 293.64 24.5001 293.746 24.3516L295.864 21.3929C296.153 20.9877 296.773 21.0454 296.983 21.4971L298.516 24.7954C298.593 24.9608 298.736 25.0864 298.911 25.1414L302.383 26.2373Z" fill="#292F5B" fill-opacity="0.51"/>
<path opacity="0.806242" d="M233.903 64.3142C233.472 64.0636 233.472 63.442 233.903 63.1914L239.191 60.116C239.349 60.0242 239.461 59.8703 239.5 59.6921L240.795 53.7203C240.9 53.2336 241.492 53.0415 241.864 53.3733L246.428 57.4443C246.564 57.5658 246.745 57.6246 246.927 57.6062L253.016 56.9905C253.512 56.9403 253.878 57.4432 253.677 57.8989L251.209 63.4903C251.136 63.6572 251.136 63.8474 251.209 64.0143L253.677 69.6055C253.878 70.0612 253.513 70.5641 253.016 70.514L246.928 69.8986C246.746 69.8803 246.565 69.939 246.428 70.0606L241.865 74.1318C241.493 74.4636 240.901 74.2716 240.795 73.7849L239.5 67.8132C239.461 67.6349 239.349 67.4811 239.191 67.3893L233.903 64.3142Z" fill="#292F5B" fill-opacity="0.51"/>
<path opacity="0.547916" d="M376.812 179.794C376.751 179.3 377.246 178.924 377.707 179.114L383.36 181.454C383.529 181.524 383.72 181.519 383.885 181.442L389.429 178.855C389.881 178.644 390.393 178.998 390.354 179.495L389.872 185.586C389.858 185.768 389.921 185.947 390.045 186.081L394.223 190.546C394.563 190.91 394.384 191.505 393.899 191.621L387.948 193.046C387.77 193.089 387.619 193.204 387.53 193.363L384.568 198.71C384.327 199.146 383.704 199.159 383.444 198.735L380.247 193.524C380.152 193.369 379.995 193.26 379.816 193.226L373.807 192.065C373.318 191.971 373.112 191.384 373.436 191.005L377.412 186.36C377.531 186.221 377.585 186.039 377.563 185.858L376.812 179.794Z" fill="#292F5B" fill-opacity="0.51"/>
<path opacity="0.392959" d="M119.781 183.82C119.332 183.605 119.282 182.985 119.692 182.701L124.718 179.215C124.868 179.111 124.968 178.949 124.992 178.768L125.807 172.713C125.874 172.219 126.448 171.98 126.846 172.282L131.719 175.977C131.865 176.088 132.05 176.132 132.23 176.099L138.25 175.002C138.741 174.912 139.146 175.385 138.982 175.855L136.967 181.624C136.907 181.797 136.922 181.986 137.009 182.147L139.915 187.524C140.151 187.962 139.827 188.493 139.328 188.482L133.21 188.353C133.027 188.349 132.851 188.422 132.725 188.554L128.5 192.974C128.156 193.335 127.55 193.19 127.406 192.713L125.639 186.864C125.587 186.689 125.463 186.545 125.298 186.466L119.781 183.82Z" fill="#292F5B" fill-opacity="0.51"/>
<path fill-rule="evenodd" clip-rule="evenodd" d="M128.712 334.162C121.857 309.761 119.493 301.786 116.924 281.42C116.924 281.42 128.322 262.281 142.337 283.431C144.877 287.263 145.988 301.988 150.966 327.422C150.966 327.422 155.237 342.424 143.829 345.93C133.133 349.217 128.712 334.162 128.712 334.162Z" fill="#FFC999"/>
<path fill-rule="evenodd" clip-rule="evenodd" d="M114.107 280.615C114.107 280.615 122.136 255.955 142.882 279.803C145.67 296.324 150.006 317.317 150.006 317.317C150.006 317.317 138.575 325.065 124.524 323.161C114.62 283.838 114.107 280.615 114.107 280.615Z" fill="#CFD9EA"/>
<path d="M146.859 312.596C146.982 312.525 147.14 312.567 147.211 312.69C147.283 312.812 147.241 312.97 147.118 313.041L146.874 313.177L146.713 313.265C146.386 313.442 146.007 313.639 145.582 313.851C144.367 314.457 143.017 315.062 141.569 315.628C137.763 317.113 133.973 318.057 130.425 318.197C128.251 318.283 126.23 318.06 124.392 317.493C124.256 317.451 124.18 317.307 124.222 317.172C124.264 317.036 124.408 316.96 124.544 317.002C126.323 317.551 128.286 317.767 130.405 317.684C133.887 317.546 137.625 316.615 141.382 315.149C142.814 314.59 144.15 313.991 145.351 313.392L145.7 313.216C145.925 313.101 146.134 312.992 146.326 312.889L146.757 312.655C146.8 312.63 146.834 312.611 146.859 312.596Z" fill="#A3B5D6"/>
<path d="M142.834 279.549C142.96 279.526 143.082 279.597 143.124 279.714L143.135 279.754L150.259 317.269C150.277 317.361 150.243 317.455 150.171 317.515L150.078 317.588C150.004 317.646 149.916 317.713 149.814 317.788L149.552 317.977C149.322 318.139 149.065 318.312 148.78 318.494C147.644 319.222 146.305 319.95 144.771 320.628C139.028 323.168 132.228 324.348 124.493 323.416C124.352 323.399 124.251 323.271 124.268 323.13C124.285 322.989 124.413 322.889 124.555 322.906C132.193 323.826 138.9 322.662 144.562 320.159C146.072 319.491 147.388 318.776 148.502 318.062C148.835 317.848 149.13 317.648 149.384 317.464L149.569 317.33L149.724 317.212L142.629 279.85C142.605 279.724 142.677 279.603 142.794 279.561L142.834 279.549Z" fill="#A3B5D6"/>
<path fill-rule="evenodd" clip-rule="evenodd" d="M120.987 325.298C100.855 327.386 87.1833 330.817 67.0147 330.064C64.5689 329.974 64.2319 333.592 64.3107 337.011C57.9352 344.373 55.4894 358.554 58.1173 360.619C59.6951 361.859 66.0077 357.053 67.3597 352.319C70.3816 341.736 82.3969 342.532 82.3969 342.532C82.3969 342.532 114.164 346.786 137.663 347.736C137.663 347.736 153.6 347.44 152.014 334.574C150.061 318.721 127.858 324.584 120.987 325.298Z" fill="#FFC999"/>
<path fill-rule="evenodd" clip-rule="evenodd" d="M58.1016 366.664C58.1016 366.664 54.9361 365.12 55.191 356.929C55.4472 348.737 58.8624 344.879 59.3974 340.578C60.3978 332.538 62.3093 329.055 62.3093 329.055C62.3093 329.055 61.1228 328.663 59.543 329.373C57.1058 330.47 58.0672 337.976 56.1451 342.458C54.7547 345.699 53.9813 348.227 52.8756 353.611C51.7699 358.995 53.4185 365.727 55.191 366.477C56.9628 367.227 58.1016 366.664 58.1016 366.664Z" fill="#A3B5D6"/>
<path fill-rule="evenodd" clip-rule="evenodd" d="M62.0303 329.306C62.0303 329.306 61.0544 331.122 59.7745 337.192C59.4686 338.643 59.1177 340.069 58.3265 342.598C57.1122 346.484 52.0219 358.761 56.997 365.908C58.2153 366.988 59.6037 366.654 60.6684 366.071C61.6821 365.517 62.4336 364.567 62.7825 363.44C63.8379 360.03 66.3433 351.877 72.2613 347.593C72.9545 347.091 73.2723 346.21 73.0604 345.364C72.8042 344.341 72.2851 343.017 71.2343 342.086C70.3603 341.311 67.161 343.608 66.9895 342.737C66.5181 340.344 67.0822 336.29 68.6832 333.665C70.0233 331.465 71.3231 330.075 71.3231 330.075C71.3231 330.075 65.3813 328.17 62.0303 329.306Z" fill="#4E5C93"/>
<path d="M60.2114 353.845C60.3551 353.878 60.4443 354.022 60.4107 354.165C59.6187 357.544 59.7222 360.266 60.3683 362.339C60.4632 362.643 60.5636 362.909 60.6643 363.137L60.7146 363.248C60.7835 363.395 60.8355 363.49 60.8626 363.534C60.9407 363.659 60.9025 363.823 60.7773 363.901C60.6521 363.979 60.4873 363.941 60.4092 363.816C60.371 363.754 60.3086 363.64 60.2305 363.474C60.103 363.201 59.9761 362.876 59.8581 362.497C59.1839 360.334 59.0767 357.516 59.8904 354.044C59.9207 353.915 60.0401 353.83 60.1684 353.839L60.2114 353.845Z" fill="#A3B5D6"/>
<path d="M66.9497 346.253C67.034 346.132 67.2004 346.102 67.3216 346.186C67.8275 346.538 68.2673 346.996 68.6462 347.535C68.9617 347.983 69.2179 348.463 69.4202 348.942C69.491 349.11 69.5502 349.266 69.5983 349.407L69.6569 349.591C69.6968 349.733 69.614 349.88 69.4719 349.92C69.3299 349.959 69.1824 349.877 69.1425 349.735L69.107 349.622L69.0925 349.579C69.0484 349.45 68.9936 349.305 68.9277 349.149C68.7393 348.703 68.5007 348.256 68.2087 347.841C67.8638 347.35 67.467 346.937 67.0165 346.624C66.8954 346.54 66.8655 346.374 66.9497 346.253Z" fill="#A3B5D6"/>
<path fill-rule="evenodd" clip-rule="evenodd" d="M183.054 223.626C183.054 223.626 178.075 210.835 171.901 199.782C166.271 189.703 159.819 181.701 153.273 184.982C145.054 189.102 153.604 202.837 157.385 210.1C160.106 215.327 166.8 225.704 170.713 230.86C176.955 239.084 187.509 231.378 183.054 223.626Z" fill="#FFC999"/>
<path fill-rule="evenodd" clip-rule="evenodd" d="M169.81 206.09L158.372 213.739C154.591 206.475 143.068 190.094 153.216 184.872C160.376 181.187 166.966 189.763 173.847 203.519L169.81 206.09Z" fill="#5A629E"/>
<path fill-rule="evenodd" clip-rule="evenodd" d="M205.767 190.065C205.767 190.065 191.652 222.362 182.95 231.924C178.083 237.272 168.694 234.082 170.241 225.671C171.511 218.766 197.794 185.247 197.794 185.247C197.794 185.247 199.76 181.649 204.002 183.996C208.404 186.431 205.767 190.065 205.767 190.065Z" fill="#FFC999"/>
<path fill-rule="evenodd" clip-rule="evenodd" d="M210.918 187.195C210.918 187.195 203.667 193.249 199.627 191.401C195.971 189.728 197.478 184.782 197.478 184.782C197.478 184.782 199.097 181.049 201.937 177.504C203.797 175.181 206.674 170.239 208.121 170.87C210.009 171.692 206.241 176.266 206.951 177.583C208.388 180.252 215.075 173.677 216.733 173.192C219.973 172.244 219.672 179.999 210.918 187.195Z" fill="#FFC999"/>
<path d="M217.446 174.364C217.525 174.254 217.679 174.23 217.789 174.31C217.898 174.389 217.923 174.542 217.843 174.652C217.146 175.608 216.297 176.507 215.329 177.346C214.344 178.199 213.29 178.947 212.236 179.583C211.867 179.806 211.524 180 211.215 180.163L210.949 180.3C210.897 180.327 210.854 180.347 210.823 180.362C210.7 180.42 210.554 180.368 210.496 180.245C210.438 180.123 210.49 179.977 210.613 179.919L210.845 179.803C210.887 179.781 210.934 179.757 210.985 179.729C211.285 179.571 211.62 179.382 211.981 179.164C213.013 178.541 214.045 177.809 215.007 176.976C215.948 176.16 216.772 175.288 217.446 174.364Z" fill="#DD936F"/>
<path d="M217.904 176.669C217.978 176.557 218.131 176.526 218.244 176.6C218.357 176.675 218.388 176.827 218.313 176.94L218.224 177.068L218.103 177.231C218.081 177.26 218.059 177.29 218.035 177.32L217.96 177.416C217.668 177.787 217.311 178.2 216.887 178.645C215.679 179.911 214.178 181.177 212.366 182.357C212.074 182.548 211.776 182.734 211.471 182.918C211.355 182.987 211.204 182.95 211.134 182.834C211.064 182.718 211.101 182.567 211.218 182.498C211.517 182.318 211.811 182.134 212.098 181.947C213.877 180.788 215.349 179.547 216.531 178.307C216.944 177.874 217.291 177.472 217.574 177.113L217.711 176.936L217.867 176.723C217.884 176.698 217.896 176.68 217.904 176.669Z" fill="#DD936F"/>
<path d="M216.206 180.798C216.301 180.701 216.456 180.7 216.553 180.795C216.65 180.889 216.651 181.045 216.556 181.141C215.198 182.525 213.924 183.621 212.772 184.458C212.417 184.715 212.097 184.932 211.812 185.111L211.693 185.185C211.61 185.236 211.535 185.28 211.468 185.319L211.299 185.412C211.178 185.474 211.03 185.427 210.968 185.307C210.906 185.186 210.953 185.039 211.074 184.977L211.168 184.926C211.207 184.903 211.256 184.875 211.312 184.842L211.436 184.767C211.738 184.582 212.088 184.348 212.482 184.062C213.613 183.24 214.866 182.162 216.206 180.798Z" fill="#DD936F"/>
<path fill-rule="evenodd" clip-rule="evenodd" d="M147.163 181.035C147.163 181.035 144.943 189.769 135.167 189.58C123.819 189.36 122.391 180.25 122.391 180.25L125.127 179.433C125.694 179.264 126.101 178.774 126.157 178.186C126.357 176.089 126.83 170.74 127.196 163.68C137.004 160.674 143.663 163.723 143.663 163.723C143.663 163.723 143.327 172.106 143.189 178.287C143.176 178.886 143.532 179.431 144.087 179.66C145.047 180.054 146.5 180.668 147.163 181.035Z" fill="#FFC999"/>
<path fill-rule="evenodd" clip-rule="evenodd" d="M123.223 157.564C123.223 157.564 121.852 144.001 132.111 143.031C144.5 141.861 145.5 148.833 146.459 152.063C147.479 155.494 149.172 170.062 141.859 173.543C138.741 174.794 136.807 175.503 131.21 172.642C123.065 168.477 123.223 157.564 123.223 157.564Z" fill="#FFC999"/>
<path fill-rule="evenodd" clip-rule="evenodd" d="M126.732 167.498L126.217 159.887C126.217 159.887 120.116 156.539 119.617 160.451C119.107 164.439 121.963 167.051 124.51 167.873C126.146 168.402 126.732 167.498 126.732 167.498Z" fill="#FFC999"/>
<path fill-rule="evenodd" clip-rule="evenodd" d="M126.796 140.964C126.796 140.964 133.003 136.352 136.007 136.781C139.011 137.21 136.752 139.604 136.752 139.604C136.752 139.604 144.95 137.886 145.775 139.712C146.6 141.538 143.658 142.533 143.658 142.533C143.658 142.533 151.828 144.478 152.305 146.878C152.782 149.277 148.971 148.883 148.971 148.883C148.971 148.883 151.977 152.229 151.135 154.313C150.291 156.398 148.418 156.23 148.418 156.23L147.226 159.012L146.549 153.269C146.549 153.269 143.601 152.124 138.149 149.752C141.522 152.958 139.516 153.043 136.779 152.604C133.572 152.09 129.81 151.135 129.994 151.035C129.994 151.035 130.058 154.786 127.622 156.598C124.638 158.82 127.006 163.049 126.207 163.27C124.671 163.708 124.706 159.487 121.694 158.872C119.358 158.786 118.862 155.952 119.472 154.964C116.38 154.663 116.367 151.498 120.223 148.602C116.757 148.286 118.762 145.034 123.828 143.512C121.999 137.913 126.796 140.964 126.796 140.964Z" fill="#253368"/>
<path d="M131.204 155.731C132.725 155.447 134.278 155.324 135.735 155.454C135.942 155.473 136.146 155.497 136.346 155.526C136.527 155.552 136.652 155.72 136.626 155.9C136.6 156.081 136.432 156.206 136.251 156.179C136.063 156.152 135.871 156.13 135.675 156.112C134.287 155.988 132.792 156.107 131.326 156.381C131.03 156.436 130.753 156.495 130.5 156.554L130.175 156.634C130.069 156.661 129.992 156.682 129.946 156.695C129.77 156.747 129.586 156.647 129.535 156.472C129.483 156.296 129.584 156.113 129.759 156.062L130.008 155.994C130.053 155.983 130.102 155.97 130.156 155.957C130.469 155.88 130.821 155.803 131.204 155.731Z" fill="#253368"/>
<path d="M141.064 155.176C142.419 154.754 143.934 154.706 145.483 155.276C145.654 155.339 145.742 155.529 145.679 155.7C145.615 155.871 145.425 155.959 145.253 155.896C143.856 155.382 142.487 155.424 141.262 155.806C141.062 155.869 140.884 155.935 140.73 156.001L140.638 156.043L140.554 156.084C140.393 156.17 140.192 156.11 140.106 155.949C140.019 155.788 140.08 155.588 140.241 155.502L140.35 155.447C140.516 155.368 140.757 155.271 141.064 155.176Z" fill="#253368"/>
<path d="M139.937 156.245C139.971 156.114 140.106 156.035 140.237 156.07C140.355 156.1 140.43 156.212 140.419 156.329L140.412 156.369L139.997 157.956L140.62 163.683C140.632 163.79 140.573 163.89 140.477 163.933L140.44 163.947L138.216 164.544C138.085 164.58 137.95 164.502 137.915 164.372C137.883 164.254 137.943 164.133 138.05 164.085L138.088 164.071L140.109 163.528L139.503 157.965L139.51 157.877L139.937 156.245Z" fill="#DD936F"/>
<path d="M131.664 159.496C132.633 158.948 133.783 158.898 135.009 159.663C135.164 159.76 135.211 159.963 135.114 160.118C135.017 160.273 134.813 160.32 134.658 160.223C133.654 159.596 132.76 159.635 131.991 160.071C131.781 160.189 131.636 160.306 131.568 160.375C131.439 160.505 131.23 160.507 131.099 160.379C130.969 160.251 130.967 160.042 131.095 159.912C131.204 159.802 131.396 159.648 131.664 159.496Z" fill="#253368"/>
<path d="M142.048 158.861C142.687 158.544 143.351 158.415 143.991 158.593C144.313 158.683 144.613 158.85 144.884 159.097C145.018 159.221 145.027 159.429 144.904 159.564C144.78 159.698 144.571 159.707 144.436 159.584C144.242 159.407 144.035 159.291 143.813 159.23C143.358 159.103 142.848 159.202 142.342 159.453C142.217 159.515 142.102 159.581 142.001 159.647L141.916 159.705C141.902 159.715 141.891 159.723 141.884 159.729C141.74 159.841 141.531 159.816 141.419 159.672C141.306 159.528 141.332 159.321 141.476 159.208C141.592 159.118 141.789 158.989 142.048 158.861Z" fill="#253368"/>
<path fill-rule="evenodd" clip-rule="evenodd" d="M134.712 165.711C134.712 165.711 138.259 166.364 141.591 165.724C141.591 165.724 140.773 167.787 138.41 167.868C135.426 167.97 134.712 165.711 134.712 165.711Z" fill="white"/>
<path d="M134.763 165.435C134.556 165.397 134.382 165.593 134.445 165.794C134.543 166.102 134.779 166.545 135.205 166.985C135.949 167.753 137.009 168.195 138.419 168.147C139.512 168.109 140.387 167.68 141.057 166.991C141.302 166.74 141.502 166.47 141.661 166.2C141.758 166.036 141.82 165.906 141.852 165.826C141.933 165.621 141.755 165.407 141.538 165.449C141.354 165.484 141.167 165.516 140.977 165.545C139.301 165.795 137.504 165.771 135.8 165.58L135.473 165.541C135.369 165.527 135.269 165.514 135.175 165.5L134.825 165.446C134.8 165.442 134.779 165.438 134.763 165.435ZM135.248 166.147L135.197 166.068L135.245 166.074C135.398 166.095 135.563 166.116 135.737 166.135L136.066 166.17C137.605 166.322 139.207 166.338 140.734 166.143L141.064 166.096L141.028 166.15C140.921 166.305 140.796 166.457 140.655 166.602C140.081 167.192 139.339 167.556 138.4 167.588C137.151 167.631 136.243 167.252 135.608 166.596C135.468 166.452 135.348 166.301 135.248 166.147Z" fill="#FF7A46"/>
<path d="M142.77 172.874C142.864 172.776 143.019 172.772 143.117 172.865C143.216 172.959 143.22 173.114 143.126 173.212L143.065 173.273C142.993 173.342 142.888 173.434 142.75 173.544C142.447 173.785 142.087 174.026 141.671 174.25C139.403 175.469 136.528 175.718 133.093 174.397C132.966 174.349 132.903 174.207 132.952 174.081C133.001 173.954 133.143 173.891 133.27 173.94C136.567 175.207 139.292 174.971 141.438 173.818C141.827 173.608 142.163 173.384 142.443 173.161L142.557 173.068C142.66 172.981 142.731 172.915 142.77 172.874Z" fill="#DD936F"/>
<path d="M138.991 169.314C139.127 169.313 139.238 169.421 139.24 169.556C139.242 169.678 139.154 169.78 139.037 169.801L138.998 169.805L137.316 169.826C137.18 169.828 137.069 169.72 137.067 169.585C137.065 169.463 137.153 169.361 137.27 169.34L137.309 169.336L138.991 169.314Z" fill="#DD936F"/>
<path d="M121.186 160.525C121.864 160.191 122.664 160.427 123.42 161.556L123.537 161.733C124.09 162.58 124.141 162.849 123.665 162.967L123.487 163.008C123.436 163.021 123.411 163.032 123.374 163.052C123.281 163.106 123.205 163.2 123.143 163.372C122.875 164.109 123.694 164.685 124.743 164.639C124.878 164.633 124.993 164.738 124.999 164.874C125.005 165.009 124.9 165.123 124.764 165.129C123.421 165.187 122.257 164.37 122.681 163.205C122.781 162.927 122.933 162.74 123.131 162.627C123.221 162.575 123.273 162.554 123.382 162.528L123.437 162.515L123.432 162.506C123.379 162.4 123.282 162.239 123.129 162.006L123.011 161.828C122.39 160.9 121.855 160.742 121.404 160.965C121.368 160.983 121.339 161 121.319 161.013L121.289 161.035C121.188 161.125 121.033 161.116 120.943 161.014C120.853 160.913 120.862 160.758 120.964 160.668C121.009 160.628 121.084 160.576 121.186 160.525Z" fill="#DD936F"/>
<path d="M126.629 167.276C126.752 167.219 126.898 167.272 126.955 167.395L127.027 167.544C127.085 167.663 127.153 167.797 127.227 167.941C127.44 168.353 127.67 168.765 127.908 169.148C128.203 169.624 128.489 170.021 128.754 170.312C128.916 170.489 129.066 170.622 129.201 170.707C129.316 170.779 129.35 170.93 129.278 171.045C129.205 171.159 129.054 171.194 128.939 171.122C128.762 171.01 128.58 170.849 128.391 170.642C128.102 170.325 127.8 169.905 127.49 169.406C127.245 169.011 127.009 168.589 126.791 168.166L126.682 167.953L126.51 167.602C126.453 167.479 126.506 167.333 126.629 167.276Z" fill="#DD936F"/>
<path fill-rule="evenodd" clip-rule="evenodd" d="M152.687 240.912C155.356 244.924 152.246 248.434 152.246 248.434C141.313 248.998 114.036 247.747 114.036 247.747C109.595 246.129 112.414 237.164 112.414 237.164C112.414 237.164 110.568 216.792 109.169 200.77C108.567 193.872 107.309 184.196 107.785 184.005C113.123 181.859 117.188 180.372 125.375 179.141C125.594 179.651 128.536 183.782 136.177 183.998C144.54 184.235 144.45 180.35 144.763 179.699C148.799 180.874 153.876 181.798 158.581 183.619C160.012 184.173 161.556 186.201 161.23 187.697C161.23 187.697 159.934 207.915 152.687 240.912Z" fill="#5A629E"/>
<path d="M124.224 182.847C124.303 182.735 124.458 182.709 124.57 182.788C124.683 182.867 124.797 182.946 124.911 183.023C130.83 187.038 137.127 187.385 142.943 185.568C143.653 185.347 144.289 185.109 144.84 184.872L145.06 184.776C145.163 184.729 145.258 184.685 145.343 184.644L145.512 184.56C145.633 184.496 145.783 184.542 145.848 184.663C145.912 184.784 145.866 184.934 145.745 184.998L145.559 185.09L145.369 185.18C145.267 185.227 145.156 185.276 145.037 185.327C144.47 185.571 143.818 185.814 143.091 186.041C137.143 187.899 130.692 187.543 124.631 183.433C124.515 183.354 124.399 183.274 124.284 183.192C124.172 183.113 124.145 182.959 124.224 182.847Z" fill="#253368"/>
<path d="M159.875 196.75C160.012 196.757 160.118 196.873 160.111 197.009L160.074 197.643L160.039 198.162C160.01 198.567 159.975 199.014 159.934 199.503L159.891 200.006C159.686 202.358 159.388 205.104 158.982 208.227L158.926 208.655C157.734 217.711 155.888 228.059 153.255 239.555L152.947 240.893L152.991 241.003C154.42 244.651 154.043 246.862 152.485 247.922L152.406 247.974C152.086 248.179 151.744 248.316 151.402 248.398C151.195 248.448 151.032 248.469 150.913 248.474L147.244 248.358L144.338 248.272C143.351 248.243 142.347 248.215 141.332 248.187L138.256 248.104C135.91 248.043 133.621 247.988 131.418 247.94L128.63 247.882C122.429 247.76 117.395 247.709 113.914 247.748C113.777 247.749 113.665 247.64 113.663 247.503C113.662 247.366 113.772 247.254 113.909 247.252L115.024 247.243C118.669 247.223 123.705 247.284 129.793 247.41L132.26 247.463C134.206 247.507 136.215 247.556 138.269 247.609L141.346 247.692C142.869 247.734 144.366 247.777 145.82 247.82L150.911 247.979L150.985 247.972C151.059 247.964 151.161 247.947 151.285 247.917C151.577 247.846 151.868 247.73 152.139 247.557C153.561 246.648 153.915 244.624 152.457 241.005C152.438 240.957 152.434 240.906 152.445 240.856C155.249 228.809 157.195 218 158.434 208.59L158.598 207.323C158.948 204.553 159.21 202.095 159.396 199.963L159.459 199.222C159.498 198.749 159.53 198.318 159.557 197.929L159.586 197.491L159.615 196.986C159.622 196.85 159.738 196.744 159.875 196.75Z" fill="#253368"/>
<path fill-rule="evenodd" clip-rule="evenodd" d="M128.917 290.127C128.917 290.127 133.64 289.879 139.606 289.135C146.327 288.296 151.614 281.663 156.512 277.047C154.271 260.862 151.823 252.511 151.823 252.511L112.061 252.087C112.061 252.087 109.059 262.61 110.027 277.726C110.772 289.383 128.917 290.127 128.917 290.127Z" fill="#CFD9EA"/>
<path fill-rule="evenodd" clip-rule="evenodd" d="M152.195 252.881L151.751 248.054L112.352 247.505L111.818 252.088C111.818 252.088 148.177 252.9 152.195 252.881Z" fill="#CFD9EA"/>
<path d="M112.09 251.986L123.873 252.193L134.181 252.359L152.198 252.633C152.335 252.635 152.445 252.748 152.443 252.884C152.441 253.021 152.328 253.131 152.191 253.129L134.173 252.854L115.909 252.552C114.499 252.527 113.22 252.504 112.081 252.482C111.944 252.479 111.835 252.366 111.837 252.229C111.84 252.093 111.953 251.984 112.09 251.986Z" fill="#A3B5D6"/>
<path fill-rule="evenodd" clip-rule="evenodd" d="M132.057 250.008C132.065 250.487 132.562 250.872 133.167 250.869C133.772 250.866 134.256 250.476 134.249 249.997C134.241 249.518 133.744 249.132 133.139 249.136C132.533 249.139 132.049 249.529 132.057 250.008Z" fill="#A3B5D6"/>
<path fill-rule="evenodd" clip-rule="evenodd" d="M95.9236 231.258C95.9236 231.258 96.6777 217.079 99.0997 204.204C101.308 192.464 104.936 182.485 112.137 183.521C121.18 184.823 117.34 201.112 116.009 209.481C115.053 215.502 111.93 227.889 109.823 234.238C106.464 244.364 94.1061 240.328 95.9236 231.258Z" fill="#FFC999"/>
<path fill-rule="evenodd" clip-rule="evenodd" d="M115.472 212.855C116.803 204.487 123.364 185.134 112.157 183.394C104.25 182.167 100.67 192.754 98.4146 208.51L115.472 212.855Z" fill="#5A629E"/>
<path fill-rule="evenodd" clip-rule="evenodd" d="M149.253 244.448C149.253 244.448 113.977 246.036 101.539 242.454C94.5835 240.452 93.3169 230.636 101.566 228.316C108.337 226.411 150.076 235.184 150.076 235.184C150.076 235.184 154.177 235.36 153.935 240.194C153.684 245.21 149.253 244.448 149.253 244.448Z" fill="#FFC999"/>
<path fill-rule="evenodd" clip-rule="evenodd" d="M160.18 245.384C160.18 245.384 150.746 246.011 148.574 242.143C146.607 238.641 150.747 235.531 150.747 235.531C150.747 235.531 154.26 233.469 158.648 232.274C161.523 231.491 166.766 229.19 167.563 230.55C168.603 232.325 162.856 233.805 162.652 235.286C162.236 238.287 171.523 236.909 173.148 237.491C176.326 238.63 171.502 244.719 160.18 245.384Z" fill="#FFC999"/>
<path d="M173.032 238.857C173.161 238.815 173.299 238.886 173.341 239.015C173.383 239.144 173.312 239.282 173.183 239.323C172.824 239.438 172.456 239.54 172.078 239.629C169.806 240.163 167.395 240.203 165.163 239.953L164.841 239.914C164.79 239.908 164.74 239.901 164.691 239.894L164.413 239.854C164.281 239.834 164.188 239.818 164.139 239.808C164.005 239.783 163.918 239.655 163.943 239.522C163.969 239.389 164.097 239.301 164.231 239.327L164.428 239.36L164.488 239.37C164.7 239.402 164.945 239.435 165.218 239.466C167.398 239.711 169.757 239.671 171.966 239.152C172.331 239.066 172.686 238.968 173.032 238.857Z" fill="#DD936F"/>
<path d="M172.04 240.988C172.167 240.941 172.308 241.005 172.356 241.132C172.403 241.259 172.338 241.4 172.211 241.448L172.091 241.489L171.934 241.539C171.877 241.557 171.816 241.575 171.751 241.594C171.381 241.702 170.948 241.809 170.454 241.909C168.365 242.332 165.908 242.497 163.153 242.253C163.018 242.241 162.918 242.122 162.93 241.988C162.942 241.853 163.061 241.753 163.196 241.765C165.903 242.004 168.312 241.843 170.356 241.429C170.768 241.345 171.135 241.257 171.457 241.168L171.614 241.123C171.826 241.062 171.969 241.014 172.04 240.988Z" fill="#DD936F"/>
<path d="M168.229 243.326C168.363 243.303 168.49 243.394 168.512 243.527C168.534 243.661 168.444 243.787 168.31 243.809C165.737 244.237 163.675 244.331 162.158 244.228L161.997 244.216C161.899 244.208 161.811 244.2 161.734 244.192L161.559 244.171C161.552 244.169 161.545 244.168 161.54 244.168C161.406 244.147 161.314 244.021 161.335 243.888C161.356 243.754 161.482 243.662 161.616 243.683L161.723 243.697C161.799 243.706 161.904 243.717 162.036 243.727C163.528 243.846 165.604 243.763 168.229 243.326Z" fill="#DD936F"/>
<path fill-rule="evenodd" clip-rule="evenodd" d="M190.739 287.133C162.575 290.967 138.891 288.211 138.891 288.211C138.891 288.211 116.4 280.171 131.048 268.534C138.142 262.898 157.08 263.331 188.624 266.386C188.624 266.386 203.381 266.48 203.25 277.294C203.14 286.345 190.739 287.133 190.739 287.133Z" fill="#FFC999"/>
<path fill-rule="evenodd" clip-rule="evenodd" d="M171.49 289.337C175.257 277.577 170.761 264.515 170.761 264.515C162.169 264.16 151.661 263.266 121.509 264.976C111.583 280.043 131.44 290.52 131.44 290.52L171.49 289.337Z" fill="#CFD9EA"/>
<path d="M165.482 265.701C165.613 265.661 165.752 265.735 165.792 265.866L165.865 266.122L165.937 266.388C165.975 266.53 166.014 266.685 166.055 266.852C166.252 267.648 166.448 268.565 166.631 269.591C167.703 275.604 167.859 282.281 166.513 289.068C166.487 289.202 166.356 289.289 166.221 289.263C166.087 289.236 165.999 289.106 166.026 288.972C167.359 282.251 167.204 275.634 166.142 269.677C165.979 268.764 165.806 267.939 165.631 267.21L165.573 266.971C165.519 266.751 165.468 266.554 165.421 266.38L165.317 266.01C165.277 265.879 165.351 265.741 165.482 265.701Z" fill="#A3B5D6"/>
<path d="M127.189 262.35L170.773 264.268C170.872 264.273 170.959 264.336 170.994 264.429C173.752 271.784 173.917 279.33 172.545 286.178C172.386 286.971 172.217 287.688 172.047 288.324L171.983 288.558C171.916 288.801 171.853 289.013 171.797 289.194L171.725 289.417C171.696 289.503 171.623 289.565 171.536 289.581L171.497 289.585L131.447 290.768C131.31 290.772 131.196 290.665 131.192 290.528C131.188 290.405 131.275 290.3 131.392 290.277L131.432 290.273L171.308 289.095L171.391 288.821L171.504 288.426C171.693 287.746 171.882 286.96 172.058 286.081C173.392 279.425 173.255 272.1 170.659 264.954L170.586 264.756L127.167 262.845C127.043 262.839 126.945 262.745 126.931 262.626L126.93 262.586C126.935 262.463 127.03 262.365 127.148 262.351L127.189 262.35Z" fill="#A3B5D6"/>
<path fill-rule="evenodd" clip-rule="evenodd" d="M182.39 301.749C184.568 323.468 188.16 338.223 187.353 359.971C187.255 362.61 191.056 362.985 194.649 362.912C202.377 369.814 217.273 372.502 219.444 369.675C220.748 367.978 215.705 361.154 210.732 359.679C199.617 356.382 200.464 343.427 200.464 343.427C200.464 343.427 202.378 310.4 203.396 285.061C203.396 285.061 206.842 267.682 193.521 266.741C176.781 265.559 181.647 294.337 182.39 301.749Z" fill="#FFC999"/>
<path fill-rule="evenodd" clip-rule="evenodd" d="M225.795 369.713C225.795 369.713 224.171 373.122 215.566 372.817C206.96 372.512 202.911 368.816 198.392 368.223C189.946 367.116 186.289 365.042 186.289 365.042C186.289 365.042 185.877 366.32 186.622 368.027C187.77 370.659 195.657 369.649 200.364 371.737C203.768 373.248 206.423 374.091 212.078 375.302C217.733 376.515 224.807 374.76 225.596 372.851C226.386 370.943 225.795 369.713 225.795 369.713Z" fill="#A3B5D6"/>
<path fill-rule="evenodd" clip-rule="evenodd" d="M186.551 365.345C186.551 365.345 188.459 366.403 194.834 367.805C196.359 368.141 197.856 368.524 200.512 369.385C204.594 370.709 217.487 376.242 224.999 370.902C226.135 369.592 225.786 368.094 225.174 366.943C224.592 365.848 223.595 365.034 222.412 364.654C218.829 363.504 210.267 360.773 205.771 354.376C205.245 353.626 204.319 353.28 203.43 353.505C202.355 353.778 200.965 354.334 199.986 355.463C199.171 356.404 201.58 359.862 200.665 360.044C198.151 360.543 193.893 359.921 191.136 358.185C188.827 356.732 187.367 355.326 187.367 355.326C187.367 355.326 185.361 361.727 186.551 365.345Z" fill="#4E5C93"/>
<path d="M222.503 366.731C222.635 366.647 222.811 366.685 222.896 366.817C222.98 366.95 222.941 367.125 222.809 367.209L222.741 367.25C222.673 367.289 222.577 367.34 222.452 367.4C222.169 367.535 221.83 367.67 221.436 367.795C219.16 368.52 216.192 368.628 212.534 367.735C212.382 367.698 212.288 367.545 212.326 367.392C212.363 367.24 212.517 367.147 212.669 367.184C216.225 368.052 219.086 367.947 221.263 367.255C221.579 367.154 221.855 367.048 222.092 366.941L222.207 366.888C222.359 366.815 222.458 366.76 222.503 366.731Z" fill="#A3B5D6"/>
<path d="M207.865 357.197C208.016 357.153 208.174 357.241 208.217 357.391C208.26 357.542 208.173 357.699 208.022 357.742L207.904 357.78L207.859 357.795C207.723 357.843 207.571 357.901 207.407 357.972C206.938 358.173 206.469 358.429 206.033 358.742C205.518 359.112 205.084 359.538 204.755 360.023C204.667 360.152 204.49 360.186 204.36 360.099C204.23 360.011 204.196 359.834 204.284 359.705C204.653 359.161 205.134 358.688 205.7 358.282C206.173 357.942 206.677 357.667 207.182 357.45C207.315 357.393 207.44 357.343 207.557 357.3L207.672 357.259C207.762 357.228 207.828 357.207 207.865 357.197Z" fill="#A3B5D6"/>
<path d="M118.864 197.494L118.904 197.499C119.025 197.526 119.105 197.636 119.098 197.755L119.093 197.795L115.715 212.909C115.688 213.032 115.574 213.112 115.452 213.102L115.411 213.095L98.3534 208.75C98.2206 208.716 98.1404 208.581 98.1743 208.449C98.2048 208.33 98.3174 208.253 98.4364 208.263L98.4763 208.27L115.286 212.552L118.608 197.687C118.635 197.567 118.745 197.487 118.864 197.494Z" fill="#253368"/>
<path fill-rule="evenodd" clip-rule="evenodd" d="M45.7139 162.673L57.0478 127.48C56.3008 127.145 55.7053 126.489 55.4769 125.636C55.0739 124.132 55.9664 122.587 57.4704 122.184C58.9743 121.781 60.5202 122.673 60.9232 124.177C61.1942 125.189 60.8792 126.219 60.1863 126.908L83.6865 156.34C83.9644 156.133 84.2854 155.974 84.6404 155.879C86.1444 155.476 87.6902 156.368 88.0932 157.872C88.4962 159.376 87.6037 160.922 86.0997 161.325C84.6505 161.713 83.1623 160.899 82.6954 159.493L47.9501 165.23C48.0473 166.553 47.1959 167.801 45.8674 168.157C44.3634 168.56 42.8176 167.667 42.4146 166.163C42.0116 164.659 42.9041 163.113 44.408 162.71C44.8497 162.592 45.295 162.585 45.7139 162.673ZM58.9297 127.63C59.0375 127.601 59.1421 127.566 59.2434 127.526L68.8515 146.355C67.8717 147.007 67.369 148.233 67.6904 149.433C67.7604 149.694 67.8649 149.937 67.9976 150.157L47.3222 163.65C47.0315 163.295 46.6589 163.017 46.2412 162.839L57.5719 127.656C58.0058 127.755 58.4697 127.753 58.9297 127.63ZM68.3286 150.601L47.628 164.111C47.7229 164.29 47.7999 164.482 47.8558 164.685L82.5725 158.953C82.5062 158.43 82.5898 157.914 82.7946 157.455L72.5088 150.59C72.1565 150.982 71.6903 151.28 71.1432 151.426C70.0899 151.708 69.016 151.355 68.3286 150.601ZM72.8367 150.144L83.0687 156.973C83.1329 156.883 83.2024 156.796 83.277 156.713L59.7578 127.257C59.7501 127.262 59.7424 127.267 59.7346 127.272L69.3398 146.096C69.4505 146.051 69.5653 146.012 69.6839 145.98C71.1879 145.577 72.7337 146.469 73.1367 147.973C73.3416 148.738 73.2116 149.513 72.8367 150.144Z" fill="#B0BFC9"/>
</svg>
