<svg width="24" height="38" viewBox="0 0 24 38" fill="none" xmlns="http://www.w3.org/2000/svg">
<g clip-path="url(#clip0_9_4291)">
<path d="M15.0007 2.1239H23.0403C23.5698 2.1239 24.0001 2.54235 24.0001 3.0573V35.2119C24.0001 35.7268 23.5698 36.1453 23.0403 36.1453H15.0007V2.1239Z" fill="#7289E4"/>
<path d="M15.2681 0.0161182L0.4326 5.03594C0.178312 5.09475 0 5.30962 0 5.55692V32.4436C0 32.6909 0.178312 32.9058 0.4326 32.9646L15.2681 37.9844C15.6255 38.0674 15.9713 37.811 15.9713 37.4635V0.5371C15.9713 0.189527 15.6255 -0.0668166 15.2681 0.0161182ZM12.6912 20.6164C12.0089 20.6164 11.4554 19.8926 11.4554 18.9999C11.4554 18.1072 12.0081 17.3834 12.6912 17.3834C13.3742 17.3834 13.9269 18.1072 13.9269 18.9999C13.9269 19.8926 13.3734 20.6164 12.6912 20.6164Z" fill="#202A79"/>
<path d="M12.7384 20.6161C13.447 20.6161 14.0215 19.8923 14.0215 18.9996C14.0215 18.1068 13.447 17.3831 12.7384 17.3831C12.0298 17.3831 11.4553 18.1068 11.4553 18.9996C11.4553 19.8923 12.0298 20.6161 12.7384 20.6161Z" fill="#7289E4"/>
</g>
<defs>
<clipPath id="clip0_9_4291">
<rect width="24" height="38" fill="white"/>
</clipPath>
</defs>
</svg>
