<svg width="230" height="235" viewBox="0 0 230 235" fill="none" xmlns="http://www.w3.org/2000/svg">
<path fill-rule="evenodd" clip-rule="evenodd" d="M90.0443 37.97C118.07 28.083 149.528 12.9975 174.353 29.293C199.938 46.0873 201.362 81.2392 202.486 111.778C203.61 142.293 204.79 177.467 180.494 196.049C156.948 214.056 124.741 200.402 95.9628 193.245C70.2479 186.85 42.2746 181.233 28.9739 158.367C15.1753 134.645 17.7621 104.635 30.1798 80.1545C41.7851 57.2751 65.8131 46.5183 90.0443 37.97Z" fill="#ECFDF5"/>
<ellipse rx="33.9152" ry="5.51228" transform="matrix(1 0 0 -1 119.732 152.219)" fill="#E0EFE3"/>
<path fill-rule="evenodd" clip-rule="evenodd" d="M119.34 57.1943C92.6931 57.1943 71.0918 78.7611 71.0918 105.365C71.0918 131.969 92.6931 153.536 119.34 153.536C145.986 153.536 167.588 131.969 167.588 105.365C167.588 78.7611 145.986 57.1943 119.34 57.1943Z" fill="#3AA537"/>
<g filter="url(#filter0_d_677_20621)">
<path fill-rule="evenodd" clip-rule="evenodd" d="M113.458 122.483C112.774 122.501 112.083 122.25 111.56 121.728L99.4309 109.618C98.4215 108.61 98.4215 106.976 99.4309 105.969L100.649 104.752C101.659 103.744 103.295 103.744 104.305 104.752L113.382 113.814L138.037 89.1089C139.046 88.1011 140.683 88.1011 141.692 89.1089L142.911 90.3253C143.92 91.3331 143.92 92.9671 142.911 93.9749L118.258 118.683L118.262 118.687L116.492 120.454L115.221 121.728C114.733 122.215 114.098 122.467 113.458 122.483Z" fill="white"/>
</g>
<path opacity="0.163388" fill-rule="evenodd" clip-rule="evenodd" d="M178.364 128.072H164.543C162.812 128.072 161.395 126.657 161.395 124.927V111.124C161.395 109.395 162.812 107.979 164.543 107.979H178.364C180.095 107.979 181.512 109.395 181.512 111.124V124.927C181.512 126.657 180.095 128.072 178.364 128.072Z" fill="#3AA537"/>
<path fill-rule="evenodd" clip-rule="evenodd" d="M53.6161 116.119H47.4853C46.7124 116.119 46.0801 115.446 46.0801 114.624V108.023C46.0801 107.201 46.7124 106.528 47.4853 106.528H53.6161C54.389 106.528 55.0214 107.201 55.0214 108.023V114.624C55.0214 115.446 54.389 116.119 53.6161 116.119Z" fill="#9FC69E"/>
<path fill-rule="evenodd" clip-rule="evenodd" d="M178.45 154.117C177.677 154.117 177.045 153.491 177.045 152.725V146.58C177.045 145.814 177.677 145.188 178.45 145.188H184.581C185.354 145.188 185.986 145.814 185.986 146.58V152.725C185.986 153.491 185.354 154.117 184.581 154.117H178.45Z" fill="#9FC69E"/>
<path opacity="0.49707" fill-rule="evenodd" clip-rule="evenodd" d="M42.2939 87.2367C40.2245 87.2367 38.5312 85.5462 38.5312 83.4801V66.9925C38.5312 64.9263 40.2245 63.2358 42.2939 63.2358H58.8079C60.8774 63.2358 62.5706 64.9263 62.5706 66.9925V83.4801C62.5706 85.5462 60.8774 87.2367 58.8079 87.2367H42.2939Z" fill="#3AA537"/>
<path fill-rule="evenodd" clip-rule="evenodd" d="M167.119 154.711C167.622 155.004 167.622 155.729 167.119 156.022L165.253 157.107C165.191 157.143 165.148 157.202 165.133 157.272L164.675 159.379C164.552 159.947 163.861 160.171 163.427 159.784L161.817 158.347C161.764 158.3 161.693 158.277 161.622 158.284L159.473 158.502C158.894 158.56 158.467 157.973 158.702 157.441L159.573 155.468C159.602 155.403 159.602 155.329 159.573 155.264L158.702 153.291C158.467 152.759 158.894 152.172 159.473 152.231L161.622 152.448C161.693 152.455 161.764 152.432 161.817 152.385L163.427 150.948C163.861 150.561 164.552 150.785 164.675 151.353L165.133 153.461C165.148 153.53 165.191 153.59 165.253 153.626L167.119 154.711ZM166.864 155.585C167.032 155.487 167.032 155.245 166.864 155.148L164.998 154.063C164.813 153.955 164.683 153.776 164.638 153.568L164.181 151.46C164.139 151.271 163.909 151.196 163.764 151.325L162.154 152.762C161.995 152.904 161.783 152.972 161.571 152.951L159.422 152.734C159.229 152.714 159.087 152.91 159.165 153.087L160.036 155.06C160.122 155.255 160.122 155.477 160.036 155.672L159.165 157.645C159.087 157.823 159.229 158.018 159.422 157.999L161.571 157.781C161.783 157.76 161.995 157.829 162.154 157.97L163.764 159.407C163.909 159.536 164.139 159.462 164.181 159.272L164.638 157.165C164.683 156.957 164.813 156.777 164.998 156.67L166.864 155.585Z" fill="#292F5B" fill-opacity="0.51"/>
<path opacity="0.796364" fill-rule="evenodd" clip-rule="evenodd" d="M208.242 39.3633C207.684 39.5276 207.156 39.0296 207.288 38.4637L208.37 33.834C208.386 33.7649 208.372 33.6922 208.332 33.6336L205.64 29.7125C205.311 29.2331 205.622 28.5775 206.202 28.5282L210.946 28.1248C211.017 28.1188 211.082 28.0833 211.125 28.0271L214.029 24.259C214.384 23.7983 215.104 23.8912 215.33 24.4266L217.181 28.807C217.208 28.8724 217.262 28.9232 217.329 28.9469L221.816 30.5393C222.364 30.734 222.499 31.4469 222.058 31.8272L218.458 34.9378C218.404 34.9842 218.372 35.0511 218.37 35.122L218.24 39.8743C218.224 40.4552 217.586 40.803 217.088 40.5026L213.012 38.0446C212.951 38.008 212.878 37.9985 212.809 38.0186L208.242 39.3633ZM207.781 38.5785C207.737 38.7672 207.913 38.9332 208.099 38.8784L212.666 37.5337C212.871 37.4735 213.091 37.5019 213.274 37.6119L217.35 40.0698C217.516 40.17 217.728 40.0541 217.734 39.8604L217.864 35.1082C217.87 34.8954 217.965 34.6948 218.126 34.5555L221.727 31.4449C221.874 31.3182 221.829 31.0805 221.646 31.0156L217.16 29.4233C216.959 29.3519 216.797 29.1996 216.714 29.0034L214.864 24.6231C214.788 24.4446 214.548 24.4136 214.43 24.5672L211.527 28.3353C211.397 28.504 211.202 28.6104 210.989 28.6285L206.245 29.0319C206.051 29.0483 205.948 29.2669 206.057 29.4266L208.75 33.3478C208.87 33.5234 208.911 33.7415 208.863 33.9488L207.781 38.5785Z" fill="#292F5B" fill-opacity="0.51"/>
<path opacity="0.73011" fill-rule="evenodd" clip-rule="evenodd" d="M46.4599 26.0213C46.3217 26.5858 45.6249 26.7916 45.2013 26.393L42.7092 24.0482C42.6575 23.9995 42.5876 23.9748 42.5168 23.98L39.1019 24.234C38.5214 24.2772 38.11 23.6792 38.3588 23.1538L39.8224 20.0629C39.8528 19.9987 39.8547 19.9248 39.8278 19.8591L38.5306 16.695C38.3101 16.1571 38.7527 15.5817 39.33 15.6556L42.7266 16.0902C42.7971 16.0992 42.8682 16.0782 42.9224 16.0324L45.5356 13.8228C45.9798 13.4473 46.6647 13.6897 46.7727 14.2607L47.4084 17.6202C47.4216 17.69 47.4635 17.7509 47.5239 17.7883L50.4362 19.5868C50.9312 19.8926 50.9119 20.6178 50.4014 20.8968L47.3976 22.5385C47.3353 22.5726 47.2901 22.6313 47.2733 22.7002L46.4599 26.0213ZM45.5485 26.0251C45.6897 26.158 45.922 26.0894 45.9681 25.9012L46.7814 22.5802C46.8321 22.3734 46.9674 22.1973 47.1545 22.0951L50.1582 20.4534C50.3284 20.3604 50.3349 20.1187 50.1698 20.0167L47.2576 18.2182C47.0763 18.1062 46.9504 17.9233 46.9108 17.7141L46.2752 14.3546C46.2392 14.1642 46.0109 14.0834 45.8628 14.2086L43.2496 16.4181C43.0869 16.5557 42.8738 16.6187 42.6623 16.5916L39.2657 16.157C39.0732 16.1324 38.9257 16.3242 38.9992 16.5035L40.2964 19.6676C40.3772 19.8646 40.3713 20.0865 40.2801 20.2789L38.8166 23.3698C38.7336 23.545 38.8707 23.7443 39.0642 23.7299L42.4792 23.4759C42.6918 23.4601 42.9013 23.5343 43.0565 23.6803L45.5485 26.0251Z" fill="#292F5B" fill-opacity="0.51"/>
<path opacity="0.902331" d="M107.385 202.236C107.094 202.491 106.634 202.338 106.556 201.959L105.589 197.304C105.56 197.165 105.474 197.044 105.352 196.972L101.259 194.543C100.925 194.345 100.929 193.861 101.266 193.669L105.402 191.313C105.525 191.242 105.614 191.123 105.645 190.985L106.694 186.348C106.779 185.97 107.241 185.824 107.528 186.085L111.051 189.284C111.156 189.379 111.297 189.426 111.438 189.413L116.18 188.976C116.566 188.941 116.847 189.334 116.688 189.687L114.729 194.021C114.671 194.15 114.669 194.298 114.725 194.428L116.607 198.796C116.76 199.151 116.472 199.54 116.087 199.498L111.354 198.977C111.212 198.962 111.071 199.006 110.964 199.1L107.385 202.236Z" fill="#292F5B" fill-opacity="0.51"/>
<path opacity="0.370759" d="M150.382 4.85295C150.752 4.96973 150.859 5.44159 150.574 5.7053L148.499 7.631C148.394 7.7276 148.336 7.86346 148.337 8.00538L148.36 10.8344C148.363 11.2219 147.946 11.4686 147.607 11.2802L145.131 9.90406C145.007 9.83503 144.859 9.8213 144.725 9.86624L142.037 10.762C141.669 10.8847 141.305 10.5653 141.379 10.1851L141.925 7.40895C141.953 7.26968 141.92 7.12534 141.836 7.01119L140.152 4.73574C139.921 4.42414 140.113 3.98 140.498 3.93349L143.311 3.59382C143.452 3.57678 143.58 3.5013 143.663 3.38581L145.31 1.08376C145.535 0.768506 146.018 0.813375 146.181 1.16481L147.374 3.73106C147.434 3.85979 147.545 3.95748 147.681 4.00026L150.382 4.85295Z" fill="#292F5B" fill-opacity="0.51"/>
<path opacity="0.806242" d="M97.1009 34.4783C96.7655 34.2833 96.7655 33.7997 97.1008 33.6046L101.215 31.2118C101.338 31.1404 101.425 31.0207 101.455 30.882L102.463 26.2356C102.545 25.857 103.006 25.7075 103.295 25.9656L106.846 29.1331C106.952 29.2277 107.093 29.2734 107.234 29.2591L111.972 28.78C112.358 28.741 112.643 29.1323 112.486 29.4868L110.566 33.8372C110.509 33.9671 110.509 34.115 110.566 34.2449L112.486 38.5952C112.643 38.9497 112.358 39.341 111.972 39.302L107.235 38.8233C107.093 38.809 106.952 38.8547 106.846 38.9493L103.296 42.1169C103.006 42.3751 102.546 42.2256 102.463 41.847L101.456 37.2007C101.425 37.062 101.338 36.9423 101.216 36.8709L97.1009 34.4783Z" fill="#292F5B" fill-opacity="0.51"/>
<path opacity="0.547916" d="M208.293 124.33C208.245 123.945 208.631 123.652 208.989 123.8L213.388 125.621C213.52 125.675 213.668 125.672 213.796 125.612L218.11 123.599C218.462 123.435 218.86 123.71 218.829 124.097L218.455 128.836C218.443 128.977 218.492 129.117 218.589 129.221L221.84 132.695C222.105 132.978 221.965 133.441 221.588 133.531L216.958 134.64C216.819 134.673 216.701 134.763 216.633 134.887L214.328 139.047C214.14 139.386 213.656 139.397 213.453 139.066L210.966 135.012C210.892 134.891 210.77 134.807 210.63 134.78L205.955 133.877C205.574 133.803 205.415 133.347 205.667 133.052L208.76 129.438C208.852 129.33 208.895 129.188 208.877 129.048L208.293 124.33Z" fill="#292F5B" fill-opacity="0.51"/>
<path opacity="0.392959" d="M8.30929 127.461C7.95949 127.293 7.92094 126.811 8.23966 126.59L12.1505 123.878C12.2672 123.797 12.3445 123.671 12.3634 123.53L12.9977 118.819C13.0494 118.435 13.4967 118.249 13.8057 118.483L17.5976 121.359C17.7108 121.445 17.855 121.479 17.9948 121.453L22.679 120.6C23.0608 120.53 23.3758 120.898 23.2481 121.263L21.6808 125.753C21.634 125.887 21.6458 126.034 21.7133 126.159L23.9741 130.343C24.1583 130.684 23.9057 131.097 23.5177 131.088L18.7571 130.987C18.615 130.984 18.4782 131.041 18.38 131.144L15.0931 134.583C14.8252 134.864 14.354 134.751 14.242 134.38L12.8671 129.829C12.826 129.693 12.7297 129.581 12.6015 129.519L8.30929 127.461Z" fill="#292F5B" fill-opacity="0.51"/>
<defs>
<filter id="filter0_d_677_20621" x="90.6738" y="84.353" width="60.9941" height="50.1309" filterUnits="userSpaceOnUse" color-interpolation-filters="sRGB">
<feFlood flood-opacity="0" result="BackgroundImageFix"/>
<feColorMatrix in="SourceAlpha" type="matrix" values="0 0 0 0 0 0 0 0 0 0 0 0 0 0 0 0 0 0 127 0" result="hardAlpha"/>
<feOffset dy="4"/>
<feGaussianBlur stdDeviation="4"/>
<feColorMatrix type="matrix" values="0 0 0 0 0 0 0 0 0 0 0 0 0 0 0 0 0 0 0.1 0"/>
<feBlend mode="normal" in2="BackgroundImageFix" result="effect1_dropShadow_677_20621"/>
<feBlend mode="normal" in="SourceGraphic" in2="effect1_dropShadow_677_20621" result="shape"/>
</filter>
</defs>
</svg>
